M48
; DRILL file {KiCad 5.1.6-c6e7f7d~86~ubuntu16.04.1} date Mon Jul  6 18:05:28 2020
; FORMAT={-:-/ absolute / inch / decimal}
; #@! TF.CreationDate,2020-07-06T18:05:28+05:00
; #@! TF.GenerationSoftware,Kicad,Pcbnew,5.1.6-c6e7f7d~86~ubuntu16.04.1
; #@! TF.FileFunction,Plated,1,2,PTH
FMAT,2
INCH
T1C0.0157
T2C0.0236
T3C0.0315
T4C0.0335
T5C0.0394
T6C0.0709
T7C0.0787
T8C0.1299
T9C0.1575
%
G90
G05
T1
X0.852Y-2.15
X0.8563Y-1.0748
X0.8587Y-2.3134
X0.876Y-0.874
X0.9031Y-3.4386
X0.9287Y-2.8898
X0.9539Y-2.3118
X0.9587Y-2.1476
X0.9626Y-2.0059
X0.9925Y-2.5689
X0.9976Y-3.0366
X1.0165Y-2.4177
X1.0217Y-3.3154
X1.0228Y-3.7724
X1.0258Y-4.0057
X1.0358Y-1.3307
X1.0622Y-2.4358
X1.0689Y-1.1417
X1.0898Y-4.2685
X1.1Y-3.4386
X1.1024Y-1.3307
X1.1118Y-1.4067
X1.1161Y-1.0669
X1.1197Y-3.285
X1.1248Y-2.763
X1.137Y-2.4634
X1.1406Y-2.8583
X1.1437Y-0.9665
X1.1457Y-0.8591
X1.1677Y-2.2882
X1.1772Y-1.9094
X1.198Y-3.6307
X1.2047Y-1.8661
X1.2075Y-3.3024
X1.2106Y-1.1024
X1.2453Y-4.0677
X1.2453Y-4.4959
X1.2555Y-3.1799
X1.2567Y-2.689
X1.263Y-4.3094
X1.2697Y-3.1201
X1.3024Y-3.8866
X1.3055Y-1.6177
X1.3626Y-2.8035
X1.374Y-1.9154
X1.4169Y-3.5035
X1.4299Y-1.7843
X1.4331Y-2.9016
X1.4374Y-3.1933
X1.4382Y-2.7055
X1.4394Y-2.5299
X1.4508Y-3.0197
X1.502Y-2.8898
X1.5079Y-2.4862
X1.5472Y-2.2244
X1.5591Y-2.4803
X1.5728Y-1.6614
X1.5945Y-0.8661
X1.6476Y-1.9173
X1.6516Y-2.8228
X1.6555Y-0.9315
X1.6831Y-1.4173
X1.685Y-1.2657
X1.6862Y-1.3394
X1.6953Y-3.986
X1.7008Y-1.7874
X1.7055Y-4.2854
X1.7063Y-4.0776
X1.7114Y-2.0173
X1.7244Y-0.8437
X1.7307Y-0.9339
X1.7575Y-1.4413
X1.7697Y-3.1665
X1.772Y-3.2402
X1.8012Y-2.3366
X1.8122Y-3.415
X1.8142Y-3.2783
X1.8169Y-0.9488
X1.8191Y-4.2925
X1.8303Y-3.8965
X1.8406Y-1.6437
X1.8543Y-1.1217
X1.8551Y-1.4476
X1.874Y-2.1134
X1.8752Y-2.1713
X1.8874Y-4.0406
X1.9076Y-3.4364
X1.926Y-3.8992
X1.9307Y-1.9224
X1.935Y-2.1122
X1.935Y-2.1693
X1.9488Y-2.4685
X1.9496Y-4.3964
X1.952Y-4.5598
X1.9583Y-1.7843
X1.9835Y-3.1063
X1.9894Y-1.4768
X1.9933Y-4.1307
X1.998Y-3.7165
X2.0038Y-3.4394
X2.0039Y-3.4941
X2.0181Y-3.9429
X2.0197Y-2.9528
X2.026Y-1.7453
X2.0315Y-0.9563
X2.0315Y-2.3307
X2.0354Y-3.7913
X2.0421Y-4.4874
X2.0461Y-4.3937
X2.0571Y-2.6358
X2.061Y-2.7441
X2.061Y-3.874
X2.0669Y-1.0335
X2.0709Y-3.4882
X2.0787Y-1.7441
X2.0787Y-2.0898
X2.0945Y-1.4791
X2.1024Y-2.3799
X2.1028Y-3.0925
X2.1122Y-3.7283
X2.1161Y-3.5591
X2.1319Y-1.8189
X2.1354Y-4.4548
X2.1413Y-4.0539
X2.1417Y-4.0146
X2.1476Y-2.5591
X2.1488Y-3.8472
X2.1516Y-1.6929
X2.1598Y-4.2972
X2.1614Y-2.0378
X2.1752Y-3.7913
X2.1895Y-1.9443
X2.1909Y-3.5295
X2.1988Y-2.4035
X2.2049Y-1.9994
X2.2142Y-2.0469
X2.2142Y-4.3035
X2.2169Y-2.8142
X2.2271Y-4.0879
X2.23Y-4.1272
X2.2312Y-4.1666
X2.2327Y-4.2059
X2.2343Y-2.1059
X2.2606Y-3.3035
X2.2654Y-2.9803
X2.2681Y-1.4799
X2.2685Y-2.1886
X2.2709Y-2.1382
X2.2953Y-1.6909
X2.3177Y-4.0244
X2.3193Y-2.7646
X2.3388Y-4.2833
X2.3476Y-4.4649
X2.3476Y-4.5549
X2.3562Y-2.3584
X2.3571Y-3.2307
X2.3638Y-1.4886
X2.3678Y-2.2954
X2.374Y-2.1909
X2.374Y-4.0748
X2.376Y-3.5177
X2.3796Y-3.7953
X2.3798Y-3.6988
X2.38Y-3.7496
X2.3937Y-2.3327
X2.3946Y-4.4867
X2.4055Y-2.2736
X2.4075Y-2.4114
X2.4106Y-4.0201
X2.4134Y-3.5689
X2.425Y-4.4352
X2.4437Y-1.985
X2.448Y-4.0835
X2.448Y-4.1268
X2.4488Y-3.3268
X2.4587Y-3.5197
X2.4606Y-1.7579
X2.4646Y-1.8642
X2.4663Y-2.2047
X2.4685Y-2.1654
X2.4969Y-2.765
X2.4996Y-2.6394
X2.5146Y-4.4319
X2.5209Y-2.3669
X2.5346Y-3.0933
X2.5354Y-2.0303
X2.5437Y-1.4764
X2.5472Y-3.8465
X2.5476Y-4.5049
X2.5575Y-3.9287
X2.562Y-2.3726
X2.5646Y-2.8169
X2.5665Y-3.2835
X2.5709Y-3.5236
X2.6122Y-2.4547
X2.6134Y-3.6307
X2.6134Y-4.1937
X2.6291Y-1.9126
X2.6291Y-3.9378
X2.6331Y-4.3551
X2.637Y-3.8748
X2.6402Y-2.078
X2.6417Y-2.4094
X2.6496Y-1.9862
X2.6654Y-1.7756
X2.6764Y-4.2921
X2.6791Y-1.8327
X2.6807Y-3.7535
X2.687Y-1.7382
X2.6917Y-4.5264
X2.6929Y-2.063
X2.6976Y-3.6933
X2.7028Y-1.9587
X2.7051Y-3.4232
X2.7079Y-3.8787
X2.7157Y-4.0126
X2.7157Y-4.237
X2.7205Y-3.6161
X2.7244Y-1.6831
X2.7244Y-2.1575
X2.7275Y-2.4627
X2.7287Y-2.5036
X2.741Y-2.1137
X2.7421Y-2.061
X2.7441Y-1.5
X2.7549Y-2.4166
X2.7736Y-2.7638
X2.7756Y-1.7815
X2.7756Y-2.2854
X2.7897Y-2.1528
X2.7902Y-1.7398
X2.8031Y-2.2264
X2.8142Y-3.7291
X2.8142Y-4.0205
X2.8386Y-1.437
X2.8661Y-1.7087
X2.876Y-1.3563
X2.878Y-2.7992
X2.8957Y-2.061
X2.8969Y-4.2449
X2.9075Y-4.0827
X2.9087Y-4.1386
X2.9094Y-1.252
X2.9114Y-2.8346
X2.9311Y-2.3346
X2.9323Y-3.0287
X2.9387Y-2.7815
X2.9461Y-3.2323
X2.9508Y-1.565
X2.9933Y-1.2858
X2.9941Y-1.2165
X2.9961Y-1.1516
X3.0079Y-1.0157
X3.0083Y-1.0673
X3.0098Y-3.4173
X3.0465Y-3.7252
X3.0531Y-1.1555
X3.0551Y-1.9803
X3.0591Y-2.5413
X3.078Y-2.5937
X3.0787Y-2.6811
X3.1201Y-3.4331
X3.1201Y-4.374
X3.1243Y-3.048
X3.126Y-3.3642
X3.1303Y-3.9469
X3.1319Y-2.2697
X3.1429Y-1.3724
X3.1437Y-3.0827
X3.1535Y-3.0157
X3.1732Y-1.8622
X3.1732Y-2.0059
X3.1803Y-4.4016
X3.185Y-1.7638
X3.1953Y-1.2303
X3.198Y-1.1768
X3.1988Y-1.4587
X3.2276Y-4.5149
X3.2283Y-3.3917
X3.2323Y-4.1902
X3.2346Y-3.863
X3.2472Y-3.7528
X3.252Y-1.9843
X3.2551Y-3.9929
X3.2618Y-3.6161
X3.2697Y-1.7776
X3.2713Y-2.8201
X3.2717Y-1.228
X3.2717Y-3.6614
X3.2736Y-1.178
X3.2776Y-4.2249
X3.3091Y-1.9843
X3.3169Y-3.0843
X3.3354Y-2.3811
X3.3394Y-1.3705
X3.3547Y-3.265
X3.3622Y-2.4724
X3.372Y-2.6811
X3.3957Y-3.4567
X3.3969Y-1.0874
X3.4031Y-1.9189
X3.4146Y-2.5063
X3.4276Y-1.8642
X3.4461Y-2.9614
X3.448Y-3.1933
X3.4508Y-1.4606
X3.461Y-2.5567
X3.4824Y-3.6276
X3.4835Y-4.4378
X3.4929Y-3.161
X3.5Y-3.2228
X3.502Y-0.9764
X3.5047Y-1.3697
X3.5276Y-2.1378
X3.5339Y-2.0866
X3.5413Y-1.9756
X3.5413Y-2.4114
X3.5433Y-2.2106
X3.5543Y-3.8787
X3.5803Y-2.4224
X3.589Y-1.9917
X3.6551Y-2.1815
X3.6555Y-1.9764
X3.6606Y-3.8768
X3.6869Y-4.4233
X3.6933Y-3.7217
X3.6949Y-2.9331
X3.7146Y-0.9331
X3.7224Y-2.2717
X3.7244Y-2.9941
X3.7252Y-1.4846
X3.7516Y-1.3429
X3.7539Y-2.3228
X3.7559Y-2.888
X3.7678Y-4.0632
X3.7748Y-4.2724
X3.7795Y-2.3561
X3.7815Y-3.0098
X3.8228Y-2.1142
X3.8496Y-1.5559
X3.8681Y-1.6122
X3.8693Y-2.7976
X3.8711Y-2.172
X3.8803Y-2.8488
X3.9039Y-3.9106
X3.9094Y-2.185
X3.9118Y-3.7079
X3.9193Y-1.6909
X3.9228Y-1.3681
X3.9248Y-4.0587
X3.9264Y-4.1362
X3.948Y-2.4244
X3.948Y-4.2807
X3.9579Y-3.552
X3.9698Y-4.3574
X3.9752Y-2.3783
X3.9902Y-1.9921
X3.9906Y-4.4776
X3.9913Y-2.8945
X3.9949Y-3.9126
X4.0102Y-4.0646
X4.0339Y-3.8071
X4.0535Y-2.5366
X4.0555Y-1.7992
X4.065Y-3.2972
X4.0661Y-1.8811
X4.0858Y-2.5004
X4.0878Y-3.4252
X4.0988Y-3.0764
X4.1173Y-3.4791
X4.1252Y-3.3945
X4.1587Y-2.8917
X4.1646Y-4.3866
X4.1654Y-2.1575
X4.1736Y-2.7657
X4.1772Y-2.8441
X4.1957Y-3.9476
X4.202Y-3.0146
X4.2146Y-2.1673
X4.2244Y-2.5394
X4.2323Y-2.6008
X4.2327Y-3.6484
X4.2386Y-2.1264
X4.239Y-4.6531
X4.2591Y-3.2894
X4.2661Y-2.278
X4.2676Y-2.1889
X4.2709Y-4.4358
X4.2756Y-1.7283
X4.315Y-1.9941
X4.3488Y-2.3472
X4.3543Y-1.7421
X4.3552Y-2.9758
X4.3795Y-3.9126
X4.3858Y-3.1311
X4.386Y-2.8524
X4.4076Y-4.3049
X4.4154Y-0.8728
X4.4272Y-2.4469
X4.4311Y-1.3685
X4.4528Y-2.1799
X4.4547Y-2.0339
X4.4591Y-2.1051
X4.4803Y-2.7559
X4.4862Y-2.9504
X4.4988Y-1.7839
X4.5268Y-3.1327
X4.5323Y-2.6909
X4.5531Y-2.5177
X4.5579Y-1.3626
X4.6067Y-3.6496
X4.6248Y-4.0839
X4.6331Y-2.4516
X4.6413Y-1.1063
X4.6441Y-1.8791
X4.6461Y-3.815
X4.6516Y-2.9055
X4.6576Y-1.4849
X4.6606Y-4.2965
T3
X1.4008Y-4.1709
X1.7539Y-3.0118
X1.7559Y-2.6161
X1.8976Y-2.3878
X2.0104Y-3.6558
X2.0276Y-2.1343
X2.0866Y-4.6201
X2.1339Y-3.6339
X2.2776Y-2.4331
X2.6417Y-2.6024
X2.7657Y-1.5669
X2.7677Y-2.9075
X2.8209Y-1.6161
X2.8346Y-3.128
X2.8543Y-4.6299
X2.874Y-2.2559
X2.9193Y-1.1417
X2.9547Y-2.4803
X2.9913Y-4.1937
X3.0413Y-2.8386
X3.1043Y-1.9173
X3.1063Y-3.185
X3.1961Y-2.1149
X3.1988Y-2.2835
X3.252Y-2.75
X3.2894Y-1.8878
X3.3228Y-2.9899
X3.3445Y-1.7657
X3.4598Y-1.1346
X3.635Y-4.298
X3.6567Y-1.1031
X3.6772Y-1.3898
X3.8299Y-4.6386
X3.8461Y-1.4228
X3.9213Y-3.3071
X3.9232Y-3.1555
X4.1248Y-1.711
X4.1661Y-2.6311
X4.2067Y-4.2142
X4.2146Y-2.9429
X4.439Y-2.3331
X0.8795Y-1.1854
X0.8795Y-1.2642
X0.8795Y-1.3429
X0.8795Y-1.4217
X0.8795Y-1.5004
X0.8795Y-1.5791
X0.8795Y-1.6579
X0.8795Y-1.7366
X0.8795Y-1.8154
X0.8795Y-1.8941
X0.9583Y-1.1854
X0.9583Y-1.2642
X0.9583Y-1.3429
X0.9583Y-1.4217
X0.9583Y-1.5004
X0.9583Y-1.5791
X0.9583Y-1.6579
X0.9583Y-1.7366
X0.9583Y-1.8154
X0.9583Y-1.8941
T4
X4.5287Y-2.1322
X4.5287Y-2.329
T5
X4.3874Y-4.0027
X4.3874Y-4.1027
X4.3874Y-4.2027
X1.4744Y-4.011
X1.5433Y-4.5169
X1.5776Y-3.635
X1.5776Y-3.735
X1.5776Y-3.835
X1.5776Y-3.935
X1.5776Y-4.087
X1.5776Y-4.187
X1.5776Y-4.287
X1.5776Y-4.387
X1.6594Y-3.735
X1.6594Y-4.187
X3.1319Y-0.9114
X3.2319Y-0.9114
X3.3319Y-0.9114
T6
X0.9724Y-3.5839
X0.9724Y-4.5169
T7
X0.8898Y-4.2512
X1.3386Y-3.7118
T8
X4.5374Y-3.9527
X4.5374Y-4.2527
T9
X0.9843Y-0.9843
X4.5276Y-0.9843
X4.5276Y-4.5276
T2
G00X4.6213Y-2.0928
M15
G01X4.6488Y-2.0928
M16
G05
G00X4.6488Y-2.3684
M15
G01X4.6213Y-2.3684
M16
G05
T0
M30
