G04 #@! TF.GenerationSoftware,KiCad,Pcbnew,5.1.6-c6e7f7d~86~ubuntu16.04.1*
G04 #@! TF.CreationDate,2020-07-06T18:05:24+05:00*
G04 #@! TF.ProjectId,usb2most,75736232-6d6f-4737-942e-6b696361645f,rev?*
G04 #@! TF.SameCoordinates,Original*
G04 #@! TF.FileFunction,Legend,Top*
G04 #@! TF.FilePolarity,Positive*
%FSLAX46Y46*%
G04 Gerber Fmt 4.6, Leading zero omitted, Abs format (unit mm)*
G04 Created by KiCad (PCBNEW 5.1.6-c6e7f7d~86~ubuntu16.04.1) date 2020-07-06 18:05:24*
%MOMM*%
%LPD*%
G01*
G04 APERTURE LIST*
%ADD10C,0.300000*%
%ADD11C,0.120000*%
%ADD12C,0.150000*%
G04 APERTURE END LIST*
D10*
X104340000Y-95088571D02*
X104340000Y-96088571D01*
X103697142Y-95088571D02*
X103697142Y-95874285D01*
X103768571Y-96017142D01*
X103911428Y-96088571D01*
X104125714Y-96088571D01*
X104268571Y-96017142D01*
X104340000Y-95945714D01*
X104982857Y-96017142D02*
X105125714Y-96088571D01*
X105411428Y-96088571D01*
X105554285Y-96017142D01*
X105625714Y-95874285D01*
X105625714Y-95802857D01*
X105554285Y-95660000D01*
X105411428Y-95588571D01*
X105197142Y-95588571D01*
X105054285Y-95517142D01*
X104982857Y-95374285D01*
X104982857Y-95302857D01*
X105054285Y-95160000D01*
X105197142Y-95088571D01*
X105411428Y-95088571D01*
X105554285Y-95160000D01*
X106268571Y-96088571D02*
X106268571Y-94588571D01*
X106268571Y-95160000D02*
X106411428Y-95088571D01*
X106697142Y-95088571D01*
X106840000Y-95160000D01*
X106911428Y-95231428D01*
X106982857Y-95374285D01*
X106982857Y-95802857D01*
X106911428Y-95945714D01*
X106840000Y-96017142D01*
X106697142Y-96088571D01*
X106411428Y-96088571D01*
X106268571Y-96017142D01*
X107554285Y-94731428D02*
X107625714Y-94660000D01*
X107768571Y-94588571D01*
X108125714Y-94588571D01*
X108268571Y-94660000D01*
X108340000Y-94731428D01*
X108411428Y-94874285D01*
X108411428Y-95017142D01*
X108340000Y-95231428D01*
X107482857Y-96088571D01*
X108411428Y-96088571D01*
X109054285Y-96088571D02*
X109054285Y-95088571D01*
X109054285Y-95231428D02*
X109125714Y-95160000D01*
X109268571Y-95088571D01*
X109482857Y-95088571D01*
X109625714Y-95160000D01*
X109697142Y-95302857D01*
X109697142Y-96088571D01*
X109697142Y-95302857D02*
X109768571Y-95160000D01*
X109911428Y-95088571D01*
X110125714Y-95088571D01*
X110268571Y-95160000D01*
X110340000Y-95302857D01*
X110340000Y-96088571D01*
X111268571Y-96088571D02*
X111125714Y-96017142D01*
X111054285Y-95945714D01*
X110982857Y-95802857D01*
X110982857Y-95374285D01*
X111054285Y-95231428D01*
X111125714Y-95160000D01*
X111268571Y-95088571D01*
X111482857Y-95088571D01*
X111625714Y-95160000D01*
X111697142Y-95231428D01*
X111768571Y-95374285D01*
X111768571Y-95802857D01*
X111697142Y-95945714D01*
X111625714Y-96017142D01*
X111482857Y-96088571D01*
X111268571Y-96088571D01*
X112340000Y-96017142D02*
X112482857Y-96088571D01*
X112768571Y-96088571D01*
X112911428Y-96017142D01*
X112982857Y-95874285D01*
X112982857Y-95802857D01*
X112911428Y-95660000D01*
X112768571Y-95588571D01*
X112554285Y-95588571D01*
X112411428Y-95517142D01*
X112340000Y-95374285D01*
X112340000Y-95302857D01*
X112411428Y-95160000D01*
X112554285Y-95088571D01*
X112768571Y-95088571D01*
X112911428Y-95160000D01*
X113411428Y-95088571D02*
X113982857Y-95088571D01*
X113625714Y-94588571D02*
X113625714Y-95874285D01*
X113697142Y-96017142D01*
X113840000Y-96088571D01*
X113982857Y-96088571D01*
X115482857Y-95088571D02*
X115840000Y-96088571D01*
X116197142Y-95088571D01*
X116625714Y-94588571D02*
X117554285Y-94588571D01*
X117054285Y-95160000D01*
X117268571Y-95160000D01*
X117411428Y-95231428D01*
X117482857Y-95302857D01*
X117554285Y-95445714D01*
X117554285Y-95802857D01*
X117482857Y-95945714D01*
X117411428Y-96017142D01*
X117268571Y-96088571D01*
X116840000Y-96088571D01*
X116697142Y-96017142D01*
X116625714Y-95945714D01*
D11*
X101860000Y-63110000D02*
X102560000Y-63110000D01*
X102560000Y-63110000D02*
X102560000Y-62410000D01*
X89040000Y-63110000D02*
X88340000Y-63110000D01*
X88340000Y-63110000D02*
X88340000Y-62410000D01*
X101860000Y-48890000D02*
X102560000Y-48890000D01*
X102560000Y-48890000D02*
X102560000Y-49590000D01*
X89040000Y-48890000D02*
X88340000Y-48890000D01*
X88340000Y-48890000D02*
X88340000Y-49590000D01*
X88340000Y-49590000D02*
X86975000Y-49590000D01*
X108940000Y-47952064D02*
X108940000Y-46747936D01*
X110760000Y-47952064D02*
X110760000Y-46747936D01*
X68910436Y-28690000D02*
X70114564Y-28690000D01*
X68910436Y-30510000D02*
X70114564Y-30510000D01*
X47060000Y-32797936D02*
X47060000Y-34002064D01*
X45240000Y-32797936D02*
X45240000Y-34002064D01*
X58666500Y-50099000D02*
X61351500Y-50099000D01*
X61351500Y-50099000D02*
X61351500Y-48179000D01*
X61351500Y-48179000D02*
X58666500Y-48179000D01*
X55960000Y-36200000D02*
X55960000Y-33515000D01*
X55960000Y-33515000D02*
X54040000Y-33515000D01*
X54040000Y-33515000D02*
X54040000Y-36200000D01*
X44291422Y-53040000D02*
X44808578Y-53040000D01*
X44291422Y-54460000D02*
X44808578Y-54460000D01*
X60050000Y-78230000D02*
X58100000Y-78230000D01*
X60050000Y-78230000D02*
X62000000Y-78230000D01*
X60050000Y-83350000D02*
X58100000Y-83350000D01*
X60050000Y-83350000D02*
X63500000Y-83350000D01*
X52791422Y-79480000D02*
X53308578Y-79480000D01*
X52791422Y-80900000D02*
X53308578Y-80900000D01*
X52791422Y-75980000D02*
X53308578Y-75980000D01*
X52791422Y-77400000D02*
X53308578Y-77400000D01*
X53301078Y-83760000D02*
X52783922Y-83760000D01*
X53301078Y-82340000D02*
X52783922Y-82340000D01*
X65460000Y-81158578D02*
X65460000Y-80641422D01*
X66880000Y-81158578D02*
X66880000Y-80641422D01*
X68670000Y-81552064D02*
X68670000Y-80347936D01*
X70490000Y-81552064D02*
X70490000Y-80347936D01*
X60438578Y-76650000D02*
X59921422Y-76650000D01*
X60438578Y-75230000D02*
X59921422Y-75230000D01*
X43900000Y-89980000D02*
X21100000Y-89980000D01*
X43900000Y-115780000D02*
X21100000Y-115780000D01*
X21100000Y-115780000D02*
X21100000Y-89980000D01*
X43900000Y-89980000D02*
X43900000Y-115780000D01*
X80232064Y-27550000D02*
X79027936Y-27550000D01*
X80232064Y-25730000D02*
X79027936Y-25730000D01*
X110892064Y-41700000D02*
X109687936Y-41700000D01*
X110892064Y-39880000D02*
X109687936Y-39880000D01*
X110812064Y-38130000D02*
X109607936Y-38130000D01*
X110812064Y-36310000D02*
X109607936Y-36310000D01*
X116183000Y-67262064D02*
X116183000Y-66057936D01*
X118003000Y-67262064D02*
X118003000Y-66057936D01*
X102267000Y-104083000D02*
X102267000Y-102133000D01*
X102267000Y-104083000D02*
X102267000Y-106033000D01*
X97147000Y-104083000D02*
X97147000Y-102133000D01*
X97147000Y-104083000D02*
X97147000Y-107533000D01*
X82138000Y-28614000D02*
X80188000Y-28614000D01*
X82138000Y-28614000D02*
X84088000Y-28614000D01*
X82138000Y-33734000D02*
X80188000Y-33734000D01*
X82138000Y-33734000D02*
X85588000Y-33734000D01*
X51090000Y-29690000D02*
X51090000Y-31490000D01*
X54310000Y-31490000D02*
X54310000Y-28540000D01*
X63023000Y-46507000D02*
X66473000Y-46507000D01*
X63023000Y-46507000D02*
X61073000Y-46507000D01*
X63023000Y-41387000D02*
X64973000Y-41387000D01*
X63023000Y-41387000D02*
X61073000Y-41387000D01*
X102127936Y-70200000D02*
X103332064Y-70200000D01*
X102127936Y-72020000D02*
X103332064Y-72020000D01*
X82390000Y-52958578D02*
X82390000Y-52441422D01*
X83810000Y-52958578D02*
X83810000Y-52441422D01*
X48750000Y-42490000D02*
X48750000Y-40480000D01*
X48750000Y-40480000D02*
X48395000Y-40480000D01*
X48750000Y-42490000D02*
X48750000Y-44500000D01*
X48750000Y-44500000D02*
X48395000Y-44500000D01*
X44430000Y-42490000D02*
X44430000Y-40480000D01*
X44430000Y-40480000D02*
X44785000Y-40480000D01*
X44430000Y-42490000D02*
X44430000Y-44500000D01*
X44430000Y-44500000D02*
X44785000Y-44500000D01*
X44785000Y-44500000D02*
X44785000Y-45965000D01*
X42080000Y-42580000D02*
X42080000Y-40570000D01*
X42080000Y-40570000D02*
X41725000Y-40570000D01*
X42080000Y-42580000D02*
X42080000Y-44590000D01*
X42080000Y-44590000D02*
X41725000Y-44590000D01*
X37760000Y-42580000D02*
X37760000Y-40570000D01*
X37760000Y-40570000D02*
X38115000Y-40570000D01*
X37760000Y-42580000D02*
X37760000Y-44590000D01*
X37760000Y-44590000D02*
X38115000Y-44590000D01*
X38115000Y-44590000D02*
X38115000Y-46055000D01*
X35070000Y-42460000D02*
X35070000Y-40450000D01*
X35070000Y-40450000D02*
X34715000Y-40450000D01*
X35070000Y-42460000D02*
X35070000Y-44470000D01*
X35070000Y-44470000D02*
X34715000Y-44470000D01*
X30750000Y-42460000D02*
X30750000Y-40450000D01*
X30750000Y-40450000D02*
X31105000Y-40450000D01*
X30750000Y-42460000D02*
X30750000Y-44470000D01*
X30750000Y-44470000D02*
X31105000Y-44470000D01*
X31105000Y-44470000D02*
X31105000Y-45935000D01*
X46381422Y-48120000D02*
X46898578Y-48120000D01*
X46381422Y-49540000D02*
X46898578Y-49540000D01*
X39538922Y-48330000D02*
X40056078Y-48330000D01*
X39538922Y-49750000D02*
X40056078Y-49750000D01*
X32468922Y-48340000D02*
X32986078Y-48340000D01*
X32468922Y-49760000D02*
X32986078Y-49760000D01*
X115338578Y-41530000D02*
X114821422Y-41530000D01*
X115338578Y-40110000D02*
X114821422Y-40110000D01*
X108440000Y-98209000D02*
X121440000Y-98209000D01*
X108440000Y-110209000D02*
X121440000Y-110209000D01*
X121440000Y-110209000D02*
X121440000Y-98209000D01*
X108440000Y-98209000D02*
X108440000Y-110209000D01*
X107350000Y-102833922D02*
X107350000Y-103351078D01*
X105930000Y-102833922D02*
X105930000Y-103351078D01*
D12*
X116530000Y-82775000D02*
X116530000Y-78325000D01*
X109630000Y-84300000D02*
X109630000Y-78325000D01*
D11*
X107370000Y-81371078D02*
X107370000Y-80853922D01*
X108790000Y-81371078D02*
X108790000Y-80853922D01*
X104120000Y-82752064D02*
X104120000Y-81547936D01*
X105940000Y-82752064D02*
X105940000Y-81547936D01*
X116580000Y-89248922D02*
X116580000Y-89766078D01*
X115160000Y-89248922D02*
X115160000Y-89766078D01*
X106810000Y-89658578D02*
X106810000Y-89141422D01*
X108230000Y-89658578D02*
X108230000Y-89141422D01*
X108570000Y-24540000D02*
X108570000Y-25190000D01*
X108570000Y-28240000D02*
X108570000Y-27590000D01*
X102370000Y-27590000D02*
X102370000Y-28240000D01*
X102370000Y-24540000D02*
X102370000Y-25190000D01*
X108570000Y-24540000D02*
X102370000Y-24540000D01*
X102370000Y-28240000D02*
X108570000Y-28240000D01*
X108300000Y-30210000D02*
X108300000Y-30860000D01*
X108300000Y-33910000D02*
X108300000Y-33260000D01*
X102100000Y-33260000D02*
X102100000Y-33910000D01*
X102100000Y-30210000D02*
X102100000Y-30860000D01*
X108300000Y-30210000D02*
X102100000Y-30210000D01*
X102100000Y-33910000D02*
X108300000Y-33910000D01*
X83760000Y-58441422D02*
X83760000Y-58958578D01*
X82340000Y-58441422D02*
X82340000Y-58958578D01*
X36041422Y-50890000D02*
X36558578Y-50890000D01*
X36041422Y-52310000D02*
X36558578Y-52310000D01*
X114730000Y-60557000D02*
X114730000Y-60107000D01*
X116580000Y-60557000D02*
X114730000Y-60557000D01*
X119130000Y-52757000D02*
X118880000Y-52757000D01*
X119130000Y-60557000D02*
X118880000Y-60557000D01*
X116580000Y-52757000D02*
X114730000Y-52757000D01*
X114730000Y-52757000D02*
X114730000Y-53207000D01*
X114180000Y-58357000D02*
X114180000Y-57907000D01*
X114180000Y-58357000D02*
X114630000Y-58357000D01*
X33598578Y-88330000D02*
X33081422Y-88330000D01*
X33598578Y-86910000D02*
X33081422Y-86910000D01*
X46658578Y-112260000D02*
X46141422Y-112260000D01*
X46658578Y-110840000D02*
X46141422Y-110840000D01*
X48901078Y-105760000D02*
X48383922Y-105760000D01*
X48901078Y-104340000D02*
X48383922Y-104340000D01*
X56998922Y-113669000D02*
X57516078Y-113669000D01*
X56998922Y-115089000D02*
X57516078Y-115089000D01*
X67370000Y-104678578D02*
X67370000Y-104161422D01*
X68790000Y-104678578D02*
X68790000Y-104161422D01*
X70640000Y-105732064D02*
X70640000Y-104527936D01*
X72460000Y-105732064D02*
X72460000Y-104527936D01*
X57991422Y-96190000D02*
X58508578Y-96190000D01*
X57991422Y-97610000D02*
X58508578Y-97610000D01*
X57950122Y-93741000D02*
X58467278Y-93741000D01*
X57950122Y-95161000D02*
X58467278Y-95161000D01*
X57575936Y-90848600D02*
X58780064Y-90848600D01*
X57575936Y-92668600D02*
X58780064Y-92668600D01*
X79520000Y-97188922D02*
X79520000Y-97706078D01*
X78100000Y-97188922D02*
X78100000Y-97706078D01*
X70640000Y-97846078D02*
X70640000Y-97328922D01*
X72060000Y-97846078D02*
X72060000Y-97328922D01*
X37700000Y-25950000D02*
X37700000Y-21650000D01*
X37700000Y-21650000D02*
X32000000Y-21650000D01*
X37700000Y-25950000D02*
X32000000Y-25950000D01*
X76991078Y-60030000D02*
X76473922Y-60030000D01*
X76991078Y-58610000D02*
X76473922Y-58610000D01*
X76368922Y-51160000D02*
X76886078Y-51160000D01*
X76368922Y-52580000D02*
X76886078Y-52580000D01*
X101526078Y-37240000D02*
X101008922Y-37240000D01*
X101526078Y-35820000D02*
X101008922Y-35820000D01*
X111858922Y-32860000D02*
X112376078Y-32860000D01*
X111858922Y-31440000D02*
X112376078Y-31440000D01*
X38188922Y-88390000D02*
X38706078Y-88390000D01*
X38188922Y-86970000D02*
X38706078Y-86970000D01*
X66762000Y-95156078D02*
X66762000Y-94638922D01*
X65342000Y-95156078D02*
X65342000Y-94638922D01*
X68597936Y-32140000D02*
X69802064Y-32140000D01*
X68597936Y-33960000D02*
X69802064Y-33960000D01*
X40850000Y-36050000D02*
X40850000Y-27350000D01*
X32150000Y-36050000D02*
X32150000Y-27350000D01*
X57100000Y-26940000D02*
X65800000Y-26940000D01*
X57100000Y-35640000D02*
X65800000Y-35640000D01*
X47540000Y-23291422D02*
X47540000Y-23808578D01*
X48960000Y-23291422D02*
X48960000Y-23808578D01*
X50041422Y-25890000D02*
X50558578Y-25890000D01*
X50041422Y-27310000D02*
X50558578Y-27310000D01*
X78220000Y-23150000D02*
X78220000Y-21820000D01*
X78220000Y-21820000D02*
X79550000Y-21820000D01*
X80820000Y-21820000D02*
X85960000Y-21820000D01*
X85960000Y-24480000D02*
X85960000Y-21820000D01*
X80820000Y-24480000D02*
X85960000Y-24480000D01*
X80820000Y-24480000D02*
X80820000Y-21820000D01*
X91878000Y-32191064D02*
X91878000Y-30986936D01*
X93698000Y-32191064D02*
X93698000Y-30986936D01*
X104710000Y-67491422D02*
X104710000Y-68008578D01*
X103290000Y-67491422D02*
X103290000Y-68008578D01*
X81146078Y-63800000D02*
X80628922Y-63800000D01*
X81146078Y-65220000D02*
X80628922Y-65220000D01*
X109450000Y-55070000D02*
X111900000Y-55070000D01*
X111250000Y-51850000D02*
X109450000Y-51850000D01*
X116400000Y-71318578D02*
X116400000Y-70801422D01*
X117820000Y-71318578D02*
X117820000Y-70801422D01*
X30310000Y-31458578D02*
X30310000Y-30941422D01*
X28890000Y-31458578D02*
X28890000Y-30941422D01*
X50510000Y-34281422D02*
X50510000Y-34798578D01*
X49090000Y-34281422D02*
X49090000Y-34798578D01*
X68591422Y-36760000D02*
X69108578Y-36760000D01*
X68591422Y-35340000D02*
X69108578Y-35340000D01*
X55541422Y-23280000D02*
X56058578Y-23280000D01*
X55541422Y-24700000D02*
X56058578Y-24700000D01*
X90048000Y-31835078D02*
X90048000Y-31317922D01*
X88628000Y-31835078D02*
X88628000Y-31317922D01*
X88158578Y-69710000D02*
X87641422Y-69710000D01*
X88158578Y-68290000D02*
X87641422Y-68290000D01*
X82002064Y-68420000D02*
X80797936Y-68420000D01*
X82002064Y-66600000D02*
X80797936Y-66600000D01*
X69535000Y-69099064D02*
X69535000Y-67894936D01*
X67715000Y-69099064D02*
X67715000Y-67894936D01*
X42921000Y-67136064D02*
X42921000Y-65931936D01*
X41101000Y-67136064D02*
X41101000Y-65931936D01*
X64715000Y-68955578D02*
X64715000Y-68438422D01*
X66135000Y-68955578D02*
X66135000Y-68438422D01*
X39221000Y-66730078D02*
X39221000Y-66212922D01*
X37801000Y-66730078D02*
X37801000Y-66212922D01*
X51888578Y-71030000D02*
X51371422Y-71030000D01*
X51888578Y-72450000D02*
X51371422Y-72450000D01*
X24798578Y-69510000D02*
X24281422Y-69510000D01*
X24798578Y-70930000D02*
X24281422Y-70930000D01*
X51528922Y-66220000D02*
X52046078Y-66220000D01*
X51528922Y-64800000D02*
X52046078Y-64800000D01*
X24274922Y-62764000D02*
X24792078Y-62764000D01*
X24274922Y-64184000D02*
X24792078Y-64184000D01*
X51381422Y-67750000D02*
X51898578Y-67750000D01*
X51381422Y-69170000D02*
X51898578Y-69170000D01*
X24312422Y-66264000D02*
X24829578Y-66264000D01*
X24312422Y-67684000D02*
X24829578Y-67684000D01*
X59125000Y-66137000D02*
X57175000Y-66137000D01*
X59125000Y-66137000D02*
X61075000Y-66137000D01*
X59125000Y-71257000D02*
X57175000Y-71257000D01*
X59125000Y-71257000D02*
X62575000Y-71257000D01*
X32111000Y-64074000D02*
X30161000Y-64074000D01*
X32111000Y-64074000D02*
X34061000Y-64074000D01*
X32111000Y-69194000D02*
X30161000Y-69194000D01*
X32111000Y-69194000D02*
X35561000Y-69194000D01*
X42757000Y-79672064D02*
X42757000Y-78467936D01*
X40937000Y-79672064D02*
X40937000Y-78467936D01*
X37907000Y-79468578D02*
X37907000Y-78951422D01*
X39327000Y-79468578D02*
X39327000Y-78951422D01*
X25098578Y-81430000D02*
X24581422Y-81430000D01*
X25098578Y-82850000D02*
X24581422Y-82850000D01*
X24655922Y-74770000D02*
X25173078Y-74770000D01*
X24655922Y-76190000D02*
X25173078Y-76190000D01*
X24655922Y-79690000D02*
X25173078Y-79690000D01*
X24655922Y-78270000D02*
X25173078Y-78270000D01*
X32446999Y-81644999D02*
X35896999Y-81644999D01*
X32446999Y-81644999D02*
X30496999Y-81644999D01*
X32446999Y-76524999D02*
X34396999Y-76524999D01*
X32446999Y-76524999D02*
X30496999Y-76524999D01*
X63062078Y-93208000D02*
X62544922Y-93208000D01*
X63062078Y-91788000D02*
X62544922Y-91788000D01*
X32518578Y-73700000D02*
X32001422Y-73700000D01*
X32518578Y-75120000D02*
X32001422Y-75120000D01*
X59378578Y-63270000D02*
X58861422Y-63270000D01*
X59378578Y-64690000D02*
X58861422Y-64690000D01*
X32432078Y-61424000D02*
X31914922Y-61424000D01*
X32432078Y-62844000D02*
X31914922Y-62844000D01*
X62464922Y-95598000D02*
X62982078Y-95598000D01*
X62464922Y-94178000D02*
X62982078Y-94178000D01*
X67628000Y-112786078D02*
X67628000Y-112268922D01*
X69048000Y-112786078D02*
X69048000Y-112268922D01*
X97607936Y-114900000D02*
X98812064Y-114900000D01*
X97607936Y-113080000D02*
X98812064Y-113080000D01*
X98105922Y-110073000D02*
X98623078Y-110073000D01*
X98105922Y-111493000D02*
X98623078Y-111493000D01*
X79758578Y-103554000D02*
X79241422Y-103554000D01*
X79758578Y-104974000D02*
X79241422Y-104974000D01*
X79758578Y-106348000D02*
X79241422Y-106348000D01*
X79758578Y-107768000D02*
X79241422Y-107768000D01*
X77390000Y-113641422D02*
X77390000Y-114158578D01*
X78810000Y-113641422D02*
X78810000Y-114158578D01*
X76110000Y-113641422D02*
X76110000Y-114158578D01*
X74690000Y-113641422D02*
X74690000Y-114158578D01*
X93792000Y-97475078D02*
X93792000Y-96957922D01*
X95212000Y-97475078D02*
X95212000Y-96957922D01*
X49648578Y-95730000D02*
X49131422Y-95730000D01*
X49648578Y-97150000D02*
X49131422Y-97150000D01*
X54230200Y-110230000D02*
X54230200Y-111520000D01*
X53655200Y-110230000D02*
X54230200Y-110230000D01*
X53655200Y-109655000D02*
X53655200Y-110230000D01*
X53655200Y-100010000D02*
X54230200Y-100010000D01*
X53655200Y-100585000D02*
X53655200Y-100010000D01*
X63875200Y-110230000D02*
X63300200Y-110230000D01*
X63875200Y-109655000D02*
X63875200Y-110230000D01*
X63875200Y-100010000D02*
X63300200Y-100010000D01*
X63875200Y-100585000D02*
X63875200Y-100010000D01*
X98497936Y-97830000D02*
X99702064Y-97830000D01*
X98497936Y-96010000D02*
X99702064Y-96010000D01*
X43660000Y-26358578D02*
X43660000Y-25841422D01*
X42240000Y-26358578D02*
X42240000Y-25841422D01*
X55760000Y-42711422D02*
X55760000Y-43228578D01*
X57180000Y-42711422D02*
X57180000Y-43228578D01*
X63979922Y-49341000D02*
X64497078Y-49341000D01*
X63979922Y-47921000D02*
X64497078Y-47921000D01*
X56613922Y-45889000D02*
X57131078Y-45889000D01*
X56613922Y-47309000D02*
X57131078Y-47309000D01*
X45220000Y-91221422D02*
X45220000Y-91738578D01*
X46640000Y-91221422D02*
X46640000Y-91738578D01*
X47990000Y-90567936D02*
X47990000Y-91772064D01*
X49810000Y-90567936D02*
X49810000Y-91772064D01*
X115268578Y-38100000D02*
X114751422Y-38100000D01*
X115268578Y-36680000D02*
X114751422Y-36680000D01*
X32350000Y-55550000D02*
X26650000Y-55550000D01*
X32350000Y-51250000D02*
X26650000Y-51250000D01*
X32350000Y-55550000D02*
X32350000Y-51250000D01*
X36091422Y-55510000D02*
X36608578Y-55510000D01*
X36091422Y-54090000D02*
X36608578Y-54090000D01*
X66425000Y-22765000D02*
X72125000Y-22765000D01*
X66425000Y-27065000D02*
X72125000Y-27065000D01*
X66425000Y-22765000D02*
X66425000Y-27065000D01*
X21280000Y-29050000D02*
X22340000Y-29050000D01*
X21280000Y-30110000D02*
X21280000Y-29050000D01*
X23340000Y-29050000D02*
X25400000Y-29050000D01*
X23340000Y-31110000D02*
X23340000Y-29050000D01*
X21280000Y-31110000D02*
X23340000Y-31110000D01*
X25400000Y-29050000D02*
X25400000Y-49170000D01*
X21280000Y-31110000D02*
X21280000Y-49170000D01*
X21280000Y-49170000D02*
X25400000Y-49170000D01*
X75020000Y-53540000D02*
X75020000Y-57540000D01*
X78320000Y-53540000D02*
X75020000Y-53540000D01*
X109750000Y-87870000D02*
X109750000Y-91170000D01*
X109750000Y-91170000D02*
X113750000Y-91170000D01*
X72990000Y-99110000D02*
X76990000Y-99110000D01*
X72990000Y-95810000D02*
X72990000Y-99110000D01*
X105941422Y-45660000D02*
X106458578Y-45660000D01*
X105941422Y-44240000D02*
X106458578Y-44240000D01*
X87991422Y-44190000D02*
X88508578Y-44190000D01*
X87991422Y-45610000D02*
X88508578Y-45610000D01*
D12*
X94688095Y-46032380D02*
X94688095Y-46841904D01*
X94735714Y-46937142D01*
X94783333Y-46984761D01*
X94878571Y-47032380D01*
X95069047Y-47032380D01*
X95164285Y-46984761D01*
X95211904Y-46937142D01*
X95259523Y-46841904D01*
X95259523Y-46032380D01*
X96259523Y-47032380D02*
X95688095Y-47032380D01*
X95973809Y-47032380D02*
X95973809Y-46032380D01*
X95878571Y-46175238D01*
X95783333Y-46270476D01*
X95688095Y-46318095D01*
X112517142Y-47362857D02*
X112564761Y-47410476D01*
X112612380Y-47553333D01*
X112612380Y-47648571D01*
X112564761Y-47791428D01*
X112469523Y-47886666D01*
X112374285Y-47934285D01*
X112183809Y-47981904D01*
X112040952Y-47981904D01*
X111850476Y-47934285D01*
X111755238Y-47886666D01*
X111660000Y-47791428D01*
X111612380Y-47648571D01*
X111612380Y-47553333D01*
X111660000Y-47410476D01*
X111707619Y-47362857D01*
X111612380Y-47029523D02*
X111612380Y-46410476D01*
X111993333Y-46743809D01*
X111993333Y-46600952D01*
X112040952Y-46505714D01*
X112088571Y-46458095D01*
X112183809Y-46410476D01*
X112421904Y-46410476D01*
X112517142Y-46458095D01*
X112564761Y-46505714D01*
X112612380Y-46600952D01*
X112612380Y-46886666D01*
X112564761Y-46981904D01*
X112517142Y-47029523D01*
X112612380Y-45934285D02*
X112612380Y-45743809D01*
X112564761Y-45648571D01*
X112517142Y-45600952D01*
X112374285Y-45505714D01*
X112183809Y-45458095D01*
X111802857Y-45458095D01*
X111707619Y-45505714D01*
X111660000Y-45553333D01*
X111612380Y-45648571D01*
X111612380Y-45839047D01*
X111660000Y-45934285D01*
X111707619Y-45981904D01*
X111802857Y-46029523D01*
X112040952Y-46029523D01*
X112136190Y-45981904D01*
X112183809Y-45934285D01*
X112231428Y-45839047D01*
X112231428Y-45648571D01*
X112183809Y-45553333D01*
X112136190Y-45505714D01*
X112040952Y-45458095D01*
X68869642Y-28137142D02*
X68822023Y-28184761D01*
X68679166Y-28232380D01*
X68583928Y-28232380D01*
X68441071Y-28184761D01*
X68345833Y-28089523D01*
X68298214Y-27994285D01*
X68250595Y-27803809D01*
X68250595Y-27660952D01*
X68298214Y-27470476D01*
X68345833Y-27375238D01*
X68441071Y-27280000D01*
X68583928Y-27232380D01*
X68679166Y-27232380D01*
X68822023Y-27280000D01*
X68869642Y-27327619D01*
X69822023Y-28232380D02*
X69250595Y-28232380D01*
X69536309Y-28232380D02*
X69536309Y-27232380D01*
X69441071Y-27375238D01*
X69345833Y-27470476D01*
X69250595Y-27518095D01*
X70202976Y-27327619D02*
X70250595Y-27280000D01*
X70345833Y-27232380D01*
X70583928Y-27232380D01*
X70679166Y-27280000D01*
X70726785Y-27327619D01*
X70774404Y-27422857D01*
X70774404Y-27518095D01*
X70726785Y-27660952D01*
X70155357Y-28232380D01*
X70774404Y-28232380D01*
X48327142Y-34042857D02*
X48374761Y-34090476D01*
X48422380Y-34233333D01*
X48422380Y-34328571D01*
X48374761Y-34471428D01*
X48279523Y-34566666D01*
X48184285Y-34614285D01*
X47993809Y-34661904D01*
X47850952Y-34661904D01*
X47660476Y-34614285D01*
X47565238Y-34566666D01*
X47470000Y-34471428D01*
X47422380Y-34328571D01*
X47422380Y-34233333D01*
X47470000Y-34090476D01*
X47517619Y-34042857D01*
X48422380Y-33090476D02*
X48422380Y-33661904D01*
X48422380Y-33376190D02*
X47422380Y-33376190D01*
X47565238Y-33471428D01*
X47660476Y-33566666D01*
X47708095Y-33661904D01*
X48422380Y-32138095D02*
X48422380Y-32709523D01*
X48422380Y-32423809D02*
X47422380Y-32423809D01*
X47565238Y-32519047D01*
X47660476Y-32614285D01*
X47708095Y-32709523D01*
X58928404Y-51241380D02*
X58928404Y-50241380D01*
X59166500Y-50241380D01*
X59309357Y-50289000D01*
X59404595Y-50384238D01*
X59452214Y-50479476D01*
X59499833Y-50669952D01*
X59499833Y-50812809D01*
X59452214Y-51003285D01*
X59404595Y-51098523D01*
X59309357Y-51193761D01*
X59166500Y-51241380D01*
X58928404Y-51241380D01*
X60404595Y-50241380D02*
X59928404Y-50241380D01*
X59880785Y-50717571D01*
X59928404Y-50669952D01*
X60023642Y-50622333D01*
X60261738Y-50622333D01*
X60356976Y-50669952D01*
X60404595Y-50717571D01*
X60452214Y-50812809D01*
X60452214Y-51050904D01*
X60404595Y-51146142D01*
X60356976Y-51193761D01*
X60261738Y-51241380D01*
X60023642Y-51241380D01*
X59928404Y-51193761D01*
X59880785Y-51146142D01*
X55652380Y-38738095D02*
X54652380Y-38738095D01*
X54652380Y-38500000D01*
X54700000Y-38357142D01*
X54795238Y-38261904D01*
X54890476Y-38214285D01*
X55080952Y-38166666D01*
X55223809Y-38166666D01*
X55414285Y-38214285D01*
X55509523Y-38261904D01*
X55604761Y-38357142D01*
X55652380Y-38500000D01*
X55652380Y-38738095D01*
X54652380Y-37833333D02*
X54652380Y-37214285D01*
X55033333Y-37547619D01*
X55033333Y-37404761D01*
X55080952Y-37309523D01*
X55128571Y-37261904D01*
X55223809Y-37214285D01*
X55461904Y-37214285D01*
X55557142Y-37261904D01*
X55604761Y-37309523D01*
X55652380Y-37404761D01*
X55652380Y-37690476D01*
X55604761Y-37785714D01*
X55557142Y-37833333D01*
X44383333Y-52457142D02*
X44335714Y-52504761D01*
X44192857Y-52552380D01*
X44097619Y-52552380D01*
X43954761Y-52504761D01*
X43859523Y-52409523D01*
X43811904Y-52314285D01*
X43764285Y-52123809D01*
X43764285Y-51980952D01*
X43811904Y-51790476D01*
X43859523Y-51695238D01*
X43954761Y-51600000D01*
X44097619Y-51552380D01*
X44192857Y-51552380D01*
X44335714Y-51600000D01*
X44383333Y-51647619D01*
X44716666Y-51552380D02*
X45335714Y-51552380D01*
X45002380Y-51933333D01*
X45145238Y-51933333D01*
X45240476Y-51980952D01*
X45288095Y-52028571D01*
X45335714Y-52123809D01*
X45335714Y-52361904D01*
X45288095Y-52457142D01*
X45240476Y-52504761D01*
X45145238Y-52552380D01*
X44859523Y-52552380D01*
X44764285Y-52504761D01*
X44716666Y-52457142D01*
X58811904Y-83642380D02*
X58811904Y-84451904D01*
X58859523Y-84547142D01*
X58907142Y-84594761D01*
X59002380Y-84642380D01*
X59192857Y-84642380D01*
X59288095Y-84594761D01*
X59335714Y-84547142D01*
X59383333Y-84451904D01*
X59383333Y-83642380D01*
X60383333Y-84642380D02*
X59811904Y-84642380D01*
X60097619Y-84642380D02*
X60097619Y-83642380D01*
X60002380Y-83785238D01*
X59907142Y-83880476D01*
X59811904Y-83928095D01*
X61240476Y-83975714D02*
X61240476Y-84642380D01*
X61002380Y-83594761D02*
X60764285Y-84309047D01*
X61383333Y-84309047D01*
X52407142Y-78992380D02*
X52073809Y-78516190D01*
X51835714Y-78992380D02*
X51835714Y-77992380D01*
X52216666Y-77992380D01*
X52311904Y-78040000D01*
X52359523Y-78087619D01*
X52407142Y-78182857D01*
X52407142Y-78325714D01*
X52359523Y-78420952D01*
X52311904Y-78468571D01*
X52216666Y-78516190D01*
X51835714Y-78516190D01*
X53359523Y-78992380D02*
X52788095Y-78992380D01*
X53073809Y-78992380D02*
X53073809Y-77992380D01*
X52978571Y-78135238D01*
X52883333Y-78230476D01*
X52788095Y-78278095D01*
X53692857Y-77992380D02*
X54359523Y-77992380D01*
X53930952Y-78992380D01*
X52407142Y-75492380D02*
X52073809Y-75016190D01*
X51835714Y-75492380D02*
X51835714Y-74492380D01*
X52216666Y-74492380D01*
X52311904Y-74540000D01*
X52359523Y-74587619D01*
X52407142Y-74682857D01*
X52407142Y-74825714D01*
X52359523Y-74920952D01*
X52311904Y-74968571D01*
X52216666Y-75016190D01*
X51835714Y-75016190D01*
X53359523Y-75492380D02*
X52788095Y-75492380D01*
X53073809Y-75492380D02*
X53073809Y-74492380D01*
X52978571Y-74635238D01*
X52883333Y-74730476D01*
X52788095Y-74778095D01*
X53692857Y-74492380D02*
X54311904Y-74492380D01*
X53978571Y-74873333D01*
X54121428Y-74873333D01*
X54216666Y-74920952D01*
X54264285Y-74968571D01*
X54311904Y-75063809D01*
X54311904Y-75301904D01*
X54264285Y-75397142D01*
X54216666Y-75444761D01*
X54121428Y-75492380D01*
X53835714Y-75492380D01*
X53740476Y-75444761D01*
X53692857Y-75397142D01*
X52399642Y-85057142D02*
X52352023Y-85104761D01*
X52209166Y-85152380D01*
X52113928Y-85152380D01*
X51971071Y-85104761D01*
X51875833Y-85009523D01*
X51828214Y-84914285D01*
X51780595Y-84723809D01*
X51780595Y-84580952D01*
X51828214Y-84390476D01*
X51875833Y-84295238D01*
X51971071Y-84200000D01*
X52113928Y-84152380D01*
X52209166Y-84152380D01*
X52352023Y-84200000D01*
X52399642Y-84247619D01*
X52732976Y-84152380D02*
X53352023Y-84152380D01*
X53018690Y-84533333D01*
X53161547Y-84533333D01*
X53256785Y-84580952D01*
X53304404Y-84628571D01*
X53352023Y-84723809D01*
X53352023Y-84961904D01*
X53304404Y-85057142D01*
X53256785Y-85104761D01*
X53161547Y-85152380D01*
X52875833Y-85152380D01*
X52780595Y-85104761D01*
X52732976Y-85057142D01*
X53923452Y-84580952D02*
X53828214Y-84533333D01*
X53780595Y-84485714D01*
X53732976Y-84390476D01*
X53732976Y-84342857D01*
X53780595Y-84247619D01*
X53828214Y-84200000D01*
X53923452Y-84152380D01*
X54113928Y-84152380D01*
X54209166Y-84200000D01*
X54256785Y-84247619D01*
X54304404Y-84342857D01*
X54304404Y-84390476D01*
X54256785Y-84485714D01*
X54209166Y-84533333D01*
X54113928Y-84580952D01*
X53923452Y-84580952D01*
X53828214Y-84628571D01*
X53780595Y-84676190D01*
X53732976Y-84771428D01*
X53732976Y-84961904D01*
X53780595Y-85057142D01*
X53828214Y-85104761D01*
X53923452Y-85152380D01*
X54113928Y-85152380D01*
X54209166Y-85104761D01*
X54256785Y-85057142D01*
X54304404Y-84961904D01*
X54304404Y-84771428D01*
X54256785Y-84676190D01*
X54209166Y-84628571D01*
X54113928Y-84580952D01*
X65497142Y-78737142D02*
X65449523Y-78784761D01*
X65306666Y-78832380D01*
X65211428Y-78832380D01*
X65068571Y-78784761D01*
X64973333Y-78689523D01*
X64925714Y-78594285D01*
X64878095Y-78403809D01*
X64878095Y-78260952D01*
X64925714Y-78070476D01*
X64973333Y-77975238D01*
X65068571Y-77880000D01*
X65211428Y-77832380D01*
X65306666Y-77832380D01*
X65449523Y-77880000D01*
X65497142Y-77927619D01*
X65830476Y-77832380D02*
X66449523Y-77832380D01*
X66116190Y-78213333D01*
X66259047Y-78213333D01*
X66354285Y-78260952D01*
X66401904Y-78308571D01*
X66449523Y-78403809D01*
X66449523Y-78641904D01*
X66401904Y-78737142D01*
X66354285Y-78784761D01*
X66259047Y-78832380D01*
X65973333Y-78832380D01*
X65878095Y-78784761D01*
X65830476Y-78737142D01*
X67068571Y-77832380D02*
X67163809Y-77832380D01*
X67259047Y-77880000D01*
X67306666Y-77927619D01*
X67354285Y-78022857D01*
X67401904Y-78213333D01*
X67401904Y-78451428D01*
X67354285Y-78641904D01*
X67306666Y-78737142D01*
X67259047Y-78784761D01*
X67163809Y-78832380D01*
X67068571Y-78832380D01*
X66973333Y-78784761D01*
X66925714Y-78737142D01*
X66878095Y-78641904D01*
X66830476Y-78451428D01*
X66830476Y-78213333D01*
X66878095Y-78022857D01*
X66925714Y-77927619D01*
X66973333Y-77880000D01*
X67068571Y-77832380D01*
X68947142Y-78207142D02*
X68899523Y-78254761D01*
X68756666Y-78302380D01*
X68661428Y-78302380D01*
X68518571Y-78254761D01*
X68423333Y-78159523D01*
X68375714Y-78064285D01*
X68328095Y-77873809D01*
X68328095Y-77730952D01*
X68375714Y-77540476D01*
X68423333Y-77445238D01*
X68518571Y-77350000D01*
X68661428Y-77302380D01*
X68756666Y-77302380D01*
X68899523Y-77350000D01*
X68947142Y-77397619D01*
X69328095Y-77397619D02*
X69375714Y-77350000D01*
X69470952Y-77302380D01*
X69709047Y-77302380D01*
X69804285Y-77350000D01*
X69851904Y-77397619D01*
X69899523Y-77492857D01*
X69899523Y-77588095D01*
X69851904Y-77730952D01*
X69280476Y-78302380D01*
X69899523Y-78302380D01*
X70375714Y-78302380D02*
X70566190Y-78302380D01*
X70661428Y-78254761D01*
X70709047Y-78207142D01*
X70804285Y-78064285D01*
X70851904Y-77873809D01*
X70851904Y-77492857D01*
X70804285Y-77397619D01*
X70756666Y-77350000D01*
X70661428Y-77302380D01*
X70470952Y-77302380D01*
X70375714Y-77350000D01*
X70328095Y-77397619D01*
X70280476Y-77492857D01*
X70280476Y-77730952D01*
X70328095Y-77826190D01*
X70375714Y-77873809D01*
X70470952Y-77921428D01*
X70661428Y-77921428D01*
X70756666Y-77873809D01*
X70804285Y-77826190D01*
X70851904Y-77730952D01*
X60013333Y-77947142D02*
X59965714Y-77994761D01*
X59822857Y-78042380D01*
X59727619Y-78042380D01*
X59584761Y-77994761D01*
X59489523Y-77899523D01*
X59441904Y-77804285D01*
X59394285Y-77613809D01*
X59394285Y-77470952D01*
X59441904Y-77280476D01*
X59489523Y-77185238D01*
X59584761Y-77090000D01*
X59727619Y-77042380D01*
X59822857Y-77042380D01*
X59965714Y-77090000D01*
X60013333Y-77137619D01*
X60346666Y-77042380D02*
X61013333Y-77042380D01*
X60584761Y-78042380D01*
X25126666Y-87442380D02*
X25126666Y-88156666D01*
X25079047Y-88299523D01*
X24983809Y-88394761D01*
X24840952Y-88442380D01*
X24745714Y-88442380D01*
X26079047Y-87442380D02*
X25602857Y-87442380D01*
X25555238Y-87918571D01*
X25602857Y-87870952D01*
X25698095Y-87823333D01*
X25936190Y-87823333D01*
X26031428Y-87870952D01*
X26079047Y-87918571D01*
X26126666Y-88013809D01*
X26126666Y-88251904D01*
X26079047Y-88347142D01*
X26031428Y-88394761D01*
X25936190Y-88442380D01*
X25698095Y-88442380D01*
X25602857Y-88394761D01*
X25555238Y-88347142D01*
X78987142Y-28817142D02*
X78939523Y-28864761D01*
X78796666Y-28912380D01*
X78701428Y-28912380D01*
X78558571Y-28864761D01*
X78463333Y-28769523D01*
X78415714Y-28674285D01*
X78368095Y-28483809D01*
X78368095Y-28340952D01*
X78415714Y-28150476D01*
X78463333Y-28055238D01*
X78558571Y-27960000D01*
X78701428Y-27912380D01*
X78796666Y-27912380D01*
X78939523Y-27960000D01*
X78987142Y-28007619D01*
X79320476Y-27912380D02*
X79939523Y-27912380D01*
X79606190Y-28293333D01*
X79749047Y-28293333D01*
X79844285Y-28340952D01*
X79891904Y-28388571D01*
X79939523Y-28483809D01*
X79939523Y-28721904D01*
X79891904Y-28817142D01*
X79844285Y-28864761D01*
X79749047Y-28912380D01*
X79463333Y-28912380D01*
X79368095Y-28864761D01*
X79320476Y-28817142D01*
X80796666Y-28245714D02*
X80796666Y-28912380D01*
X80558571Y-27864761D02*
X80320476Y-28579047D01*
X80939523Y-28579047D01*
X109571904Y-39532380D02*
X109571904Y-38532380D01*
X109810000Y-38532380D01*
X109952857Y-38580000D01*
X110048095Y-38675238D01*
X110095714Y-38770476D01*
X110143333Y-38960952D01*
X110143333Y-39103809D01*
X110095714Y-39294285D01*
X110048095Y-39389523D01*
X109952857Y-39484761D01*
X109810000Y-39532380D01*
X109571904Y-39532380D01*
X110619523Y-39532380D02*
X110810000Y-39532380D01*
X110905238Y-39484761D01*
X110952857Y-39437142D01*
X111048095Y-39294285D01*
X111095714Y-39103809D01*
X111095714Y-38722857D01*
X111048095Y-38627619D01*
X111000476Y-38580000D01*
X110905238Y-38532380D01*
X110714761Y-38532380D01*
X110619523Y-38580000D01*
X110571904Y-38627619D01*
X110524285Y-38722857D01*
X110524285Y-38960952D01*
X110571904Y-39056190D01*
X110619523Y-39103809D01*
X110714761Y-39151428D01*
X110905238Y-39151428D01*
X111000476Y-39103809D01*
X111048095Y-39056190D01*
X111095714Y-38960952D01*
X109471904Y-35852380D02*
X109471904Y-34852380D01*
X109710000Y-34852380D01*
X109852857Y-34900000D01*
X109948095Y-34995238D01*
X109995714Y-35090476D01*
X110043333Y-35280952D01*
X110043333Y-35423809D01*
X109995714Y-35614285D01*
X109948095Y-35709523D01*
X109852857Y-35804761D01*
X109710000Y-35852380D01*
X109471904Y-35852380D01*
X110900476Y-34852380D02*
X110710000Y-34852380D01*
X110614761Y-34900000D01*
X110567142Y-34947619D01*
X110471904Y-35090476D01*
X110424285Y-35280952D01*
X110424285Y-35661904D01*
X110471904Y-35757142D01*
X110519523Y-35804761D01*
X110614761Y-35852380D01*
X110805238Y-35852380D01*
X110900476Y-35804761D01*
X110948095Y-35757142D01*
X110995714Y-35661904D01*
X110995714Y-35423809D01*
X110948095Y-35328571D01*
X110900476Y-35280952D01*
X110805238Y-35233333D01*
X110614761Y-35233333D01*
X110519523Y-35280952D01*
X110471904Y-35328571D01*
X110424285Y-35423809D01*
X115725380Y-67398095D02*
X114725380Y-67398095D01*
X114725380Y-67160000D01*
X114773000Y-67017142D01*
X114868238Y-66921904D01*
X114963476Y-66874285D01*
X115153952Y-66826666D01*
X115296809Y-66826666D01*
X115487285Y-66874285D01*
X115582523Y-66921904D01*
X115677761Y-67017142D01*
X115725380Y-67160000D01*
X115725380Y-67398095D01*
X114820619Y-66445714D02*
X114773000Y-66398095D01*
X114725380Y-66302857D01*
X114725380Y-66064761D01*
X114773000Y-65969523D01*
X114820619Y-65921904D01*
X114915857Y-65874285D01*
X115011095Y-65874285D01*
X115153952Y-65921904D01*
X115725380Y-66493333D01*
X115725380Y-65874285D01*
X95292380Y-107048095D02*
X96101904Y-107048095D01*
X96197142Y-107000476D01*
X96244761Y-106952857D01*
X96292380Y-106857619D01*
X96292380Y-106667142D01*
X96244761Y-106571904D01*
X96197142Y-106524285D01*
X96101904Y-106476666D01*
X95292380Y-106476666D01*
X96292380Y-105476666D02*
X96292380Y-106048095D01*
X96292380Y-105762380D02*
X95292380Y-105762380D01*
X95435238Y-105857619D01*
X95530476Y-105952857D01*
X95578095Y-106048095D01*
X95292380Y-104857619D02*
X95292380Y-104762380D01*
X95340000Y-104667142D01*
X95387619Y-104619523D01*
X95482857Y-104571904D01*
X95673333Y-104524285D01*
X95911428Y-104524285D01*
X96101904Y-104571904D01*
X96197142Y-104619523D01*
X96244761Y-104667142D01*
X96292380Y-104762380D01*
X96292380Y-104857619D01*
X96244761Y-104952857D01*
X96197142Y-105000476D01*
X96101904Y-105048095D01*
X95911428Y-105095714D01*
X95673333Y-105095714D01*
X95482857Y-105048095D01*
X95387619Y-105000476D01*
X95340000Y-104952857D01*
X95292380Y-104857619D01*
X81376095Y-34026380D02*
X81376095Y-34835904D01*
X81423714Y-34931142D01*
X81471333Y-34978761D01*
X81566571Y-35026380D01*
X81757047Y-35026380D01*
X81852285Y-34978761D01*
X81899904Y-34931142D01*
X81947523Y-34835904D01*
X81947523Y-34026380D01*
X82852285Y-34026380D02*
X82661809Y-34026380D01*
X82566571Y-34074000D01*
X82518952Y-34121619D01*
X82423714Y-34264476D01*
X82376095Y-34454952D01*
X82376095Y-34835904D01*
X82423714Y-34931142D01*
X82471333Y-34978761D01*
X82566571Y-35026380D01*
X82757047Y-35026380D01*
X82852285Y-34978761D01*
X82899904Y-34931142D01*
X82947523Y-34835904D01*
X82947523Y-34597809D01*
X82899904Y-34502571D01*
X82852285Y-34454952D01*
X82757047Y-34407333D01*
X82566571Y-34407333D01*
X82471333Y-34454952D01*
X82423714Y-34502571D01*
X82376095Y-34597809D01*
X55052380Y-31351904D02*
X55861904Y-31351904D01*
X55957142Y-31304285D01*
X56004761Y-31256666D01*
X56052380Y-31161428D01*
X56052380Y-30970952D01*
X56004761Y-30875714D01*
X55957142Y-30828095D01*
X55861904Y-30780476D01*
X55052380Y-30780476D01*
X55052380Y-30399523D02*
X55052380Y-29732857D01*
X56052380Y-30161428D01*
X67086095Y-47519380D02*
X67086095Y-48328904D01*
X67133714Y-48424142D01*
X67181333Y-48471761D01*
X67276571Y-48519380D01*
X67467047Y-48519380D01*
X67562285Y-48471761D01*
X67609904Y-48424142D01*
X67657523Y-48328904D01*
X67657523Y-47519380D01*
X68609904Y-47519380D02*
X68133714Y-47519380D01*
X68086095Y-47995571D01*
X68133714Y-47947952D01*
X68228952Y-47900333D01*
X68467047Y-47900333D01*
X68562285Y-47947952D01*
X68609904Y-47995571D01*
X68657523Y-48090809D01*
X68657523Y-48328904D01*
X68609904Y-48424142D01*
X68562285Y-48471761D01*
X68467047Y-48519380D01*
X68228952Y-48519380D01*
X68133714Y-48471761D01*
X68086095Y-48424142D01*
X99127142Y-69747142D02*
X99079523Y-69794761D01*
X98936666Y-69842380D01*
X98841428Y-69842380D01*
X98698571Y-69794761D01*
X98603333Y-69699523D01*
X98555714Y-69604285D01*
X98508095Y-69413809D01*
X98508095Y-69270952D01*
X98555714Y-69080476D01*
X98603333Y-68985238D01*
X98698571Y-68890000D01*
X98841428Y-68842380D01*
X98936666Y-68842380D01*
X99079523Y-68890000D01*
X99127142Y-68937619D01*
X99460476Y-68842380D02*
X100079523Y-68842380D01*
X99746190Y-69223333D01*
X99889047Y-69223333D01*
X99984285Y-69270952D01*
X100031904Y-69318571D01*
X100079523Y-69413809D01*
X100079523Y-69651904D01*
X100031904Y-69747142D01*
X99984285Y-69794761D01*
X99889047Y-69842380D01*
X99603333Y-69842380D01*
X99508095Y-69794761D01*
X99460476Y-69747142D01*
X100412857Y-68842380D02*
X101079523Y-68842380D01*
X100650952Y-69842380D01*
X81957142Y-49857142D02*
X81909523Y-49904761D01*
X81766666Y-49952380D01*
X81671428Y-49952380D01*
X81528571Y-49904761D01*
X81433333Y-49809523D01*
X81385714Y-49714285D01*
X81338095Y-49523809D01*
X81338095Y-49380952D01*
X81385714Y-49190476D01*
X81433333Y-49095238D01*
X81528571Y-49000000D01*
X81671428Y-48952380D01*
X81766666Y-48952380D01*
X81909523Y-49000000D01*
X81957142Y-49047619D01*
X82909523Y-49952380D02*
X82338095Y-49952380D01*
X82623809Y-49952380D02*
X82623809Y-48952380D01*
X82528571Y-49095238D01*
X82433333Y-49190476D01*
X82338095Y-49238095D01*
X83766666Y-48952380D02*
X83576190Y-48952380D01*
X83480952Y-49000000D01*
X83433333Y-49047619D01*
X83338095Y-49190476D01*
X83290476Y-49380952D01*
X83290476Y-49761904D01*
X83338095Y-49857142D01*
X83385714Y-49904761D01*
X83480952Y-49952380D01*
X83671428Y-49952380D01*
X83766666Y-49904761D01*
X83814285Y-49857142D01*
X83861904Y-49761904D01*
X83861904Y-49523809D01*
X83814285Y-49428571D01*
X83766666Y-49380952D01*
X83671428Y-49333333D01*
X83480952Y-49333333D01*
X83385714Y-49380952D01*
X83338095Y-49428571D01*
X83290476Y-49523809D01*
X43042380Y-43728095D02*
X43851904Y-43728095D01*
X43947142Y-43680476D01*
X43994761Y-43632857D01*
X44042380Y-43537619D01*
X44042380Y-43347142D01*
X43994761Y-43251904D01*
X43947142Y-43204285D01*
X43851904Y-43156666D01*
X43042380Y-43156666D01*
X44042380Y-42156666D02*
X44042380Y-42728095D01*
X44042380Y-42442380D02*
X43042380Y-42442380D01*
X43185238Y-42537619D01*
X43280476Y-42632857D01*
X43328095Y-42728095D01*
X43042380Y-41823333D02*
X43042380Y-41204285D01*
X43423333Y-41537619D01*
X43423333Y-41394761D01*
X43470952Y-41299523D01*
X43518571Y-41251904D01*
X43613809Y-41204285D01*
X43851904Y-41204285D01*
X43947142Y-41251904D01*
X43994761Y-41299523D01*
X44042380Y-41394761D01*
X44042380Y-41680476D01*
X43994761Y-41775714D01*
X43947142Y-41823333D01*
X36372380Y-43818095D02*
X37181904Y-43818095D01*
X37277142Y-43770476D01*
X37324761Y-43722857D01*
X37372380Y-43627619D01*
X37372380Y-43437142D01*
X37324761Y-43341904D01*
X37277142Y-43294285D01*
X37181904Y-43246666D01*
X36372380Y-43246666D01*
X37372380Y-42246666D02*
X37372380Y-42818095D01*
X37372380Y-42532380D02*
X36372380Y-42532380D01*
X36515238Y-42627619D01*
X36610476Y-42722857D01*
X36658095Y-42818095D01*
X36467619Y-41865714D02*
X36420000Y-41818095D01*
X36372380Y-41722857D01*
X36372380Y-41484761D01*
X36420000Y-41389523D01*
X36467619Y-41341904D01*
X36562857Y-41294285D01*
X36658095Y-41294285D01*
X36800952Y-41341904D01*
X37372380Y-41913333D01*
X37372380Y-41294285D01*
X29362380Y-43698095D02*
X30171904Y-43698095D01*
X30267142Y-43650476D01*
X30314761Y-43602857D01*
X30362380Y-43507619D01*
X30362380Y-43317142D01*
X30314761Y-43221904D01*
X30267142Y-43174285D01*
X30171904Y-43126666D01*
X29362380Y-43126666D01*
X30362380Y-42126666D02*
X30362380Y-42698095D01*
X30362380Y-42412380D02*
X29362380Y-42412380D01*
X29505238Y-42507619D01*
X29600476Y-42602857D01*
X29648095Y-42698095D01*
X30362380Y-41174285D02*
X30362380Y-41745714D01*
X30362380Y-41460000D02*
X29362380Y-41460000D01*
X29505238Y-41555238D01*
X29600476Y-41650476D01*
X29648095Y-41745714D01*
X47957142Y-47602380D02*
X47623809Y-47126190D01*
X47385714Y-47602380D02*
X47385714Y-46602380D01*
X47766666Y-46602380D01*
X47861904Y-46650000D01*
X47909523Y-46697619D01*
X47957142Y-46792857D01*
X47957142Y-46935714D01*
X47909523Y-47030952D01*
X47861904Y-47078571D01*
X47766666Y-47126190D01*
X47385714Y-47126190D01*
X48909523Y-47602380D02*
X48338095Y-47602380D01*
X48623809Y-47602380D02*
X48623809Y-46602380D01*
X48528571Y-46745238D01*
X48433333Y-46840476D01*
X48338095Y-46888095D01*
X49766666Y-46602380D02*
X49576190Y-46602380D01*
X49480952Y-46650000D01*
X49433333Y-46697619D01*
X49338095Y-46840476D01*
X49290476Y-47030952D01*
X49290476Y-47411904D01*
X49338095Y-47507142D01*
X49385714Y-47554761D01*
X49480952Y-47602380D01*
X49671428Y-47602380D01*
X49766666Y-47554761D01*
X49814285Y-47507142D01*
X49861904Y-47411904D01*
X49861904Y-47173809D01*
X49814285Y-47078571D01*
X49766666Y-47030952D01*
X49671428Y-46983333D01*
X49480952Y-46983333D01*
X49385714Y-47030952D01*
X49338095Y-47078571D01*
X49290476Y-47173809D01*
X40657142Y-47802380D02*
X40323809Y-47326190D01*
X40085714Y-47802380D02*
X40085714Y-46802380D01*
X40466666Y-46802380D01*
X40561904Y-46850000D01*
X40609523Y-46897619D01*
X40657142Y-46992857D01*
X40657142Y-47135714D01*
X40609523Y-47230952D01*
X40561904Y-47278571D01*
X40466666Y-47326190D01*
X40085714Y-47326190D01*
X41609523Y-47802380D02*
X41038095Y-47802380D01*
X41323809Y-47802380D02*
X41323809Y-46802380D01*
X41228571Y-46945238D01*
X41133333Y-47040476D01*
X41038095Y-47088095D01*
X42466666Y-47135714D02*
X42466666Y-47802380D01*
X42228571Y-46754761D02*
X41990476Y-47469047D01*
X42609523Y-47469047D01*
X34033333Y-47652380D02*
X33700000Y-47176190D01*
X33461904Y-47652380D02*
X33461904Y-46652380D01*
X33842857Y-46652380D01*
X33938095Y-46700000D01*
X33985714Y-46747619D01*
X34033333Y-46842857D01*
X34033333Y-46985714D01*
X33985714Y-47080952D01*
X33938095Y-47128571D01*
X33842857Y-47176190D01*
X33461904Y-47176190D01*
X34890476Y-46652380D02*
X34700000Y-46652380D01*
X34604761Y-46700000D01*
X34557142Y-46747619D01*
X34461904Y-46890476D01*
X34414285Y-47080952D01*
X34414285Y-47461904D01*
X34461904Y-47557142D01*
X34509523Y-47604761D01*
X34604761Y-47652380D01*
X34795238Y-47652380D01*
X34890476Y-47604761D01*
X34938095Y-47557142D01*
X34985714Y-47461904D01*
X34985714Y-47223809D01*
X34938095Y-47128571D01*
X34890476Y-47080952D01*
X34795238Y-47033333D01*
X34604761Y-47033333D01*
X34509523Y-47080952D01*
X34461904Y-47128571D01*
X34414285Y-47223809D01*
X115053333Y-39592380D02*
X114720000Y-39116190D01*
X114481904Y-39592380D02*
X114481904Y-38592380D01*
X114862857Y-38592380D01*
X114958095Y-38640000D01*
X115005714Y-38687619D01*
X115053333Y-38782857D01*
X115053333Y-38925714D01*
X115005714Y-39020952D01*
X114958095Y-39068571D01*
X114862857Y-39116190D01*
X114481904Y-39116190D01*
X115958095Y-38592380D02*
X115481904Y-38592380D01*
X115434285Y-39068571D01*
X115481904Y-39020952D01*
X115577142Y-38973333D01*
X115815238Y-38973333D01*
X115910476Y-39020952D01*
X115958095Y-39068571D01*
X116005714Y-39163809D01*
X116005714Y-39401904D01*
X115958095Y-39497142D01*
X115910476Y-39544761D01*
X115815238Y-39592380D01*
X115577142Y-39592380D01*
X115481904Y-39544761D01*
X115434285Y-39497142D01*
X110256666Y-111552380D02*
X110256666Y-112266666D01*
X110209047Y-112409523D01*
X110113809Y-112504761D01*
X109970952Y-112552380D01*
X109875714Y-112552380D01*
X110685238Y-111647619D02*
X110732857Y-111600000D01*
X110828095Y-111552380D01*
X111066190Y-111552380D01*
X111161428Y-111600000D01*
X111209047Y-111647619D01*
X111256666Y-111742857D01*
X111256666Y-111838095D01*
X111209047Y-111980952D01*
X110637619Y-112552380D01*
X111256666Y-112552380D01*
X105767142Y-99697142D02*
X105719523Y-99744761D01*
X105576666Y-99792380D01*
X105481428Y-99792380D01*
X105338571Y-99744761D01*
X105243333Y-99649523D01*
X105195714Y-99554285D01*
X105148095Y-99363809D01*
X105148095Y-99220952D01*
X105195714Y-99030476D01*
X105243333Y-98935238D01*
X105338571Y-98840000D01*
X105481428Y-98792380D01*
X105576666Y-98792380D01*
X105719523Y-98840000D01*
X105767142Y-98887619D01*
X106100476Y-98792380D02*
X106719523Y-98792380D01*
X106386190Y-99173333D01*
X106529047Y-99173333D01*
X106624285Y-99220952D01*
X106671904Y-99268571D01*
X106719523Y-99363809D01*
X106719523Y-99601904D01*
X106671904Y-99697142D01*
X106624285Y-99744761D01*
X106529047Y-99792380D01*
X106243333Y-99792380D01*
X106148095Y-99744761D01*
X106100476Y-99697142D01*
X107624285Y-98792380D02*
X107148095Y-98792380D01*
X107100476Y-99268571D01*
X107148095Y-99220952D01*
X107243333Y-99173333D01*
X107481428Y-99173333D01*
X107576666Y-99220952D01*
X107624285Y-99268571D01*
X107671904Y-99363809D01*
X107671904Y-99601904D01*
X107624285Y-99697142D01*
X107576666Y-99744761D01*
X107481428Y-99792380D01*
X107243333Y-99792380D01*
X107148095Y-99744761D01*
X107100476Y-99697142D01*
X117032380Y-82111904D02*
X117841904Y-82111904D01*
X117937142Y-82064285D01*
X117984761Y-82016666D01*
X118032380Y-81921428D01*
X118032380Y-81730952D01*
X117984761Y-81635714D01*
X117937142Y-81588095D01*
X117841904Y-81540476D01*
X117032380Y-81540476D01*
X117460952Y-80921428D02*
X117413333Y-81016666D01*
X117365714Y-81064285D01*
X117270476Y-81111904D01*
X117222857Y-81111904D01*
X117127619Y-81064285D01*
X117080000Y-81016666D01*
X117032380Y-80921428D01*
X117032380Y-80730952D01*
X117080000Y-80635714D01*
X117127619Y-80588095D01*
X117222857Y-80540476D01*
X117270476Y-80540476D01*
X117365714Y-80588095D01*
X117413333Y-80635714D01*
X117460952Y-80730952D01*
X117460952Y-80921428D01*
X117508571Y-81016666D01*
X117556190Y-81064285D01*
X117651428Y-81111904D01*
X117841904Y-81111904D01*
X117937142Y-81064285D01*
X117984761Y-81016666D01*
X118032380Y-80921428D01*
X118032380Y-80730952D01*
X117984761Y-80635714D01*
X117937142Y-80588095D01*
X117841904Y-80540476D01*
X117651428Y-80540476D01*
X117556190Y-80588095D01*
X117508571Y-80635714D01*
X117460952Y-80730952D01*
X108387142Y-78142857D02*
X108434761Y-78190476D01*
X108482380Y-78333333D01*
X108482380Y-78428571D01*
X108434761Y-78571428D01*
X108339523Y-78666666D01*
X108244285Y-78714285D01*
X108053809Y-78761904D01*
X107910952Y-78761904D01*
X107720476Y-78714285D01*
X107625238Y-78666666D01*
X107530000Y-78571428D01*
X107482380Y-78428571D01*
X107482380Y-78333333D01*
X107530000Y-78190476D01*
X107577619Y-78142857D01*
X107482380Y-77809523D02*
X107482380Y-77190476D01*
X107863333Y-77523809D01*
X107863333Y-77380952D01*
X107910952Y-77285714D01*
X107958571Y-77238095D01*
X108053809Y-77190476D01*
X108291904Y-77190476D01*
X108387142Y-77238095D01*
X108434761Y-77285714D01*
X108482380Y-77380952D01*
X108482380Y-77666666D01*
X108434761Y-77761904D01*
X108387142Y-77809523D01*
X107482380Y-76857142D02*
X107482380Y-76238095D01*
X107863333Y-76571428D01*
X107863333Y-76428571D01*
X107910952Y-76333333D01*
X107958571Y-76285714D01*
X108053809Y-76238095D01*
X108291904Y-76238095D01*
X108387142Y-76285714D01*
X108434761Y-76333333D01*
X108482380Y-76428571D01*
X108482380Y-76714285D01*
X108434761Y-76809523D01*
X108387142Y-76857142D01*
X106187142Y-78666666D02*
X106234761Y-78714285D01*
X106282380Y-78857142D01*
X106282380Y-78952380D01*
X106234761Y-79095238D01*
X106139523Y-79190476D01*
X106044285Y-79238095D01*
X105853809Y-79285714D01*
X105710952Y-79285714D01*
X105520476Y-79238095D01*
X105425238Y-79190476D01*
X105330000Y-79095238D01*
X105282380Y-78952380D01*
X105282380Y-78857142D01*
X105330000Y-78714285D01*
X105377619Y-78666666D01*
X105710952Y-78095238D02*
X105663333Y-78190476D01*
X105615714Y-78238095D01*
X105520476Y-78285714D01*
X105472857Y-78285714D01*
X105377619Y-78238095D01*
X105330000Y-78190476D01*
X105282380Y-78095238D01*
X105282380Y-77904761D01*
X105330000Y-77809523D01*
X105377619Y-77761904D01*
X105472857Y-77714285D01*
X105520476Y-77714285D01*
X105615714Y-77761904D01*
X105663333Y-77809523D01*
X105710952Y-77904761D01*
X105710952Y-78095238D01*
X105758571Y-78190476D01*
X105806190Y-78238095D01*
X105901428Y-78285714D01*
X106091904Y-78285714D01*
X106187142Y-78238095D01*
X106234761Y-78190476D01*
X106282380Y-78095238D01*
X106282380Y-77904761D01*
X106234761Y-77809523D01*
X106187142Y-77761904D01*
X106091904Y-77714285D01*
X105901428Y-77714285D01*
X105806190Y-77761904D01*
X105758571Y-77809523D01*
X105710952Y-77904761D01*
X115877142Y-92974166D02*
X115924761Y-93021785D01*
X115972380Y-93164642D01*
X115972380Y-93259880D01*
X115924761Y-93402738D01*
X115829523Y-93497976D01*
X115734285Y-93545595D01*
X115543809Y-93593214D01*
X115400952Y-93593214D01*
X115210476Y-93545595D01*
X115115238Y-93497976D01*
X115020000Y-93402738D01*
X114972380Y-93259880D01*
X114972380Y-93164642D01*
X115020000Y-93021785D01*
X115067619Y-92974166D01*
X114972380Y-92069404D02*
X114972380Y-92545595D01*
X115448571Y-92593214D01*
X115400952Y-92545595D01*
X115353333Y-92450357D01*
X115353333Y-92212261D01*
X115400952Y-92117023D01*
X115448571Y-92069404D01*
X115543809Y-92021785D01*
X115781904Y-92021785D01*
X115877142Y-92069404D01*
X115924761Y-92117023D01*
X115972380Y-92212261D01*
X115972380Y-92450357D01*
X115924761Y-92545595D01*
X115877142Y-92593214D01*
X106227142Y-89566666D02*
X106274761Y-89614285D01*
X106322380Y-89757142D01*
X106322380Y-89852380D01*
X106274761Y-89995238D01*
X106179523Y-90090476D01*
X106084285Y-90138095D01*
X105893809Y-90185714D01*
X105750952Y-90185714D01*
X105560476Y-90138095D01*
X105465238Y-90090476D01*
X105370000Y-89995238D01*
X105322380Y-89852380D01*
X105322380Y-89757142D01*
X105370000Y-89614285D01*
X105417619Y-89566666D01*
X105655714Y-88709523D02*
X106322380Y-88709523D01*
X105274761Y-88947619D02*
X105989047Y-89185714D01*
X105989047Y-88566666D01*
X96704285Y-26512380D02*
X96704285Y-25512380D01*
X97085238Y-25512380D01*
X97180476Y-25560000D01*
X97228095Y-25607619D01*
X97275714Y-25702857D01*
X97275714Y-25845714D01*
X97228095Y-25940952D01*
X97180476Y-25988571D01*
X97085238Y-26036190D01*
X96704285Y-26036190D01*
X98275714Y-26512380D02*
X97942380Y-26036190D01*
X97704285Y-26512380D02*
X97704285Y-25512380D01*
X98085238Y-25512380D01*
X98180476Y-25560000D01*
X98228095Y-25607619D01*
X98275714Y-25702857D01*
X98275714Y-25845714D01*
X98228095Y-25940952D01*
X98180476Y-25988571D01*
X98085238Y-26036190D01*
X97704285Y-26036190D01*
X98894761Y-25512380D02*
X99085238Y-25512380D01*
X99180476Y-25560000D01*
X99275714Y-25655238D01*
X99323333Y-25845714D01*
X99323333Y-26179047D01*
X99275714Y-26369523D01*
X99180476Y-26464761D01*
X99085238Y-26512380D01*
X98894761Y-26512380D01*
X98799523Y-26464761D01*
X98704285Y-26369523D01*
X98656666Y-26179047D01*
X98656666Y-25845714D01*
X98704285Y-25655238D01*
X98799523Y-25560000D01*
X98894761Y-25512380D01*
X100275714Y-25560000D02*
X100180476Y-25512380D01*
X100037619Y-25512380D01*
X99894761Y-25560000D01*
X99799523Y-25655238D01*
X99751904Y-25750476D01*
X99704285Y-25940952D01*
X99704285Y-26083809D01*
X99751904Y-26274285D01*
X99799523Y-26369523D01*
X99894761Y-26464761D01*
X100037619Y-26512380D01*
X100132857Y-26512380D01*
X100275714Y-26464761D01*
X100323333Y-26417142D01*
X100323333Y-26083809D01*
X100132857Y-26083809D01*
X98442380Y-32352380D02*
X98109047Y-31876190D01*
X97870952Y-32352380D02*
X97870952Y-31352380D01*
X98251904Y-31352380D01*
X98347142Y-31400000D01*
X98394761Y-31447619D01*
X98442380Y-31542857D01*
X98442380Y-31685714D01*
X98394761Y-31780952D01*
X98347142Y-31828571D01*
X98251904Y-31876190D01*
X97870952Y-31876190D01*
X98823333Y-32304761D02*
X98966190Y-32352380D01*
X99204285Y-32352380D01*
X99299523Y-32304761D01*
X99347142Y-32257142D01*
X99394761Y-32161904D01*
X99394761Y-32066666D01*
X99347142Y-31971428D01*
X99299523Y-31923809D01*
X99204285Y-31876190D01*
X99013809Y-31828571D01*
X98918571Y-31780952D01*
X98870952Y-31733333D01*
X98823333Y-31638095D01*
X98823333Y-31542857D01*
X98870952Y-31447619D01*
X98918571Y-31400000D01*
X99013809Y-31352380D01*
X99251904Y-31352380D01*
X99394761Y-31400000D01*
X99680476Y-31352380D02*
X100251904Y-31352380D01*
X99966190Y-32352380D02*
X99966190Y-31352380D01*
X84957142Y-58492857D02*
X85004761Y-58540476D01*
X85052380Y-58683333D01*
X85052380Y-58778571D01*
X85004761Y-58921428D01*
X84909523Y-59016666D01*
X84814285Y-59064285D01*
X84623809Y-59111904D01*
X84480952Y-59111904D01*
X84290476Y-59064285D01*
X84195238Y-59016666D01*
X84100000Y-58921428D01*
X84052380Y-58778571D01*
X84052380Y-58683333D01*
X84100000Y-58540476D01*
X84147619Y-58492857D01*
X84052380Y-58159523D02*
X84052380Y-57540476D01*
X84433333Y-57873809D01*
X84433333Y-57730952D01*
X84480952Y-57635714D01*
X84528571Y-57588095D01*
X84623809Y-57540476D01*
X84861904Y-57540476D01*
X84957142Y-57588095D01*
X85004761Y-57635714D01*
X85052380Y-57730952D01*
X85052380Y-58016666D01*
X85004761Y-58111904D01*
X84957142Y-58159523D01*
X84052380Y-56683333D02*
X84052380Y-56873809D01*
X84100000Y-56969047D01*
X84147619Y-57016666D01*
X84290476Y-57111904D01*
X84480952Y-57159523D01*
X84861904Y-57159523D01*
X84957142Y-57111904D01*
X85004761Y-57064285D01*
X85052380Y-56969047D01*
X85052380Y-56778571D01*
X85004761Y-56683333D01*
X84957142Y-56635714D01*
X84861904Y-56588095D01*
X84623809Y-56588095D01*
X84528571Y-56635714D01*
X84480952Y-56683333D01*
X84433333Y-56778571D01*
X84433333Y-56969047D01*
X84480952Y-57064285D01*
X84528571Y-57111904D01*
X84623809Y-57159523D01*
X39583333Y-51952380D02*
X39250000Y-51476190D01*
X39011904Y-51952380D02*
X39011904Y-50952380D01*
X39392857Y-50952380D01*
X39488095Y-51000000D01*
X39535714Y-51047619D01*
X39583333Y-51142857D01*
X39583333Y-51285714D01*
X39535714Y-51380952D01*
X39488095Y-51428571D01*
X39392857Y-51476190D01*
X39011904Y-51476190D01*
X39916666Y-50952380D02*
X40535714Y-50952380D01*
X40202380Y-51333333D01*
X40345238Y-51333333D01*
X40440476Y-51380952D01*
X40488095Y-51428571D01*
X40535714Y-51523809D01*
X40535714Y-51761904D01*
X40488095Y-51857142D01*
X40440476Y-51904761D01*
X40345238Y-51952380D01*
X40059523Y-51952380D01*
X39964285Y-51904761D01*
X39916666Y-51857142D01*
X114579666Y-50546380D02*
X114579666Y-51260666D01*
X114532047Y-51403523D01*
X114436809Y-51498761D01*
X114293952Y-51546380D01*
X114198714Y-51546380D01*
X115484428Y-50546380D02*
X115293952Y-50546380D01*
X115198714Y-50594000D01*
X115151095Y-50641619D01*
X115055857Y-50784476D01*
X115008238Y-50974952D01*
X115008238Y-51355904D01*
X115055857Y-51451142D01*
X115103476Y-51498761D01*
X115198714Y-51546380D01*
X115389190Y-51546380D01*
X115484428Y-51498761D01*
X115532047Y-51451142D01*
X115579666Y-51355904D01*
X115579666Y-51117809D01*
X115532047Y-51022571D01*
X115484428Y-50974952D01*
X115389190Y-50927333D01*
X115198714Y-50927333D01*
X115103476Y-50974952D01*
X115055857Y-51022571D01*
X115008238Y-51117809D01*
X31009880Y-87776666D02*
X30533690Y-88110000D01*
X31009880Y-88348095D02*
X30009880Y-88348095D01*
X30009880Y-87967142D01*
X30057500Y-87871904D01*
X30105119Y-87824285D01*
X30200357Y-87776666D01*
X30343214Y-87776666D01*
X30438452Y-87824285D01*
X30486071Y-87871904D01*
X30533690Y-87967142D01*
X30533690Y-88348095D01*
X30105119Y-87395714D02*
X30057500Y-87348095D01*
X30009880Y-87252857D01*
X30009880Y-87014761D01*
X30057500Y-86919523D01*
X30105119Y-86871904D01*
X30200357Y-86824285D01*
X30295595Y-86824285D01*
X30438452Y-86871904D01*
X31009880Y-87443333D01*
X31009880Y-86824285D01*
X46233333Y-113652380D02*
X45900000Y-113176190D01*
X45661904Y-113652380D02*
X45661904Y-112652380D01*
X46042857Y-112652380D01*
X46138095Y-112700000D01*
X46185714Y-112747619D01*
X46233333Y-112842857D01*
X46233333Y-112985714D01*
X46185714Y-113080952D01*
X46138095Y-113128571D01*
X46042857Y-113176190D01*
X45661904Y-113176190D01*
X46804761Y-113080952D02*
X46709523Y-113033333D01*
X46661904Y-112985714D01*
X46614285Y-112890476D01*
X46614285Y-112842857D01*
X46661904Y-112747619D01*
X46709523Y-112700000D01*
X46804761Y-112652380D01*
X46995238Y-112652380D01*
X47090476Y-112700000D01*
X47138095Y-112747619D01*
X47185714Y-112842857D01*
X47185714Y-112890476D01*
X47138095Y-112985714D01*
X47090476Y-113033333D01*
X46995238Y-113080952D01*
X46804761Y-113080952D01*
X46709523Y-113128571D01*
X46661904Y-113176190D01*
X46614285Y-113271428D01*
X46614285Y-113461904D01*
X46661904Y-113557142D01*
X46709523Y-113604761D01*
X46804761Y-113652380D01*
X46995238Y-113652380D01*
X47090476Y-113604761D01*
X47138095Y-113557142D01*
X47185714Y-113461904D01*
X47185714Y-113271428D01*
X47138095Y-113176190D01*
X47090476Y-113128571D01*
X46995238Y-113080952D01*
X48475833Y-107152380D02*
X48142500Y-106676190D01*
X47904404Y-107152380D02*
X47904404Y-106152380D01*
X48285357Y-106152380D01*
X48380595Y-106200000D01*
X48428214Y-106247619D01*
X48475833Y-106342857D01*
X48475833Y-106485714D01*
X48428214Y-106580952D01*
X48380595Y-106628571D01*
X48285357Y-106676190D01*
X47904404Y-106676190D01*
X48809166Y-106152380D02*
X49475833Y-106152380D01*
X49047261Y-107152380D01*
X56957142Y-116727142D02*
X56909523Y-116774761D01*
X56766666Y-116822380D01*
X56671428Y-116822380D01*
X56528571Y-116774761D01*
X56433333Y-116679523D01*
X56385714Y-116584285D01*
X56338095Y-116393809D01*
X56338095Y-116250952D01*
X56385714Y-116060476D01*
X56433333Y-115965238D01*
X56528571Y-115870000D01*
X56671428Y-115822380D01*
X56766666Y-115822380D01*
X56909523Y-115870000D01*
X56957142Y-115917619D01*
X57338095Y-115917619D02*
X57385714Y-115870000D01*
X57480952Y-115822380D01*
X57719047Y-115822380D01*
X57814285Y-115870000D01*
X57861904Y-115917619D01*
X57909523Y-116012857D01*
X57909523Y-116108095D01*
X57861904Y-116250952D01*
X57290476Y-116822380D01*
X57909523Y-116822380D01*
X58242857Y-115822380D02*
X58909523Y-115822380D01*
X58480952Y-116822380D01*
X68837142Y-108200357D02*
X68884761Y-108247976D01*
X68932380Y-108390833D01*
X68932380Y-108486071D01*
X68884761Y-108628928D01*
X68789523Y-108724166D01*
X68694285Y-108771785D01*
X68503809Y-108819404D01*
X68360952Y-108819404D01*
X68170476Y-108771785D01*
X68075238Y-108724166D01*
X67980000Y-108628928D01*
X67932380Y-108486071D01*
X67932380Y-108390833D01*
X67980000Y-108247976D01*
X68027619Y-108200357D01*
X68027619Y-107819404D02*
X67980000Y-107771785D01*
X67932380Y-107676547D01*
X67932380Y-107438452D01*
X67980000Y-107343214D01*
X68027619Y-107295595D01*
X68122857Y-107247976D01*
X68218095Y-107247976D01*
X68360952Y-107295595D01*
X68932380Y-107867023D01*
X68932380Y-107247976D01*
X68265714Y-106390833D02*
X68932380Y-106390833D01*
X67884761Y-106628928D02*
X68599047Y-106867023D01*
X68599047Y-106247976D01*
X71737142Y-109662857D02*
X71784761Y-109710476D01*
X71832380Y-109853333D01*
X71832380Y-109948571D01*
X71784761Y-110091428D01*
X71689523Y-110186666D01*
X71594285Y-110234285D01*
X71403809Y-110281904D01*
X71260952Y-110281904D01*
X71070476Y-110234285D01*
X70975238Y-110186666D01*
X70880000Y-110091428D01*
X70832380Y-109948571D01*
X70832380Y-109853333D01*
X70880000Y-109710476D01*
X70927619Y-109662857D01*
X70927619Y-109281904D02*
X70880000Y-109234285D01*
X70832380Y-109139047D01*
X70832380Y-108900952D01*
X70880000Y-108805714D01*
X70927619Y-108758095D01*
X71022857Y-108710476D01*
X71118095Y-108710476D01*
X71260952Y-108758095D01*
X71832380Y-109329523D01*
X71832380Y-108710476D01*
X70832380Y-108377142D02*
X70832380Y-107758095D01*
X71213333Y-108091428D01*
X71213333Y-107948571D01*
X71260952Y-107853333D01*
X71308571Y-107805714D01*
X71403809Y-107758095D01*
X71641904Y-107758095D01*
X71737142Y-107805714D01*
X71784761Y-107853333D01*
X71832380Y-107948571D01*
X71832380Y-108234285D01*
X71784761Y-108329523D01*
X71737142Y-108377142D01*
X53997142Y-96157142D02*
X53949523Y-96204761D01*
X53806666Y-96252380D01*
X53711428Y-96252380D01*
X53568571Y-96204761D01*
X53473333Y-96109523D01*
X53425714Y-96014285D01*
X53378095Y-95823809D01*
X53378095Y-95680952D01*
X53425714Y-95490476D01*
X53473333Y-95395238D01*
X53568571Y-95300000D01*
X53711428Y-95252380D01*
X53806666Y-95252380D01*
X53949523Y-95300000D01*
X53997142Y-95347619D01*
X54378095Y-95347619D02*
X54425714Y-95300000D01*
X54520952Y-95252380D01*
X54759047Y-95252380D01*
X54854285Y-95300000D01*
X54901904Y-95347619D01*
X54949523Y-95442857D01*
X54949523Y-95538095D01*
X54901904Y-95680952D01*
X54330476Y-96252380D01*
X54949523Y-96252380D01*
X55330476Y-95347619D02*
X55378095Y-95300000D01*
X55473333Y-95252380D01*
X55711428Y-95252380D01*
X55806666Y-95300000D01*
X55854285Y-95347619D01*
X55901904Y-95442857D01*
X55901904Y-95538095D01*
X55854285Y-95680952D01*
X55282857Y-96252380D01*
X55901904Y-96252380D01*
X54227142Y-94167142D02*
X54179523Y-94214761D01*
X54036666Y-94262380D01*
X53941428Y-94262380D01*
X53798571Y-94214761D01*
X53703333Y-94119523D01*
X53655714Y-94024285D01*
X53608095Y-93833809D01*
X53608095Y-93690952D01*
X53655714Y-93500476D01*
X53703333Y-93405238D01*
X53798571Y-93310000D01*
X53941428Y-93262380D01*
X54036666Y-93262380D01*
X54179523Y-93310000D01*
X54227142Y-93357619D01*
X54608095Y-93357619D02*
X54655714Y-93310000D01*
X54750952Y-93262380D01*
X54989047Y-93262380D01*
X55084285Y-93310000D01*
X55131904Y-93357619D01*
X55179523Y-93452857D01*
X55179523Y-93548095D01*
X55131904Y-93690952D01*
X54560476Y-94262380D01*
X55179523Y-94262380D01*
X56131904Y-94262380D02*
X55560476Y-94262380D01*
X55846190Y-94262380D02*
X55846190Y-93262380D01*
X55750952Y-93405238D01*
X55655714Y-93500476D01*
X55560476Y-93548095D01*
X57535142Y-90295742D02*
X57487523Y-90343361D01*
X57344666Y-90390980D01*
X57249428Y-90390980D01*
X57106571Y-90343361D01*
X57011333Y-90248123D01*
X56963714Y-90152885D01*
X56916095Y-89962409D01*
X56916095Y-89819552D01*
X56963714Y-89629076D01*
X57011333Y-89533838D01*
X57106571Y-89438600D01*
X57249428Y-89390980D01*
X57344666Y-89390980D01*
X57487523Y-89438600D01*
X57535142Y-89486219D01*
X57916095Y-89486219D02*
X57963714Y-89438600D01*
X58058952Y-89390980D01*
X58297047Y-89390980D01*
X58392285Y-89438600D01*
X58439904Y-89486219D01*
X58487523Y-89581457D01*
X58487523Y-89676695D01*
X58439904Y-89819552D01*
X57868476Y-90390980D01*
X58487523Y-90390980D01*
X59106571Y-89390980D02*
X59201809Y-89390980D01*
X59297047Y-89438600D01*
X59344666Y-89486219D01*
X59392285Y-89581457D01*
X59439904Y-89771933D01*
X59439904Y-90010028D01*
X59392285Y-90200504D01*
X59344666Y-90295742D01*
X59297047Y-90343361D01*
X59201809Y-90390980D01*
X59106571Y-90390980D01*
X59011333Y-90343361D01*
X58963714Y-90295742D01*
X58916095Y-90200504D01*
X58868476Y-90010028D01*
X58868476Y-89771933D01*
X58916095Y-89581457D01*
X58963714Y-89486219D01*
X59011333Y-89438600D01*
X59106571Y-89390980D01*
X80967142Y-98292857D02*
X81014761Y-98340476D01*
X81062380Y-98483333D01*
X81062380Y-98578571D01*
X81014761Y-98721428D01*
X80919523Y-98816666D01*
X80824285Y-98864285D01*
X80633809Y-98911904D01*
X80490952Y-98911904D01*
X80300476Y-98864285D01*
X80205238Y-98816666D01*
X80110000Y-98721428D01*
X80062380Y-98578571D01*
X80062380Y-98483333D01*
X80110000Y-98340476D01*
X80157619Y-98292857D01*
X81062380Y-97340476D02*
X81062380Y-97911904D01*
X81062380Y-97626190D02*
X80062380Y-97626190D01*
X80205238Y-97721428D01*
X80300476Y-97816666D01*
X80348095Y-97911904D01*
X81062380Y-96864285D02*
X81062380Y-96673809D01*
X81014761Y-96578571D01*
X80967142Y-96530952D01*
X80824285Y-96435714D01*
X80633809Y-96388095D01*
X80252857Y-96388095D01*
X80157619Y-96435714D01*
X80110000Y-96483333D01*
X80062380Y-96578571D01*
X80062380Y-96769047D01*
X80110000Y-96864285D01*
X80157619Y-96911904D01*
X80252857Y-96959523D01*
X80490952Y-96959523D01*
X80586190Y-96911904D01*
X80633809Y-96864285D01*
X80681428Y-96769047D01*
X80681428Y-96578571D01*
X80633809Y-96483333D01*
X80586190Y-96435714D01*
X80490952Y-96388095D01*
X70057142Y-98230357D02*
X70104761Y-98277976D01*
X70152380Y-98420833D01*
X70152380Y-98516071D01*
X70104761Y-98658928D01*
X70009523Y-98754166D01*
X69914285Y-98801785D01*
X69723809Y-98849404D01*
X69580952Y-98849404D01*
X69390476Y-98801785D01*
X69295238Y-98754166D01*
X69200000Y-98658928D01*
X69152380Y-98516071D01*
X69152380Y-98420833D01*
X69200000Y-98277976D01*
X69247619Y-98230357D01*
X70152380Y-97277976D02*
X70152380Y-97849404D01*
X70152380Y-97563690D02*
X69152380Y-97563690D01*
X69295238Y-97658928D01*
X69390476Y-97754166D01*
X69438095Y-97849404D01*
X69580952Y-96706547D02*
X69533333Y-96801785D01*
X69485714Y-96849404D01*
X69390476Y-96897023D01*
X69342857Y-96897023D01*
X69247619Y-96849404D01*
X69200000Y-96801785D01*
X69152380Y-96706547D01*
X69152380Y-96516071D01*
X69200000Y-96420833D01*
X69247619Y-96373214D01*
X69342857Y-96325595D01*
X69390476Y-96325595D01*
X69485714Y-96373214D01*
X69533333Y-96420833D01*
X69580952Y-96516071D01*
X69580952Y-96706547D01*
X69628571Y-96801785D01*
X69676190Y-96849404D01*
X69771428Y-96897023D01*
X69961904Y-96897023D01*
X70057142Y-96849404D01*
X70104761Y-96801785D01*
X70152380Y-96706547D01*
X70152380Y-96516071D01*
X70104761Y-96420833D01*
X70057142Y-96373214D01*
X69961904Y-96325595D01*
X69771428Y-96325595D01*
X69676190Y-96373214D01*
X69628571Y-96420833D01*
X69580952Y-96516071D01*
X38561904Y-23002380D02*
X38561904Y-22002380D01*
X38800000Y-22002380D01*
X38942857Y-22050000D01*
X39038095Y-22145238D01*
X39085714Y-22240476D01*
X39133333Y-22430952D01*
X39133333Y-22573809D01*
X39085714Y-22764285D01*
X39038095Y-22859523D01*
X38942857Y-22954761D01*
X38800000Y-23002380D01*
X38561904Y-23002380D01*
X40085714Y-23002380D02*
X39514285Y-23002380D01*
X39800000Y-23002380D02*
X39800000Y-22002380D01*
X39704761Y-22145238D01*
X39609523Y-22240476D01*
X39514285Y-22288095D01*
X77273333Y-61857142D02*
X77225714Y-61904761D01*
X77082857Y-61952380D01*
X76987619Y-61952380D01*
X76844761Y-61904761D01*
X76749523Y-61809523D01*
X76701904Y-61714285D01*
X76654285Y-61523809D01*
X76654285Y-61380952D01*
X76701904Y-61190476D01*
X76749523Y-61095238D01*
X76844761Y-61000000D01*
X76987619Y-60952380D01*
X77082857Y-60952380D01*
X77225714Y-61000000D01*
X77273333Y-61047619D01*
X77654285Y-61047619D02*
X77701904Y-61000000D01*
X77797142Y-60952380D01*
X78035238Y-60952380D01*
X78130476Y-61000000D01*
X78178095Y-61047619D01*
X78225714Y-61142857D01*
X78225714Y-61238095D01*
X78178095Y-61380952D01*
X77606666Y-61952380D01*
X78225714Y-61952380D01*
X75993333Y-50447142D02*
X75945714Y-50494761D01*
X75802857Y-50542380D01*
X75707619Y-50542380D01*
X75564761Y-50494761D01*
X75469523Y-50399523D01*
X75421904Y-50304285D01*
X75374285Y-50113809D01*
X75374285Y-49970952D01*
X75421904Y-49780476D01*
X75469523Y-49685238D01*
X75564761Y-49590000D01*
X75707619Y-49542380D01*
X75802857Y-49542380D01*
X75945714Y-49590000D01*
X75993333Y-49637619D01*
X76945714Y-50542380D02*
X76374285Y-50542380D01*
X76660000Y-50542380D02*
X76660000Y-49542380D01*
X76564761Y-49685238D01*
X76469523Y-49780476D01*
X76374285Y-49828095D01*
X101100833Y-38632380D02*
X100767500Y-38156190D01*
X100529404Y-38632380D02*
X100529404Y-37632380D01*
X100910357Y-37632380D01*
X101005595Y-37680000D01*
X101053214Y-37727619D01*
X101100833Y-37822857D01*
X101100833Y-37965714D01*
X101053214Y-38060952D01*
X101005595Y-38108571D01*
X100910357Y-38156190D01*
X100529404Y-38156190D01*
X102053214Y-38632380D02*
X101481785Y-38632380D01*
X101767500Y-38632380D02*
X101767500Y-37632380D01*
X101672261Y-37775238D01*
X101577023Y-37870476D01*
X101481785Y-37918095D01*
X114530833Y-32867142D02*
X114483214Y-32914761D01*
X114340357Y-32962380D01*
X114245119Y-32962380D01*
X114102261Y-32914761D01*
X114007023Y-32819523D01*
X113959404Y-32724285D01*
X113911785Y-32533809D01*
X113911785Y-32390952D01*
X113959404Y-32200476D01*
X114007023Y-32105238D01*
X114102261Y-32010000D01*
X114245119Y-31962380D01*
X114340357Y-31962380D01*
X114483214Y-32010000D01*
X114530833Y-32057619D01*
X115387976Y-31962380D02*
X115197500Y-31962380D01*
X115102261Y-32010000D01*
X115054642Y-32057619D01*
X114959404Y-32200476D01*
X114911785Y-32390952D01*
X114911785Y-32771904D01*
X114959404Y-32867142D01*
X115007023Y-32914761D01*
X115102261Y-32962380D01*
X115292738Y-32962380D01*
X115387976Y-32914761D01*
X115435595Y-32867142D01*
X115483214Y-32771904D01*
X115483214Y-32533809D01*
X115435595Y-32438571D01*
X115387976Y-32390952D01*
X115292738Y-32343333D01*
X115102261Y-32343333D01*
X115007023Y-32390952D01*
X114959404Y-32438571D01*
X114911785Y-32533809D01*
X41679880Y-87786666D02*
X41203690Y-88120000D01*
X41679880Y-88358095D02*
X40679880Y-88358095D01*
X40679880Y-87977142D01*
X40727500Y-87881904D01*
X40775119Y-87834285D01*
X40870357Y-87786666D01*
X41013214Y-87786666D01*
X41108452Y-87834285D01*
X41156071Y-87881904D01*
X41203690Y-87977142D01*
X41203690Y-88358095D01*
X41679880Y-87310476D02*
X41679880Y-87120000D01*
X41632261Y-87024761D01*
X41584642Y-86977142D01*
X41441785Y-86881904D01*
X41251309Y-86834285D01*
X40870357Y-86834285D01*
X40775119Y-86881904D01*
X40727500Y-86929523D01*
X40679880Y-87024761D01*
X40679880Y-87215238D01*
X40727500Y-87310476D01*
X40775119Y-87358095D01*
X40870357Y-87405714D01*
X41108452Y-87405714D01*
X41203690Y-87358095D01*
X41251309Y-87310476D01*
X41298928Y-87215238D01*
X41298928Y-87024761D01*
X41251309Y-86929523D01*
X41203690Y-86881904D01*
X41108452Y-86834285D01*
X66277142Y-92252380D02*
X65943809Y-91776190D01*
X65705714Y-92252380D02*
X65705714Y-91252380D01*
X66086666Y-91252380D01*
X66181904Y-91300000D01*
X66229523Y-91347619D01*
X66277142Y-91442857D01*
X66277142Y-91585714D01*
X66229523Y-91680952D01*
X66181904Y-91728571D01*
X66086666Y-91776190D01*
X65705714Y-91776190D01*
X67229523Y-92252380D02*
X66658095Y-92252380D01*
X66943809Y-92252380D02*
X66943809Y-91252380D01*
X66848571Y-91395238D01*
X66753333Y-91490476D01*
X66658095Y-91538095D01*
X67848571Y-91252380D02*
X67943809Y-91252380D01*
X68039047Y-91300000D01*
X68086666Y-91347619D01*
X68134285Y-91442857D01*
X68181904Y-91633333D01*
X68181904Y-91871428D01*
X68134285Y-92061904D01*
X68086666Y-92157142D01*
X68039047Y-92204761D01*
X67943809Y-92252380D01*
X67848571Y-92252380D01*
X67753333Y-92204761D01*
X67705714Y-92157142D01*
X67658095Y-92061904D01*
X67610476Y-91871428D01*
X67610476Y-91633333D01*
X67658095Y-91442857D01*
X67705714Y-91347619D01*
X67753333Y-91300000D01*
X67848571Y-91252380D01*
X72807142Y-33457142D02*
X72759523Y-33504761D01*
X72616666Y-33552380D01*
X72521428Y-33552380D01*
X72378571Y-33504761D01*
X72283333Y-33409523D01*
X72235714Y-33314285D01*
X72188095Y-33123809D01*
X72188095Y-32980952D01*
X72235714Y-32790476D01*
X72283333Y-32695238D01*
X72378571Y-32600000D01*
X72521428Y-32552380D01*
X72616666Y-32552380D01*
X72759523Y-32600000D01*
X72807142Y-32647619D01*
X73759523Y-33552380D02*
X73188095Y-33552380D01*
X73473809Y-33552380D02*
X73473809Y-32552380D01*
X73378571Y-32695238D01*
X73283333Y-32790476D01*
X73188095Y-32838095D01*
X74664285Y-32552380D02*
X74188095Y-32552380D01*
X74140476Y-33028571D01*
X74188095Y-32980952D01*
X74283333Y-32933333D01*
X74521428Y-32933333D01*
X74616666Y-32980952D01*
X74664285Y-33028571D01*
X74711904Y-33123809D01*
X74711904Y-33361904D01*
X74664285Y-33457142D01*
X74616666Y-33504761D01*
X74521428Y-33552380D01*
X74283333Y-33552380D01*
X74188095Y-33504761D01*
X74140476Y-33457142D01*
X30983333Y-36952380D02*
X30507142Y-36952380D01*
X30507142Y-35952380D01*
X31840476Y-36952380D02*
X31269047Y-36952380D01*
X31554761Y-36952380D02*
X31554761Y-35952380D01*
X31459523Y-36095238D01*
X31364285Y-36190476D01*
X31269047Y-36238095D01*
X61283333Y-25392380D02*
X60807142Y-25392380D01*
X60807142Y-24392380D01*
X61569047Y-24487619D02*
X61616666Y-24440000D01*
X61711904Y-24392380D01*
X61950000Y-24392380D01*
X62045238Y-24440000D01*
X62092857Y-24487619D01*
X62140476Y-24582857D01*
X62140476Y-24678095D01*
X62092857Y-24820952D01*
X61521428Y-25392380D01*
X62140476Y-25392380D01*
X45307142Y-22502380D02*
X44973809Y-22026190D01*
X44735714Y-22502380D02*
X44735714Y-21502380D01*
X45116666Y-21502380D01*
X45211904Y-21550000D01*
X45259523Y-21597619D01*
X45307142Y-21692857D01*
X45307142Y-21835714D01*
X45259523Y-21930952D01*
X45211904Y-21978571D01*
X45116666Y-22026190D01*
X44735714Y-22026190D01*
X46259523Y-22502380D02*
X45688095Y-22502380D01*
X45973809Y-22502380D02*
X45973809Y-21502380D01*
X45878571Y-21645238D01*
X45783333Y-21740476D01*
X45688095Y-21788095D01*
X47211904Y-22502380D02*
X46640476Y-22502380D01*
X46926190Y-22502380D02*
X46926190Y-21502380D01*
X46830952Y-21645238D01*
X46735714Y-21740476D01*
X46640476Y-21788095D01*
X46207142Y-27302380D02*
X45873809Y-26826190D01*
X45635714Y-27302380D02*
X45635714Y-26302380D01*
X46016666Y-26302380D01*
X46111904Y-26350000D01*
X46159523Y-26397619D01*
X46207142Y-26492857D01*
X46207142Y-26635714D01*
X46159523Y-26730952D01*
X46111904Y-26778571D01*
X46016666Y-26826190D01*
X45635714Y-26826190D01*
X47159523Y-27302380D02*
X46588095Y-27302380D01*
X46873809Y-27302380D02*
X46873809Y-26302380D01*
X46778571Y-26445238D01*
X46683333Y-26540476D01*
X46588095Y-26588095D01*
X47540476Y-26397619D02*
X47588095Y-26350000D01*
X47683333Y-26302380D01*
X47921428Y-26302380D01*
X48016666Y-26350000D01*
X48064285Y-26397619D01*
X48111904Y-26492857D01*
X48111904Y-26588095D01*
X48064285Y-26730952D01*
X47492857Y-27302380D01*
X48111904Y-27302380D01*
X87266666Y-23092380D02*
X87266666Y-23806666D01*
X87219047Y-23949523D01*
X87123809Y-24044761D01*
X86980952Y-24092380D01*
X86885714Y-24092380D01*
X87647619Y-23092380D02*
X88314285Y-23092380D01*
X87885714Y-24092380D01*
X92227142Y-35772857D02*
X92274761Y-35820476D01*
X92322380Y-35963333D01*
X92322380Y-36058571D01*
X92274761Y-36201428D01*
X92179523Y-36296666D01*
X92084285Y-36344285D01*
X91893809Y-36391904D01*
X91750952Y-36391904D01*
X91560476Y-36344285D01*
X91465238Y-36296666D01*
X91370000Y-36201428D01*
X91322380Y-36058571D01*
X91322380Y-35963333D01*
X91370000Y-35820476D01*
X91417619Y-35772857D01*
X92322380Y-34820476D02*
X92322380Y-35391904D01*
X92322380Y-35106190D02*
X91322380Y-35106190D01*
X91465238Y-35201428D01*
X91560476Y-35296666D01*
X91608095Y-35391904D01*
X91322380Y-34487142D02*
X91322380Y-33820476D01*
X92322380Y-34249047D01*
X105717142Y-65292857D02*
X105764761Y-65340476D01*
X105812380Y-65483333D01*
X105812380Y-65578571D01*
X105764761Y-65721428D01*
X105669523Y-65816666D01*
X105574285Y-65864285D01*
X105383809Y-65911904D01*
X105240952Y-65911904D01*
X105050476Y-65864285D01*
X104955238Y-65816666D01*
X104860000Y-65721428D01*
X104812380Y-65578571D01*
X104812380Y-65483333D01*
X104860000Y-65340476D01*
X104907619Y-65292857D01*
X104907619Y-64911904D02*
X104860000Y-64864285D01*
X104812380Y-64769047D01*
X104812380Y-64530952D01*
X104860000Y-64435714D01*
X104907619Y-64388095D01*
X105002857Y-64340476D01*
X105098095Y-64340476D01*
X105240952Y-64388095D01*
X105812380Y-64959523D01*
X105812380Y-64340476D01*
X105240952Y-63769047D02*
X105193333Y-63864285D01*
X105145714Y-63911904D01*
X105050476Y-63959523D01*
X105002857Y-63959523D01*
X104907619Y-63911904D01*
X104860000Y-63864285D01*
X104812380Y-63769047D01*
X104812380Y-63578571D01*
X104860000Y-63483333D01*
X104907619Y-63435714D01*
X105002857Y-63388095D01*
X105050476Y-63388095D01*
X105145714Y-63435714D01*
X105193333Y-63483333D01*
X105240952Y-63578571D01*
X105240952Y-63769047D01*
X105288571Y-63864285D01*
X105336190Y-63911904D01*
X105431428Y-63959523D01*
X105621904Y-63959523D01*
X105717142Y-63911904D01*
X105764761Y-63864285D01*
X105812380Y-63769047D01*
X105812380Y-63578571D01*
X105764761Y-63483333D01*
X105717142Y-63435714D01*
X105621904Y-63388095D01*
X105431428Y-63388095D01*
X105336190Y-63435714D01*
X105288571Y-63483333D01*
X105240952Y-63578571D01*
X83389142Y-64746142D02*
X83341523Y-64793761D01*
X83198666Y-64841380D01*
X83103428Y-64841380D01*
X82960571Y-64793761D01*
X82865333Y-64698523D01*
X82817714Y-64603285D01*
X82770095Y-64412809D01*
X82770095Y-64269952D01*
X82817714Y-64079476D01*
X82865333Y-63984238D01*
X82960571Y-63889000D01*
X83103428Y-63841380D01*
X83198666Y-63841380D01*
X83341523Y-63889000D01*
X83389142Y-63936619D01*
X83722476Y-63841380D02*
X84341523Y-63841380D01*
X84008190Y-64222333D01*
X84151047Y-64222333D01*
X84246285Y-64269952D01*
X84293904Y-64317571D01*
X84341523Y-64412809D01*
X84341523Y-64650904D01*
X84293904Y-64746142D01*
X84246285Y-64793761D01*
X84151047Y-64841380D01*
X83865333Y-64841380D01*
X83770095Y-64793761D01*
X83722476Y-64746142D01*
X85293904Y-64841380D02*
X84722476Y-64841380D01*
X85008190Y-64841380D02*
X85008190Y-63841380D01*
X84912952Y-63984238D01*
X84817714Y-64079476D01*
X84722476Y-64127095D01*
X110741904Y-51012380D02*
X110741904Y-50012380D01*
X110980000Y-50012380D01*
X111122857Y-50060000D01*
X111218095Y-50155238D01*
X111265714Y-50250476D01*
X111313333Y-50440952D01*
X111313333Y-50583809D01*
X111265714Y-50774285D01*
X111218095Y-50869523D01*
X111122857Y-50964761D01*
X110980000Y-51012380D01*
X110741904Y-51012380D01*
X112170476Y-50345714D02*
X112170476Y-51012380D01*
X111932380Y-49964761D02*
X111694285Y-50679047D01*
X112313333Y-50679047D01*
X115832380Y-71622857D02*
X115356190Y-71956190D01*
X115832380Y-72194285D02*
X114832380Y-72194285D01*
X114832380Y-71813333D01*
X114880000Y-71718095D01*
X114927619Y-71670476D01*
X115022857Y-71622857D01*
X115165714Y-71622857D01*
X115260952Y-71670476D01*
X115308571Y-71718095D01*
X115356190Y-71813333D01*
X115356190Y-72194285D01*
X115832380Y-70670476D02*
X115832380Y-71241904D01*
X115832380Y-70956190D02*
X114832380Y-70956190D01*
X114975238Y-71051428D01*
X115070476Y-71146666D01*
X115118095Y-71241904D01*
X114832380Y-69765714D02*
X114832380Y-70241904D01*
X115308571Y-70289523D01*
X115260952Y-70241904D01*
X115213333Y-70146666D01*
X115213333Y-69908571D01*
X115260952Y-69813333D01*
X115308571Y-69765714D01*
X115403809Y-69718095D01*
X115641904Y-69718095D01*
X115737142Y-69765714D01*
X115784761Y-69813333D01*
X115832380Y-69908571D01*
X115832380Y-70146666D01*
X115784761Y-70241904D01*
X115737142Y-70289523D01*
X29083333Y-29057142D02*
X29035714Y-29104761D01*
X28892857Y-29152380D01*
X28797619Y-29152380D01*
X28654761Y-29104761D01*
X28559523Y-29009523D01*
X28511904Y-28914285D01*
X28464285Y-28723809D01*
X28464285Y-28580952D01*
X28511904Y-28390476D01*
X28559523Y-28295238D01*
X28654761Y-28200000D01*
X28797619Y-28152380D01*
X28892857Y-28152380D01*
X29035714Y-28200000D01*
X29083333Y-28247619D01*
X29559523Y-29152380D02*
X29750000Y-29152380D01*
X29845238Y-29104761D01*
X29892857Y-29057142D01*
X29988095Y-28914285D01*
X30035714Y-28723809D01*
X30035714Y-28342857D01*
X29988095Y-28247619D01*
X29940476Y-28200000D01*
X29845238Y-28152380D01*
X29654761Y-28152380D01*
X29559523Y-28200000D01*
X29511904Y-28247619D01*
X29464285Y-28342857D01*
X29464285Y-28580952D01*
X29511904Y-28676190D01*
X29559523Y-28723809D01*
X29654761Y-28771428D01*
X29845238Y-28771428D01*
X29940476Y-28723809D01*
X29988095Y-28676190D01*
X30035714Y-28580952D01*
X52107142Y-35842857D02*
X52154761Y-35890476D01*
X52202380Y-36033333D01*
X52202380Y-36128571D01*
X52154761Y-36271428D01*
X52059523Y-36366666D01*
X51964285Y-36414285D01*
X51773809Y-36461904D01*
X51630952Y-36461904D01*
X51440476Y-36414285D01*
X51345238Y-36366666D01*
X51250000Y-36271428D01*
X51202380Y-36128571D01*
X51202380Y-36033333D01*
X51250000Y-35890476D01*
X51297619Y-35842857D01*
X52202380Y-34890476D02*
X52202380Y-35461904D01*
X52202380Y-35176190D02*
X51202380Y-35176190D01*
X51345238Y-35271428D01*
X51440476Y-35366666D01*
X51488095Y-35461904D01*
X51202380Y-34271428D02*
X51202380Y-34176190D01*
X51250000Y-34080952D01*
X51297619Y-34033333D01*
X51392857Y-33985714D01*
X51583333Y-33938095D01*
X51821428Y-33938095D01*
X52011904Y-33985714D01*
X52107142Y-34033333D01*
X52154761Y-34080952D01*
X52202380Y-34176190D01*
X52202380Y-34271428D01*
X52154761Y-34366666D01*
X52107142Y-34414285D01*
X52011904Y-34461904D01*
X51821428Y-34509523D01*
X51583333Y-34509523D01*
X51392857Y-34461904D01*
X51297619Y-34414285D01*
X51250000Y-34366666D01*
X51202380Y-34271428D01*
X71607142Y-36507142D02*
X71559523Y-36554761D01*
X71416666Y-36602380D01*
X71321428Y-36602380D01*
X71178571Y-36554761D01*
X71083333Y-36459523D01*
X71035714Y-36364285D01*
X70988095Y-36173809D01*
X70988095Y-36030952D01*
X71035714Y-35840476D01*
X71083333Y-35745238D01*
X71178571Y-35650000D01*
X71321428Y-35602380D01*
X71416666Y-35602380D01*
X71559523Y-35650000D01*
X71607142Y-35697619D01*
X72559523Y-36602380D02*
X71988095Y-36602380D01*
X72273809Y-36602380D02*
X72273809Y-35602380D01*
X72178571Y-35745238D01*
X72083333Y-35840476D01*
X71988095Y-35888095D01*
X72892857Y-35602380D02*
X73511904Y-35602380D01*
X73178571Y-35983333D01*
X73321428Y-35983333D01*
X73416666Y-36030952D01*
X73464285Y-36078571D01*
X73511904Y-36173809D01*
X73511904Y-36411904D01*
X73464285Y-36507142D01*
X73416666Y-36554761D01*
X73321428Y-36602380D01*
X73035714Y-36602380D01*
X72940476Y-36554761D01*
X72892857Y-36507142D01*
X55157142Y-22697142D02*
X55109523Y-22744761D01*
X54966666Y-22792380D01*
X54871428Y-22792380D01*
X54728571Y-22744761D01*
X54633333Y-22649523D01*
X54585714Y-22554285D01*
X54538095Y-22363809D01*
X54538095Y-22220952D01*
X54585714Y-22030476D01*
X54633333Y-21935238D01*
X54728571Y-21840000D01*
X54871428Y-21792380D01*
X54966666Y-21792380D01*
X55109523Y-21840000D01*
X55157142Y-21887619D01*
X56109523Y-22792380D02*
X55538095Y-22792380D01*
X55823809Y-22792380D02*
X55823809Y-21792380D01*
X55728571Y-21935238D01*
X55633333Y-22030476D01*
X55538095Y-22078095D01*
X56966666Y-22125714D02*
X56966666Y-22792380D01*
X56728571Y-21744761D02*
X56490476Y-22459047D01*
X57109523Y-22459047D01*
X88207142Y-35492857D02*
X88254761Y-35540476D01*
X88302380Y-35683333D01*
X88302380Y-35778571D01*
X88254761Y-35921428D01*
X88159523Y-36016666D01*
X88064285Y-36064285D01*
X87873809Y-36111904D01*
X87730952Y-36111904D01*
X87540476Y-36064285D01*
X87445238Y-36016666D01*
X87350000Y-35921428D01*
X87302380Y-35778571D01*
X87302380Y-35683333D01*
X87350000Y-35540476D01*
X87397619Y-35492857D01*
X87397619Y-35111904D02*
X87350000Y-35064285D01*
X87302380Y-34969047D01*
X87302380Y-34730952D01*
X87350000Y-34635714D01*
X87397619Y-34588095D01*
X87492857Y-34540476D01*
X87588095Y-34540476D01*
X87730952Y-34588095D01*
X88302380Y-35159523D01*
X88302380Y-34540476D01*
X87302380Y-33635714D02*
X87302380Y-34111904D01*
X87778571Y-34159523D01*
X87730952Y-34111904D01*
X87683333Y-34016666D01*
X87683333Y-33778571D01*
X87730952Y-33683333D01*
X87778571Y-33635714D01*
X87873809Y-33588095D01*
X88111904Y-33588095D01*
X88207142Y-33635714D01*
X88254761Y-33683333D01*
X88302380Y-33778571D01*
X88302380Y-34016666D01*
X88254761Y-34111904D01*
X88207142Y-34159523D01*
X85407142Y-71657142D02*
X85359523Y-71704761D01*
X85216666Y-71752380D01*
X85121428Y-71752380D01*
X84978571Y-71704761D01*
X84883333Y-71609523D01*
X84835714Y-71514285D01*
X84788095Y-71323809D01*
X84788095Y-71180952D01*
X84835714Y-70990476D01*
X84883333Y-70895238D01*
X84978571Y-70800000D01*
X85121428Y-70752380D01*
X85216666Y-70752380D01*
X85359523Y-70800000D01*
X85407142Y-70847619D01*
X85788095Y-70847619D02*
X85835714Y-70800000D01*
X85930952Y-70752380D01*
X86169047Y-70752380D01*
X86264285Y-70800000D01*
X86311904Y-70847619D01*
X86359523Y-70942857D01*
X86359523Y-71038095D01*
X86311904Y-71180952D01*
X85740476Y-71752380D01*
X86359523Y-71752380D01*
X87216666Y-70752380D02*
X87026190Y-70752380D01*
X86930952Y-70800000D01*
X86883333Y-70847619D01*
X86788095Y-70990476D01*
X86740476Y-71180952D01*
X86740476Y-71561904D01*
X86788095Y-71657142D01*
X86835714Y-71704761D01*
X86930952Y-71752380D01*
X87121428Y-71752380D01*
X87216666Y-71704761D01*
X87264285Y-71657142D01*
X87311904Y-71561904D01*
X87311904Y-71323809D01*
X87264285Y-71228571D01*
X87216666Y-71180952D01*
X87121428Y-71133333D01*
X86930952Y-71133333D01*
X86835714Y-71180952D01*
X86788095Y-71228571D01*
X86740476Y-71323809D01*
X84557142Y-67307142D02*
X84509523Y-67354761D01*
X84366666Y-67402380D01*
X84271428Y-67402380D01*
X84128571Y-67354761D01*
X84033333Y-67259523D01*
X83985714Y-67164285D01*
X83938095Y-66973809D01*
X83938095Y-66830952D01*
X83985714Y-66640476D01*
X84033333Y-66545238D01*
X84128571Y-66450000D01*
X84271428Y-66402380D01*
X84366666Y-66402380D01*
X84509523Y-66450000D01*
X84557142Y-66497619D01*
X84890476Y-66402380D02*
X85509523Y-66402380D01*
X85176190Y-66783333D01*
X85319047Y-66783333D01*
X85414285Y-66830952D01*
X85461904Y-66878571D01*
X85509523Y-66973809D01*
X85509523Y-67211904D01*
X85461904Y-67307142D01*
X85414285Y-67354761D01*
X85319047Y-67402380D01*
X85033333Y-67402380D01*
X84938095Y-67354761D01*
X84890476Y-67307142D01*
X85890476Y-66497619D02*
X85938095Y-66450000D01*
X86033333Y-66402380D01*
X86271428Y-66402380D01*
X86366666Y-66450000D01*
X86414285Y-66497619D01*
X86461904Y-66592857D01*
X86461904Y-66688095D01*
X86414285Y-66830952D01*
X85842857Y-67402380D01*
X86461904Y-67402380D01*
X67947142Y-71964142D02*
X67899523Y-72011761D01*
X67756666Y-72059380D01*
X67661428Y-72059380D01*
X67518571Y-72011761D01*
X67423333Y-71916523D01*
X67375714Y-71821285D01*
X67328095Y-71630809D01*
X67328095Y-71487952D01*
X67375714Y-71297476D01*
X67423333Y-71202238D01*
X67518571Y-71107000D01*
X67661428Y-71059380D01*
X67756666Y-71059380D01*
X67899523Y-71107000D01*
X67947142Y-71154619D01*
X68804285Y-71392714D02*
X68804285Y-72059380D01*
X68566190Y-71011761D02*
X68328095Y-71726047D01*
X68947142Y-71726047D01*
X69518571Y-71059380D02*
X69613809Y-71059380D01*
X69709047Y-71107000D01*
X69756666Y-71154619D01*
X69804285Y-71249857D01*
X69851904Y-71440333D01*
X69851904Y-71678428D01*
X69804285Y-71868904D01*
X69756666Y-71964142D01*
X69709047Y-72011761D01*
X69613809Y-72059380D01*
X69518571Y-72059380D01*
X69423333Y-72011761D01*
X69375714Y-71964142D01*
X69328095Y-71868904D01*
X69280476Y-71678428D01*
X69280476Y-71440333D01*
X69328095Y-71249857D01*
X69375714Y-71154619D01*
X69423333Y-71107000D01*
X69518571Y-71059380D01*
X41657142Y-63777142D02*
X41609523Y-63824761D01*
X41466666Y-63872380D01*
X41371428Y-63872380D01*
X41228571Y-63824761D01*
X41133333Y-63729523D01*
X41085714Y-63634285D01*
X41038095Y-63443809D01*
X41038095Y-63300952D01*
X41085714Y-63110476D01*
X41133333Y-63015238D01*
X41228571Y-62920000D01*
X41371428Y-62872380D01*
X41466666Y-62872380D01*
X41609523Y-62920000D01*
X41657142Y-62967619D01*
X42514285Y-63205714D02*
X42514285Y-63872380D01*
X42276190Y-62824761D02*
X42038095Y-63539047D01*
X42657142Y-63539047D01*
X43561904Y-63872380D02*
X42990476Y-63872380D01*
X43276190Y-63872380D02*
X43276190Y-62872380D01*
X43180952Y-63015238D01*
X43085714Y-63110476D01*
X42990476Y-63158095D01*
X64867142Y-71867142D02*
X64819523Y-71914761D01*
X64676666Y-71962380D01*
X64581428Y-71962380D01*
X64438571Y-71914761D01*
X64343333Y-71819523D01*
X64295714Y-71724285D01*
X64248095Y-71533809D01*
X64248095Y-71390952D01*
X64295714Y-71200476D01*
X64343333Y-71105238D01*
X64438571Y-71010000D01*
X64581428Y-70962380D01*
X64676666Y-70962380D01*
X64819523Y-71010000D01*
X64867142Y-71057619D01*
X65724285Y-71295714D02*
X65724285Y-71962380D01*
X65486190Y-70914761D02*
X65248095Y-71629047D01*
X65867142Y-71629047D01*
X66200476Y-71057619D02*
X66248095Y-71010000D01*
X66343333Y-70962380D01*
X66581428Y-70962380D01*
X66676666Y-71010000D01*
X66724285Y-71057619D01*
X66771904Y-71152857D01*
X66771904Y-71248095D01*
X66724285Y-71390952D01*
X66152857Y-71962380D01*
X66771904Y-71962380D01*
X38067142Y-64427142D02*
X38019523Y-64474761D01*
X37876666Y-64522380D01*
X37781428Y-64522380D01*
X37638571Y-64474761D01*
X37543333Y-64379523D01*
X37495714Y-64284285D01*
X37448095Y-64093809D01*
X37448095Y-63950952D01*
X37495714Y-63760476D01*
X37543333Y-63665238D01*
X37638571Y-63570000D01*
X37781428Y-63522380D01*
X37876666Y-63522380D01*
X38019523Y-63570000D01*
X38067142Y-63617619D01*
X38924285Y-63855714D02*
X38924285Y-64522380D01*
X38686190Y-63474761D02*
X38448095Y-64189047D01*
X39067142Y-64189047D01*
X39352857Y-63522380D02*
X39971904Y-63522380D01*
X39638571Y-63903333D01*
X39781428Y-63903333D01*
X39876666Y-63950952D01*
X39924285Y-63998571D01*
X39971904Y-64093809D01*
X39971904Y-64331904D01*
X39924285Y-64427142D01*
X39876666Y-64474761D01*
X39781428Y-64522380D01*
X39495714Y-64522380D01*
X39400476Y-64474761D01*
X39352857Y-64427142D01*
X48057142Y-72567142D02*
X48009523Y-72614761D01*
X47866666Y-72662380D01*
X47771428Y-72662380D01*
X47628571Y-72614761D01*
X47533333Y-72519523D01*
X47485714Y-72424285D01*
X47438095Y-72233809D01*
X47438095Y-72090952D01*
X47485714Y-71900476D01*
X47533333Y-71805238D01*
X47628571Y-71710000D01*
X47771428Y-71662380D01*
X47866666Y-71662380D01*
X48009523Y-71710000D01*
X48057142Y-71757619D01*
X48914285Y-71995714D02*
X48914285Y-72662380D01*
X48676190Y-71614761D02*
X48438095Y-72329047D01*
X49057142Y-72329047D01*
X49866666Y-71995714D02*
X49866666Y-72662380D01*
X49628571Y-71614761D02*
X49390476Y-72329047D01*
X50009523Y-72329047D01*
X21707142Y-68997142D02*
X21659523Y-69044761D01*
X21516666Y-69092380D01*
X21421428Y-69092380D01*
X21278571Y-69044761D01*
X21183333Y-68949523D01*
X21135714Y-68854285D01*
X21088095Y-68663809D01*
X21088095Y-68520952D01*
X21135714Y-68330476D01*
X21183333Y-68235238D01*
X21278571Y-68140000D01*
X21421428Y-68092380D01*
X21516666Y-68092380D01*
X21659523Y-68140000D01*
X21707142Y-68187619D01*
X22564285Y-68425714D02*
X22564285Y-69092380D01*
X22326190Y-68044761D02*
X22088095Y-68759047D01*
X22707142Y-68759047D01*
X23564285Y-68092380D02*
X23088095Y-68092380D01*
X23040476Y-68568571D01*
X23088095Y-68520952D01*
X23183333Y-68473333D01*
X23421428Y-68473333D01*
X23516666Y-68520952D01*
X23564285Y-68568571D01*
X23611904Y-68663809D01*
X23611904Y-68901904D01*
X23564285Y-68997142D01*
X23516666Y-69044761D01*
X23421428Y-69092380D01*
X23183333Y-69092380D01*
X23088095Y-69044761D01*
X23040476Y-68997142D01*
X48157142Y-65102380D02*
X47823809Y-64626190D01*
X47585714Y-65102380D02*
X47585714Y-64102380D01*
X47966666Y-64102380D01*
X48061904Y-64150000D01*
X48109523Y-64197619D01*
X48157142Y-64292857D01*
X48157142Y-64435714D01*
X48109523Y-64530952D01*
X48061904Y-64578571D01*
X47966666Y-64626190D01*
X47585714Y-64626190D01*
X48538095Y-64197619D02*
X48585714Y-64150000D01*
X48680952Y-64102380D01*
X48919047Y-64102380D01*
X49014285Y-64150000D01*
X49061904Y-64197619D01*
X49109523Y-64292857D01*
X49109523Y-64388095D01*
X49061904Y-64530952D01*
X48490476Y-65102380D01*
X49109523Y-65102380D01*
X49728571Y-64102380D02*
X49823809Y-64102380D01*
X49919047Y-64150000D01*
X49966666Y-64197619D01*
X50014285Y-64292857D01*
X50061904Y-64483333D01*
X50061904Y-64721428D01*
X50014285Y-64911904D01*
X49966666Y-65007142D01*
X49919047Y-65054761D01*
X49823809Y-65102380D01*
X49728571Y-65102380D01*
X49633333Y-65054761D01*
X49585714Y-65007142D01*
X49538095Y-64911904D01*
X49490476Y-64721428D01*
X49490476Y-64483333D01*
X49538095Y-64292857D01*
X49585714Y-64197619D01*
X49633333Y-64150000D01*
X49728571Y-64102380D01*
X21937142Y-62072380D02*
X21603809Y-61596190D01*
X21365714Y-62072380D02*
X21365714Y-61072380D01*
X21746666Y-61072380D01*
X21841904Y-61120000D01*
X21889523Y-61167619D01*
X21937142Y-61262857D01*
X21937142Y-61405714D01*
X21889523Y-61500952D01*
X21841904Y-61548571D01*
X21746666Y-61596190D01*
X21365714Y-61596190D01*
X22318095Y-61167619D02*
X22365714Y-61120000D01*
X22460952Y-61072380D01*
X22699047Y-61072380D01*
X22794285Y-61120000D01*
X22841904Y-61167619D01*
X22889523Y-61262857D01*
X22889523Y-61358095D01*
X22841904Y-61500952D01*
X22270476Y-62072380D01*
X22889523Y-62072380D01*
X23841904Y-62072380D02*
X23270476Y-62072380D01*
X23556190Y-62072380D02*
X23556190Y-61072380D01*
X23460952Y-61215238D01*
X23365714Y-61310476D01*
X23270476Y-61358095D01*
X47917142Y-69092380D02*
X47583809Y-68616190D01*
X47345714Y-69092380D02*
X47345714Y-68092380D01*
X47726666Y-68092380D01*
X47821904Y-68140000D01*
X47869523Y-68187619D01*
X47917142Y-68282857D01*
X47917142Y-68425714D01*
X47869523Y-68520952D01*
X47821904Y-68568571D01*
X47726666Y-68616190D01*
X47345714Y-68616190D01*
X48298095Y-68187619D02*
X48345714Y-68140000D01*
X48440952Y-68092380D01*
X48679047Y-68092380D01*
X48774285Y-68140000D01*
X48821904Y-68187619D01*
X48869523Y-68282857D01*
X48869523Y-68378095D01*
X48821904Y-68520952D01*
X48250476Y-69092380D01*
X48869523Y-69092380D01*
X49250476Y-68187619D02*
X49298095Y-68140000D01*
X49393333Y-68092380D01*
X49631428Y-68092380D01*
X49726666Y-68140000D01*
X49774285Y-68187619D01*
X49821904Y-68282857D01*
X49821904Y-68378095D01*
X49774285Y-68520952D01*
X49202857Y-69092380D01*
X49821904Y-69092380D01*
X21767142Y-65732380D02*
X21433809Y-65256190D01*
X21195714Y-65732380D02*
X21195714Y-64732380D01*
X21576666Y-64732380D01*
X21671904Y-64780000D01*
X21719523Y-64827619D01*
X21767142Y-64922857D01*
X21767142Y-65065714D01*
X21719523Y-65160952D01*
X21671904Y-65208571D01*
X21576666Y-65256190D01*
X21195714Y-65256190D01*
X22148095Y-64827619D02*
X22195714Y-64780000D01*
X22290952Y-64732380D01*
X22529047Y-64732380D01*
X22624285Y-64780000D01*
X22671904Y-64827619D01*
X22719523Y-64922857D01*
X22719523Y-65018095D01*
X22671904Y-65160952D01*
X22100476Y-65732380D01*
X22719523Y-65732380D01*
X23052857Y-64732380D02*
X23671904Y-64732380D01*
X23338571Y-65113333D01*
X23481428Y-65113333D01*
X23576666Y-65160952D01*
X23624285Y-65208571D01*
X23671904Y-65303809D01*
X23671904Y-65541904D01*
X23624285Y-65637142D01*
X23576666Y-65684761D01*
X23481428Y-65732380D01*
X23195714Y-65732380D01*
X23100476Y-65684761D01*
X23052857Y-65637142D01*
X58318095Y-71809380D02*
X58318095Y-72618904D01*
X58365714Y-72714142D01*
X58413333Y-72761761D01*
X58508571Y-72809380D01*
X58699047Y-72809380D01*
X58794285Y-72761761D01*
X58841904Y-72714142D01*
X58889523Y-72618904D01*
X58889523Y-71809380D01*
X59270476Y-71809380D02*
X59889523Y-71809380D01*
X59556190Y-72190333D01*
X59699047Y-72190333D01*
X59794285Y-72237952D01*
X59841904Y-72285571D01*
X59889523Y-72380809D01*
X59889523Y-72618904D01*
X59841904Y-72714142D01*
X59794285Y-72761761D01*
X59699047Y-72809380D01*
X59413333Y-72809380D01*
X59318095Y-72761761D01*
X59270476Y-72714142D01*
X28968095Y-69972380D02*
X28968095Y-70781904D01*
X29015714Y-70877142D01*
X29063333Y-70924761D01*
X29158571Y-70972380D01*
X29349047Y-70972380D01*
X29444285Y-70924761D01*
X29491904Y-70877142D01*
X29539523Y-70781904D01*
X29539523Y-69972380D01*
X30444285Y-70305714D02*
X30444285Y-70972380D01*
X30206190Y-69924761D02*
X29968095Y-70639047D01*
X30587142Y-70639047D01*
X41094142Y-82837142D02*
X41046523Y-82884761D01*
X40903666Y-82932380D01*
X40808428Y-82932380D01*
X40665571Y-82884761D01*
X40570333Y-82789523D01*
X40522714Y-82694285D01*
X40475095Y-82503809D01*
X40475095Y-82360952D01*
X40522714Y-82170476D01*
X40570333Y-82075238D01*
X40665571Y-81980000D01*
X40808428Y-81932380D01*
X40903666Y-81932380D01*
X41046523Y-81980000D01*
X41094142Y-82027619D01*
X41951285Y-82265714D02*
X41951285Y-82932380D01*
X41713190Y-81884761D02*
X41475095Y-82599047D01*
X42094142Y-82599047D01*
X42522714Y-82932380D02*
X42713190Y-82932380D01*
X42808428Y-82884761D01*
X42856047Y-82837142D01*
X42951285Y-82694285D01*
X42998904Y-82503809D01*
X42998904Y-82122857D01*
X42951285Y-82027619D01*
X42903666Y-81980000D01*
X42808428Y-81932380D01*
X42617952Y-81932380D01*
X42522714Y-81980000D01*
X42475095Y-82027619D01*
X42427476Y-82122857D01*
X42427476Y-82360952D01*
X42475095Y-82456190D01*
X42522714Y-82503809D01*
X42617952Y-82551428D01*
X42808428Y-82551428D01*
X42903666Y-82503809D01*
X42951285Y-82456190D01*
X42998904Y-82360952D01*
X37534142Y-82517142D02*
X37486523Y-82564761D01*
X37343666Y-82612380D01*
X37248428Y-82612380D01*
X37105571Y-82564761D01*
X37010333Y-82469523D01*
X36962714Y-82374285D01*
X36915095Y-82183809D01*
X36915095Y-82040952D01*
X36962714Y-81850476D01*
X37010333Y-81755238D01*
X37105571Y-81660000D01*
X37248428Y-81612380D01*
X37343666Y-81612380D01*
X37486523Y-81660000D01*
X37534142Y-81707619D01*
X38438904Y-81612380D02*
X37962714Y-81612380D01*
X37915095Y-82088571D01*
X37962714Y-82040952D01*
X38057952Y-81993333D01*
X38296047Y-81993333D01*
X38391285Y-82040952D01*
X38438904Y-82088571D01*
X38486523Y-82183809D01*
X38486523Y-82421904D01*
X38438904Y-82517142D01*
X38391285Y-82564761D01*
X38296047Y-82612380D01*
X38057952Y-82612380D01*
X37962714Y-82564761D01*
X37915095Y-82517142D01*
X39105571Y-81612380D02*
X39200809Y-81612380D01*
X39296047Y-81660000D01*
X39343666Y-81707619D01*
X39391285Y-81802857D01*
X39438904Y-81993333D01*
X39438904Y-82231428D01*
X39391285Y-82421904D01*
X39343666Y-82517142D01*
X39296047Y-82564761D01*
X39200809Y-82612380D01*
X39105571Y-82612380D01*
X39010333Y-82564761D01*
X38962714Y-82517142D01*
X38915095Y-82421904D01*
X38867476Y-82231428D01*
X38867476Y-81993333D01*
X38915095Y-81802857D01*
X38962714Y-81707619D01*
X39010333Y-81660000D01*
X39105571Y-81612380D01*
X21657142Y-80977142D02*
X21609523Y-81024761D01*
X21466666Y-81072380D01*
X21371428Y-81072380D01*
X21228571Y-81024761D01*
X21133333Y-80929523D01*
X21085714Y-80834285D01*
X21038095Y-80643809D01*
X21038095Y-80500952D01*
X21085714Y-80310476D01*
X21133333Y-80215238D01*
X21228571Y-80120000D01*
X21371428Y-80072380D01*
X21466666Y-80072380D01*
X21609523Y-80120000D01*
X21657142Y-80167619D01*
X22561904Y-80072380D02*
X22085714Y-80072380D01*
X22038095Y-80548571D01*
X22085714Y-80500952D01*
X22180952Y-80453333D01*
X22419047Y-80453333D01*
X22514285Y-80500952D01*
X22561904Y-80548571D01*
X22609523Y-80643809D01*
X22609523Y-80881904D01*
X22561904Y-80977142D01*
X22514285Y-81024761D01*
X22419047Y-81072380D01*
X22180952Y-81072380D01*
X22085714Y-81024761D01*
X22038095Y-80977142D01*
X23561904Y-81072380D02*
X22990476Y-81072380D01*
X23276190Y-81072380D02*
X23276190Y-80072380D01*
X23180952Y-80215238D01*
X23085714Y-80310476D01*
X22990476Y-80358095D01*
X25467142Y-74092380D02*
X25133809Y-73616190D01*
X24895714Y-74092380D02*
X24895714Y-73092380D01*
X25276666Y-73092380D01*
X25371904Y-73140000D01*
X25419523Y-73187619D01*
X25467142Y-73282857D01*
X25467142Y-73425714D01*
X25419523Y-73520952D01*
X25371904Y-73568571D01*
X25276666Y-73616190D01*
X24895714Y-73616190D01*
X25848095Y-73187619D02*
X25895714Y-73140000D01*
X25990952Y-73092380D01*
X26229047Y-73092380D01*
X26324285Y-73140000D01*
X26371904Y-73187619D01*
X26419523Y-73282857D01*
X26419523Y-73378095D01*
X26371904Y-73520952D01*
X25800476Y-74092380D01*
X26419523Y-74092380D01*
X26752857Y-73092380D02*
X27419523Y-73092380D01*
X26990952Y-74092380D01*
X22017142Y-77772380D02*
X21683809Y-77296190D01*
X21445714Y-77772380D02*
X21445714Y-76772380D01*
X21826666Y-76772380D01*
X21921904Y-76820000D01*
X21969523Y-76867619D01*
X22017142Y-76962857D01*
X22017142Y-77105714D01*
X21969523Y-77200952D01*
X21921904Y-77248571D01*
X21826666Y-77296190D01*
X21445714Y-77296190D01*
X22398095Y-76867619D02*
X22445714Y-76820000D01*
X22540952Y-76772380D01*
X22779047Y-76772380D01*
X22874285Y-76820000D01*
X22921904Y-76867619D01*
X22969523Y-76962857D01*
X22969523Y-77058095D01*
X22921904Y-77200952D01*
X22350476Y-77772380D01*
X22969523Y-77772380D01*
X23540952Y-77200952D02*
X23445714Y-77153333D01*
X23398095Y-77105714D01*
X23350476Y-77010476D01*
X23350476Y-76962857D01*
X23398095Y-76867619D01*
X23445714Y-76820000D01*
X23540952Y-76772380D01*
X23731428Y-76772380D01*
X23826666Y-76820000D01*
X23874285Y-76867619D01*
X23921904Y-76962857D01*
X23921904Y-77010476D01*
X23874285Y-77105714D01*
X23826666Y-77153333D01*
X23731428Y-77200952D01*
X23540952Y-77200952D01*
X23445714Y-77248571D01*
X23398095Y-77296190D01*
X23350476Y-77391428D01*
X23350476Y-77581904D01*
X23398095Y-77677142D01*
X23445714Y-77724761D01*
X23540952Y-77772380D01*
X23731428Y-77772380D01*
X23826666Y-77724761D01*
X23874285Y-77677142D01*
X23921904Y-77581904D01*
X23921904Y-77391428D01*
X23874285Y-77296190D01*
X23826666Y-77248571D01*
X23731428Y-77200952D01*
X31725095Y-82322380D02*
X31725095Y-83131904D01*
X31772714Y-83227142D01*
X31820333Y-83274761D01*
X31915571Y-83322380D01*
X32106047Y-83322380D01*
X32201285Y-83274761D01*
X32248904Y-83227142D01*
X32296523Y-83131904D01*
X32296523Y-82322380D01*
X32725095Y-82417619D02*
X32772714Y-82370000D01*
X32867952Y-82322380D01*
X33106047Y-82322380D01*
X33201285Y-82370000D01*
X33248904Y-82417619D01*
X33296523Y-82512857D01*
X33296523Y-82608095D01*
X33248904Y-82750952D01*
X32677476Y-83322380D01*
X33296523Y-83322380D01*
X62848142Y-90855142D02*
X62800523Y-90902761D01*
X62657666Y-90950380D01*
X62562428Y-90950380D01*
X62419571Y-90902761D01*
X62324333Y-90807523D01*
X62276714Y-90712285D01*
X62229095Y-90521809D01*
X62229095Y-90378952D01*
X62276714Y-90188476D01*
X62324333Y-90093238D01*
X62419571Y-89998000D01*
X62562428Y-89950380D01*
X62657666Y-89950380D01*
X62800523Y-89998000D01*
X62848142Y-90045619D01*
X63705285Y-90283714D02*
X63705285Y-90950380D01*
X63467190Y-89902761D02*
X63229095Y-90617047D01*
X63848142Y-90617047D01*
X64657666Y-89950380D02*
X64467190Y-89950380D01*
X64371952Y-89998000D01*
X64324333Y-90045619D01*
X64229095Y-90188476D01*
X64181476Y-90378952D01*
X64181476Y-90759904D01*
X64229095Y-90855142D01*
X64276714Y-90902761D01*
X64371952Y-90950380D01*
X64562428Y-90950380D01*
X64657666Y-90902761D01*
X64705285Y-90855142D01*
X64752904Y-90759904D01*
X64752904Y-90521809D01*
X64705285Y-90426571D01*
X64657666Y-90378952D01*
X64562428Y-90331333D01*
X64371952Y-90331333D01*
X64276714Y-90378952D01*
X64229095Y-90426571D01*
X64181476Y-90521809D01*
X35274642Y-74897142D02*
X35227023Y-74944761D01*
X35084166Y-74992380D01*
X34988928Y-74992380D01*
X34846071Y-74944761D01*
X34750833Y-74849523D01*
X34703214Y-74754285D01*
X34655595Y-74563809D01*
X34655595Y-74420952D01*
X34703214Y-74230476D01*
X34750833Y-74135238D01*
X34846071Y-74040000D01*
X34988928Y-73992380D01*
X35084166Y-73992380D01*
X35227023Y-74040000D01*
X35274642Y-74087619D01*
X36131785Y-74325714D02*
X36131785Y-74992380D01*
X35893690Y-73944761D02*
X35655595Y-74659047D01*
X36274642Y-74659047D01*
X36560357Y-73992380D02*
X37227023Y-73992380D01*
X36798452Y-74992380D01*
X61704642Y-64397142D02*
X61657023Y-64444761D01*
X61514166Y-64492380D01*
X61418928Y-64492380D01*
X61276071Y-64444761D01*
X61180833Y-64349523D01*
X61133214Y-64254285D01*
X61085595Y-64063809D01*
X61085595Y-63920952D01*
X61133214Y-63730476D01*
X61180833Y-63635238D01*
X61276071Y-63540000D01*
X61418928Y-63492380D01*
X61514166Y-63492380D01*
X61657023Y-63540000D01*
X61704642Y-63587619D01*
X62561785Y-63825714D02*
X62561785Y-64492380D01*
X62323690Y-63444761D02*
X62085595Y-64159047D01*
X62704642Y-64159047D01*
X63228452Y-63920952D02*
X63133214Y-63873333D01*
X63085595Y-63825714D01*
X63037976Y-63730476D01*
X63037976Y-63682857D01*
X63085595Y-63587619D01*
X63133214Y-63540000D01*
X63228452Y-63492380D01*
X63418928Y-63492380D01*
X63514166Y-63540000D01*
X63561785Y-63587619D01*
X63609404Y-63682857D01*
X63609404Y-63730476D01*
X63561785Y-63825714D01*
X63514166Y-63873333D01*
X63418928Y-63920952D01*
X63228452Y-63920952D01*
X63133214Y-63968571D01*
X63085595Y-64016190D01*
X63037976Y-64111428D01*
X63037976Y-64301904D01*
X63085595Y-64397142D01*
X63133214Y-64444761D01*
X63228452Y-64492380D01*
X63418928Y-64492380D01*
X63514166Y-64444761D01*
X63561785Y-64397142D01*
X63609404Y-64301904D01*
X63609404Y-64111428D01*
X63561785Y-64016190D01*
X63514166Y-63968571D01*
X63418928Y-63920952D01*
X28487142Y-60827142D02*
X28439523Y-60874761D01*
X28296666Y-60922380D01*
X28201428Y-60922380D01*
X28058571Y-60874761D01*
X27963333Y-60779523D01*
X27915714Y-60684285D01*
X27868095Y-60493809D01*
X27868095Y-60350952D01*
X27915714Y-60160476D01*
X27963333Y-60065238D01*
X28058571Y-59970000D01*
X28201428Y-59922380D01*
X28296666Y-59922380D01*
X28439523Y-59970000D01*
X28487142Y-60017619D01*
X29391904Y-59922380D02*
X28915714Y-59922380D01*
X28868095Y-60398571D01*
X28915714Y-60350952D01*
X29010952Y-60303333D01*
X29249047Y-60303333D01*
X29344285Y-60350952D01*
X29391904Y-60398571D01*
X29439523Y-60493809D01*
X29439523Y-60731904D01*
X29391904Y-60827142D01*
X29344285Y-60874761D01*
X29249047Y-60922380D01*
X29010952Y-60922380D01*
X28915714Y-60874761D01*
X28868095Y-60827142D01*
X29820476Y-60017619D02*
X29868095Y-59970000D01*
X29963333Y-59922380D01*
X30201428Y-59922380D01*
X30296666Y-59970000D01*
X30344285Y-60017619D01*
X30391904Y-60112857D01*
X30391904Y-60208095D01*
X30344285Y-60350952D01*
X29772857Y-60922380D01*
X30391904Y-60922380D01*
X63038142Y-97140380D02*
X62704809Y-96664190D01*
X62466714Y-97140380D02*
X62466714Y-96140380D01*
X62847666Y-96140380D01*
X62942904Y-96188000D01*
X62990523Y-96235619D01*
X63038142Y-96330857D01*
X63038142Y-96473714D01*
X62990523Y-96568952D01*
X62942904Y-96616571D01*
X62847666Y-96664190D01*
X62466714Y-96664190D01*
X63419095Y-96235619D02*
X63466714Y-96188000D01*
X63561952Y-96140380D01*
X63800047Y-96140380D01*
X63895285Y-96188000D01*
X63942904Y-96235619D01*
X63990523Y-96330857D01*
X63990523Y-96426095D01*
X63942904Y-96568952D01*
X63371476Y-97140380D01*
X63990523Y-97140380D01*
X64847666Y-96473714D02*
X64847666Y-97140380D01*
X64609571Y-96092761D02*
X64371476Y-96807047D01*
X64990523Y-96807047D01*
X67140380Y-113170357D02*
X66664190Y-113503690D01*
X67140380Y-113741785D02*
X66140380Y-113741785D01*
X66140380Y-113360833D01*
X66188000Y-113265595D01*
X66235619Y-113217976D01*
X66330857Y-113170357D01*
X66473714Y-113170357D01*
X66568952Y-113217976D01*
X66616571Y-113265595D01*
X66664190Y-113360833D01*
X66664190Y-113741785D01*
X66235619Y-112789404D02*
X66188000Y-112741785D01*
X66140380Y-112646547D01*
X66140380Y-112408452D01*
X66188000Y-112313214D01*
X66235619Y-112265595D01*
X66330857Y-112217976D01*
X66426095Y-112217976D01*
X66568952Y-112265595D01*
X67140380Y-112837023D01*
X67140380Y-112217976D01*
X66140380Y-111313214D02*
X66140380Y-111789404D01*
X66616571Y-111837023D01*
X66568952Y-111789404D01*
X66521333Y-111694166D01*
X66521333Y-111456071D01*
X66568952Y-111360833D01*
X66616571Y-111313214D01*
X66711809Y-111265595D01*
X66949904Y-111265595D01*
X67045142Y-111313214D01*
X67092761Y-111360833D01*
X67140380Y-111456071D01*
X67140380Y-111694166D01*
X67092761Y-111789404D01*
X67045142Y-111837023D01*
X92577142Y-114367142D02*
X92529523Y-114414761D01*
X92386666Y-114462380D01*
X92291428Y-114462380D01*
X92148571Y-114414761D01*
X92053333Y-114319523D01*
X92005714Y-114224285D01*
X91958095Y-114033809D01*
X91958095Y-113890952D01*
X92005714Y-113700476D01*
X92053333Y-113605238D01*
X92148571Y-113510000D01*
X92291428Y-113462380D01*
X92386666Y-113462380D01*
X92529523Y-113510000D01*
X92577142Y-113557619D01*
X93481904Y-113462380D02*
X93005714Y-113462380D01*
X92958095Y-113938571D01*
X93005714Y-113890952D01*
X93100952Y-113843333D01*
X93339047Y-113843333D01*
X93434285Y-113890952D01*
X93481904Y-113938571D01*
X93529523Y-114033809D01*
X93529523Y-114271904D01*
X93481904Y-114367142D01*
X93434285Y-114414761D01*
X93339047Y-114462380D01*
X93100952Y-114462380D01*
X93005714Y-114414761D01*
X92958095Y-114367142D01*
X94100952Y-113890952D02*
X94005714Y-113843333D01*
X93958095Y-113795714D01*
X93910476Y-113700476D01*
X93910476Y-113652857D01*
X93958095Y-113557619D01*
X94005714Y-113510000D01*
X94100952Y-113462380D01*
X94291428Y-113462380D01*
X94386666Y-113510000D01*
X94434285Y-113557619D01*
X94481904Y-113652857D01*
X94481904Y-113700476D01*
X94434285Y-113795714D01*
X94386666Y-113843333D01*
X94291428Y-113890952D01*
X94100952Y-113890952D01*
X94005714Y-113938571D01*
X93958095Y-113986190D01*
X93910476Y-114081428D01*
X93910476Y-114271904D01*
X93958095Y-114367142D01*
X94005714Y-114414761D01*
X94100952Y-114462380D01*
X94291428Y-114462380D01*
X94386666Y-114414761D01*
X94434285Y-114367142D01*
X94481904Y-114271904D01*
X94481904Y-114081428D01*
X94434285Y-113986190D01*
X94386666Y-113938571D01*
X94291428Y-113890952D01*
X102557142Y-110967142D02*
X102509523Y-111014761D01*
X102366666Y-111062380D01*
X102271428Y-111062380D01*
X102128571Y-111014761D01*
X102033333Y-110919523D01*
X101985714Y-110824285D01*
X101938095Y-110633809D01*
X101938095Y-110490952D01*
X101985714Y-110300476D01*
X102033333Y-110205238D01*
X102128571Y-110110000D01*
X102271428Y-110062380D01*
X102366666Y-110062380D01*
X102509523Y-110110000D01*
X102557142Y-110157619D01*
X103461904Y-110062380D02*
X102985714Y-110062380D01*
X102938095Y-110538571D01*
X102985714Y-110490952D01*
X103080952Y-110443333D01*
X103319047Y-110443333D01*
X103414285Y-110490952D01*
X103461904Y-110538571D01*
X103509523Y-110633809D01*
X103509523Y-110871904D01*
X103461904Y-110967142D01*
X103414285Y-111014761D01*
X103319047Y-111062380D01*
X103080952Y-111062380D01*
X102985714Y-111014761D01*
X102938095Y-110967142D01*
X103985714Y-111062380D02*
X104176190Y-111062380D01*
X104271428Y-111014761D01*
X104319047Y-110967142D01*
X104414285Y-110824285D01*
X104461904Y-110633809D01*
X104461904Y-110252857D01*
X104414285Y-110157619D01*
X104366666Y-110110000D01*
X104271428Y-110062380D01*
X104080952Y-110062380D01*
X103985714Y-110110000D01*
X103938095Y-110157619D01*
X103890476Y-110252857D01*
X103890476Y-110490952D01*
X103938095Y-110586190D01*
X103985714Y-110633809D01*
X104080952Y-110681428D01*
X104271428Y-110681428D01*
X104366666Y-110633809D01*
X104414285Y-110586190D01*
X104461904Y-110490952D01*
X79017142Y-102742380D02*
X78683809Y-102266190D01*
X78445714Y-102742380D02*
X78445714Y-101742380D01*
X78826666Y-101742380D01*
X78921904Y-101790000D01*
X78969523Y-101837619D01*
X79017142Y-101932857D01*
X79017142Y-102075714D01*
X78969523Y-102170952D01*
X78921904Y-102218571D01*
X78826666Y-102266190D01*
X78445714Y-102266190D01*
X79398095Y-101837619D02*
X79445714Y-101790000D01*
X79540952Y-101742380D01*
X79779047Y-101742380D01*
X79874285Y-101790000D01*
X79921904Y-101837619D01*
X79969523Y-101932857D01*
X79969523Y-102028095D01*
X79921904Y-102170952D01*
X79350476Y-102742380D01*
X79969523Y-102742380D01*
X80445714Y-102742380D02*
X80636190Y-102742380D01*
X80731428Y-102694761D01*
X80779047Y-102647142D01*
X80874285Y-102504285D01*
X80921904Y-102313809D01*
X80921904Y-101932857D01*
X80874285Y-101837619D01*
X80826666Y-101790000D01*
X80731428Y-101742380D01*
X80540952Y-101742380D01*
X80445714Y-101790000D01*
X80398095Y-101837619D01*
X80350476Y-101932857D01*
X80350476Y-102170952D01*
X80398095Y-102266190D01*
X80445714Y-102313809D01*
X80540952Y-102361428D01*
X80731428Y-102361428D01*
X80826666Y-102313809D01*
X80874285Y-102266190D01*
X80921904Y-102170952D01*
X79047142Y-109412380D02*
X78713809Y-108936190D01*
X78475714Y-109412380D02*
X78475714Y-108412380D01*
X78856666Y-108412380D01*
X78951904Y-108460000D01*
X78999523Y-108507619D01*
X79047142Y-108602857D01*
X79047142Y-108745714D01*
X78999523Y-108840952D01*
X78951904Y-108888571D01*
X78856666Y-108936190D01*
X78475714Y-108936190D01*
X79380476Y-108412380D02*
X79999523Y-108412380D01*
X79666190Y-108793333D01*
X79809047Y-108793333D01*
X79904285Y-108840952D01*
X79951904Y-108888571D01*
X79999523Y-108983809D01*
X79999523Y-109221904D01*
X79951904Y-109317142D01*
X79904285Y-109364761D01*
X79809047Y-109412380D01*
X79523333Y-109412380D01*
X79428095Y-109364761D01*
X79380476Y-109317142D01*
X80618571Y-108412380D02*
X80713809Y-108412380D01*
X80809047Y-108460000D01*
X80856666Y-108507619D01*
X80904285Y-108602857D01*
X80951904Y-108793333D01*
X80951904Y-109031428D01*
X80904285Y-109221904D01*
X80856666Y-109317142D01*
X80809047Y-109364761D01*
X80713809Y-109412380D01*
X80618571Y-109412380D01*
X80523333Y-109364761D01*
X80475714Y-109317142D01*
X80428095Y-109221904D01*
X80380476Y-109031428D01*
X80380476Y-108793333D01*
X80428095Y-108602857D01*
X80475714Y-108507619D01*
X80523333Y-108460000D01*
X80618571Y-108412380D01*
X80632380Y-115062857D02*
X80156190Y-115396190D01*
X80632380Y-115634285D02*
X79632380Y-115634285D01*
X79632380Y-115253333D01*
X79680000Y-115158095D01*
X79727619Y-115110476D01*
X79822857Y-115062857D01*
X79965714Y-115062857D01*
X80060952Y-115110476D01*
X80108571Y-115158095D01*
X80156190Y-115253333D01*
X80156190Y-115634285D01*
X79632380Y-114729523D02*
X79632380Y-114110476D01*
X80013333Y-114443809D01*
X80013333Y-114300952D01*
X80060952Y-114205714D01*
X80108571Y-114158095D01*
X80203809Y-114110476D01*
X80441904Y-114110476D01*
X80537142Y-114158095D01*
X80584761Y-114205714D01*
X80632380Y-114300952D01*
X80632380Y-114586666D01*
X80584761Y-114681904D01*
X80537142Y-114729523D01*
X79632380Y-113777142D02*
X79632380Y-113158095D01*
X80013333Y-113491428D01*
X80013333Y-113348571D01*
X80060952Y-113253333D01*
X80108571Y-113205714D01*
X80203809Y-113158095D01*
X80441904Y-113158095D01*
X80537142Y-113205714D01*
X80584761Y-113253333D01*
X80632380Y-113348571D01*
X80632380Y-113634285D01*
X80584761Y-113729523D01*
X80537142Y-113777142D01*
X73892380Y-113612857D02*
X73416190Y-113946190D01*
X73892380Y-114184285D02*
X72892380Y-114184285D01*
X72892380Y-113803333D01*
X72940000Y-113708095D01*
X72987619Y-113660476D01*
X73082857Y-113612857D01*
X73225714Y-113612857D01*
X73320952Y-113660476D01*
X73368571Y-113708095D01*
X73416190Y-113803333D01*
X73416190Y-114184285D01*
X72892380Y-113279523D02*
X72892380Y-112660476D01*
X73273333Y-112993809D01*
X73273333Y-112850952D01*
X73320952Y-112755714D01*
X73368571Y-112708095D01*
X73463809Y-112660476D01*
X73701904Y-112660476D01*
X73797142Y-112708095D01*
X73844761Y-112755714D01*
X73892380Y-112850952D01*
X73892380Y-113136666D01*
X73844761Y-113231904D01*
X73797142Y-113279523D01*
X73225714Y-111803333D02*
X73892380Y-111803333D01*
X72844761Y-112041428D02*
X73559047Y-112279523D01*
X73559047Y-111660476D01*
X93112380Y-97332857D02*
X92636190Y-97666190D01*
X93112380Y-97904285D02*
X92112380Y-97904285D01*
X92112380Y-97523333D01*
X92160000Y-97428095D01*
X92207619Y-97380476D01*
X92302857Y-97332857D01*
X92445714Y-97332857D01*
X92540952Y-97380476D01*
X92588571Y-97428095D01*
X92636190Y-97523333D01*
X92636190Y-97904285D01*
X92112380Y-96999523D02*
X92112380Y-96380476D01*
X92493333Y-96713809D01*
X92493333Y-96570952D01*
X92540952Y-96475714D01*
X92588571Y-96428095D01*
X92683809Y-96380476D01*
X92921904Y-96380476D01*
X93017142Y-96428095D01*
X93064761Y-96475714D01*
X93112380Y-96570952D01*
X93112380Y-96856666D01*
X93064761Y-96951904D01*
X93017142Y-96999523D01*
X92112380Y-95523333D02*
X92112380Y-95713809D01*
X92160000Y-95809047D01*
X92207619Y-95856666D01*
X92350476Y-95951904D01*
X92540952Y-95999523D01*
X92921904Y-95999523D01*
X93017142Y-95951904D01*
X93064761Y-95904285D01*
X93112380Y-95809047D01*
X93112380Y-95618571D01*
X93064761Y-95523333D01*
X93017142Y-95475714D01*
X92921904Y-95428095D01*
X92683809Y-95428095D01*
X92588571Y-95475714D01*
X92540952Y-95523333D01*
X92493333Y-95618571D01*
X92493333Y-95809047D01*
X92540952Y-95904285D01*
X92588571Y-95951904D01*
X92683809Y-95999523D01*
X47084880Y-97012857D02*
X46608690Y-97346190D01*
X47084880Y-97584285D02*
X46084880Y-97584285D01*
X46084880Y-97203333D01*
X46132500Y-97108095D01*
X46180119Y-97060476D01*
X46275357Y-97012857D01*
X46418214Y-97012857D01*
X46513452Y-97060476D01*
X46561071Y-97108095D01*
X46608690Y-97203333D01*
X46608690Y-97584285D01*
X46084880Y-96679523D02*
X46084880Y-96060476D01*
X46465833Y-96393809D01*
X46465833Y-96250952D01*
X46513452Y-96155714D01*
X46561071Y-96108095D01*
X46656309Y-96060476D01*
X46894404Y-96060476D01*
X46989642Y-96108095D01*
X47037261Y-96155714D01*
X47084880Y-96250952D01*
X47084880Y-96536666D01*
X47037261Y-96631904D01*
X46989642Y-96679523D01*
X46084880Y-95727142D02*
X46084880Y-95060476D01*
X47084880Y-95489047D01*
X50582380Y-103931904D02*
X51391904Y-103931904D01*
X51487142Y-103884285D01*
X51534761Y-103836666D01*
X51582380Y-103741428D01*
X51582380Y-103550952D01*
X51534761Y-103455714D01*
X51487142Y-103408095D01*
X51391904Y-103360476D01*
X50582380Y-103360476D01*
X51582380Y-102836666D02*
X51582380Y-102646190D01*
X51534761Y-102550952D01*
X51487142Y-102503333D01*
X51344285Y-102408095D01*
X51153809Y-102360476D01*
X50772857Y-102360476D01*
X50677619Y-102408095D01*
X50630000Y-102455714D01*
X50582380Y-102550952D01*
X50582380Y-102741428D01*
X50630000Y-102836666D01*
X50677619Y-102884285D01*
X50772857Y-102931904D01*
X51010952Y-102931904D01*
X51106190Y-102884285D01*
X51153809Y-102836666D01*
X51201428Y-102741428D01*
X51201428Y-102550952D01*
X51153809Y-102455714D01*
X51106190Y-102408095D01*
X51010952Y-102360476D01*
X100637142Y-95167142D02*
X100589523Y-95214761D01*
X100446666Y-95262380D01*
X100351428Y-95262380D01*
X100208571Y-95214761D01*
X100113333Y-95119523D01*
X100065714Y-95024285D01*
X100018095Y-94833809D01*
X100018095Y-94690952D01*
X100065714Y-94500476D01*
X100113333Y-94405238D01*
X100208571Y-94310000D01*
X100351428Y-94262380D01*
X100446666Y-94262380D01*
X100589523Y-94310000D01*
X100637142Y-94357619D01*
X101541904Y-94262380D02*
X101065714Y-94262380D01*
X101018095Y-94738571D01*
X101065714Y-94690952D01*
X101160952Y-94643333D01*
X101399047Y-94643333D01*
X101494285Y-94690952D01*
X101541904Y-94738571D01*
X101589523Y-94833809D01*
X101589523Y-95071904D01*
X101541904Y-95167142D01*
X101494285Y-95214761D01*
X101399047Y-95262380D01*
X101160952Y-95262380D01*
X101065714Y-95214761D01*
X101018095Y-95167142D01*
X102446666Y-94595714D02*
X102446666Y-95262380D01*
X102208571Y-94214761D02*
X101970476Y-94929047D01*
X102589523Y-94929047D01*
X41437142Y-26352857D02*
X41484761Y-26400476D01*
X41532380Y-26543333D01*
X41532380Y-26638571D01*
X41484761Y-26781428D01*
X41389523Y-26876666D01*
X41294285Y-26924285D01*
X41103809Y-26971904D01*
X40960952Y-26971904D01*
X40770476Y-26924285D01*
X40675238Y-26876666D01*
X40580000Y-26781428D01*
X40532380Y-26638571D01*
X40532380Y-26543333D01*
X40580000Y-26400476D01*
X40627619Y-26352857D01*
X40532380Y-25448095D02*
X40532380Y-25924285D01*
X41008571Y-25971904D01*
X40960952Y-25924285D01*
X40913333Y-25829047D01*
X40913333Y-25590952D01*
X40960952Y-25495714D01*
X41008571Y-25448095D01*
X41103809Y-25400476D01*
X41341904Y-25400476D01*
X41437142Y-25448095D01*
X41484761Y-25495714D01*
X41532380Y-25590952D01*
X41532380Y-25829047D01*
X41484761Y-25924285D01*
X41437142Y-25971904D01*
X40532380Y-24495714D02*
X40532380Y-24971904D01*
X41008571Y-25019523D01*
X40960952Y-24971904D01*
X40913333Y-24876666D01*
X40913333Y-24638571D01*
X40960952Y-24543333D01*
X41008571Y-24495714D01*
X41103809Y-24448095D01*
X41341904Y-24448095D01*
X41437142Y-24495714D01*
X41484761Y-24543333D01*
X41532380Y-24638571D01*
X41532380Y-24876666D01*
X41484761Y-24971904D01*
X41437142Y-25019523D01*
X54741142Y-43636357D02*
X54788761Y-43683976D01*
X54836380Y-43826833D01*
X54836380Y-43922071D01*
X54788761Y-44064928D01*
X54693523Y-44160166D01*
X54598285Y-44207785D01*
X54407809Y-44255404D01*
X54264952Y-44255404D01*
X54074476Y-44207785D01*
X53979238Y-44160166D01*
X53884000Y-44064928D01*
X53836380Y-43922071D01*
X53836380Y-43826833D01*
X53884000Y-43683976D01*
X53931619Y-43636357D01*
X53836380Y-42731595D02*
X53836380Y-43207785D01*
X54312571Y-43255404D01*
X54264952Y-43207785D01*
X54217333Y-43112547D01*
X54217333Y-42874452D01*
X54264952Y-42779214D01*
X54312571Y-42731595D01*
X54407809Y-42683976D01*
X54645904Y-42683976D01*
X54741142Y-42731595D01*
X54788761Y-42779214D01*
X54836380Y-42874452D01*
X54836380Y-43112547D01*
X54788761Y-43207785D01*
X54741142Y-43255404D01*
X53836380Y-41826833D02*
X53836380Y-42017309D01*
X53884000Y-42112547D01*
X53931619Y-42160166D01*
X54074476Y-42255404D01*
X54264952Y-42303023D01*
X54645904Y-42303023D01*
X54741142Y-42255404D01*
X54788761Y-42207785D01*
X54836380Y-42112547D01*
X54836380Y-41922071D01*
X54788761Y-41826833D01*
X54741142Y-41779214D01*
X54645904Y-41731595D01*
X54407809Y-41731595D01*
X54312571Y-41779214D01*
X54264952Y-41826833D01*
X54217333Y-41922071D01*
X54217333Y-42112547D01*
X54264952Y-42207785D01*
X54312571Y-42255404D01*
X54407809Y-42303023D01*
X63580142Y-50899380D02*
X63246809Y-50423190D01*
X63008714Y-50899380D02*
X63008714Y-49899380D01*
X63389666Y-49899380D01*
X63484904Y-49947000D01*
X63532523Y-49994619D01*
X63580142Y-50089857D01*
X63580142Y-50232714D01*
X63532523Y-50327952D01*
X63484904Y-50375571D01*
X63389666Y-50423190D01*
X63008714Y-50423190D01*
X63913476Y-49899380D02*
X64532523Y-49899380D01*
X64199190Y-50280333D01*
X64342047Y-50280333D01*
X64437285Y-50327952D01*
X64484904Y-50375571D01*
X64532523Y-50470809D01*
X64532523Y-50708904D01*
X64484904Y-50804142D01*
X64437285Y-50851761D01*
X64342047Y-50899380D01*
X64056333Y-50899380D01*
X63961095Y-50851761D01*
X63913476Y-50804142D01*
X65484904Y-50899380D02*
X64913476Y-50899380D01*
X65199190Y-50899380D02*
X65199190Y-49899380D01*
X65103952Y-50042238D01*
X65008714Y-50137476D01*
X64913476Y-50185095D01*
X55180142Y-49399380D02*
X54846809Y-48923190D01*
X54608714Y-49399380D02*
X54608714Y-48399380D01*
X54989666Y-48399380D01*
X55084904Y-48447000D01*
X55132523Y-48494619D01*
X55180142Y-48589857D01*
X55180142Y-48732714D01*
X55132523Y-48827952D01*
X55084904Y-48875571D01*
X54989666Y-48923190D01*
X54608714Y-48923190D01*
X55513476Y-48399380D02*
X56132523Y-48399380D01*
X55799190Y-48780333D01*
X55942047Y-48780333D01*
X56037285Y-48827952D01*
X56084904Y-48875571D01*
X56132523Y-48970809D01*
X56132523Y-49208904D01*
X56084904Y-49304142D01*
X56037285Y-49351761D01*
X55942047Y-49399380D01*
X55656333Y-49399380D01*
X55561095Y-49351761D01*
X55513476Y-49304142D01*
X56513476Y-48494619D02*
X56561095Y-48447000D01*
X56656333Y-48399380D01*
X56894428Y-48399380D01*
X56989666Y-48447000D01*
X57037285Y-48494619D01*
X57084904Y-48589857D01*
X57084904Y-48685095D01*
X57037285Y-48827952D01*
X56465857Y-49399380D01*
X57084904Y-49399380D01*
X44927142Y-89097142D02*
X44879523Y-89144761D01*
X44736666Y-89192380D01*
X44641428Y-89192380D01*
X44498571Y-89144761D01*
X44403333Y-89049523D01*
X44355714Y-88954285D01*
X44308095Y-88763809D01*
X44308095Y-88620952D01*
X44355714Y-88430476D01*
X44403333Y-88335238D01*
X44498571Y-88240000D01*
X44641428Y-88192380D01*
X44736666Y-88192380D01*
X44879523Y-88240000D01*
X44927142Y-88287619D01*
X45784285Y-88192380D02*
X45593809Y-88192380D01*
X45498571Y-88240000D01*
X45450952Y-88287619D01*
X45355714Y-88430476D01*
X45308095Y-88620952D01*
X45308095Y-89001904D01*
X45355714Y-89097142D01*
X45403333Y-89144761D01*
X45498571Y-89192380D01*
X45689047Y-89192380D01*
X45784285Y-89144761D01*
X45831904Y-89097142D01*
X45879523Y-89001904D01*
X45879523Y-88763809D01*
X45831904Y-88668571D01*
X45784285Y-88620952D01*
X45689047Y-88573333D01*
X45498571Y-88573333D01*
X45403333Y-88620952D01*
X45355714Y-88668571D01*
X45308095Y-88763809D01*
X46498571Y-88192380D02*
X46593809Y-88192380D01*
X46689047Y-88240000D01*
X46736666Y-88287619D01*
X46784285Y-88382857D01*
X46831904Y-88573333D01*
X46831904Y-88811428D01*
X46784285Y-89001904D01*
X46736666Y-89097142D01*
X46689047Y-89144761D01*
X46593809Y-89192380D01*
X46498571Y-89192380D01*
X46403333Y-89144761D01*
X46355714Y-89097142D01*
X46308095Y-89001904D01*
X46260476Y-88811428D01*
X46260476Y-88573333D01*
X46308095Y-88382857D01*
X46355714Y-88287619D01*
X46403333Y-88240000D01*
X46498571Y-88192380D01*
X48277142Y-88037142D02*
X48229523Y-88084761D01*
X48086666Y-88132380D01*
X47991428Y-88132380D01*
X47848571Y-88084761D01*
X47753333Y-87989523D01*
X47705714Y-87894285D01*
X47658095Y-87703809D01*
X47658095Y-87560952D01*
X47705714Y-87370476D01*
X47753333Y-87275238D01*
X47848571Y-87180000D01*
X47991428Y-87132380D01*
X48086666Y-87132380D01*
X48229523Y-87180000D01*
X48277142Y-87227619D01*
X49134285Y-87132380D02*
X48943809Y-87132380D01*
X48848571Y-87180000D01*
X48800952Y-87227619D01*
X48705714Y-87370476D01*
X48658095Y-87560952D01*
X48658095Y-87941904D01*
X48705714Y-88037142D01*
X48753333Y-88084761D01*
X48848571Y-88132380D01*
X49039047Y-88132380D01*
X49134285Y-88084761D01*
X49181904Y-88037142D01*
X49229523Y-87941904D01*
X49229523Y-87703809D01*
X49181904Y-87608571D01*
X49134285Y-87560952D01*
X49039047Y-87513333D01*
X48848571Y-87513333D01*
X48753333Y-87560952D01*
X48705714Y-87608571D01*
X48658095Y-87703809D01*
X50181904Y-88132380D02*
X49610476Y-88132380D01*
X49896190Y-88132380D02*
X49896190Y-87132380D01*
X49800952Y-87275238D01*
X49705714Y-87370476D01*
X49610476Y-87418095D01*
X114473142Y-35991380D02*
X114139809Y-35515190D01*
X113901714Y-35991380D02*
X113901714Y-34991380D01*
X114282666Y-34991380D01*
X114377904Y-35039000D01*
X114425523Y-35086619D01*
X114473142Y-35181857D01*
X114473142Y-35324714D01*
X114425523Y-35419952D01*
X114377904Y-35467571D01*
X114282666Y-35515190D01*
X113901714Y-35515190D01*
X114806476Y-34991380D02*
X115425523Y-34991380D01*
X115092190Y-35372333D01*
X115235047Y-35372333D01*
X115330285Y-35419952D01*
X115377904Y-35467571D01*
X115425523Y-35562809D01*
X115425523Y-35800904D01*
X115377904Y-35896142D01*
X115330285Y-35943761D01*
X115235047Y-35991380D01*
X114949333Y-35991380D01*
X114854095Y-35943761D01*
X114806476Y-35896142D01*
X116330285Y-34991380D02*
X115854095Y-34991380D01*
X115806476Y-35467571D01*
X115854095Y-35419952D01*
X115949333Y-35372333D01*
X116187428Y-35372333D01*
X116282666Y-35419952D01*
X116330285Y-35467571D01*
X116377904Y-35562809D01*
X116377904Y-35800904D01*
X116330285Y-35896142D01*
X116282666Y-35943761D01*
X116187428Y-35991380D01*
X115949333Y-35991380D01*
X115854095Y-35943761D01*
X115806476Y-35896142D01*
X28061904Y-56852380D02*
X28061904Y-55852380D01*
X28300000Y-55852380D01*
X28442857Y-55900000D01*
X28538095Y-55995238D01*
X28585714Y-56090476D01*
X28633333Y-56280952D01*
X28633333Y-56423809D01*
X28585714Y-56614285D01*
X28538095Y-56709523D01*
X28442857Y-56804761D01*
X28300000Y-56852380D01*
X28061904Y-56852380D01*
X28966666Y-55852380D02*
X29633333Y-55852380D01*
X29204761Y-56852380D01*
X39157142Y-55302380D02*
X38823809Y-54826190D01*
X38585714Y-55302380D02*
X38585714Y-54302380D01*
X38966666Y-54302380D01*
X39061904Y-54350000D01*
X39109523Y-54397619D01*
X39157142Y-54492857D01*
X39157142Y-54635714D01*
X39109523Y-54730952D01*
X39061904Y-54778571D01*
X38966666Y-54826190D01*
X38585714Y-54826190D01*
X39490476Y-54302380D02*
X40109523Y-54302380D01*
X39776190Y-54683333D01*
X39919047Y-54683333D01*
X40014285Y-54730952D01*
X40061904Y-54778571D01*
X40109523Y-54873809D01*
X40109523Y-55111904D01*
X40061904Y-55207142D01*
X40014285Y-55254761D01*
X39919047Y-55302380D01*
X39633333Y-55302380D01*
X39538095Y-55254761D01*
X39490476Y-55207142D01*
X40680952Y-54730952D02*
X40585714Y-54683333D01*
X40538095Y-54635714D01*
X40490476Y-54540476D01*
X40490476Y-54492857D01*
X40538095Y-54397619D01*
X40585714Y-54350000D01*
X40680952Y-54302380D01*
X40871428Y-54302380D01*
X40966666Y-54350000D01*
X41014285Y-54397619D01*
X41061904Y-54492857D01*
X41061904Y-54540476D01*
X41014285Y-54635714D01*
X40966666Y-54683333D01*
X40871428Y-54730952D01*
X40680952Y-54730952D01*
X40585714Y-54778571D01*
X40538095Y-54826190D01*
X40490476Y-54921428D01*
X40490476Y-55111904D01*
X40538095Y-55207142D01*
X40585714Y-55254761D01*
X40680952Y-55302380D01*
X40871428Y-55302380D01*
X40966666Y-55254761D01*
X41014285Y-55207142D01*
X41061904Y-55111904D01*
X41061904Y-54921428D01*
X41014285Y-54826190D01*
X40966666Y-54778571D01*
X40871428Y-54730952D01*
X73861904Y-25302380D02*
X73861904Y-24302380D01*
X74100000Y-24302380D01*
X74242857Y-24350000D01*
X74338095Y-24445238D01*
X74385714Y-24540476D01*
X74433333Y-24730952D01*
X74433333Y-24873809D01*
X74385714Y-25064285D01*
X74338095Y-25159523D01*
X74242857Y-25254761D01*
X74100000Y-25302380D01*
X73861904Y-25302380D01*
X75004761Y-24730952D02*
X74909523Y-24683333D01*
X74861904Y-24635714D01*
X74814285Y-24540476D01*
X74814285Y-24492857D01*
X74861904Y-24397619D01*
X74909523Y-24350000D01*
X75004761Y-24302380D01*
X75195238Y-24302380D01*
X75290476Y-24350000D01*
X75338095Y-24397619D01*
X75385714Y-24492857D01*
X75385714Y-24540476D01*
X75338095Y-24635714D01*
X75290476Y-24683333D01*
X75195238Y-24730952D01*
X75004761Y-24730952D01*
X74909523Y-24778571D01*
X74861904Y-24826190D01*
X74814285Y-24921428D01*
X74814285Y-25111904D01*
X74861904Y-25207142D01*
X74909523Y-25254761D01*
X75004761Y-25302380D01*
X75195238Y-25302380D01*
X75290476Y-25254761D01*
X75338095Y-25207142D01*
X75385714Y-25111904D01*
X75385714Y-24921428D01*
X75338095Y-24826190D01*
X75290476Y-24778571D01*
X75195238Y-24730952D01*
X22266666Y-50752380D02*
X22266666Y-51466666D01*
X22219047Y-51609523D01*
X22123809Y-51704761D01*
X21980952Y-51752380D01*
X21885714Y-51752380D01*
X23266666Y-51752380D02*
X22695238Y-51752380D01*
X22980952Y-51752380D02*
X22980952Y-50752380D01*
X22885714Y-50895238D01*
X22790476Y-50990476D01*
X22695238Y-51038095D01*
X79023809Y-54426190D02*
X79023809Y-54902380D01*
X78690476Y-53902380D02*
X79023809Y-54426190D01*
X79357142Y-53902380D01*
X80214285Y-54902380D02*
X79642857Y-54902380D01*
X79928571Y-54902380D02*
X79928571Y-53902380D01*
X79833333Y-54045238D01*
X79738095Y-54140476D01*
X79642857Y-54188095D01*
X111273809Y-87046190D02*
X111273809Y-87522380D01*
X110940476Y-86522380D02*
X111273809Y-87046190D01*
X111607142Y-86522380D01*
X111892857Y-86617619D02*
X111940476Y-86570000D01*
X112035714Y-86522380D01*
X112273809Y-86522380D01*
X112369047Y-86570000D01*
X112416666Y-86617619D01*
X112464285Y-86712857D01*
X112464285Y-86808095D01*
X112416666Y-86950952D01*
X111845238Y-87522380D01*
X112464285Y-87522380D01*
X74463809Y-94486190D02*
X74463809Y-94962380D01*
X74130476Y-93962380D02*
X74463809Y-94486190D01*
X74797142Y-93962380D01*
X75035238Y-93962380D02*
X75654285Y-93962380D01*
X75320952Y-94343333D01*
X75463809Y-94343333D01*
X75559047Y-94390952D01*
X75606666Y-94438571D01*
X75654285Y-94533809D01*
X75654285Y-94771904D01*
X75606666Y-94867142D01*
X75559047Y-94914761D01*
X75463809Y-94962380D01*
X75178095Y-94962380D01*
X75082857Y-94914761D01*
X75035238Y-94867142D01*
X105557142Y-43657142D02*
X105509523Y-43704761D01*
X105366666Y-43752380D01*
X105271428Y-43752380D01*
X105128571Y-43704761D01*
X105033333Y-43609523D01*
X104985714Y-43514285D01*
X104938095Y-43323809D01*
X104938095Y-43180952D01*
X104985714Y-42990476D01*
X105033333Y-42895238D01*
X105128571Y-42800000D01*
X105271428Y-42752380D01*
X105366666Y-42752380D01*
X105509523Y-42800000D01*
X105557142Y-42847619D01*
X106461904Y-42752380D02*
X105985714Y-42752380D01*
X105938095Y-43228571D01*
X105985714Y-43180952D01*
X106080952Y-43133333D01*
X106319047Y-43133333D01*
X106414285Y-43180952D01*
X106461904Y-43228571D01*
X106509523Y-43323809D01*
X106509523Y-43561904D01*
X106461904Y-43657142D01*
X106414285Y-43704761D01*
X106319047Y-43752380D01*
X106080952Y-43752380D01*
X105985714Y-43704761D01*
X105938095Y-43657142D01*
X106842857Y-42752380D02*
X107461904Y-42752380D01*
X107128571Y-43133333D01*
X107271428Y-43133333D01*
X107366666Y-43180952D01*
X107414285Y-43228571D01*
X107461904Y-43323809D01*
X107461904Y-43561904D01*
X107414285Y-43657142D01*
X107366666Y-43704761D01*
X107271428Y-43752380D01*
X106985714Y-43752380D01*
X106890476Y-43704761D01*
X106842857Y-43657142D01*
X87607142Y-43607142D02*
X87559523Y-43654761D01*
X87416666Y-43702380D01*
X87321428Y-43702380D01*
X87178571Y-43654761D01*
X87083333Y-43559523D01*
X87035714Y-43464285D01*
X86988095Y-43273809D01*
X86988095Y-43130952D01*
X87035714Y-42940476D01*
X87083333Y-42845238D01*
X87178571Y-42750000D01*
X87321428Y-42702380D01*
X87416666Y-42702380D01*
X87559523Y-42750000D01*
X87607142Y-42797619D01*
X88511904Y-42702380D02*
X88035714Y-42702380D01*
X87988095Y-43178571D01*
X88035714Y-43130952D01*
X88130952Y-43083333D01*
X88369047Y-43083333D01*
X88464285Y-43130952D01*
X88511904Y-43178571D01*
X88559523Y-43273809D01*
X88559523Y-43511904D01*
X88511904Y-43607142D01*
X88464285Y-43654761D01*
X88369047Y-43702380D01*
X88130952Y-43702380D01*
X88035714Y-43654761D01*
X87988095Y-43607142D01*
X88892857Y-42702380D02*
X89559523Y-42702380D01*
X89130952Y-43702380D01*
M02*
