G04 #@! TF.GenerationSoftware,KiCad,Pcbnew,5.1.6-c6e7f7d~86~ubuntu16.04.1*
G04 #@! TF.CreationDate,2020-07-06T18:05:24+05:00*
G04 #@! TF.ProjectId,usb2most,75736232-6d6f-4737-942e-6b696361645f,rev?*
G04 #@! TF.SameCoordinates,Original*
G04 #@! TF.FileFunction,Soldermask,Bot*
G04 #@! TF.FilePolarity,Negative*
%FSLAX46Y46*%
G04 Gerber Fmt 4.6, Leading zero omitted, Abs format (unit mm)*
G04 Created by KiCad (PCBNEW 5.1.6-c6e7f7d~86~ubuntu16.04.1) date 2020-07-06 18:05:24*
%MOMM*%
%LPD*%
G01*
G04 APERTURE LIST*
%ADD10C,0.100000*%
G04 APERTURE END LIST*
D10*
G36*
X24887324Y-113594731D02*
G01*
X25035443Y-113624194D01*
X25244729Y-113710884D01*
X25433082Y-113836737D01*
X25593263Y-113996918D01*
X25719116Y-114185271D01*
X25805806Y-114394557D01*
X25850000Y-114616735D01*
X25850000Y-114843265D01*
X25805806Y-115065443D01*
X25719116Y-115274729D01*
X25593263Y-115463082D01*
X25433082Y-115623263D01*
X25244729Y-115749116D01*
X25035443Y-115835806D01*
X24887324Y-115865269D01*
X24813266Y-115880000D01*
X24586734Y-115880000D01*
X24512676Y-115865269D01*
X24364557Y-115835806D01*
X24155271Y-115749116D01*
X23966918Y-115623263D01*
X23806737Y-115463082D01*
X23680884Y-115274729D01*
X23594194Y-115065443D01*
X23550000Y-114843265D01*
X23550000Y-114616735D01*
X23594194Y-114394557D01*
X23680884Y-114185271D01*
X23806737Y-113996918D01*
X23966918Y-113836737D01*
X24155271Y-113710884D01*
X24364557Y-113624194D01*
X24512676Y-113594731D01*
X24586734Y-113580000D01*
X24813266Y-113580000D01*
X24887324Y-113594731D01*
G37*
G36*
X39347738Y-114096653D02*
G01*
X39389598Y-114104979D01*
X39438596Y-114125275D01*
X39507889Y-114153977D01*
X39507890Y-114153978D01*
X39614351Y-114225112D01*
X39704888Y-114315649D01*
X39752418Y-114386784D01*
X39776023Y-114422111D01*
X39825021Y-114540403D01*
X39850000Y-114665979D01*
X39850000Y-114794021D01*
X39825021Y-114919597D01*
X39776023Y-115037889D01*
X39776022Y-115037890D01*
X39704888Y-115144351D01*
X39614351Y-115234888D01*
X39554727Y-115274727D01*
X39507889Y-115306023D01*
X39438596Y-115334725D01*
X39389598Y-115355021D01*
X39347738Y-115363347D01*
X39264021Y-115380000D01*
X39135979Y-115380000D01*
X39052262Y-115363347D01*
X39010402Y-115355021D01*
X38961404Y-115334725D01*
X38892111Y-115306023D01*
X38845273Y-115274727D01*
X38785649Y-115234888D01*
X38695112Y-115144351D01*
X38623978Y-115037890D01*
X38623977Y-115037889D01*
X38574979Y-114919597D01*
X38550000Y-114794021D01*
X38550000Y-114665979D01*
X38574979Y-114540403D01*
X38623977Y-114422111D01*
X38647582Y-114386784D01*
X38695112Y-114315649D01*
X38785649Y-114225112D01*
X38892110Y-114153978D01*
X38892111Y-114153977D01*
X38961404Y-114125275D01*
X39010402Y-114104979D01*
X39052262Y-114096653D01*
X39135979Y-114080000D01*
X39264021Y-114080000D01*
X39347738Y-114096653D01*
G37*
G36*
X40288766Y-110708821D02*
G01*
X40425257Y-110765358D01*
X40548097Y-110847437D01*
X40652563Y-110951903D01*
X40734642Y-111074743D01*
X40791179Y-111211234D01*
X40820000Y-111356130D01*
X40820000Y-111503870D01*
X40791179Y-111648766D01*
X40734642Y-111785257D01*
X40652563Y-111908097D01*
X40548097Y-112012563D01*
X40425257Y-112094642D01*
X40288766Y-112151179D01*
X40143870Y-112180000D01*
X39996130Y-112180000D01*
X39851234Y-112151179D01*
X39714743Y-112094642D01*
X39591903Y-112012563D01*
X39487437Y-111908097D01*
X39405358Y-111785257D01*
X39348821Y-111648766D01*
X39320000Y-111503870D01*
X39320000Y-111356130D01*
X39348821Y-111211234D01*
X39405358Y-111074743D01*
X39487437Y-110951903D01*
X39591903Y-110847437D01*
X39714743Y-110765358D01*
X39851234Y-110708821D01*
X39996130Y-110680000D01*
X40143870Y-110680000D01*
X40288766Y-110708821D01*
G37*
G36*
X115601163Y-106253587D02*
G01*
X115775041Y-106288173D01*
X116046415Y-106400580D01*
X116078860Y-106414019D01*
X116102620Y-106423861D01*
X116397433Y-106620849D01*
X116648151Y-106871567D01*
X116835062Y-107151299D01*
X116845140Y-107166382D01*
X116857245Y-107195606D01*
X116980827Y-107493959D01*
X117050000Y-107841716D01*
X117050000Y-108196284D01*
X116980827Y-108544041D01*
X116845139Y-108871620D01*
X116648151Y-109166433D01*
X116397433Y-109417151D01*
X116102620Y-109614139D01*
X115775041Y-109749827D01*
X115601163Y-109784413D01*
X115427286Y-109819000D01*
X115072714Y-109819000D01*
X114898837Y-109784413D01*
X114724959Y-109749827D01*
X114397380Y-109614139D01*
X114102567Y-109417151D01*
X113851849Y-109166433D01*
X113654861Y-108871620D01*
X113519173Y-108544041D01*
X113450000Y-108196284D01*
X113450000Y-107841716D01*
X113519173Y-107493959D01*
X113642755Y-107195606D01*
X113654860Y-107166382D01*
X113664938Y-107151299D01*
X113851849Y-106871567D01*
X114102567Y-106620849D01*
X114397380Y-106423861D01*
X114421141Y-106414019D01*
X114453585Y-106400580D01*
X114724959Y-106288173D01*
X114898837Y-106253587D01*
X115072714Y-106219000D01*
X115427286Y-106219000D01*
X115601163Y-106253587D01*
G37*
G36*
X40288766Y-108168821D02*
G01*
X40425257Y-108225358D01*
X40548097Y-108307437D01*
X40652563Y-108411903D01*
X40734642Y-108534743D01*
X40791179Y-108671234D01*
X40820000Y-108816130D01*
X40820000Y-108963870D01*
X40791179Y-109108766D01*
X40734642Y-109245257D01*
X40652563Y-109368097D01*
X40548097Y-109472563D01*
X40425257Y-109554642D01*
X40288766Y-109611179D01*
X40143870Y-109640000D01*
X39996130Y-109640000D01*
X39851234Y-109611179D01*
X39714743Y-109554642D01*
X39591903Y-109472563D01*
X39487437Y-109368097D01*
X39405358Y-109245257D01*
X39348821Y-109108766D01*
X39320000Y-108963870D01*
X39320000Y-108816130D01*
X39348821Y-108671234D01*
X39405358Y-108534743D01*
X39487437Y-108411903D01*
X39591903Y-108307437D01*
X39714743Y-108225358D01*
X39851234Y-108168821D01*
X39996130Y-108140000D01*
X40143870Y-108140000D01*
X40288766Y-108168821D01*
G37*
G36*
X22979196Y-106729958D02*
G01*
X23215781Y-106827955D01*
X23428702Y-106970224D01*
X23609776Y-107151298D01*
X23720776Y-107317422D01*
X23752046Y-107364221D01*
X23850042Y-107600805D01*
X23900000Y-107851960D01*
X23900000Y-108108040D01*
X23850042Y-108359195D01*
X23773477Y-108544041D01*
X23752045Y-108595781D01*
X23609776Y-108808702D01*
X23428702Y-108989776D01*
X23215781Y-109132045D01*
X22979196Y-109230042D01*
X22728040Y-109280000D01*
X22471960Y-109280000D01*
X22220804Y-109230042D01*
X21984219Y-109132045D01*
X21771298Y-108989776D01*
X21590224Y-108808702D01*
X21447955Y-108595781D01*
X21426524Y-108544041D01*
X21349958Y-108359195D01*
X21300000Y-108108040D01*
X21300000Y-107851960D01*
X21349958Y-107600805D01*
X21447954Y-107364221D01*
X21479224Y-107317422D01*
X21590224Y-107151298D01*
X21771298Y-106970224D01*
X21984219Y-106827955D01*
X22220804Y-106729958D01*
X22471960Y-106680000D01*
X22728040Y-106680000D01*
X22979196Y-106729958D01*
G37*
G36*
X112018471Y-105952859D02*
G01*
X112096827Y-105960576D01*
X112247628Y-106006321D01*
X112247630Y-106006322D01*
X112386605Y-106080606D01*
X112508422Y-106180578D01*
X112608394Y-106302395D01*
X112673319Y-106423860D01*
X112682679Y-106441372D01*
X112728424Y-106592173D01*
X112743870Y-106749000D01*
X112728424Y-106905827D01*
X112695415Y-107014642D01*
X112682678Y-107056630D01*
X112608394Y-107195605D01*
X112508422Y-107317422D01*
X112386605Y-107417394D01*
X112247630Y-107491678D01*
X112247628Y-107491679D01*
X112096827Y-107537424D01*
X112018471Y-107545141D01*
X111979294Y-107549000D01*
X110900706Y-107549000D01*
X110861529Y-107545141D01*
X110783173Y-107537424D01*
X110632372Y-107491679D01*
X110632370Y-107491678D01*
X110493395Y-107417394D01*
X110371578Y-107317422D01*
X110271606Y-107195605D01*
X110197322Y-107056630D01*
X110184585Y-107014642D01*
X110151576Y-106905827D01*
X110136130Y-106749000D01*
X110151576Y-106592173D01*
X110197321Y-106441372D01*
X110206681Y-106423860D01*
X110271606Y-106302395D01*
X110371578Y-106180578D01*
X110493395Y-106080606D01*
X110632370Y-106006322D01*
X110632372Y-106006321D01*
X110783173Y-105960576D01*
X110861529Y-105952859D01*
X110900706Y-105949000D01*
X111979294Y-105949000D01*
X112018471Y-105952859D01*
G37*
G36*
X40288766Y-105628821D02*
G01*
X40425257Y-105685358D01*
X40548097Y-105767437D01*
X40652563Y-105871903D01*
X40734642Y-105994743D01*
X40791179Y-106131234D01*
X40820000Y-106276130D01*
X40820000Y-106423870D01*
X40791179Y-106568766D01*
X40734642Y-106705257D01*
X40652563Y-106828097D01*
X40548097Y-106932563D01*
X40425257Y-107014642D01*
X40288766Y-107071179D01*
X40143870Y-107100000D01*
X39996130Y-107100000D01*
X39851234Y-107071179D01*
X39714743Y-107014642D01*
X39591903Y-106932563D01*
X39487437Y-106828097D01*
X39405358Y-106705257D01*
X39348821Y-106568766D01*
X39320000Y-106423870D01*
X39320000Y-106276130D01*
X39348821Y-106131234D01*
X39405358Y-105994743D01*
X39487437Y-105871903D01*
X39591903Y-105767437D01*
X39714743Y-105685358D01*
X39851234Y-105628821D01*
X39996130Y-105600000D01*
X40143870Y-105600000D01*
X40288766Y-105628821D01*
G37*
G36*
X42297738Y-105716653D02*
G01*
X42339598Y-105724979D01*
X42388596Y-105745275D01*
X42457889Y-105773977D01*
X42457890Y-105773978D01*
X42564351Y-105845112D01*
X42654888Y-105935649D01*
X42671543Y-105960576D01*
X42726023Y-106042111D01*
X42754725Y-106111404D01*
X42762939Y-106131233D01*
X42775021Y-106160403D01*
X42800000Y-106285979D01*
X42800000Y-106414021D01*
X42798041Y-106423869D01*
X42775021Y-106539598D01*
X42754725Y-106588596D01*
X42726023Y-106657889D01*
X42726022Y-106657890D01*
X42654888Y-106764351D01*
X42564351Y-106854888D01*
X42539387Y-106871568D01*
X42457889Y-106926023D01*
X42388596Y-106954725D01*
X42339598Y-106975021D01*
X42297738Y-106983347D01*
X42214021Y-107000000D01*
X42085979Y-107000000D01*
X42002262Y-106983347D01*
X41960402Y-106975021D01*
X41911404Y-106954725D01*
X41842111Y-106926023D01*
X41760613Y-106871568D01*
X41735649Y-106854888D01*
X41645112Y-106764351D01*
X41573978Y-106657890D01*
X41573977Y-106657889D01*
X41545275Y-106588596D01*
X41524979Y-106539598D01*
X41501959Y-106423869D01*
X41500000Y-106414021D01*
X41500000Y-106285979D01*
X41524979Y-106160403D01*
X41537062Y-106131233D01*
X41545275Y-106111404D01*
X41573977Y-106042111D01*
X41628457Y-105960576D01*
X41645112Y-105935649D01*
X41735649Y-105845112D01*
X41842110Y-105773978D01*
X41842111Y-105773977D01*
X41911404Y-105745275D01*
X41960402Y-105724979D01*
X42002262Y-105716653D01*
X42085979Y-105700000D01*
X42214021Y-105700000D01*
X42297738Y-105716653D01*
G37*
G36*
X112018471Y-103412859D02*
G01*
X112096827Y-103420576D01*
X112247628Y-103466321D01*
X112247630Y-103466322D01*
X112386605Y-103540606D01*
X112448296Y-103591234D01*
X112508422Y-103640578D01*
X112608393Y-103762394D01*
X112682679Y-103901372D01*
X112728424Y-104052173D01*
X112743870Y-104209000D01*
X112728424Y-104365827D01*
X112695415Y-104474642D01*
X112682678Y-104516630D01*
X112608394Y-104655605D01*
X112508422Y-104777422D01*
X112386605Y-104877394D01*
X112247630Y-104951678D01*
X112247628Y-104951679D01*
X112096827Y-104997424D01*
X112018471Y-105005141D01*
X111979294Y-105009000D01*
X110900706Y-105009000D01*
X110861529Y-105005141D01*
X110783173Y-104997424D01*
X110632372Y-104951679D01*
X110632370Y-104951678D01*
X110493395Y-104877394D01*
X110371578Y-104777422D01*
X110271606Y-104655605D01*
X110197322Y-104516630D01*
X110184585Y-104474642D01*
X110151576Y-104365827D01*
X110136130Y-104209000D01*
X110151576Y-104052173D01*
X110197321Y-103901372D01*
X110271607Y-103762394D01*
X110371578Y-103640578D01*
X110431704Y-103591234D01*
X110493395Y-103540606D01*
X110632370Y-103466322D01*
X110632372Y-103466321D01*
X110783173Y-103420576D01*
X110861529Y-103412859D01*
X110900706Y-103409000D01*
X111979294Y-103409000D01*
X112018471Y-103412859D01*
G37*
G36*
X40288766Y-103088821D02*
G01*
X40425257Y-103145358D01*
X40548097Y-103227437D01*
X40652563Y-103331903D01*
X40734642Y-103454743D01*
X40791179Y-103591234D01*
X40820000Y-103736130D01*
X40820000Y-103883870D01*
X40791179Y-104028766D01*
X40734642Y-104165257D01*
X40652563Y-104288097D01*
X40548097Y-104392563D01*
X40425257Y-104474642D01*
X40288766Y-104531179D01*
X40143870Y-104560000D01*
X39996130Y-104560000D01*
X39851234Y-104531179D01*
X39714743Y-104474642D01*
X39591903Y-104392563D01*
X39487437Y-104288097D01*
X39405358Y-104165257D01*
X39348821Y-104028766D01*
X39320000Y-103883870D01*
X39320000Y-103736130D01*
X39348821Y-103591234D01*
X39405358Y-103454743D01*
X39487437Y-103331903D01*
X39591903Y-103227437D01*
X39714743Y-103145358D01*
X39851234Y-103088821D01*
X39996130Y-103060000D01*
X40143870Y-103060000D01*
X40288766Y-103088821D01*
G37*
G36*
X37597738Y-101246653D02*
G01*
X37639598Y-101254979D01*
X37688596Y-101275275D01*
X37757889Y-101303977D01*
X37757890Y-101303978D01*
X37864351Y-101375112D01*
X37954888Y-101465649D01*
X38002418Y-101536784D01*
X38026023Y-101572111D01*
X38075021Y-101690403D01*
X38100000Y-101815979D01*
X38100000Y-101944021D01*
X38075021Y-102069597D01*
X38026023Y-102187889D01*
X38026022Y-102187890D01*
X37954888Y-102294351D01*
X37864351Y-102384888D01*
X37793216Y-102432418D01*
X37757889Y-102456023D01*
X37688596Y-102484725D01*
X37639598Y-102505021D01*
X37597738Y-102513347D01*
X37514021Y-102530000D01*
X37385979Y-102530000D01*
X37302262Y-102513347D01*
X37260402Y-102505021D01*
X37211404Y-102484725D01*
X37142111Y-102456023D01*
X37106784Y-102432418D01*
X37035649Y-102384888D01*
X36945112Y-102294351D01*
X36873978Y-102187890D01*
X36873977Y-102187889D01*
X36824979Y-102069597D01*
X36800000Y-101944021D01*
X36800000Y-101815979D01*
X36824979Y-101690403D01*
X36873977Y-101572111D01*
X36897582Y-101536784D01*
X36945112Y-101465649D01*
X37035649Y-101375112D01*
X37142110Y-101303978D01*
X37142111Y-101303977D01*
X37211404Y-101275275D01*
X37260402Y-101254979D01*
X37302262Y-101246653D01*
X37385979Y-101230000D01*
X37514021Y-101230000D01*
X37597738Y-101246653D01*
G37*
G36*
X112740000Y-102469000D02*
G01*
X110140000Y-102469000D01*
X110140000Y-100869000D01*
X112740000Y-100869000D01*
X112740000Y-102469000D01*
G37*
G36*
X115601162Y-98633586D02*
G01*
X115775041Y-98668173D01*
X116102620Y-98803861D01*
X116397433Y-99000849D01*
X116648151Y-99251567D01*
X116845139Y-99546380D01*
X116980827Y-99873959D01*
X116981259Y-99876131D01*
X117050000Y-100221714D01*
X117050000Y-100576286D01*
X117015414Y-100750162D01*
X116980827Y-100924041D01*
X116845139Y-101251620D01*
X116648151Y-101546433D01*
X116397433Y-101797151D01*
X116102620Y-101994139D01*
X115775041Y-102129827D01*
X115601162Y-102164414D01*
X115427286Y-102199000D01*
X115072714Y-102199000D01*
X114898837Y-102164413D01*
X114724959Y-102129827D01*
X114397380Y-101994139D01*
X114102567Y-101797151D01*
X113851849Y-101546433D01*
X113654861Y-101251620D01*
X113519173Y-100924041D01*
X113484587Y-100750163D01*
X113450000Y-100576286D01*
X113450000Y-100221714D01*
X113518741Y-99876131D01*
X113519173Y-99873959D01*
X113654861Y-99546380D01*
X113851849Y-99251567D01*
X114102567Y-99000849D01*
X114397380Y-98803861D01*
X114724959Y-98668173D01*
X114898838Y-98633586D01*
X115072714Y-98599000D01*
X115427286Y-98599000D01*
X115601162Y-98633586D01*
G37*
G36*
X40288766Y-99228821D02*
G01*
X40425257Y-99285358D01*
X40548097Y-99367437D01*
X40652563Y-99471903D01*
X40734642Y-99594743D01*
X40791179Y-99731234D01*
X40820000Y-99876130D01*
X40820000Y-100023870D01*
X40791179Y-100168766D01*
X40734642Y-100305257D01*
X40652563Y-100428097D01*
X40548097Y-100532563D01*
X40425257Y-100614642D01*
X40288766Y-100671179D01*
X40143870Y-100700000D01*
X39996130Y-100700000D01*
X39851234Y-100671179D01*
X39714743Y-100614642D01*
X39591903Y-100532563D01*
X39487437Y-100428097D01*
X39405358Y-100305257D01*
X39348821Y-100168766D01*
X39320000Y-100023870D01*
X39320000Y-99876130D01*
X39348821Y-99731234D01*
X39405358Y-99594743D01*
X39487437Y-99471903D01*
X39591903Y-99367437D01*
X39714743Y-99285358D01*
X39851234Y-99228821D01*
X39996130Y-99200000D01*
X40143870Y-99200000D01*
X40288766Y-99228821D01*
G37*
G36*
X40288766Y-96688821D02*
G01*
X40425257Y-96745358D01*
X40548097Y-96827437D01*
X40652563Y-96931903D01*
X40734642Y-97054743D01*
X40791179Y-97191234D01*
X40820000Y-97336130D01*
X40820000Y-97483870D01*
X40791179Y-97628766D01*
X40734642Y-97765257D01*
X40652563Y-97888097D01*
X40548097Y-97992563D01*
X40425257Y-98074642D01*
X40288766Y-98131179D01*
X40143870Y-98160000D01*
X39996130Y-98160000D01*
X39851234Y-98131179D01*
X39714743Y-98074642D01*
X39591903Y-97992563D01*
X39487437Y-97888097D01*
X39405358Y-97765257D01*
X39348821Y-97628766D01*
X39320000Y-97483870D01*
X39320000Y-97336130D01*
X39348821Y-97191234D01*
X39405358Y-97054743D01*
X39487437Y-96931903D01*
X39591903Y-96827437D01*
X39714743Y-96745358D01*
X39851234Y-96688821D01*
X39996130Y-96660000D01*
X40143870Y-96660000D01*
X40288766Y-96688821D01*
G37*
G36*
X40288766Y-94148821D02*
G01*
X40425257Y-94205358D01*
X40548097Y-94287437D01*
X40652563Y-94391903D01*
X40734642Y-94514743D01*
X40791179Y-94651234D01*
X40820000Y-94796130D01*
X40820000Y-94943870D01*
X40791179Y-95088766D01*
X40734642Y-95225257D01*
X40652563Y-95348097D01*
X40548097Y-95452563D01*
X40425257Y-95534642D01*
X40288766Y-95591179D01*
X40143870Y-95620000D01*
X39996130Y-95620000D01*
X39851234Y-95591179D01*
X39714743Y-95534642D01*
X39591903Y-95452563D01*
X39487437Y-95348097D01*
X39405358Y-95225257D01*
X39348821Y-95088766D01*
X39320000Y-94943870D01*
X39320000Y-94796130D01*
X39348821Y-94651234D01*
X39405358Y-94514743D01*
X39487437Y-94391903D01*
X39591903Y-94287437D01*
X39714743Y-94205358D01*
X39851234Y-94148821D01*
X39996130Y-94120000D01*
X40143870Y-94120000D01*
X40288766Y-94148821D01*
G37*
G36*
X34201645Y-92994641D02*
G01*
X34379196Y-93029958D01*
X34615781Y-93127955D01*
X34828702Y-93270224D01*
X35009776Y-93451298D01*
X35152045Y-93664219D01*
X35152046Y-93664221D01*
X35250042Y-93900805D01*
X35299376Y-94148821D01*
X35300000Y-94151961D01*
X35300000Y-94408039D01*
X35250042Y-94659196D01*
X35152045Y-94895781D01*
X35009776Y-95108702D01*
X34828702Y-95289776D01*
X34615781Y-95432045D01*
X34379196Y-95530042D01*
X34253617Y-95555021D01*
X34128040Y-95580000D01*
X33871960Y-95580000D01*
X33746383Y-95555021D01*
X33620804Y-95530042D01*
X33384219Y-95432045D01*
X33171298Y-95289776D01*
X32990224Y-95108702D01*
X32847955Y-94895781D01*
X32749958Y-94659196D01*
X32700000Y-94408039D01*
X32700000Y-94151961D01*
X32700625Y-94148821D01*
X32749958Y-93900805D01*
X32847954Y-93664221D01*
X32847955Y-93664219D01*
X32990224Y-93451298D01*
X33171298Y-93270224D01*
X33384219Y-93127955D01*
X33620804Y-93029958D01*
X33798355Y-92994641D01*
X33871960Y-92980000D01*
X34128040Y-92980000D01*
X34201645Y-92994641D01*
G37*
G36*
X42297738Y-94236653D02*
G01*
X42339598Y-94244979D01*
X42388596Y-94265275D01*
X42457889Y-94293977D01*
X42457890Y-94293978D01*
X42564351Y-94365112D01*
X42654888Y-94455649D01*
X42694372Y-94514742D01*
X42726023Y-94562111D01*
X42754725Y-94631404D01*
X42775021Y-94680402D01*
X42800000Y-94805981D01*
X42800000Y-94934019D01*
X42775021Y-95059598D01*
X42754725Y-95108596D01*
X42726023Y-95177889D01*
X42726022Y-95177890D01*
X42654888Y-95284351D01*
X42564351Y-95374888D01*
X42493216Y-95422418D01*
X42457889Y-95446023D01*
X42388596Y-95474725D01*
X42339598Y-95495021D01*
X42297738Y-95503347D01*
X42214021Y-95520000D01*
X42085979Y-95520000D01*
X42002262Y-95503347D01*
X41960402Y-95495021D01*
X41911404Y-95474725D01*
X41842111Y-95446023D01*
X41806784Y-95422418D01*
X41735649Y-95374888D01*
X41645112Y-95284351D01*
X41573978Y-95177890D01*
X41573977Y-95177889D01*
X41545275Y-95108596D01*
X41524979Y-95059598D01*
X41500000Y-94934019D01*
X41500000Y-94805981D01*
X41524979Y-94680402D01*
X41545275Y-94631404D01*
X41573977Y-94562111D01*
X41605628Y-94514742D01*
X41645112Y-94455649D01*
X41735649Y-94365112D01*
X41842110Y-94293978D01*
X41842111Y-94293977D01*
X41911404Y-94265275D01*
X41960402Y-94244979D01*
X42002262Y-94236653D01*
X42085979Y-94220000D01*
X42214021Y-94220000D01*
X42297738Y-94236653D01*
G37*
G36*
X40288766Y-91608821D02*
G01*
X40425257Y-91665358D01*
X40548097Y-91747437D01*
X40652563Y-91851903D01*
X40734642Y-91974743D01*
X40791179Y-92111234D01*
X40820000Y-92256130D01*
X40820000Y-92403870D01*
X40791179Y-92548766D01*
X40734642Y-92685257D01*
X40652563Y-92808097D01*
X40548097Y-92912563D01*
X40425257Y-92994642D01*
X40288766Y-93051179D01*
X40143870Y-93080000D01*
X39996130Y-93080000D01*
X39851234Y-93051179D01*
X39714743Y-92994642D01*
X39591903Y-92912563D01*
X39487437Y-92808097D01*
X39405358Y-92685257D01*
X39348821Y-92548766D01*
X39320000Y-92403870D01*
X39320000Y-92256130D01*
X39348821Y-92111234D01*
X39405358Y-91974743D01*
X39487437Y-91851903D01*
X39591903Y-91747437D01*
X39714743Y-91665358D01*
X39851234Y-91608821D01*
X39996130Y-91580000D01*
X40143870Y-91580000D01*
X40288766Y-91608821D01*
G37*
G36*
X24887324Y-89894731D02*
G01*
X25035443Y-89924194D01*
X25244729Y-90010884D01*
X25433082Y-90136737D01*
X25593263Y-90296918D01*
X25719116Y-90485271D01*
X25805806Y-90694557D01*
X25850000Y-90916735D01*
X25850000Y-91143265D01*
X25805806Y-91365443D01*
X25719116Y-91574729D01*
X25593263Y-91763082D01*
X25433082Y-91923263D01*
X25244729Y-92049116D01*
X25035443Y-92135806D01*
X24887324Y-92165269D01*
X24813266Y-92180000D01*
X24586734Y-92180000D01*
X24512676Y-92165269D01*
X24364557Y-92135806D01*
X24155271Y-92049116D01*
X23966918Y-91923263D01*
X23806737Y-91763082D01*
X23680884Y-91574729D01*
X23594194Y-91365443D01*
X23550000Y-91143265D01*
X23550000Y-90916735D01*
X23594194Y-90694557D01*
X23680884Y-90485271D01*
X23806737Y-90296918D01*
X23966918Y-90136737D01*
X24155271Y-90010884D01*
X24364557Y-89924194D01*
X24512676Y-89894731D01*
X24586734Y-89880000D01*
X24813266Y-89880000D01*
X24887324Y-89894731D01*
G37*
G36*
X118195486Y-59515229D02*
G01*
X118207423Y-59516405D01*
X118268685Y-59534989D01*
X118329948Y-59553573D01*
X118442868Y-59613930D01*
X118541843Y-59695157D01*
X118623070Y-59794132D01*
X118683427Y-59907052D01*
X118720595Y-60029578D01*
X118733145Y-60157000D01*
X118720595Y-60284422D01*
X118683427Y-60406948D01*
X118623070Y-60519868D01*
X118541843Y-60618843D01*
X118442868Y-60700070D01*
X118329948Y-60760427D01*
X118268685Y-60779011D01*
X118207423Y-60797595D01*
X118195486Y-60798771D01*
X118111932Y-60807000D01*
X117348068Y-60807000D01*
X117264514Y-60798771D01*
X117252577Y-60797595D01*
X117191315Y-60779011D01*
X117130052Y-60760427D01*
X117017132Y-60700070D01*
X116918157Y-60618843D01*
X116836930Y-60519868D01*
X116776573Y-60406948D01*
X116739405Y-60284422D01*
X116726855Y-60157000D01*
X116739405Y-60029578D01*
X116776573Y-59907052D01*
X116836930Y-59794132D01*
X116918157Y-59695157D01*
X117017132Y-59613930D01*
X117130052Y-59553573D01*
X117191315Y-59534989D01*
X117252577Y-59516405D01*
X117264514Y-59515229D01*
X117348068Y-59507000D01*
X118111932Y-59507000D01*
X118195486Y-59515229D01*
G37*
G36*
X115256059Y-58411782D02*
G01*
X115397099Y-58470203D01*
X115397100Y-58470204D01*
X115524034Y-58555018D01*
X115631982Y-58662966D01*
X115631983Y-58662968D01*
X115716797Y-58789901D01*
X115775218Y-58930941D01*
X115805000Y-59080668D01*
X115805000Y-59233332D01*
X115775218Y-59383059D01*
X115716797Y-59524099D01*
X115716796Y-59524100D01*
X115631982Y-59651034D01*
X115524034Y-59758982D01*
X115471428Y-59794132D01*
X115397099Y-59843797D01*
X115256059Y-59902218D01*
X115106332Y-59932000D01*
X114953668Y-59932000D01*
X114803941Y-59902218D01*
X114662901Y-59843797D01*
X114588572Y-59794132D01*
X114535966Y-59758982D01*
X114428018Y-59651034D01*
X114343204Y-59524100D01*
X114343203Y-59524099D01*
X114284782Y-59383059D01*
X114255000Y-59233332D01*
X114255000Y-59080668D01*
X114284782Y-58930941D01*
X114343203Y-58789901D01*
X114428017Y-58662968D01*
X114428018Y-58662966D01*
X114535966Y-58555018D01*
X114662900Y-58470204D01*
X114662901Y-58470203D01*
X114803941Y-58411782D01*
X114953668Y-58382000D01*
X115106332Y-58382000D01*
X115256059Y-58411782D01*
G37*
G36*
X115256059Y-53411782D02*
G01*
X115397099Y-53470203D01*
X115397100Y-53470204D01*
X115524034Y-53555018D01*
X115631982Y-53662966D01*
X115631983Y-53662968D01*
X115716797Y-53789901D01*
X115775218Y-53930941D01*
X115805000Y-54080668D01*
X115805000Y-54233332D01*
X115775218Y-54383059D01*
X115716797Y-54524099D01*
X115716796Y-54524100D01*
X115631982Y-54651034D01*
X115524034Y-54758982D01*
X115460136Y-54801677D01*
X115397099Y-54843797D01*
X115256059Y-54902218D01*
X115106332Y-54932000D01*
X114953668Y-54932000D01*
X114803941Y-54902218D01*
X114662901Y-54843797D01*
X114599864Y-54801677D01*
X114535966Y-54758982D01*
X114428018Y-54651034D01*
X114343204Y-54524100D01*
X114343203Y-54524099D01*
X114284782Y-54383059D01*
X114255000Y-54233332D01*
X114255000Y-54080668D01*
X114284782Y-53930941D01*
X114343203Y-53789901D01*
X114428017Y-53662968D01*
X114428018Y-53662966D01*
X114535966Y-53555018D01*
X114662900Y-53470204D01*
X114662901Y-53470203D01*
X114803941Y-53411782D01*
X114953668Y-53382000D01*
X115106332Y-53382000D01*
X115256059Y-53411782D01*
G37*
G36*
X118195486Y-52515229D02*
G01*
X118207423Y-52516405D01*
X118268685Y-52534989D01*
X118329948Y-52553573D01*
X118442868Y-52613930D01*
X118541843Y-52695157D01*
X118623070Y-52794132D01*
X118683427Y-52907052D01*
X118720595Y-53029578D01*
X118733145Y-53157000D01*
X118720595Y-53284422D01*
X118683427Y-53406948D01*
X118623070Y-53519868D01*
X118541843Y-53618843D01*
X118442868Y-53700070D01*
X118329948Y-53760427D01*
X118268685Y-53779011D01*
X118207423Y-53797595D01*
X118195486Y-53798771D01*
X118111932Y-53807000D01*
X117348068Y-53807000D01*
X117264514Y-53798771D01*
X117252577Y-53797595D01*
X117191315Y-53779011D01*
X117130052Y-53760427D01*
X117017132Y-53700070D01*
X116918157Y-53618843D01*
X116836930Y-53519868D01*
X116776573Y-53406948D01*
X116739405Y-53284422D01*
X116726855Y-53157000D01*
X116739405Y-53029578D01*
X116776573Y-52907052D01*
X116836930Y-52794132D01*
X116918157Y-52695157D01*
X117017132Y-52613930D01*
X117130052Y-52553573D01*
X117191315Y-52534989D01*
X117252577Y-52516405D01*
X117264514Y-52515229D01*
X117348068Y-52507000D01*
X118111932Y-52507000D01*
X118195486Y-52515229D01*
G37*
G36*
X22551475Y-47412861D02*
G01*
X22683416Y-47467512D01*
X22802160Y-47546855D01*
X22903145Y-47647840D01*
X22982488Y-47766584D01*
X23037139Y-47898525D01*
X23065000Y-48038592D01*
X23065000Y-48181408D01*
X23037139Y-48321475D01*
X22982488Y-48453416D01*
X22903145Y-48572160D01*
X22802160Y-48673145D01*
X22683416Y-48752488D01*
X22551475Y-48807139D01*
X22411408Y-48835000D01*
X22268592Y-48835000D01*
X22128525Y-48807139D01*
X21996584Y-48752488D01*
X21877840Y-48673145D01*
X21776855Y-48572160D01*
X21697512Y-48453416D01*
X21642861Y-48321475D01*
X21615000Y-48181408D01*
X21615000Y-48038592D01*
X21642861Y-47898525D01*
X21697512Y-47766584D01*
X21776855Y-47647840D01*
X21877840Y-47546855D01*
X21996584Y-47467512D01*
X22128525Y-47412861D01*
X22268592Y-47385000D01*
X22411408Y-47385000D01*
X22551475Y-47412861D01*
G37*
G36*
X24551475Y-47412861D02*
G01*
X24683416Y-47467512D01*
X24802160Y-47546855D01*
X24903145Y-47647840D01*
X24982488Y-47766584D01*
X25037139Y-47898525D01*
X25065000Y-48038592D01*
X25065000Y-48181408D01*
X25037139Y-48321475D01*
X24982488Y-48453416D01*
X24903145Y-48572160D01*
X24802160Y-48673145D01*
X24683416Y-48752488D01*
X24551475Y-48807139D01*
X24411408Y-48835000D01*
X24268592Y-48835000D01*
X24128525Y-48807139D01*
X23996584Y-48752488D01*
X23877840Y-48673145D01*
X23776855Y-48572160D01*
X23697512Y-48453416D01*
X23642861Y-48321475D01*
X23615000Y-48181408D01*
X23615000Y-48038592D01*
X23642861Y-47898525D01*
X23697512Y-47766584D01*
X23776855Y-47647840D01*
X23877840Y-47546855D01*
X23996584Y-47467512D01*
X24128525Y-47412861D01*
X24268592Y-47385000D01*
X24411408Y-47385000D01*
X24551475Y-47412861D01*
G37*
G36*
X22551475Y-45412861D02*
G01*
X22683416Y-45467512D01*
X22802160Y-45546855D01*
X22903145Y-45647840D01*
X22982488Y-45766584D01*
X23037139Y-45898525D01*
X23065000Y-46038592D01*
X23065000Y-46181408D01*
X23037139Y-46321475D01*
X22982488Y-46453416D01*
X22903145Y-46572160D01*
X22802160Y-46673145D01*
X22683416Y-46752488D01*
X22551475Y-46807139D01*
X22411408Y-46835000D01*
X22268592Y-46835000D01*
X22128525Y-46807139D01*
X21996584Y-46752488D01*
X21877840Y-46673145D01*
X21776855Y-46572160D01*
X21697512Y-46453416D01*
X21642861Y-46321475D01*
X21615000Y-46181408D01*
X21615000Y-46038592D01*
X21642861Y-45898525D01*
X21697512Y-45766584D01*
X21776855Y-45647840D01*
X21877840Y-45546855D01*
X21996584Y-45467512D01*
X22128525Y-45412861D01*
X22268592Y-45385000D01*
X22411408Y-45385000D01*
X22551475Y-45412861D01*
G37*
G36*
X24551475Y-45412861D02*
G01*
X24683416Y-45467512D01*
X24802160Y-45546855D01*
X24903145Y-45647840D01*
X24982488Y-45766584D01*
X25037139Y-45898525D01*
X25065000Y-46038592D01*
X25065000Y-46181408D01*
X25037139Y-46321475D01*
X24982488Y-46453416D01*
X24903145Y-46572160D01*
X24802160Y-46673145D01*
X24683416Y-46752488D01*
X24551475Y-46807139D01*
X24411408Y-46835000D01*
X24268592Y-46835000D01*
X24128525Y-46807139D01*
X23996584Y-46752488D01*
X23877840Y-46673145D01*
X23776855Y-46572160D01*
X23697512Y-46453416D01*
X23642861Y-46321475D01*
X23615000Y-46181408D01*
X23615000Y-46038592D01*
X23642861Y-45898525D01*
X23697512Y-45766584D01*
X23776855Y-45647840D01*
X23877840Y-45546855D01*
X23996584Y-45467512D01*
X24128525Y-45412861D01*
X24268592Y-45385000D01*
X24411408Y-45385000D01*
X24551475Y-45412861D01*
G37*
G36*
X24551475Y-43412861D02*
G01*
X24683416Y-43467512D01*
X24802160Y-43546855D01*
X24903145Y-43647840D01*
X24982488Y-43766584D01*
X25037139Y-43898525D01*
X25065000Y-44038592D01*
X25065000Y-44181408D01*
X25037139Y-44321475D01*
X24982488Y-44453416D01*
X24903145Y-44572160D01*
X24802160Y-44673145D01*
X24683416Y-44752488D01*
X24551475Y-44807139D01*
X24411408Y-44835000D01*
X24268592Y-44835000D01*
X24128525Y-44807139D01*
X23996584Y-44752488D01*
X23877840Y-44673145D01*
X23776855Y-44572160D01*
X23697512Y-44453416D01*
X23642861Y-44321475D01*
X23615000Y-44181408D01*
X23615000Y-44038592D01*
X23642861Y-43898525D01*
X23697512Y-43766584D01*
X23776855Y-43647840D01*
X23877840Y-43546855D01*
X23996584Y-43467512D01*
X24128525Y-43412861D01*
X24268592Y-43385000D01*
X24411408Y-43385000D01*
X24551475Y-43412861D01*
G37*
G36*
X22551475Y-43412861D02*
G01*
X22683416Y-43467512D01*
X22802160Y-43546855D01*
X22903145Y-43647840D01*
X22982488Y-43766584D01*
X23037139Y-43898525D01*
X23065000Y-44038592D01*
X23065000Y-44181408D01*
X23037139Y-44321475D01*
X22982488Y-44453416D01*
X22903145Y-44572160D01*
X22802160Y-44673145D01*
X22683416Y-44752488D01*
X22551475Y-44807139D01*
X22411408Y-44835000D01*
X22268592Y-44835000D01*
X22128525Y-44807139D01*
X21996584Y-44752488D01*
X21877840Y-44673145D01*
X21776855Y-44572160D01*
X21697512Y-44453416D01*
X21642861Y-44321475D01*
X21615000Y-44181408D01*
X21615000Y-44038592D01*
X21642861Y-43898525D01*
X21697512Y-43766584D01*
X21776855Y-43647840D01*
X21877840Y-43546855D01*
X21996584Y-43467512D01*
X22128525Y-43412861D01*
X22268592Y-43385000D01*
X22411408Y-43385000D01*
X22551475Y-43412861D01*
G37*
G36*
X22551475Y-41412861D02*
G01*
X22683416Y-41467512D01*
X22802160Y-41546855D01*
X22903145Y-41647840D01*
X22982488Y-41766584D01*
X23037139Y-41898525D01*
X23065000Y-42038592D01*
X23065000Y-42181408D01*
X23037139Y-42321475D01*
X22982488Y-42453416D01*
X22903145Y-42572160D01*
X22802160Y-42673145D01*
X22683416Y-42752488D01*
X22551475Y-42807139D01*
X22411408Y-42835000D01*
X22268592Y-42835000D01*
X22128525Y-42807139D01*
X21996584Y-42752488D01*
X21877840Y-42673145D01*
X21776855Y-42572160D01*
X21697512Y-42453416D01*
X21642861Y-42321475D01*
X21615000Y-42181408D01*
X21615000Y-42038592D01*
X21642861Y-41898525D01*
X21697512Y-41766584D01*
X21776855Y-41647840D01*
X21877840Y-41546855D01*
X21996584Y-41467512D01*
X22128525Y-41412861D01*
X22268592Y-41385000D01*
X22411408Y-41385000D01*
X22551475Y-41412861D01*
G37*
G36*
X24551475Y-41412861D02*
G01*
X24683416Y-41467512D01*
X24802160Y-41546855D01*
X24903145Y-41647840D01*
X24982488Y-41766584D01*
X25037139Y-41898525D01*
X25065000Y-42038592D01*
X25065000Y-42181408D01*
X25037139Y-42321475D01*
X24982488Y-42453416D01*
X24903145Y-42572160D01*
X24802160Y-42673145D01*
X24683416Y-42752488D01*
X24551475Y-42807139D01*
X24411408Y-42835000D01*
X24268592Y-42835000D01*
X24128525Y-42807139D01*
X23996584Y-42752488D01*
X23877840Y-42673145D01*
X23776855Y-42572160D01*
X23697512Y-42453416D01*
X23642861Y-42321475D01*
X23615000Y-42181408D01*
X23615000Y-42038592D01*
X23642861Y-41898525D01*
X23697512Y-41766584D01*
X23776855Y-41647840D01*
X23877840Y-41546855D01*
X23996584Y-41467512D01*
X24128525Y-41412861D01*
X24268592Y-41385000D01*
X24411408Y-41385000D01*
X24551475Y-41412861D01*
G37*
G36*
X22551475Y-39412861D02*
G01*
X22683416Y-39467512D01*
X22802160Y-39546855D01*
X22903145Y-39647840D01*
X22982488Y-39766584D01*
X23037139Y-39898525D01*
X23065000Y-40038592D01*
X23065000Y-40181408D01*
X23037139Y-40321475D01*
X22982488Y-40453416D01*
X22903145Y-40572160D01*
X22802160Y-40673145D01*
X22683416Y-40752488D01*
X22551475Y-40807139D01*
X22411408Y-40835000D01*
X22268592Y-40835000D01*
X22128525Y-40807139D01*
X21996584Y-40752488D01*
X21877840Y-40673145D01*
X21776855Y-40572160D01*
X21697512Y-40453416D01*
X21642861Y-40321475D01*
X21615000Y-40181408D01*
X21615000Y-40038592D01*
X21642861Y-39898525D01*
X21697512Y-39766584D01*
X21776855Y-39647840D01*
X21877840Y-39546855D01*
X21996584Y-39467512D01*
X22128525Y-39412861D01*
X22268592Y-39385000D01*
X22411408Y-39385000D01*
X22551475Y-39412861D01*
G37*
G36*
X24551475Y-39412861D02*
G01*
X24683416Y-39467512D01*
X24802160Y-39546855D01*
X24903145Y-39647840D01*
X24982488Y-39766584D01*
X25037139Y-39898525D01*
X25065000Y-40038592D01*
X25065000Y-40181408D01*
X25037139Y-40321475D01*
X24982488Y-40453416D01*
X24903145Y-40572160D01*
X24802160Y-40673145D01*
X24683416Y-40752488D01*
X24551475Y-40807139D01*
X24411408Y-40835000D01*
X24268592Y-40835000D01*
X24128525Y-40807139D01*
X23996584Y-40752488D01*
X23877840Y-40673145D01*
X23776855Y-40572160D01*
X23697512Y-40453416D01*
X23642861Y-40321475D01*
X23615000Y-40181408D01*
X23615000Y-40038592D01*
X23642861Y-39898525D01*
X23697512Y-39766584D01*
X23776855Y-39647840D01*
X23877840Y-39546855D01*
X23996584Y-39467512D01*
X24128525Y-39412861D01*
X24268592Y-39385000D01*
X24411408Y-39385000D01*
X24551475Y-39412861D01*
G37*
G36*
X22551475Y-37412861D02*
G01*
X22683416Y-37467512D01*
X22802160Y-37546855D01*
X22903145Y-37647840D01*
X22982488Y-37766584D01*
X23037139Y-37898525D01*
X23065000Y-38038592D01*
X23065000Y-38181408D01*
X23037139Y-38321475D01*
X22982488Y-38453416D01*
X22903145Y-38572160D01*
X22802160Y-38673145D01*
X22683416Y-38752488D01*
X22551475Y-38807139D01*
X22411408Y-38835000D01*
X22268592Y-38835000D01*
X22128525Y-38807139D01*
X21996584Y-38752488D01*
X21877840Y-38673145D01*
X21776855Y-38572160D01*
X21697512Y-38453416D01*
X21642861Y-38321475D01*
X21615000Y-38181408D01*
X21615000Y-38038592D01*
X21642861Y-37898525D01*
X21697512Y-37766584D01*
X21776855Y-37647840D01*
X21877840Y-37546855D01*
X21996584Y-37467512D01*
X22128525Y-37412861D01*
X22268592Y-37385000D01*
X22411408Y-37385000D01*
X22551475Y-37412861D01*
G37*
G36*
X24551475Y-37412861D02*
G01*
X24683416Y-37467512D01*
X24802160Y-37546855D01*
X24903145Y-37647840D01*
X24982488Y-37766584D01*
X25037139Y-37898525D01*
X25065000Y-38038592D01*
X25065000Y-38181408D01*
X25037139Y-38321475D01*
X24982488Y-38453416D01*
X24903145Y-38572160D01*
X24802160Y-38673145D01*
X24683416Y-38752488D01*
X24551475Y-38807139D01*
X24411408Y-38835000D01*
X24268592Y-38835000D01*
X24128525Y-38807139D01*
X23996584Y-38752488D01*
X23877840Y-38673145D01*
X23776855Y-38572160D01*
X23697512Y-38453416D01*
X23642861Y-38321475D01*
X23615000Y-38181408D01*
X23615000Y-38038592D01*
X23642861Y-37898525D01*
X23697512Y-37766584D01*
X23776855Y-37647840D01*
X23877840Y-37546855D01*
X23996584Y-37467512D01*
X24128525Y-37412861D01*
X24268592Y-37385000D01*
X24411408Y-37385000D01*
X24551475Y-37412861D01*
G37*
G36*
X22551475Y-35412861D02*
G01*
X22683416Y-35467512D01*
X22802160Y-35546855D01*
X22903145Y-35647840D01*
X22982488Y-35766584D01*
X23037139Y-35898525D01*
X23065000Y-36038592D01*
X23065000Y-36181408D01*
X23037139Y-36321475D01*
X22982488Y-36453416D01*
X22903145Y-36572160D01*
X22802160Y-36673145D01*
X22683416Y-36752488D01*
X22551475Y-36807139D01*
X22411408Y-36835000D01*
X22268592Y-36835000D01*
X22128525Y-36807139D01*
X21996584Y-36752488D01*
X21877840Y-36673145D01*
X21776855Y-36572160D01*
X21697512Y-36453416D01*
X21642861Y-36321475D01*
X21615000Y-36181408D01*
X21615000Y-36038592D01*
X21642861Y-35898525D01*
X21697512Y-35766584D01*
X21776855Y-35647840D01*
X21877840Y-35546855D01*
X21996584Y-35467512D01*
X22128525Y-35412861D01*
X22268592Y-35385000D01*
X22411408Y-35385000D01*
X22551475Y-35412861D01*
G37*
G36*
X24551475Y-35412861D02*
G01*
X24683416Y-35467512D01*
X24802160Y-35546855D01*
X24903145Y-35647840D01*
X24982488Y-35766584D01*
X25037139Y-35898525D01*
X25065000Y-36038592D01*
X25065000Y-36181408D01*
X25037139Y-36321475D01*
X24982488Y-36453416D01*
X24903145Y-36572160D01*
X24802160Y-36673145D01*
X24683416Y-36752488D01*
X24551475Y-36807139D01*
X24411408Y-36835000D01*
X24268592Y-36835000D01*
X24128525Y-36807139D01*
X23996584Y-36752488D01*
X23877840Y-36673145D01*
X23776855Y-36572160D01*
X23697512Y-36453416D01*
X23642861Y-36321475D01*
X23615000Y-36181408D01*
X23615000Y-36038592D01*
X23642861Y-35898525D01*
X23697512Y-35766584D01*
X23776855Y-35647840D01*
X23877840Y-35546855D01*
X23996584Y-35467512D01*
X24128525Y-35412861D01*
X24268592Y-35385000D01*
X24411408Y-35385000D01*
X24551475Y-35412861D01*
G37*
G36*
X22551475Y-33412861D02*
G01*
X22683416Y-33467512D01*
X22802160Y-33546855D01*
X22903145Y-33647840D01*
X22982488Y-33766584D01*
X23037139Y-33898525D01*
X23065000Y-34038592D01*
X23065000Y-34181408D01*
X23037139Y-34321475D01*
X22982488Y-34453416D01*
X22903145Y-34572160D01*
X22802160Y-34673145D01*
X22683416Y-34752488D01*
X22551475Y-34807139D01*
X22411408Y-34835000D01*
X22268592Y-34835000D01*
X22128525Y-34807139D01*
X21996584Y-34752488D01*
X21877840Y-34673145D01*
X21776855Y-34572160D01*
X21697512Y-34453416D01*
X21642861Y-34321475D01*
X21615000Y-34181408D01*
X21615000Y-34038592D01*
X21642861Y-33898525D01*
X21697512Y-33766584D01*
X21776855Y-33647840D01*
X21877840Y-33546855D01*
X21996584Y-33467512D01*
X22128525Y-33412861D01*
X22268592Y-33385000D01*
X22411408Y-33385000D01*
X22551475Y-33412861D01*
G37*
G36*
X24551475Y-33412861D02*
G01*
X24683416Y-33467512D01*
X24802160Y-33546855D01*
X24903145Y-33647840D01*
X24982488Y-33766584D01*
X25037139Y-33898525D01*
X25065000Y-34038592D01*
X25065000Y-34181408D01*
X25037139Y-34321475D01*
X24982488Y-34453416D01*
X24903145Y-34572160D01*
X24802160Y-34673145D01*
X24683416Y-34752488D01*
X24551475Y-34807139D01*
X24411408Y-34835000D01*
X24268592Y-34835000D01*
X24128525Y-34807139D01*
X23996584Y-34752488D01*
X23877840Y-34673145D01*
X23776855Y-34572160D01*
X23697512Y-34453416D01*
X23642861Y-34321475D01*
X23615000Y-34181408D01*
X23615000Y-34038592D01*
X23642861Y-33898525D01*
X23697512Y-33766584D01*
X23776855Y-33647840D01*
X23877840Y-33546855D01*
X23996584Y-33467512D01*
X24128525Y-33412861D01*
X24268592Y-33385000D01*
X24411408Y-33385000D01*
X24551475Y-33412861D01*
G37*
G36*
X24551475Y-31412861D02*
G01*
X24683416Y-31467512D01*
X24802160Y-31546855D01*
X24903145Y-31647840D01*
X24982488Y-31766584D01*
X25037139Y-31898525D01*
X25065000Y-32038592D01*
X25065000Y-32181408D01*
X25037139Y-32321475D01*
X24982488Y-32453416D01*
X24903145Y-32572160D01*
X24802160Y-32673145D01*
X24683416Y-32752488D01*
X24551475Y-32807139D01*
X24411408Y-32835000D01*
X24268592Y-32835000D01*
X24128525Y-32807139D01*
X23996584Y-32752488D01*
X23877840Y-32673145D01*
X23776855Y-32572160D01*
X23697512Y-32453416D01*
X23642861Y-32321475D01*
X23615000Y-32181408D01*
X23615000Y-32038592D01*
X23642861Y-31898525D01*
X23697512Y-31766584D01*
X23776855Y-31647840D01*
X23877840Y-31546855D01*
X23996584Y-31467512D01*
X24128525Y-31412861D01*
X24268592Y-31385000D01*
X24411408Y-31385000D01*
X24551475Y-31412861D01*
G37*
G36*
X22551475Y-31412861D02*
G01*
X22683416Y-31467512D01*
X22802160Y-31546855D01*
X22903145Y-31647840D01*
X22982488Y-31766584D01*
X23037139Y-31898525D01*
X23065000Y-32038592D01*
X23065000Y-32181408D01*
X23037139Y-32321475D01*
X22982488Y-32453416D01*
X22903145Y-32572160D01*
X22802160Y-32673145D01*
X22683416Y-32752488D01*
X22551475Y-32807139D01*
X22411408Y-32835000D01*
X22268592Y-32835000D01*
X22128525Y-32807139D01*
X21996584Y-32752488D01*
X21877840Y-32673145D01*
X21776855Y-32572160D01*
X21697512Y-32453416D01*
X21642861Y-32321475D01*
X21615000Y-32181408D01*
X21615000Y-32038592D01*
X21642861Y-31898525D01*
X21697512Y-31766584D01*
X21776855Y-31647840D01*
X21877840Y-31546855D01*
X21996584Y-31467512D01*
X22128525Y-31412861D01*
X22268592Y-31385000D01*
X22411408Y-31385000D01*
X22551475Y-31412861D01*
G37*
G36*
X23065000Y-30835000D02*
G01*
X21615000Y-30835000D01*
X21615000Y-29385000D01*
X23065000Y-29385000D01*
X23065000Y-30835000D01*
G37*
G36*
X24551475Y-29412861D02*
G01*
X24683416Y-29467512D01*
X24802160Y-29546855D01*
X24903145Y-29647840D01*
X24982488Y-29766584D01*
X25037139Y-29898525D01*
X25065000Y-30038592D01*
X25065000Y-30181408D01*
X25037139Y-30321475D01*
X24982488Y-30453416D01*
X24903145Y-30572160D01*
X24802160Y-30673145D01*
X24683416Y-30752488D01*
X24551475Y-30807139D01*
X24411408Y-30835000D01*
X24268592Y-30835000D01*
X24128525Y-30807139D01*
X23996584Y-30752488D01*
X23877840Y-30673145D01*
X23776855Y-30572160D01*
X23697512Y-30453416D01*
X23642861Y-30321475D01*
X23615000Y-30181408D01*
X23615000Y-30038592D01*
X23642861Y-29898525D01*
X23697512Y-29766584D01*
X23776855Y-29647840D01*
X23877840Y-29546855D01*
X23996584Y-29467512D01*
X24128525Y-29412861D01*
X24268592Y-29385000D01*
X24411408Y-29385000D01*
X24551475Y-29412861D01*
G37*
G36*
X82352520Y-22284586D02*
G01*
X82516310Y-22352430D01*
X82663717Y-22450924D01*
X82789076Y-22576283D01*
X82887570Y-22723690D01*
X82955414Y-22887480D01*
X82990000Y-23061358D01*
X82990000Y-23238642D01*
X82955414Y-23412520D01*
X82887570Y-23576310D01*
X82789076Y-23723717D01*
X82663717Y-23849076D01*
X82516310Y-23947570D01*
X82516309Y-23947571D01*
X82516308Y-23947571D01*
X82352520Y-24015414D01*
X82178644Y-24050000D01*
X82001356Y-24050000D01*
X81827480Y-24015414D01*
X81663692Y-23947571D01*
X81663691Y-23947571D01*
X81663690Y-23947570D01*
X81516283Y-23849076D01*
X81390924Y-23723717D01*
X81292430Y-23576310D01*
X81224586Y-23412520D01*
X81190000Y-23238642D01*
X81190000Y-23061358D01*
X81224586Y-22887480D01*
X81292430Y-22723690D01*
X81390924Y-22576283D01*
X81516283Y-22450924D01*
X81663690Y-22352430D01*
X81827480Y-22284586D01*
X82001356Y-22250000D01*
X82178644Y-22250000D01*
X82352520Y-22284586D01*
G37*
G36*
X80450000Y-24050000D02*
G01*
X78650000Y-24050000D01*
X78650000Y-22250000D01*
X80450000Y-22250000D01*
X80450000Y-24050000D01*
G37*
G36*
X84892520Y-22284586D02*
G01*
X85056310Y-22352430D01*
X85203717Y-22450924D01*
X85329076Y-22576283D01*
X85427570Y-22723690D01*
X85495414Y-22887480D01*
X85530000Y-23061358D01*
X85530000Y-23238642D01*
X85495414Y-23412520D01*
X85427570Y-23576310D01*
X85329076Y-23723717D01*
X85203717Y-23849076D01*
X85056310Y-23947570D01*
X85056309Y-23947571D01*
X85056308Y-23947571D01*
X84892520Y-24015414D01*
X84718644Y-24050000D01*
X84541356Y-24050000D01*
X84367480Y-24015414D01*
X84203692Y-23947571D01*
X84203691Y-23947571D01*
X84203690Y-23947570D01*
X84056283Y-23849076D01*
X83930924Y-23723717D01*
X83832430Y-23576310D01*
X83764586Y-23412520D01*
X83730000Y-23238642D01*
X83730000Y-23061358D01*
X83764586Y-22887480D01*
X83832430Y-22723690D01*
X83930924Y-22576283D01*
X84056283Y-22450924D01*
X84203690Y-22352430D01*
X84367480Y-22284586D01*
X84541356Y-22250000D01*
X84718644Y-22250000D01*
X84892520Y-22284586D01*
G37*
M02*
