G04 #@! TF.GenerationSoftware,KiCad,Pcbnew,5.1.6-c6e7f7d~86~ubuntu16.04.1*
G04 #@! TF.CreationDate,2020-07-06T18:05:24+05:00*
G04 #@! TF.ProjectId,usb2most,75736232-6d6f-4737-942e-6b696361645f,rev?*
G04 #@! TF.SameCoordinates,Original*
G04 #@! TF.FileFunction,Paste,Top*
G04 #@! TF.FilePolarity,Positive*
%FSLAX46Y46*%
G04 Gerber Fmt 4.6, Leading zero omitted, Abs format (unit mm)*
G04 Created by KiCad (PCBNEW 5.1.6-c6e7f7d~86~ubuntu16.04.1) date 2020-07-06 18:05:24*
%MOMM*%
%LPD*%
G01*
G04 APERTURE LIST*
%ADD10R,0.650000X1.560000*%
%ADD11R,0.450000X1.450000*%
%ADD12R,2.000000X1.600000*%
%ADD13R,1.900000X1.500000*%
%ADD14R,1.350000X0.400000*%
%ADD15R,2.500000X2.300000*%
%ADD16R,8.200000X3.300000*%
%ADD17R,3.300000X8.200000*%
%ADD18R,1.060000X0.650000*%
%ADD19R,1.200000X1.400000*%
%ADD20R,1.400000X1.200000*%
G04 APERTURE END LIST*
G36*
G01*
X89300000Y-49050000D02*
X89300000Y-47600000D01*
G75*
G02*
X89375000Y-47525000I75000J0D01*
G01*
X89525000Y-47525000D01*
G75*
G02*
X89600000Y-47600000I0J-75000D01*
G01*
X89600000Y-49050000D01*
G75*
G02*
X89525000Y-49125000I-75000J0D01*
G01*
X89375000Y-49125000D01*
G75*
G02*
X89300000Y-49050000I0J75000D01*
G01*
G37*
G36*
G01*
X89800000Y-49050000D02*
X89800000Y-47600000D01*
G75*
G02*
X89875000Y-47525000I75000J0D01*
G01*
X90025000Y-47525000D01*
G75*
G02*
X90100000Y-47600000I0J-75000D01*
G01*
X90100000Y-49050000D01*
G75*
G02*
X90025000Y-49125000I-75000J0D01*
G01*
X89875000Y-49125000D01*
G75*
G02*
X89800000Y-49050000I0J75000D01*
G01*
G37*
G36*
G01*
X90300000Y-49050000D02*
X90300000Y-47600000D01*
G75*
G02*
X90375000Y-47525000I75000J0D01*
G01*
X90525000Y-47525000D01*
G75*
G02*
X90600000Y-47600000I0J-75000D01*
G01*
X90600000Y-49050000D01*
G75*
G02*
X90525000Y-49125000I-75000J0D01*
G01*
X90375000Y-49125000D01*
G75*
G02*
X90300000Y-49050000I0J75000D01*
G01*
G37*
G36*
G01*
X90800000Y-49050000D02*
X90800000Y-47600000D01*
G75*
G02*
X90875000Y-47525000I75000J0D01*
G01*
X91025000Y-47525000D01*
G75*
G02*
X91100000Y-47600000I0J-75000D01*
G01*
X91100000Y-49050000D01*
G75*
G02*
X91025000Y-49125000I-75000J0D01*
G01*
X90875000Y-49125000D01*
G75*
G02*
X90800000Y-49050000I0J75000D01*
G01*
G37*
G36*
G01*
X91300000Y-49050000D02*
X91300000Y-47600000D01*
G75*
G02*
X91375000Y-47525000I75000J0D01*
G01*
X91525000Y-47525000D01*
G75*
G02*
X91600000Y-47600000I0J-75000D01*
G01*
X91600000Y-49050000D01*
G75*
G02*
X91525000Y-49125000I-75000J0D01*
G01*
X91375000Y-49125000D01*
G75*
G02*
X91300000Y-49050000I0J75000D01*
G01*
G37*
G36*
G01*
X91800000Y-49050000D02*
X91800000Y-47600000D01*
G75*
G02*
X91875000Y-47525000I75000J0D01*
G01*
X92025000Y-47525000D01*
G75*
G02*
X92100000Y-47600000I0J-75000D01*
G01*
X92100000Y-49050000D01*
G75*
G02*
X92025000Y-49125000I-75000J0D01*
G01*
X91875000Y-49125000D01*
G75*
G02*
X91800000Y-49050000I0J75000D01*
G01*
G37*
G36*
G01*
X92300000Y-49050000D02*
X92300000Y-47600000D01*
G75*
G02*
X92375000Y-47525000I75000J0D01*
G01*
X92525000Y-47525000D01*
G75*
G02*
X92600000Y-47600000I0J-75000D01*
G01*
X92600000Y-49050000D01*
G75*
G02*
X92525000Y-49125000I-75000J0D01*
G01*
X92375000Y-49125000D01*
G75*
G02*
X92300000Y-49050000I0J75000D01*
G01*
G37*
G36*
G01*
X92800000Y-49050000D02*
X92800000Y-47600000D01*
G75*
G02*
X92875000Y-47525000I75000J0D01*
G01*
X93025000Y-47525000D01*
G75*
G02*
X93100000Y-47600000I0J-75000D01*
G01*
X93100000Y-49050000D01*
G75*
G02*
X93025000Y-49125000I-75000J0D01*
G01*
X92875000Y-49125000D01*
G75*
G02*
X92800000Y-49050000I0J75000D01*
G01*
G37*
G36*
G01*
X93300000Y-49050000D02*
X93300000Y-47600000D01*
G75*
G02*
X93375000Y-47525000I75000J0D01*
G01*
X93525000Y-47525000D01*
G75*
G02*
X93600000Y-47600000I0J-75000D01*
G01*
X93600000Y-49050000D01*
G75*
G02*
X93525000Y-49125000I-75000J0D01*
G01*
X93375000Y-49125000D01*
G75*
G02*
X93300000Y-49050000I0J75000D01*
G01*
G37*
G36*
G01*
X93800000Y-49050000D02*
X93800000Y-47600000D01*
G75*
G02*
X93875000Y-47525000I75000J0D01*
G01*
X94025000Y-47525000D01*
G75*
G02*
X94100000Y-47600000I0J-75000D01*
G01*
X94100000Y-49050000D01*
G75*
G02*
X94025000Y-49125000I-75000J0D01*
G01*
X93875000Y-49125000D01*
G75*
G02*
X93800000Y-49050000I0J75000D01*
G01*
G37*
G36*
G01*
X94300000Y-49050000D02*
X94300000Y-47600000D01*
G75*
G02*
X94375000Y-47525000I75000J0D01*
G01*
X94525000Y-47525000D01*
G75*
G02*
X94600000Y-47600000I0J-75000D01*
G01*
X94600000Y-49050000D01*
G75*
G02*
X94525000Y-49125000I-75000J0D01*
G01*
X94375000Y-49125000D01*
G75*
G02*
X94300000Y-49050000I0J75000D01*
G01*
G37*
G36*
G01*
X94800000Y-49050000D02*
X94800000Y-47600000D01*
G75*
G02*
X94875000Y-47525000I75000J0D01*
G01*
X95025000Y-47525000D01*
G75*
G02*
X95100000Y-47600000I0J-75000D01*
G01*
X95100000Y-49050000D01*
G75*
G02*
X95025000Y-49125000I-75000J0D01*
G01*
X94875000Y-49125000D01*
G75*
G02*
X94800000Y-49050000I0J75000D01*
G01*
G37*
G36*
G01*
X95300000Y-49050000D02*
X95300000Y-47600000D01*
G75*
G02*
X95375000Y-47525000I75000J0D01*
G01*
X95525000Y-47525000D01*
G75*
G02*
X95600000Y-47600000I0J-75000D01*
G01*
X95600000Y-49050000D01*
G75*
G02*
X95525000Y-49125000I-75000J0D01*
G01*
X95375000Y-49125000D01*
G75*
G02*
X95300000Y-49050000I0J75000D01*
G01*
G37*
G36*
G01*
X95800000Y-49050000D02*
X95800000Y-47600000D01*
G75*
G02*
X95875000Y-47525000I75000J0D01*
G01*
X96025000Y-47525000D01*
G75*
G02*
X96100000Y-47600000I0J-75000D01*
G01*
X96100000Y-49050000D01*
G75*
G02*
X96025000Y-49125000I-75000J0D01*
G01*
X95875000Y-49125000D01*
G75*
G02*
X95800000Y-49050000I0J75000D01*
G01*
G37*
G36*
G01*
X96300000Y-49050000D02*
X96300000Y-47600000D01*
G75*
G02*
X96375000Y-47525000I75000J0D01*
G01*
X96525000Y-47525000D01*
G75*
G02*
X96600000Y-47600000I0J-75000D01*
G01*
X96600000Y-49050000D01*
G75*
G02*
X96525000Y-49125000I-75000J0D01*
G01*
X96375000Y-49125000D01*
G75*
G02*
X96300000Y-49050000I0J75000D01*
G01*
G37*
G36*
G01*
X96800000Y-49050000D02*
X96800000Y-47600000D01*
G75*
G02*
X96875000Y-47525000I75000J0D01*
G01*
X97025000Y-47525000D01*
G75*
G02*
X97100000Y-47600000I0J-75000D01*
G01*
X97100000Y-49050000D01*
G75*
G02*
X97025000Y-49125000I-75000J0D01*
G01*
X96875000Y-49125000D01*
G75*
G02*
X96800000Y-49050000I0J75000D01*
G01*
G37*
G36*
G01*
X97300000Y-49050000D02*
X97300000Y-47600000D01*
G75*
G02*
X97375000Y-47525000I75000J0D01*
G01*
X97525000Y-47525000D01*
G75*
G02*
X97600000Y-47600000I0J-75000D01*
G01*
X97600000Y-49050000D01*
G75*
G02*
X97525000Y-49125000I-75000J0D01*
G01*
X97375000Y-49125000D01*
G75*
G02*
X97300000Y-49050000I0J75000D01*
G01*
G37*
G36*
G01*
X97800000Y-49050000D02*
X97800000Y-47600000D01*
G75*
G02*
X97875000Y-47525000I75000J0D01*
G01*
X98025000Y-47525000D01*
G75*
G02*
X98100000Y-47600000I0J-75000D01*
G01*
X98100000Y-49050000D01*
G75*
G02*
X98025000Y-49125000I-75000J0D01*
G01*
X97875000Y-49125000D01*
G75*
G02*
X97800000Y-49050000I0J75000D01*
G01*
G37*
G36*
G01*
X98300000Y-49050000D02*
X98300000Y-47600000D01*
G75*
G02*
X98375000Y-47525000I75000J0D01*
G01*
X98525000Y-47525000D01*
G75*
G02*
X98600000Y-47600000I0J-75000D01*
G01*
X98600000Y-49050000D01*
G75*
G02*
X98525000Y-49125000I-75000J0D01*
G01*
X98375000Y-49125000D01*
G75*
G02*
X98300000Y-49050000I0J75000D01*
G01*
G37*
G36*
G01*
X98800000Y-49050000D02*
X98800000Y-47600000D01*
G75*
G02*
X98875000Y-47525000I75000J0D01*
G01*
X99025000Y-47525000D01*
G75*
G02*
X99100000Y-47600000I0J-75000D01*
G01*
X99100000Y-49050000D01*
G75*
G02*
X99025000Y-49125000I-75000J0D01*
G01*
X98875000Y-49125000D01*
G75*
G02*
X98800000Y-49050000I0J75000D01*
G01*
G37*
G36*
G01*
X99300000Y-49050000D02*
X99300000Y-47600000D01*
G75*
G02*
X99375000Y-47525000I75000J0D01*
G01*
X99525000Y-47525000D01*
G75*
G02*
X99600000Y-47600000I0J-75000D01*
G01*
X99600000Y-49050000D01*
G75*
G02*
X99525000Y-49125000I-75000J0D01*
G01*
X99375000Y-49125000D01*
G75*
G02*
X99300000Y-49050000I0J75000D01*
G01*
G37*
G36*
G01*
X99800000Y-49050000D02*
X99800000Y-47600000D01*
G75*
G02*
X99875000Y-47525000I75000J0D01*
G01*
X100025000Y-47525000D01*
G75*
G02*
X100100000Y-47600000I0J-75000D01*
G01*
X100100000Y-49050000D01*
G75*
G02*
X100025000Y-49125000I-75000J0D01*
G01*
X99875000Y-49125000D01*
G75*
G02*
X99800000Y-49050000I0J75000D01*
G01*
G37*
G36*
G01*
X100300000Y-49050000D02*
X100300000Y-47600000D01*
G75*
G02*
X100375000Y-47525000I75000J0D01*
G01*
X100525000Y-47525000D01*
G75*
G02*
X100600000Y-47600000I0J-75000D01*
G01*
X100600000Y-49050000D01*
G75*
G02*
X100525000Y-49125000I-75000J0D01*
G01*
X100375000Y-49125000D01*
G75*
G02*
X100300000Y-49050000I0J75000D01*
G01*
G37*
G36*
G01*
X100800000Y-49050000D02*
X100800000Y-47600000D01*
G75*
G02*
X100875000Y-47525000I75000J0D01*
G01*
X101025000Y-47525000D01*
G75*
G02*
X101100000Y-47600000I0J-75000D01*
G01*
X101100000Y-49050000D01*
G75*
G02*
X101025000Y-49125000I-75000J0D01*
G01*
X100875000Y-49125000D01*
G75*
G02*
X100800000Y-49050000I0J75000D01*
G01*
G37*
G36*
G01*
X101300000Y-49050000D02*
X101300000Y-47600000D01*
G75*
G02*
X101375000Y-47525000I75000J0D01*
G01*
X101525000Y-47525000D01*
G75*
G02*
X101600000Y-47600000I0J-75000D01*
G01*
X101600000Y-49050000D01*
G75*
G02*
X101525000Y-49125000I-75000J0D01*
G01*
X101375000Y-49125000D01*
G75*
G02*
X101300000Y-49050000I0J75000D01*
G01*
G37*
G36*
G01*
X102325000Y-50075000D02*
X102325000Y-49925000D01*
G75*
G02*
X102400000Y-49850000I75000J0D01*
G01*
X103850000Y-49850000D01*
G75*
G02*
X103925000Y-49925000I0J-75000D01*
G01*
X103925000Y-50075000D01*
G75*
G02*
X103850000Y-50150000I-75000J0D01*
G01*
X102400000Y-50150000D01*
G75*
G02*
X102325000Y-50075000I0J75000D01*
G01*
G37*
G36*
G01*
X102325000Y-50575000D02*
X102325000Y-50425000D01*
G75*
G02*
X102400000Y-50350000I75000J0D01*
G01*
X103850000Y-50350000D01*
G75*
G02*
X103925000Y-50425000I0J-75000D01*
G01*
X103925000Y-50575000D01*
G75*
G02*
X103850000Y-50650000I-75000J0D01*
G01*
X102400000Y-50650000D01*
G75*
G02*
X102325000Y-50575000I0J75000D01*
G01*
G37*
G36*
G01*
X102325000Y-51075000D02*
X102325000Y-50925000D01*
G75*
G02*
X102400000Y-50850000I75000J0D01*
G01*
X103850000Y-50850000D01*
G75*
G02*
X103925000Y-50925000I0J-75000D01*
G01*
X103925000Y-51075000D01*
G75*
G02*
X103850000Y-51150000I-75000J0D01*
G01*
X102400000Y-51150000D01*
G75*
G02*
X102325000Y-51075000I0J75000D01*
G01*
G37*
G36*
G01*
X102325000Y-51575000D02*
X102325000Y-51425000D01*
G75*
G02*
X102400000Y-51350000I75000J0D01*
G01*
X103850000Y-51350000D01*
G75*
G02*
X103925000Y-51425000I0J-75000D01*
G01*
X103925000Y-51575000D01*
G75*
G02*
X103850000Y-51650000I-75000J0D01*
G01*
X102400000Y-51650000D01*
G75*
G02*
X102325000Y-51575000I0J75000D01*
G01*
G37*
G36*
G01*
X102325000Y-52075000D02*
X102325000Y-51925000D01*
G75*
G02*
X102400000Y-51850000I75000J0D01*
G01*
X103850000Y-51850000D01*
G75*
G02*
X103925000Y-51925000I0J-75000D01*
G01*
X103925000Y-52075000D01*
G75*
G02*
X103850000Y-52150000I-75000J0D01*
G01*
X102400000Y-52150000D01*
G75*
G02*
X102325000Y-52075000I0J75000D01*
G01*
G37*
G36*
G01*
X102325000Y-52575000D02*
X102325000Y-52425000D01*
G75*
G02*
X102400000Y-52350000I75000J0D01*
G01*
X103850000Y-52350000D01*
G75*
G02*
X103925000Y-52425000I0J-75000D01*
G01*
X103925000Y-52575000D01*
G75*
G02*
X103850000Y-52650000I-75000J0D01*
G01*
X102400000Y-52650000D01*
G75*
G02*
X102325000Y-52575000I0J75000D01*
G01*
G37*
G36*
G01*
X102325000Y-53075000D02*
X102325000Y-52925000D01*
G75*
G02*
X102400000Y-52850000I75000J0D01*
G01*
X103850000Y-52850000D01*
G75*
G02*
X103925000Y-52925000I0J-75000D01*
G01*
X103925000Y-53075000D01*
G75*
G02*
X103850000Y-53150000I-75000J0D01*
G01*
X102400000Y-53150000D01*
G75*
G02*
X102325000Y-53075000I0J75000D01*
G01*
G37*
G36*
G01*
X102325000Y-53575000D02*
X102325000Y-53425000D01*
G75*
G02*
X102400000Y-53350000I75000J0D01*
G01*
X103850000Y-53350000D01*
G75*
G02*
X103925000Y-53425000I0J-75000D01*
G01*
X103925000Y-53575000D01*
G75*
G02*
X103850000Y-53650000I-75000J0D01*
G01*
X102400000Y-53650000D01*
G75*
G02*
X102325000Y-53575000I0J75000D01*
G01*
G37*
G36*
G01*
X102325000Y-54075000D02*
X102325000Y-53925000D01*
G75*
G02*
X102400000Y-53850000I75000J0D01*
G01*
X103850000Y-53850000D01*
G75*
G02*
X103925000Y-53925000I0J-75000D01*
G01*
X103925000Y-54075000D01*
G75*
G02*
X103850000Y-54150000I-75000J0D01*
G01*
X102400000Y-54150000D01*
G75*
G02*
X102325000Y-54075000I0J75000D01*
G01*
G37*
G36*
G01*
X102325000Y-54575000D02*
X102325000Y-54425000D01*
G75*
G02*
X102400000Y-54350000I75000J0D01*
G01*
X103850000Y-54350000D01*
G75*
G02*
X103925000Y-54425000I0J-75000D01*
G01*
X103925000Y-54575000D01*
G75*
G02*
X103850000Y-54650000I-75000J0D01*
G01*
X102400000Y-54650000D01*
G75*
G02*
X102325000Y-54575000I0J75000D01*
G01*
G37*
G36*
G01*
X102325000Y-55075000D02*
X102325000Y-54925000D01*
G75*
G02*
X102400000Y-54850000I75000J0D01*
G01*
X103850000Y-54850000D01*
G75*
G02*
X103925000Y-54925000I0J-75000D01*
G01*
X103925000Y-55075000D01*
G75*
G02*
X103850000Y-55150000I-75000J0D01*
G01*
X102400000Y-55150000D01*
G75*
G02*
X102325000Y-55075000I0J75000D01*
G01*
G37*
G36*
G01*
X102325000Y-55575000D02*
X102325000Y-55425000D01*
G75*
G02*
X102400000Y-55350000I75000J0D01*
G01*
X103850000Y-55350000D01*
G75*
G02*
X103925000Y-55425000I0J-75000D01*
G01*
X103925000Y-55575000D01*
G75*
G02*
X103850000Y-55650000I-75000J0D01*
G01*
X102400000Y-55650000D01*
G75*
G02*
X102325000Y-55575000I0J75000D01*
G01*
G37*
G36*
G01*
X102325000Y-56075000D02*
X102325000Y-55925000D01*
G75*
G02*
X102400000Y-55850000I75000J0D01*
G01*
X103850000Y-55850000D01*
G75*
G02*
X103925000Y-55925000I0J-75000D01*
G01*
X103925000Y-56075000D01*
G75*
G02*
X103850000Y-56150000I-75000J0D01*
G01*
X102400000Y-56150000D01*
G75*
G02*
X102325000Y-56075000I0J75000D01*
G01*
G37*
G36*
G01*
X102325000Y-56575000D02*
X102325000Y-56425000D01*
G75*
G02*
X102400000Y-56350000I75000J0D01*
G01*
X103850000Y-56350000D01*
G75*
G02*
X103925000Y-56425000I0J-75000D01*
G01*
X103925000Y-56575000D01*
G75*
G02*
X103850000Y-56650000I-75000J0D01*
G01*
X102400000Y-56650000D01*
G75*
G02*
X102325000Y-56575000I0J75000D01*
G01*
G37*
G36*
G01*
X102325000Y-57075000D02*
X102325000Y-56925000D01*
G75*
G02*
X102400000Y-56850000I75000J0D01*
G01*
X103850000Y-56850000D01*
G75*
G02*
X103925000Y-56925000I0J-75000D01*
G01*
X103925000Y-57075000D01*
G75*
G02*
X103850000Y-57150000I-75000J0D01*
G01*
X102400000Y-57150000D01*
G75*
G02*
X102325000Y-57075000I0J75000D01*
G01*
G37*
G36*
G01*
X102325000Y-57575000D02*
X102325000Y-57425000D01*
G75*
G02*
X102400000Y-57350000I75000J0D01*
G01*
X103850000Y-57350000D01*
G75*
G02*
X103925000Y-57425000I0J-75000D01*
G01*
X103925000Y-57575000D01*
G75*
G02*
X103850000Y-57650000I-75000J0D01*
G01*
X102400000Y-57650000D01*
G75*
G02*
X102325000Y-57575000I0J75000D01*
G01*
G37*
G36*
G01*
X102325000Y-58075000D02*
X102325000Y-57925000D01*
G75*
G02*
X102400000Y-57850000I75000J0D01*
G01*
X103850000Y-57850000D01*
G75*
G02*
X103925000Y-57925000I0J-75000D01*
G01*
X103925000Y-58075000D01*
G75*
G02*
X103850000Y-58150000I-75000J0D01*
G01*
X102400000Y-58150000D01*
G75*
G02*
X102325000Y-58075000I0J75000D01*
G01*
G37*
G36*
G01*
X102325000Y-58575000D02*
X102325000Y-58425000D01*
G75*
G02*
X102400000Y-58350000I75000J0D01*
G01*
X103850000Y-58350000D01*
G75*
G02*
X103925000Y-58425000I0J-75000D01*
G01*
X103925000Y-58575000D01*
G75*
G02*
X103850000Y-58650000I-75000J0D01*
G01*
X102400000Y-58650000D01*
G75*
G02*
X102325000Y-58575000I0J75000D01*
G01*
G37*
G36*
G01*
X102325000Y-59075000D02*
X102325000Y-58925000D01*
G75*
G02*
X102400000Y-58850000I75000J0D01*
G01*
X103850000Y-58850000D01*
G75*
G02*
X103925000Y-58925000I0J-75000D01*
G01*
X103925000Y-59075000D01*
G75*
G02*
X103850000Y-59150000I-75000J0D01*
G01*
X102400000Y-59150000D01*
G75*
G02*
X102325000Y-59075000I0J75000D01*
G01*
G37*
G36*
G01*
X102325000Y-59575000D02*
X102325000Y-59425000D01*
G75*
G02*
X102400000Y-59350000I75000J0D01*
G01*
X103850000Y-59350000D01*
G75*
G02*
X103925000Y-59425000I0J-75000D01*
G01*
X103925000Y-59575000D01*
G75*
G02*
X103850000Y-59650000I-75000J0D01*
G01*
X102400000Y-59650000D01*
G75*
G02*
X102325000Y-59575000I0J75000D01*
G01*
G37*
G36*
G01*
X102325000Y-60075000D02*
X102325000Y-59925000D01*
G75*
G02*
X102400000Y-59850000I75000J0D01*
G01*
X103850000Y-59850000D01*
G75*
G02*
X103925000Y-59925000I0J-75000D01*
G01*
X103925000Y-60075000D01*
G75*
G02*
X103850000Y-60150000I-75000J0D01*
G01*
X102400000Y-60150000D01*
G75*
G02*
X102325000Y-60075000I0J75000D01*
G01*
G37*
G36*
G01*
X102325000Y-60575000D02*
X102325000Y-60425000D01*
G75*
G02*
X102400000Y-60350000I75000J0D01*
G01*
X103850000Y-60350000D01*
G75*
G02*
X103925000Y-60425000I0J-75000D01*
G01*
X103925000Y-60575000D01*
G75*
G02*
X103850000Y-60650000I-75000J0D01*
G01*
X102400000Y-60650000D01*
G75*
G02*
X102325000Y-60575000I0J75000D01*
G01*
G37*
G36*
G01*
X102325000Y-61075000D02*
X102325000Y-60925000D01*
G75*
G02*
X102400000Y-60850000I75000J0D01*
G01*
X103850000Y-60850000D01*
G75*
G02*
X103925000Y-60925000I0J-75000D01*
G01*
X103925000Y-61075000D01*
G75*
G02*
X103850000Y-61150000I-75000J0D01*
G01*
X102400000Y-61150000D01*
G75*
G02*
X102325000Y-61075000I0J75000D01*
G01*
G37*
G36*
G01*
X102325000Y-61575000D02*
X102325000Y-61425000D01*
G75*
G02*
X102400000Y-61350000I75000J0D01*
G01*
X103850000Y-61350000D01*
G75*
G02*
X103925000Y-61425000I0J-75000D01*
G01*
X103925000Y-61575000D01*
G75*
G02*
X103850000Y-61650000I-75000J0D01*
G01*
X102400000Y-61650000D01*
G75*
G02*
X102325000Y-61575000I0J75000D01*
G01*
G37*
G36*
G01*
X102325000Y-62075000D02*
X102325000Y-61925000D01*
G75*
G02*
X102400000Y-61850000I75000J0D01*
G01*
X103850000Y-61850000D01*
G75*
G02*
X103925000Y-61925000I0J-75000D01*
G01*
X103925000Y-62075000D01*
G75*
G02*
X103850000Y-62150000I-75000J0D01*
G01*
X102400000Y-62150000D01*
G75*
G02*
X102325000Y-62075000I0J75000D01*
G01*
G37*
G36*
G01*
X101300000Y-64400000D02*
X101300000Y-62950000D01*
G75*
G02*
X101375000Y-62875000I75000J0D01*
G01*
X101525000Y-62875000D01*
G75*
G02*
X101600000Y-62950000I0J-75000D01*
G01*
X101600000Y-64400000D01*
G75*
G02*
X101525000Y-64475000I-75000J0D01*
G01*
X101375000Y-64475000D01*
G75*
G02*
X101300000Y-64400000I0J75000D01*
G01*
G37*
G36*
G01*
X100800000Y-64400000D02*
X100800000Y-62950000D01*
G75*
G02*
X100875000Y-62875000I75000J0D01*
G01*
X101025000Y-62875000D01*
G75*
G02*
X101100000Y-62950000I0J-75000D01*
G01*
X101100000Y-64400000D01*
G75*
G02*
X101025000Y-64475000I-75000J0D01*
G01*
X100875000Y-64475000D01*
G75*
G02*
X100800000Y-64400000I0J75000D01*
G01*
G37*
G36*
G01*
X100300000Y-64400000D02*
X100300000Y-62950000D01*
G75*
G02*
X100375000Y-62875000I75000J0D01*
G01*
X100525000Y-62875000D01*
G75*
G02*
X100600000Y-62950000I0J-75000D01*
G01*
X100600000Y-64400000D01*
G75*
G02*
X100525000Y-64475000I-75000J0D01*
G01*
X100375000Y-64475000D01*
G75*
G02*
X100300000Y-64400000I0J75000D01*
G01*
G37*
G36*
G01*
X99800000Y-64400000D02*
X99800000Y-62950000D01*
G75*
G02*
X99875000Y-62875000I75000J0D01*
G01*
X100025000Y-62875000D01*
G75*
G02*
X100100000Y-62950000I0J-75000D01*
G01*
X100100000Y-64400000D01*
G75*
G02*
X100025000Y-64475000I-75000J0D01*
G01*
X99875000Y-64475000D01*
G75*
G02*
X99800000Y-64400000I0J75000D01*
G01*
G37*
G36*
G01*
X99300000Y-64400000D02*
X99300000Y-62950000D01*
G75*
G02*
X99375000Y-62875000I75000J0D01*
G01*
X99525000Y-62875000D01*
G75*
G02*
X99600000Y-62950000I0J-75000D01*
G01*
X99600000Y-64400000D01*
G75*
G02*
X99525000Y-64475000I-75000J0D01*
G01*
X99375000Y-64475000D01*
G75*
G02*
X99300000Y-64400000I0J75000D01*
G01*
G37*
G36*
G01*
X98800000Y-64400000D02*
X98800000Y-62950000D01*
G75*
G02*
X98875000Y-62875000I75000J0D01*
G01*
X99025000Y-62875000D01*
G75*
G02*
X99100000Y-62950000I0J-75000D01*
G01*
X99100000Y-64400000D01*
G75*
G02*
X99025000Y-64475000I-75000J0D01*
G01*
X98875000Y-64475000D01*
G75*
G02*
X98800000Y-64400000I0J75000D01*
G01*
G37*
G36*
G01*
X98300000Y-64400000D02*
X98300000Y-62950000D01*
G75*
G02*
X98375000Y-62875000I75000J0D01*
G01*
X98525000Y-62875000D01*
G75*
G02*
X98600000Y-62950000I0J-75000D01*
G01*
X98600000Y-64400000D01*
G75*
G02*
X98525000Y-64475000I-75000J0D01*
G01*
X98375000Y-64475000D01*
G75*
G02*
X98300000Y-64400000I0J75000D01*
G01*
G37*
G36*
G01*
X97800000Y-64400000D02*
X97800000Y-62950000D01*
G75*
G02*
X97875000Y-62875000I75000J0D01*
G01*
X98025000Y-62875000D01*
G75*
G02*
X98100000Y-62950000I0J-75000D01*
G01*
X98100000Y-64400000D01*
G75*
G02*
X98025000Y-64475000I-75000J0D01*
G01*
X97875000Y-64475000D01*
G75*
G02*
X97800000Y-64400000I0J75000D01*
G01*
G37*
G36*
G01*
X97300000Y-64400000D02*
X97300000Y-62950000D01*
G75*
G02*
X97375000Y-62875000I75000J0D01*
G01*
X97525000Y-62875000D01*
G75*
G02*
X97600000Y-62950000I0J-75000D01*
G01*
X97600000Y-64400000D01*
G75*
G02*
X97525000Y-64475000I-75000J0D01*
G01*
X97375000Y-64475000D01*
G75*
G02*
X97300000Y-64400000I0J75000D01*
G01*
G37*
G36*
G01*
X96800000Y-64400000D02*
X96800000Y-62950000D01*
G75*
G02*
X96875000Y-62875000I75000J0D01*
G01*
X97025000Y-62875000D01*
G75*
G02*
X97100000Y-62950000I0J-75000D01*
G01*
X97100000Y-64400000D01*
G75*
G02*
X97025000Y-64475000I-75000J0D01*
G01*
X96875000Y-64475000D01*
G75*
G02*
X96800000Y-64400000I0J75000D01*
G01*
G37*
G36*
G01*
X96300000Y-64400000D02*
X96300000Y-62950000D01*
G75*
G02*
X96375000Y-62875000I75000J0D01*
G01*
X96525000Y-62875000D01*
G75*
G02*
X96600000Y-62950000I0J-75000D01*
G01*
X96600000Y-64400000D01*
G75*
G02*
X96525000Y-64475000I-75000J0D01*
G01*
X96375000Y-64475000D01*
G75*
G02*
X96300000Y-64400000I0J75000D01*
G01*
G37*
G36*
G01*
X95800000Y-64400000D02*
X95800000Y-62950000D01*
G75*
G02*
X95875000Y-62875000I75000J0D01*
G01*
X96025000Y-62875000D01*
G75*
G02*
X96100000Y-62950000I0J-75000D01*
G01*
X96100000Y-64400000D01*
G75*
G02*
X96025000Y-64475000I-75000J0D01*
G01*
X95875000Y-64475000D01*
G75*
G02*
X95800000Y-64400000I0J75000D01*
G01*
G37*
G36*
G01*
X95300000Y-64400000D02*
X95300000Y-62950000D01*
G75*
G02*
X95375000Y-62875000I75000J0D01*
G01*
X95525000Y-62875000D01*
G75*
G02*
X95600000Y-62950000I0J-75000D01*
G01*
X95600000Y-64400000D01*
G75*
G02*
X95525000Y-64475000I-75000J0D01*
G01*
X95375000Y-64475000D01*
G75*
G02*
X95300000Y-64400000I0J75000D01*
G01*
G37*
G36*
G01*
X94800000Y-64400000D02*
X94800000Y-62950000D01*
G75*
G02*
X94875000Y-62875000I75000J0D01*
G01*
X95025000Y-62875000D01*
G75*
G02*
X95100000Y-62950000I0J-75000D01*
G01*
X95100000Y-64400000D01*
G75*
G02*
X95025000Y-64475000I-75000J0D01*
G01*
X94875000Y-64475000D01*
G75*
G02*
X94800000Y-64400000I0J75000D01*
G01*
G37*
G36*
G01*
X94300000Y-64400000D02*
X94300000Y-62950000D01*
G75*
G02*
X94375000Y-62875000I75000J0D01*
G01*
X94525000Y-62875000D01*
G75*
G02*
X94600000Y-62950000I0J-75000D01*
G01*
X94600000Y-64400000D01*
G75*
G02*
X94525000Y-64475000I-75000J0D01*
G01*
X94375000Y-64475000D01*
G75*
G02*
X94300000Y-64400000I0J75000D01*
G01*
G37*
G36*
G01*
X93800000Y-64400000D02*
X93800000Y-62950000D01*
G75*
G02*
X93875000Y-62875000I75000J0D01*
G01*
X94025000Y-62875000D01*
G75*
G02*
X94100000Y-62950000I0J-75000D01*
G01*
X94100000Y-64400000D01*
G75*
G02*
X94025000Y-64475000I-75000J0D01*
G01*
X93875000Y-64475000D01*
G75*
G02*
X93800000Y-64400000I0J75000D01*
G01*
G37*
G36*
G01*
X93300000Y-64400000D02*
X93300000Y-62950000D01*
G75*
G02*
X93375000Y-62875000I75000J0D01*
G01*
X93525000Y-62875000D01*
G75*
G02*
X93600000Y-62950000I0J-75000D01*
G01*
X93600000Y-64400000D01*
G75*
G02*
X93525000Y-64475000I-75000J0D01*
G01*
X93375000Y-64475000D01*
G75*
G02*
X93300000Y-64400000I0J75000D01*
G01*
G37*
G36*
G01*
X92800000Y-64400000D02*
X92800000Y-62950000D01*
G75*
G02*
X92875000Y-62875000I75000J0D01*
G01*
X93025000Y-62875000D01*
G75*
G02*
X93100000Y-62950000I0J-75000D01*
G01*
X93100000Y-64400000D01*
G75*
G02*
X93025000Y-64475000I-75000J0D01*
G01*
X92875000Y-64475000D01*
G75*
G02*
X92800000Y-64400000I0J75000D01*
G01*
G37*
G36*
G01*
X92300000Y-64400000D02*
X92300000Y-62950000D01*
G75*
G02*
X92375000Y-62875000I75000J0D01*
G01*
X92525000Y-62875000D01*
G75*
G02*
X92600000Y-62950000I0J-75000D01*
G01*
X92600000Y-64400000D01*
G75*
G02*
X92525000Y-64475000I-75000J0D01*
G01*
X92375000Y-64475000D01*
G75*
G02*
X92300000Y-64400000I0J75000D01*
G01*
G37*
G36*
G01*
X91800000Y-64400000D02*
X91800000Y-62950000D01*
G75*
G02*
X91875000Y-62875000I75000J0D01*
G01*
X92025000Y-62875000D01*
G75*
G02*
X92100000Y-62950000I0J-75000D01*
G01*
X92100000Y-64400000D01*
G75*
G02*
X92025000Y-64475000I-75000J0D01*
G01*
X91875000Y-64475000D01*
G75*
G02*
X91800000Y-64400000I0J75000D01*
G01*
G37*
G36*
G01*
X91300000Y-64400000D02*
X91300000Y-62950000D01*
G75*
G02*
X91375000Y-62875000I75000J0D01*
G01*
X91525000Y-62875000D01*
G75*
G02*
X91600000Y-62950000I0J-75000D01*
G01*
X91600000Y-64400000D01*
G75*
G02*
X91525000Y-64475000I-75000J0D01*
G01*
X91375000Y-64475000D01*
G75*
G02*
X91300000Y-64400000I0J75000D01*
G01*
G37*
G36*
G01*
X90800000Y-64400000D02*
X90800000Y-62950000D01*
G75*
G02*
X90875000Y-62875000I75000J0D01*
G01*
X91025000Y-62875000D01*
G75*
G02*
X91100000Y-62950000I0J-75000D01*
G01*
X91100000Y-64400000D01*
G75*
G02*
X91025000Y-64475000I-75000J0D01*
G01*
X90875000Y-64475000D01*
G75*
G02*
X90800000Y-64400000I0J75000D01*
G01*
G37*
G36*
G01*
X90300000Y-64400000D02*
X90300000Y-62950000D01*
G75*
G02*
X90375000Y-62875000I75000J0D01*
G01*
X90525000Y-62875000D01*
G75*
G02*
X90600000Y-62950000I0J-75000D01*
G01*
X90600000Y-64400000D01*
G75*
G02*
X90525000Y-64475000I-75000J0D01*
G01*
X90375000Y-64475000D01*
G75*
G02*
X90300000Y-64400000I0J75000D01*
G01*
G37*
G36*
G01*
X89800000Y-64400000D02*
X89800000Y-62950000D01*
G75*
G02*
X89875000Y-62875000I75000J0D01*
G01*
X90025000Y-62875000D01*
G75*
G02*
X90100000Y-62950000I0J-75000D01*
G01*
X90100000Y-64400000D01*
G75*
G02*
X90025000Y-64475000I-75000J0D01*
G01*
X89875000Y-64475000D01*
G75*
G02*
X89800000Y-64400000I0J75000D01*
G01*
G37*
G36*
G01*
X89300000Y-64400000D02*
X89300000Y-62950000D01*
G75*
G02*
X89375000Y-62875000I75000J0D01*
G01*
X89525000Y-62875000D01*
G75*
G02*
X89600000Y-62950000I0J-75000D01*
G01*
X89600000Y-64400000D01*
G75*
G02*
X89525000Y-64475000I-75000J0D01*
G01*
X89375000Y-64475000D01*
G75*
G02*
X89300000Y-64400000I0J75000D01*
G01*
G37*
G36*
G01*
X86975000Y-62075000D02*
X86975000Y-61925000D01*
G75*
G02*
X87050000Y-61850000I75000J0D01*
G01*
X88500000Y-61850000D01*
G75*
G02*
X88575000Y-61925000I0J-75000D01*
G01*
X88575000Y-62075000D01*
G75*
G02*
X88500000Y-62150000I-75000J0D01*
G01*
X87050000Y-62150000D01*
G75*
G02*
X86975000Y-62075000I0J75000D01*
G01*
G37*
G36*
G01*
X86975000Y-61575000D02*
X86975000Y-61425000D01*
G75*
G02*
X87050000Y-61350000I75000J0D01*
G01*
X88500000Y-61350000D01*
G75*
G02*
X88575000Y-61425000I0J-75000D01*
G01*
X88575000Y-61575000D01*
G75*
G02*
X88500000Y-61650000I-75000J0D01*
G01*
X87050000Y-61650000D01*
G75*
G02*
X86975000Y-61575000I0J75000D01*
G01*
G37*
G36*
G01*
X86975000Y-61075000D02*
X86975000Y-60925000D01*
G75*
G02*
X87050000Y-60850000I75000J0D01*
G01*
X88500000Y-60850000D01*
G75*
G02*
X88575000Y-60925000I0J-75000D01*
G01*
X88575000Y-61075000D01*
G75*
G02*
X88500000Y-61150000I-75000J0D01*
G01*
X87050000Y-61150000D01*
G75*
G02*
X86975000Y-61075000I0J75000D01*
G01*
G37*
G36*
G01*
X86975000Y-60575000D02*
X86975000Y-60425000D01*
G75*
G02*
X87050000Y-60350000I75000J0D01*
G01*
X88500000Y-60350000D01*
G75*
G02*
X88575000Y-60425000I0J-75000D01*
G01*
X88575000Y-60575000D01*
G75*
G02*
X88500000Y-60650000I-75000J0D01*
G01*
X87050000Y-60650000D01*
G75*
G02*
X86975000Y-60575000I0J75000D01*
G01*
G37*
G36*
G01*
X86975000Y-60075000D02*
X86975000Y-59925000D01*
G75*
G02*
X87050000Y-59850000I75000J0D01*
G01*
X88500000Y-59850000D01*
G75*
G02*
X88575000Y-59925000I0J-75000D01*
G01*
X88575000Y-60075000D01*
G75*
G02*
X88500000Y-60150000I-75000J0D01*
G01*
X87050000Y-60150000D01*
G75*
G02*
X86975000Y-60075000I0J75000D01*
G01*
G37*
G36*
G01*
X86975000Y-59575000D02*
X86975000Y-59425000D01*
G75*
G02*
X87050000Y-59350000I75000J0D01*
G01*
X88500000Y-59350000D01*
G75*
G02*
X88575000Y-59425000I0J-75000D01*
G01*
X88575000Y-59575000D01*
G75*
G02*
X88500000Y-59650000I-75000J0D01*
G01*
X87050000Y-59650000D01*
G75*
G02*
X86975000Y-59575000I0J75000D01*
G01*
G37*
G36*
G01*
X86975000Y-59075000D02*
X86975000Y-58925000D01*
G75*
G02*
X87050000Y-58850000I75000J0D01*
G01*
X88500000Y-58850000D01*
G75*
G02*
X88575000Y-58925000I0J-75000D01*
G01*
X88575000Y-59075000D01*
G75*
G02*
X88500000Y-59150000I-75000J0D01*
G01*
X87050000Y-59150000D01*
G75*
G02*
X86975000Y-59075000I0J75000D01*
G01*
G37*
G36*
G01*
X86975000Y-58575000D02*
X86975000Y-58425000D01*
G75*
G02*
X87050000Y-58350000I75000J0D01*
G01*
X88500000Y-58350000D01*
G75*
G02*
X88575000Y-58425000I0J-75000D01*
G01*
X88575000Y-58575000D01*
G75*
G02*
X88500000Y-58650000I-75000J0D01*
G01*
X87050000Y-58650000D01*
G75*
G02*
X86975000Y-58575000I0J75000D01*
G01*
G37*
G36*
G01*
X86975000Y-58075000D02*
X86975000Y-57925000D01*
G75*
G02*
X87050000Y-57850000I75000J0D01*
G01*
X88500000Y-57850000D01*
G75*
G02*
X88575000Y-57925000I0J-75000D01*
G01*
X88575000Y-58075000D01*
G75*
G02*
X88500000Y-58150000I-75000J0D01*
G01*
X87050000Y-58150000D01*
G75*
G02*
X86975000Y-58075000I0J75000D01*
G01*
G37*
G36*
G01*
X86975000Y-57575000D02*
X86975000Y-57425000D01*
G75*
G02*
X87050000Y-57350000I75000J0D01*
G01*
X88500000Y-57350000D01*
G75*
G02*
X88575000Y-57425000I0J-75000D01*
G01*
X88575000Y-57575000D01*
G75*
G02*
X88500000Y-57650000I-75000J0D01*
G01*
X87050000Y-57650000D01*
G75*
G02*
X86975000Y-57575000I0J75000D01*
G01*
G37*
G36*
G01*
X86975000Y-57075000D02*
X86975000Y-56925000D01*
G75*
G02*
X87050000Y-56850000I75000J0D01*
G01*
X88500000Y-56850000D01*
G75*
G02*
X88575000Y-56925000I0J-75000D01*
G01*
X88575000Y-57075000D01*
G75*
G02*
X88500000Y-57150000I-75000J0D01*
G01*
X87050000Y-57150000D01*
G75*
G02*
X86975000Y-57075000I0J75000D01*
G01*
G37*
G36*
G01*
X86975000Y-56575000D02*
X86975000Y-56425000D01*
G75*
G02*
X87050000Y-56350000I75000J0D01*
G01*
X88500000Y-56350000D01*
G75*
G02*
X88575000Y-56425000I0J-75000D01*
G01*
X88575000Y-56575000D01*
G75*
G02*
X88500000Y-56650000I-75000J0D01*
G01*
X87050000Y-56650000D01*
G75*
G02*
X86975000Y-56575000I0J75000D01*
G01*
G37*
G36*
G01*
X86975000Y-56075000D02*
X86975000Y-55925000D01*
G75*
G02*
X87050000Y-55850000I75000J0D01*
G01*
X88500000Y-55850000D01*
G75*
G02*
X88575000Y-55925000I0J-75000D01*
G01*
X88575000Y-56075000D01*
G75*
G02*
X88500000Y-56150000I-75000J0D01*
G01*
X87050000Y-56150000D01*
G75*
G02*
X86975000Y-56075000I0J75000D01*
G01*
G37*
G36*
G01*
X86975000Y-55575000D02*
X86975000Y-55425000D01*
G75*
G02*
X87050000Y-55350000I75000J0D01*
G01*
X88500000Y-55350000D01*
G75*
G02*
X88575000Y-55425000I0J-75000D01*
G01*
X88575000Y-55575000D01*
G75*
G02*
X88500000Y-55650000I-75000J0D01*
G01*
X87050000Y-55650000D01*
G75*
G02*
X86975000Y-55575000I0J75000D01*
G01*
G37*
G36*
G01*
X86975000Y-55075000D02*
X86975000Y-54925000D01*
G75*
G02*
X87050000Y-54850000I75000J0D01*
G01*
X88500000Y-54850000D01*
G75*
G02*
X88575000Y-54925000I0J-75000D01*
G01*
X88575000Y-55075000D01*
G75*
G02*
X88500000Y-55150000I-75000J0D01*
G01*
X87050000Y-55150000D01*
G75*
G02*
X86975000Y-55075000I0J75000D01*
G01*
G37*
G36*
G01*
X86975000Y-54575000D02*
X86975000Y-54425000D01*
G75*
G02*
X87050000Y-54350000I75000J0D01*
G01*
X88500000Y-54350000D01*
G75*
G02*
X88575000Y-54425000I0J-75000D01*
G01*
X88575000Y-54575000D01*
G75*
G02*
X88500000Y-54650000I-75000J0D01*
G01*
X87050000Y-54650000D01*
G75*
G02*
X86975000Y-54575000I0J75000D01*
G01*
G37*
G36*
G01*
X86975000Y-54075000D02*
X86975000Y-53925000D01*
G75*
G02*
X87050000Y-53850000I75000J0D01*
G01*
X88500000Y-53850000D01*
G75*
G02*
X88575000Y-53925000I0J-75000D01*
G01*
X88575000Y-54075000D01*
G75*
G02*
X88500000Y-54150000I-75000J0D01*
G01*
X87050000Y-54150000D01*
G75*
G02*
X86975000Y-54075000I0J75000D01*
G01*
G37*
G36*
G01*
X86975000Y-53575000D02*
X86975000Y-53425000D01*
G75*
G02*
X87050000Y-53350000I75000J0D01*
G01*
X88500000Y-53350000D01*
G75*
G02*
X88575000Y-53425000I0J-75000D01*
G01*
X88575000Y-53575000D01*
G75*
G02*
X88500000Y-53650000I-75000J0D01*
G01*
X87050000Y-53650000D01*
G75*
G02*
X86975000Y-53575000I0J75000D01*
G01*
G37*
G36*
G01*
X86975000Y-53075000D02*
X86975000Y-52925000D01*
G75*
G02*
X87050000Y-52850000I75000J0D01*
G01*
X88500000Y-52850000D01*
G75*
G02*
X88575000Y-52925000I0J-75000D01*
G01*
X88575000Y-53075000D01*
G75*
G02*
X88500000Y-53150000I-75000J0D01*
G01*
X87050000Y-53150000D01*
G75*
G02*
X86975000Y-53075000I0J75000D01*
G01*
G37*
G36*
G01*
X86975000Y-52575000D02*
X86975000Y-52425000D01*
G75*
G02*
X87050000Y-52350000I75000J0D01*
G01*
X88500000Y-52350000D01*
G75*
G02*
X88575000Y-52425000I0J-75000D01*
G01*
X88575000Y-52575000D01*
G75*
G02*
X88500000Y-52650000I-75000J0D01*
G01*
X87050000Y-52650000D01*
G75*
G02*
X86975000Y-52575000I0J75000D01*
G01*
G37*
G36*
G01*
X86975000Y-52075000D02*
X86975000Y-51925000D01*
G75*
G02*
X87050000Y-51850000I75000J0D01*
G01*
X88500000Y-51850000D01*
G75*
G02*
X88575000Y-51925000I0J-75000D01*
G01*
X88575000Y-52075000D01*
G75*
G02*
X88500000Y-52150000I-75000J0D01*
G01*
X87050000Y-52150000D01*
G75*
G02*
X86975000Y-52075000I0J75000D01*
G01*
G37*
G36*
G01*
X86975000Y-51575000D02*
X86975000Y-51425000D01*
G75*
G02*
X87050000Y-51350000I75000J0D01*
G01*
X88500000Y-51350000D01*
G75*
G02*
X88575000Y-51425000I0J-75000D01*
G01*
X88575000Y-51575000D01*
G75*
G02*
X88500000Y-51650000I-75000J0D01*
G01*
X87050000Y-51650000D01*
G75*
G02*
X86975000Y-51575000I0J75000D01*
G01*
G37*
G36*
G01*
X86975000Y-51075000D02*
X86975000Y-50925000D01*
G75*
G02*
X87050000Y-50850000I75000J0D01*
G01*
X88500000Y-50850000D01*
G75*
G02*
X88575000Y-50925000I0J-75000D01*
G01*
X88575000Y-51075000D01*
G75*
G02*
X88500000Y-51150000I-75000J0D01*
G01*
X87050000Y-51150000D01*
G75*
G02*
X86975000Y-51075000I0J75000D01*
G01*
G37*
G36*
G01*
X86975000Y-50575000D02*
X86975000Y-50425000D01*
G75*
G02*
X87050000Y-50350000I75000J0D01*
G01*
X88500000Y-50350000D01*
G75*
G02*
X88575000Y-50425000I0J-75000D01*
G01*
X88575000Y-50575000D01*
G75*
G02*
X88500000Y-50650000I-75000J0D01*
G01*
X87050000Y-50650000D01*
G75*
G02*
X86975000Y-50575000I0J75000D01*
G01*
G37*
G36*
G01*
X86975000Y-50075000D02*
X86975000Y-49925000D01*
G75*
G02*
X87050000Y-49850000I75000J0D01*
G01*
X88500000Y-49850000D01*
G75*
G02*
X88575000Y-49925000I0J-75000D01*
G01*
X88575000Y-50075000D01*
G75*
G02*
X88500000Y-50150000I-75000J0D01*
G01*
X87050000Y-50150000D01*
G75*
G02*
X86975000Y-50075000I0J75000D01*
G01*
G37*
G36*
G01*
X110475000Y-46575000D02*
X109225000Y-46575000D01*
G75*
G02*
X108975000Y-46325000I0J250000D01*
G01*
X108975000Y-45575000D01*
G75*
G02*
X109225000Y-45325000I250000J0D01*
G01*
X110475000Y-45325000D01*
G75*
G02*
X110725000Y-45575000I0J-250000D01*
G01*
X110725000Y-46325000D01*
G75*
G02*
X110475000Y-46575000I-250000J0D01*
G01*
G37*
G36*
G01*
X110475000Y-49375000D02*
X109225000Y-49375000D01*
G75*
G02*
X108975000Y-49125000I0J250000D01*
G01*
X108975000Y-48375000D01*
G75*
G02*
X109225000Y-48125000I250000J0D01*
G01*
X110475000Y-48125000D01*
G75*
G02*
X110725000Y-48375000I0J-250000D01*
G01*
X110725000Y-49125000D01*
G75*
G02*
X110475000Y-49375000I-250000J0D01*
G01*
G37*
G36*
G01*
X70287500Y-30225000D02*
X70287500Y-28975000D01*
G75*
G02*
X70537500Y-28725000I250000J0D01*
G01*
X71287500Y-28725000D01*
G75*
G02*
X71537500Y-28975000I0J-250000D01*
G01*
X71537500Y-30225000D01*
G75*
G02*
X71287500Y-30475000I-250000J0D01*
G01*
X70537500Y-30475000D01*
G75*
G02*
X70287500Y-30225000I0J250000D01*
G01*
G37*
G36*
G01*
X67487500Y-30225000D02*
X67487500Y-28975000D01*
G75*
G02*
X67737500Y-28725000I250000J0D01*
G01*
X68487500Y-28725000D01*
G75*
G02*
X68737500Y-28975000I0J-250000D01*
G01*
X68737500Y-30225000D01*
G75*
G02*
X68487500Y-30475000I-250000J0D01*
G01*
X67737500Y-30475000D01*
G75*
G02*
X67487500Y-30225000I0J250000D01*
G01*
G37*
G36*
G01*
X45525000Y-34175000D02*
X46775000Y-34175000D01*
G75*
G02*
X47025000Y-34425000I0J-250000D01*
G01*
X47025000Y-35175000D01*
G75*
G02*
X46775000Y-35425000I-250000J0D01*
G01*
X45525000Y-35425000D01*
G75*
G02*
X45275000Y-35175000I0J250000D01*
G01*
X45275000Y-34425000D01*
G75*
G02*
X45525000Y-34175000I250000J0D01*
G01*
G37*
G36*
G01*
X45525000Y-31375000D02*
X46775000Y-31375000D01*
G75*
G02*
X47025000Y-31625000I0J-250000D01*
G01*
X47025000Y-32375000D01*
G75*
G02*
X46775000Y-32625000I-250000J0D01*
G01*
X45525000Y-32625000D01*
G75*
G02*
X45275000Y-32375000I0J250000D01*
G01*
X45275000Y-31625000D01*
G75*
G02*
X45525000Y-31375000I250000J0D01*
G01*
G37*
G36*
G01*
X59216500Y-48682750D02*
X59216500Y-49595250D01*
G75*
G02*
X58972750Y-49839000I-243750J0D01*
G01*
X58485250Y-49839000D01*
G75*
G02*
X58241500Y-49595250I0J243750D01*
G01*
X58241500Y-48682750D01*
G75*
G02*
X58485250Y-48439000I243750J0D01*
G01*
X58972750Y-48439000D01*
G75*
G02*
X59216500Y-48682750I0J-243750D01*
G01*
G37*
G36*
G01*
X61091500Y-48682750D02*
X61091500Y-49595250D01*
G75*
G02*
X60847750Y-49839000I-243750J0D01*
G01*
X60360250Y-49839000D01*
G75*
G02*
X60116500Y-49595250I0J243750D01*
G01*
X60116500Y-48682750D01*
G75*
G02*
X60360250Y-48439000I243750J0D01*
G01*
X60847750Y-48439000D01*
G75*
G02*
X61091500Y-48682750I0J-243750D01*
G01*
G37*
G36*
G01*
X54543750Y-35650000D02*
X55456250Y-35650000D01*
G75*
G02*
X55700000Y-35893750I0J-243750D01*
G01*
X55700000Y-36381250D01*
G75*
G02*
X55456250Y-36625000I-243750J0D01*
G01*
X54543750Y-36625000D01*
G75*
G02*
X54300000Y-36381250I0J243750D01*
G01*
X54300000Y-35893750D01*
G75*
G02*
X54543750Y-35650000I243750J0D01*
G01*
G37*
G36*
G01*
X54543750Y-33775000D02*
X55456250Y-33775000D01*
G75*
G02*
X55700000Y-34018750I0J-243750D01*
G01*
X55700000Y-34506250D01*
G75*
G02*
X55456250Y-34750000I-243750J0D01*
G01*
X54543750Y-34750000D01*
G75*
G02*
X54300000Y-34506250I0J243750D01*
G01*
X54300000Y-34018750D01*
G75*
G02*
X54543750Y-33775000I243750J0D01*
G01*
G37*
G36*
G01*
X45000000Y-54206250D02*
X45000000Y-53293750D01*
G75*
G02*
X45243750Y-53050000I243750J0D01*
G01*
X45731250Y-53050000D01*
G75*
G02*
X45975000Y-53293750I0J-243750D01*
G01*
X45975000Y-54206250D01*
G75*
G02*
X45731250Y-54450000I-243750J0D01*
G01*
X45243750Y-54450000D01*
G75*
G02*
X45000000Y-54206250I0J243750D01*
G01*
G37*
G36*
G01*
X43125000Y-54206250D02*
X43125000Y-53293750D01*
G75*
G02*
X43368750Y-53050000I243750J0D01*
G01*
X43856250Y-53050000D01*
G75*
G02*
X44100000Y-53293750I0J-243750D01*
G01*
X44100000Y-54206250D01*
G75*
G02*
X43856250Y-54450000I-243750J0D01*
G01*
X43368750Y-54450000D01*
G75*
G02*
X43125000Y-54206250I0J243750D01*
G01*
G37*
G36*
G01*
X58550000Y-82545000D02*
X58550000Y-82845000D01*
G75*
G02*
X58400000Y-82995000I-150000J0D01*
G01*
X56750000Y-82995000D01*
G75*
G02*
X56600000Y-82845000I0J150000D01*
G01*
X56600000Y-82545000D01*
G75*
G02*
X56750000Y-82395000I150000J0D01*
G01*
X58400000Y-82395000D01*
G75*
G02*
X58550000Y-82545000I0J-150000D01*
G01*
G37*
G36*
G01*
X58550000Y-81275000D02*
X58550000Y-81575000D01*
G75*
G02*
X58400000Y-81725000I-150000J0D01*
G01*
X56750000Y-81725000D01*
G75*
G02*
X56600000Y-81575000I0J150000D01*
G01*
X56600000Y-81275000D01*
G75*
G02*
X56750000Y-81125000I150000J0D01*
G01*
X58400000Y-81125000D01*
G75*
G02*
X58550000Y-81275000I0J-150000D01*
G01*
G37*
G36*
G01*
X58550000Y-80005000D02*
X58550000Y-80305000D01*
G75*
G02*
X58400000Y-80455000I-150000J0D01*
G01*
X56750000Y-80455000D01*
G75*
G02*
X56600000Y-80305000I0J150000D01*
G01*
X56600000Y-80005000D01*
G75*
G02*
X56750000Y-79855000I150000J0D01*
G01*
X58400000Y-79855000D01*
G75*
G02*
X58550000Y-80005000I0J-150000D01*
G01*
G37*
G36*
G01*
X58550000Y-78735000D02*
X58550000Y-79035000D01*
G75*
G02*
X58400000Y-79185000I-150000J0D01*
G01*
X56750000Y-79185000D01*
G75*
G02*
X56600000Y-79035000I0J150000D01*
G01*
X56600000Y-78735000D01*
G75*
G02*
X56750000Y-78585000I150000J0D01*
G01*
X58400000Y-78585000D01*
G75*
G02*
X58550000Y-78735000I0J-150000D01*
G01*
G37*
G36*
G01*
X63500000Y-78735000D02*
X63500000Y-79035000D01*
G75*
G02*
X63350000Y-79185000I-150000J0D01*
G01*
X61700000Y-79185000D01*
G75*
G02*
X61550000Y-79035000I0J150000D01*
G01*
X61550000Y-78735000D01*
G75*
G02*
X61700000Y-78585000I150000J0D01*
G01*
X63350000Y-78585000D01*
G75*
G02*
X63500000Y-78735000I0J-150000D01*
G01*
G37*
G36*
G01*
X63500000Y-80005000D02*
X63500000Y-80305000D01*
G75*
G02*
X63350000Y-80455000I-150000J0D01*
G01*
X61700000Y-80455000D01*
G75*
G02*
X61550000Y-80305000I0J150000D01*
G01*
X61550000Y-80005000D01*
G75*
G02*
X61700000Y-79855000I150000J0D01*
G01*
X63350000Y-79855000D01*
G75*
G02*
X63500000Y-80005000I0J-150000D01*
G01*
G37*
G36*
G01*
X63500000Y-81275000D02*
X63500000Y-81575000D01*
G75*
G02*
X63350000Y-81725000I-150000J0D01*
G01*
X61700000Y-81725000D01*
G75*
G02*
X61550000Y-81575000I0J150000D01*
G01*
X61550000Y-81275000D01*
G75*
G02*
X61700000Y-81125000I150000J0D01*
G01*
X63350000Y-81125000D01*
G75*
G02*
X63500000Y-81275000I0J-150000D01*
G01*
G37*
G36*
G01*
X63500000Y-82545000D02*
X63500000Y-82845000D01*
G75*
G02*
X63350000Y-82995000I-150000J0D01*
G01*
X61700000Y-82995000D01*
G75*
G02*
X61550000Y-82845000I0J150000D01*
G01*
X61550000Y-82545000D01*
G75*
G02*
X61700000Y-82395000I150000J0D01*
G01*
X63350000Y-82395000D01*
G75*
G02*
X63500000Y-82545000I0J-150000D01*
G01*
G37*
G36*
G01*
X53500000Y-80646250D02*
X53500000Y-79733750D01*
G75*
G02*
X53743750Y-79490000I243750J0D01*
G01*
X54231250Y-79490000D01*
G75*
G02*
X54475000Y-79733750I0J-243750D01*
G01*
X54475000Y-80646250D01*
G75*
G02*
X54231250Y-80890000I-243750J0D01*
G01*
X53743750Y-80890000D01*
G75*
G02*
X53500000Y-80646250I0J243750D01*
G01*
G37*
G36*
G01*
X51625000Y-80646250D02*
X51625000Y-79733750D01*
G75*
G02*
X51868750Y-79490000I243750J0D01*
G01*
X52356250Y-79490000D01*
G75*
G02*
X52600000Y-79733750I0J-243750D01*
G01*
X52600000Y-80646250D01*
G75*
G02*
X52356250Y-80890000I-243750J0D01*
G01*
X51868750Y-80890000D01*
G75*
G02*
X51625000Y-80646250I0J243750D01*
G01*
G37*
G36*
G01*
X53500000Y-77146250D02*
X53500000Y-76233750D01*
G75*
G02*
X53743750Y-75990000I243750J0D01*
G01*
X54231250Y-75990000D01*
G75*
G02*
X54475000Y-76233750I0J-243750D01*
G01*
X54475000Y-77146250D01*
G75*
G02*
X54231250Y-77390000I-243750J0D01*
G01*
X53743750Y-77390000D01*
G75*
G02*
X53500000Y-77146250I0J243750D01*
G01*
G37*
G36*
G01*
X51625000Y-77146250D02*
X51625000Y-76233750D01*
G75*
G02*
X51868750Y-75990000I243750J0D01*
G01*
X52356250Y-75990000D01*
G75*
G02*
X52600000Y-76233750I0J-243750D01*
G01*
X52600000Y-77146250D01*
G75*
G02*
X52356250Y-77390000I-243750J0D01*
G01*
X51868750Y-77390000D01*
G75*
G02*
X51625000Y-77146250I0J243750D01*
G01*
G37*
G36*
G01*
X52592500Y-82593750D02*
X52592500Y-83506250D01*
G75*
G02*
X52348750Y-83750000I-243750J0D01*
G01*
X51861250Y-83750000D01*
G75*
G02*
X51617500Y-83506250I0J243750D01*
G01*
X51617500Y-82593750D01*
G75*
G02*
X51861250Y-82350000I243750J0D01*
G01*
X52348750Y-82350000D01*
G75*
G02*
X52592500Y-82593750I0J-243750D01*
G01*
G37*
G36*
G01*
X54467500Y-82593750D02*
X54467500Y-83506250D01*
G75*
G02*
X54223750Y-83750000I-243750J0D01*
G01*
X53736250Y-83750000D01*
G75*
G02*
X53492500Y-83506250I0J243750D01*
G01*
X53492500Y-82593750D01*
G75*
G02*
X53736250Y-82350000I243750J0D01*
G01*
X54223750Y-82350000D01*
G75*
G02*
X54467500Y-82593750I0J-243750D01*
G01*
G37*
G36*
G01*
X66626250Y-80450000D02*
X65713750Y-80450000D01*
G75*
G02*
X65470000Y-80206250I0J243750D01*
G01*
X65470000Y-79718750D01*
G75*
G02*
X65713750Y-79475000I243750J0D01*
G01*
X66626250Y-79475000D01*
G75*
G02*
X66870000Y-79718750I0J-243750D01*
G01*
X66870000Y-80206250D01*
G75*
G02*
X66626250Y-80450000I-243750J0D01*
G01*
G37*
G36*
G01*
X66626250Y-82325000D02*
X65713750Y-82325000D01*
G75*
G02*
X65470000Y-82081250I0J243750D01*
G01*
X65470000Y-81593750D01*
G75*
G02*
X65713750Y-81350000I243750J0D01*
G01*
X66626250Y-81350000D01*
G75*
G02*
X66870000Y-81593750I0J-243750D01*
G01*
X66870000Y-82081250D01*
G75*
G02*
X66626250Y-82325000I-243750J0D01*
G01*
G37*
G36*
G01*
X70205000Y-80175000D02*
X68955000Y-80175000D01*
G75*
G02*
X68705000Y-79925000I0J250000D01*
G01*
X68705000Y-79175000D01*
G75*
G02*
X68955000Y-78925000I250000J0D01*
G01*
X70205000Y-78925000D01*
G75*
G02*
X70455000Y-79175000I0J-250000D01*
G01*
X70455000Y-79925000D01*
G75*
G02*
X70205000Y-80175000I-250000J0D01*
G01*
G37*
G36*
G01*
X70205000Y-82975000D02*
X68955000Y-82975000D01*
G75*
G02*
X68705000Y-82725000I0J250000D01*
G01*
X68705000Y-81975000D01*
G75*
G02*
X68955000Y-81725000I250000J0D01*
G01*
X70205000Y-81725000D01*
G75*
G02*
X70455000Y-81975000I0J-250000D01*
G01*
X70455000Y-82725000D01*
G75*
G02*
X70205000Y-82975000I-250000J0D01*
G01*
G37*
G36*
G01*
X59730000Y-75483750D02*
X59730000Y-76396250D01*
G75*
G02*
X59486250Y-76640000I-243750J0D01*
G01*
X58998750Y-76640000D01*
G75*
G02*
X58755000Y-76396250I0J243750D01*
G01*
X58755000Y-75483750D01*
G75*
G02*
X58998750Y-75240000I243750J0D01*
G01*
X59486250Y-75240000D01*
G75*
G02*
X59730000Y-75483750I0J-243750D01*
G01*
G37*
G36*
G01*
X61605000Y-75483750D02*
X61605000Y-76396250D01*
G75*
G02*
X61361250Y-76640000I-243750J0D01*
G01*
X60873750Y-76640000D01*
G75*
G02*
X60630000Y-76396250I0J243750D01*
G01*
X60630000Y-75483750D01*
G75*
G02*
X60873750Y-75240000I243750J0D01*
G01*
X61361250Y-75240000D01*
G75*
G02*
X61605000Y-75483750I0J-243750D01*
G01*
G37*
G36*
G01*
X78855000Y-26015000D02*
X78855000Y-27265000D01*
G75*
G02*
X78605000Y-27515000I-250000J0D01*
G01*
X77855000Y-27515000D01*
G75*
G02*
X77605000Y-27265000I0J250000D01*
G01*
X77605000Y-26015000D01*
G75*
G02*
X77855000Y-25765000I250000J0D01*
G01*
X78605000Y-25765000D01*
G75*
G02*
X78855000Y-26015000I0J-250000D01*
G01*
G37*
G36*
G01*
X81655000Y-26015000D02*
X81655000Y-27265000D01*
G75*
G02*
X81405000Y-27515000I-250000J0D01*
G01*
X80655000Y-27515000D01*
G75*
G02*
X80405000Y-27265000I0J250000D01*
G01*
X80405000Y-26015000D01*
G75*
G02*
X80655000Y-25765000I250000J0D01*
G01*
X81405000Y-25765000D01*
G75*
G02*
X81655000Y-26015000I0J-250000D01*
G01*
G37*
G36*
G01*
X109515000Y-40165000D02*
X109515000Y-41415000D01*
G75*
G02*
X109265000Y-41665000I-250000J0D01*
G01*
X108515000Y-41665000D01*
G75*
G02*
X108265000Y-41415000I0J250000D01*
G01*
X108265000Y-40165000D01*
G75*
G02*
X108515000Y-39915000I250000J0D01*
G01*
X109265000Y-39915000D01*
G75*
G02*
X109515000Y-40165000I0J-250000D01*
G01*
G37*
G36*
G01*
X112315000Y-40165000D02*
X112315000Y-41415000D01*
G75*
G02*
X112065000Y-41665000I-250000J0D01*
G01*
X111315000Y-41665000D01*
G75*
G02*
X111065000Y-41415000I0J250000D01*
G01*
X111065000Y-40165000D01*
G75*
G02*
X111315000Y-39915000I250000J0D01*
G01*
X112065000Y-39915000D01*
G75*
G02*
X112315000Y-40165000I0J-250000D01*
G01*
G37*
G36*
G01*
X109435000Y-36595000D02*
X109435000Y-37845000D01*
G75*
G02*
X109185000Y-38095000I-250000J0D01*
G01*
X108435000Y-38095000D01*
G75*
G02*
X108185000Y-37845000I0J250000D01*
G01*
X108185000Y-36595000D01*
G75*
G02*
X108435000Y-36345000I250000J0D01*
G01*
X109185000Y-36345000D01*
G75*
G02*
X109435000Y-36595000I0J-250000D01*
G01*
G37*
G36*
G01*
X112235000Y-36595000D02*
X112235000Y-37845000D01*
G75*
G02*
X111985000Y-38095000I-250000J0D01*
G01*
X111235000Y-38095000D01*
G75*
G02*
X110985000Y-37845000I0J250000D01*
G01*
X110985000Y-36595000D01*
G75*
G02*
X111235000Y-36345000I250000J0D01*
G01*
X111985000Y-36345000D01*
G75*
G02*
X112235000Y-36595000I0J-250000D01*
G01*
G37*
G36*
G01*
X117718000Y-65885000D02*
X116468000Y-65885000D01*
G75*
G02*
X116218000Y-65635000I0J250000D01*
G01*
X116218000Y-64885000D01*
G75*
G02*
X116468000Y-64635000I250000J0D01*
G01*
X117718000Y-64635000D01*
G75*
G02*
X117968000Y-64885000I0J-250000D01*
G01*
X117968000Y-65635000D01*
G75*
G02*
X117718000Y-65885000I-250000J0D01*
G01*
G37*
G36*
G01*
X117718000Y-68685000D02*
X116468000Y-68685000D01*
G75*
G02*
X116218000Y-68435000I0J250000D01*
G01*
X116218000Y-67685000D01*
G75*
G02*
X116468000Y-67435000I250000J0D01*
G01*
X117718000Y-67435000D01*
G75*
G02*
X117968000Y-67685000I0J-250000D01*
G01*
X117968000Y-68435000D01*
G75*
G02*
X117718000Y-68685000I-250000J0D01*
G01*
G37*
G36*
G01*
X97952000Y-102383000D02*
X97652000Y-102383000D01*
G75*
G02*
X97502000Y-102233000I0J150000D01*
G01*
X97502000Y-100783000D01*
G75*
G02*
X97652000Y-100633000I150000J0D01*
G01*
X97952000Y-100633000D01*
G75*
G02*
X98102000Y-100783000I0J-150000D01*
G01*
X98102000Y-102233000D01*
G75*
G02*
X97952000Y-102383000I-150000J0D01*
G01*
G37*
G36*
G01*
X99222000Y-102383000D02*
X98922000Y-102383000D01*
G75*
G02*
X98772000Y-102233000I0J150000D01*
G01*
X98772000Y-100783000D01*
G75*
G02*
X98922000Y-100633000I150000J0D01*
G01*
X99222000Y-100633000D01*
G75*
G02*
X99372000Y-100783000I0J-150000D01*
G01*
X99372000Y-102233000D01*
G75*
G02*
X99222000Y-102383000I-150000J0D01*
G01*
G37*
G36*
G01*
X100492000Y-102383000D02*
X100192000Y-102383000D01*
G75*
G02*
X100042000Y-102233000I0J150000D01*
G01*
X100042000Y-100783000D01*
G75*
G02*
X100192000Y-100633000I150000J0D01*
G01*
X100492000Y-100633000D01*
G75*
G02*
X100642000Y-100783000I0J-150000D01*
G01*
X100642000Y-102233000D01*
G75*
G02*
X100492000Y-102383000I-150000J0D01*
G01*
G37*
G36*
G01*
X101762000Y-102383000D02*
X101462000Y-102383000D01*
G75*
G02*
X101312000Y-102233000I0J150000D01*
G01*
X101312000Y-100783000D01*
G75*
G02*
X101462000Y-100633000I150000J0D01*
G01*
X101762000Y-100633000D01*
G75*
G02*
X101912000Y-100783000I0J-150000D01*
G01*
X101912000Y-102233000D01*
G75*
G02*
X101762000Y-102383000I-150000J0D01*
G01*
G37*
G36*
G01*
X101762000Y-107533000D02*
X101462000Y-107533000D01*
G75*
G02*
X101312000Y-107383000I0J150000D01*
G01*
X101312000Y-105933000D01*
G75*
G02*
X101462000Y-105783000I150000J0D01*
G01*
X101762000Y-105783000D01*
G75*
G02*
X101912000Y-105933000I0J-150000D01*
G01*
X101912000Y-107383000D01*
G75*
G02*
X101762000Y-107533000I-150000J0D01*
G01*
G37*
G36*
G01*
X100492000Y-107533000D02*
X100192000Y-107533000D01*
G75*
G02*
X100042000Y-107383000I0J150000D01*
G01*
X100042000Y-105933000D01*
G75*
G02*
X100192000Y-105783000I150000J0D01*
G01*
X100492000Y-105783000D01*
G75*
G02*
X100642000Y-105933000I0J-150000D01*
G01*
X100642000Y-107383000D01*
G75*
G02*
X100492000Y-107533000I-150000J0D01*
G01*
G37*
G36*
G01*
X99222000Y-107533000D02*
X98922000Y-107533000D01*
G75*
G02*
X98772000Y-107383000I0J150000D01*
G01*
X98772000Y-105933000D01*
G75*
G02*
X98922000Y-105783000I150000J0D01*
G01*
X99222000Y-105783000D01*
G75*
G02*
X99372000Y-105933000I0J-150000D01*
G01*
X99372000Y-107383000D01*
G75*
G02*
X99222000Y-107533000I-150000J0D01*
G01*
G37*
G36*
G01*
X97952000Y-107533000D02*
X97652000Y-107533000D01*
G75*
G02*
X97502000Y-107383000I0J150000D01*
G01*
X97502000Y-105933000D01*
G75*
G02*
X97652000Y-105783000I150000J0D01*
G01*
X97952000Y-105783000D01*
G75*
G02*
X98102000Y-105933000I0J-150000D01*
G01*
X98102000Y-107383000D01*
G75*
G02*
X97952000Y-107533000I-150000J0D01*
G01*
G37*
G36*
G01*
X80438000Y-32929000D02*
X80438000Y-33229000D01*
G75*
G02*
X80288000Y-33379000I-150000J0D01*
G01*
X78838000Y-33379000D01*
G75*
G02*
X78688000Y-33229000I0J150000D01*
G01*
X78688000Y-32929000D01*
G75*
G02*
X78838000Y-32779000I150000J0D01*
G01*
X80288000Y-32779000D01*
G75*
G02*
X80438000Y-32929000I0J-150000D01*
G01*
G37*
G36*
G01*
X80438000Y-31659000D02*
X80438000Y-31959000D01*
G75*
G02*
X80288000Y-32109000I-150000J0D01*
G01*
X78838000Y-32109000D01*
G75*
G02*
X78688000Y-31959000I0J150000D01*
G01*
X78688000Y-31659000D01*
G75*
G02*
X78838000Y-31509000I150000J0D01*
G01*
X80288000Y-31509000D01*
G75*
G02*
X80438000Y-31659000I0J-150000D01*
G01*
G37*
G36*
G01*
X80438000Y-30389000D02*
X80438000Y-30689000D01*
G75*
G02*
X80288000Y-30839000I-150000J0D01*
G01*
X78838000Y-30839000D01*
G75*
G02*
X78688000Y-30689000I0J150000D01*
G01*
X78688000Y-30389000D01*
G75*
G02*
X78838000Y-30239000I150000J0D01*
G01*
X80288000Y-30239000D01*
G75*
G02*
X80438000Y-30389000I0J-150000D01*
G01*
G37*
G36*
G01*
X80438000Y-29119000D02*
X80438000Y-29419000D01*
G75*
G02*
X80288000Y-29569000I-150000J0D01*
G01*
X78838000Y-29569000D01*
G75*
G02*
X78688000Y-29419000I0J150000D01*
G01*
X78688000Y-29119000D01*
G75*
G02*
X78838000Y-28969000I150000J0D01*
G01*
X80288000Y-28969000D01*
G75*
G02*
X80438000Y-29119000I0J-150000D01*
G01*
G37*
G36*
G01*
X85588000Y-29119000D02*
X85588000Y-29419000D01*
G75*
G02*
X85438000Y-29569000I-150000J0D01*
G01*
X83988000Y-29569000D01*
G75*
G02*
X83838000Y-29419000I0J150000D01*
G01*
X83838000Y-29119000D01*
G75*
G02*
X83988000Y-28969000I150000J0D01*
G01*
X85438000Y-28969000D01*
G75*
G02*
X85588000Y-29119000I0J-150000D01*
G01*
G37*
G36*
G01*
X85588000Y-30389000D02*
X85588000Y-30689000D01*
G75*
G02*
X85438000Y-30839000I-150000J0D01*
G01*
X83988000Y-30839000D01*
G75*
G02*
X83838000Y-30689000I0J150000D01*
G01*
X83838000Y-30389000D01*
G75*
G02*
X83988000Y-30239000I150000J0D01*
G01*
X85438000Y-30239000D01*
G75*
G02*
X85588000Y-30389000I0J-150000D01*
G01*
G37*
G36*
G01*
X85588000Y-31659000D02*
X85588000Y-31959000D01*
G75*
G02*
X85438000Y-32109000I-150000J0D01*
G01*
X83988000Y-32109000D01*
G75*
G02*
X83838000Y-31959000I0J150000D01*
G01*
X83838000Y-31659000D01*
G75*
G02*
X83988000Y-31509000I150000J0D01*
G01*
X85438000Y-31509000D01*
G75*
G02*
X85588000Y-31659000I0J-150000D01*
G01*
G37*
G36*
G01*
X85588000Y-32929000D02*
X85588000Y-33229000D01*
G75*
G02*
X85438000Y-33379000I-150000J0D01*
G01*
X83988000Y-33379000D01*
G75*
G02*
X83838000Y-33229000I0J150000D01*
G01*
X83838000Y-32929000D01*
G75*
G02*
X83988000Y-32779000I150000J0D01*
G01*
X85438000Y-32779000D01*
G75*
G02*
X85588000Y-32929000I0J-150000D01*
G01*
G37*
D10*
X52700000Y-31940000D03*
X53650000Y-31940000D03*
X51750000Y-31940000D03*
X51750000Y-29240000D03*
X52700000Y-29240000D03*
X53650000Y-29240000D03*
G36*
G01*
X66473000Y-45702000D02*
X66473000Y-46002000D01*
G75*
G02*
X66323000Y-46152000I-150000J0D01*
G01*
X64673000Y-46152000D01*
G75*
G02*
X64523000Y-46002000I0J150000D01*
G01*
X64523000Y-45702000D01*
G75*
G02*
X64673000Y-45552000I150000J0D01*
G01*
X66323000Y-45552000D01*
G75*
G02*
X66473000Y-45702000I0J-150000D01*
G01*
G37*
G36*
G01*
X66473000Y-44432000D02*
X66473000Y-44732000D01*
G75*
G02*
X66323000Y-44882000I-150000J0D01*
G01*
X64673000Y-44882000D01*
G75*
G02*
X64523000Y-44732000I0J150000D01*
G01*
X64523000Y-44432000D01*
G75*
G02*
X64673000Y-44282000I150000J0D01*
G01*
X66323000Y-44282000D01*
G75*
G02*
X66473000Y-44432000I0J-150000D01*
G01*
G37*
G36*
G01*
X66473000Y-43162000D02*
X66473000Y-43462000D01*
G75*
G02*
X66323000Y-43612000I-150000J0D01*
G01*
X64673000Y-43612000D01*
G75*
G02*
X64523000Y-43462000I0J150000D01*
G01*
X64523000Y-43162000D01*
G75*
G02*
X64673000Y-43012000I150000J0D01*
G01*
X66323000Y-43012000D01*
G75*
G02*
X66473000Y-43162000I0J-150000D01*
G01*
G37*
G36*
G01*
X66473000Y-41892000D02*
X66473000Y-42192000D01*
G75*
G02*
X66323000Y-42342000I-150000J0D01*
G01*
X64673000Y-42342000D01*
G75*
G02*
X64523000Y-42192000I0J150000D01*
G01*
X64523000Y-41892000D01*
G75*
G02*
X64673000Y-41742000I150000J0D01*
G01*
X66323000Y-41742000D01*
G75*
G02*
X66473000Y-41892000I0J-150000D01*
G01*
G37*
G36*
G01*
X61523000Y-41892000D02*
X61523000Y-42192000D01*
G75*
G02*
X61373000Y-42342000I-150000J0D01*
G01*
X59723000Y-42342000D01*
G75*
G02*
X59573000Y-42192000I0J150000D01*
G01*
X59573000Y-41892000D01*
G75*
G02*
X59723000Y-41742000I150000J0D01*
G01*
X61373000Y-41742000D01*
G75*
G02*
X61523000Y-41892000I0J-150000D01*
G01*
G37*
G36*
G01*
X61523000Y-43162000D02*
X61523000Y-43462000D01*
G75*
G02*
X61373000Y-43612000I-150000J0D01*
G01*
X59723000Y-43612000D01*
G75*
G02*
X59573000Y-43462000I0J150000D01*
G01*
X59573000Y-43162000D01*
G75*
G02*
X59723000Y-43012000I150000J0D01*
G01*
X61373000Y-43012000D01*
G75*
G02*
X61523000Y-43162000I0J-150000D01*
G01*
G37*
G36*
G01*
X61523000Y-44432000D02*
X61523000Y-44732000D01*
G75*
G02*
X61373000Y-44882000I-150000J0D01*
G01*
X59723000Y-44882000D01*
G75*
G02*
X59573000Y-44732000I0J150000D01*
G01*
X59573000Y-44432000D01*
G75*
G02*
X59723000Y-44282000I150000J0D01*
G01*
X61373000Y-44282000D01*
G75*
G02*
X61523000Y-44432000I0J-150000D01*
G01*
G37*
G36*
G01*
X61523000Y-45702000D02*
X61523000Y-46002000D01*
G75*
G02*
X61373000Y-46152000I-150000J0D01*
G01*
X59723000Y-46152000D01*
G75*
G02*
X59573000Y-46002000I0J150000D01*
G01*
X59573000Y-45702000D01*
G75*
G02*
X59723000Y-45552000I150000J0D01*
G01*
X61373000Y-45552000D01*
G75*
G02*
X61523000Y-45702000I0J-150000D01*
G01*
G37*
G36*
G01*
X103505000Y-71735000D02*
X103505000Y-70485000D01*
G75*
G02*
X103755000Y-70235000I250000J0D01*
G01*
X104505000Y-70235000D01*
G75*
G02*
X104755000Y-70485000I0J-250000D01*
G01*
X104755000Y-71735000D01*
G75*
G02*
X104505000Y-71985000I-250000J0D01*
G01*
X103755000Y-71985000D01*
G75*
G02*
X103505000Y-71735000I0J250000D01*
G01*
G37*
G36*
G01*
X100705000Y-71735000D02*
X100705000Y-70485000D01*
G75*
G02*
X100955000Y-70235000I250000J0D01*
G01*
X101705000Y-70235000D01*
G75*
G02*
X101955000Y-70485000I0J-250000D01*
G01*
X101955000Y-71735000D01*
G75*
G02*
X101705000Y-71985000I-250000J0D01*
G01*
X100955000Y-71985000D01*
G75*
G02*
X100705000Y-71735000I0J250000D01*
G01*
G37*
G36*
G01*
X83556250Y-52250000D02*
X82643750Y-52250000D01*
G75*
G02*
X82400000Y-52006250I0J243750D01*
G01*
X82400000Y-51518750D01*
G75*
G02*
X82643750Y-51275000I243750J0D01*
G01*
X83556250Y-51275000D01*
G75*
G02*
X83800000Y-51518750I0J-243750D01*
G01*
X83800000Y-52006250D01*
G75*
G02*
X83556250Y-52250000I-243750J0D01*
G01*
G37*
G36*
G01*
X83556250Y-54125000D02*
X82643750Y-54125000D01*
G75*
G02*
X82400000Y-53881250I0J243750D01*
G01*
X82400000Y-53393750D01*
G75*
G02*
X82643750Y-53150000I243750J0D01*
G01*
X83556250Y-53150000D01*
G75*
G02*
X83800000Y-53393750I0J-243750D01*
G01*
X83800000Y-53881250D01*
G75*
G02*
X83556250Y-54125000I-243750J0D01*
G01*
G37*
G36*
G01*
X45457500Y-40465000D02*
X45182500Y-40465000D01*
G75*
G02*
X45045000Y-40327500I0J137500D01*
G01*
X45045000Y-39152500D01*
G75*
G02*
X45182500Y-39015000I137500J0D01*
G01*
X45457500Y-39015000D01*
G75*
G02*
X45595000Y-39152500I0J-137500D01*
G01*
X45595000Y-40327500D01*
G75*
G02*
X45457500Y-40465000I-137500J0D01*
G01*
G37*
G36*
G01*
X47997500Y-40465000D02*
X47722500Y-40465000D01*
G75*
G02*
X47585000Y-40327500I0J137500D01*
G01*
X47585000Y-39152500D01*
G75*
G02*
X47722500Y-39015000I137500J0D01*
G01*
X47997500Y-39015000D01*
G75*
G02*
X48135000Y-39152500I0J-137500D01*
G01*
X48135000Y-40327500D01*
G75*
G02*
X47997500Y-40465000I-137500J0D01*
G01*
G37*
G36*
G01*
X47997500Y-45965000D02*
X47722500Y-45965000D01*
G75*
G02*
X47585000Y-45827500I0J137500D01*
G01*
X47585000Y-44652500D01*
G75*
G02*
X47722500Y-44515000I137500J0D01*
G01*
X47997500Y-44515000D01*
G75*
G02*
X48135000Y-44652500I0J-137500D01*
G01*
X48135000Y-45827500D01*
G75*
G02*
X47997500Y-45965000I-137500J0D01*
G01*
G37*
G36*
G01*
X45457500Y-45965000D02*
X45182500Y-45965000D01*
G75*
G02*
X45045000Y-45827500I0J137500D01*
G01*
X45045000Y-44652500D01*
G75*
G02*
X45182500Y-44515000I137500J0D01*
G01*
X45457500Y-44515000D01*
G75*
G02*
X45595000Y-44652500I0J-137500D01*
G01*
X45595000Y-45827500D01*
G75*
G02*
X45457500Y-45965000I-137500J0D01*
G01*
G37*
G36*
G01*
X38787500Y-40555000D02*
X38512500Y-40555000D01*
G75*
G02*
X38375000Y-40417500I0J137500D01*
G01*
X38375000Y-39242500D01*
G75*
G02*
X38512500Y-39105000I137500J0D01*
G01*
X38787500Y-39105000D01*
G75*
G02*
X38925000Y-39242500I0J-137500D01*
G01*
X38925000Y-40417500D01*
G75*
G02*
X38787500Y-40555000I-137500J0D01*
G01*
G37*
G36*
G01*
X41327500Y-40555000D02*
X41052500Y-40555000D01*
G75*
G02*
X40915000Y-40417500I0J137500D01*
G01*
X40915000Y-39242500D01*
G75*
G02*
X41052500Y-39105000I137500J0D01*
G01*
X41327500Y-39105000D01*
G75*
G02*
X41465000Y-39242500I0J-137500D01*
G01*
X41465000Y-40417500D01*
G75*
G02*
X41327500Y-40555000I-137500J0D01*
G01*
G37*
G36*
G01*
X41327500Y-46055000D02*
X41052500Y-46055000D01*
G75*
G02*
X40915000Y-45917500I0J137500D01*
G01*
X40915000Y-44742500D01*
G75*
G02*
X41052500Y-44605000I137500J0D01*
G01*
X41327500Y-44605000D01*
G75*
G02*
X41465000Y-44742500I0J-137500D01*
G01*
X41465000Y-45917500D01*
G75*
G02*
X41327500Y-46055000I-137500J0D01*
G01*
G37*
G36*
G01*
X38787500Y-46055000D02*
X38512500Y-46055000D01*
G75*
G02*
X38375000Y-45917500I0J137500D01*
G01*
X38375000Y-44742500D01*
G75*
G02*
X38512500Y-44605000I137500J0D01*
G01*
X38787500Y-44605000D01*
G75*
G02*
X38925000Y-44742500I0J-137500D01*
G01*
X38925000Y-45917500D01*
G75*
G02*
X38787500Y-46055000I-137500J0D01*
G01*
G37*
G36*
G01*
X31777500Y-40435000D02*
X31502500Y-40435000D01*
G75*
G02*
X31365000Y-40297500I0J137500D01*
G01*
X31365000Y-39122500D01*
G75*
G02*
X31502500Y-38985000I137500J0D01*
G01*
X31777500Y-38985000D01*
G75*
G02*
X31915000Y-39122500I0J-137500D01*
G01*
X31915000Y-40297500D01*
G75*
G02*
X31777500Y-40435000I-137500J0D01*
G01*
G37*
G36*
G01*
X34317500Y-40435000D02*
X34042500Y-40435000D01*
G75*
G02*
X33905000Y-40297500I0J137500D01*
G01*
X33905000Y-39122500D01*
G75*
G02*
X34042500Y-38985000I137500J0D01*
G01*
X34317500Y-38985000D01*
G75*
G02*
X34455000Y-39122500I0J-137500D01*
G01*
X34455000Y-40297500D01*
G75*
G02*
X34317500Y-40435000I-137500J0D01*
G01*
G37*
G36*
G01*
X34317500Y-45935000D02*
X34042500Y-45935000D01*
G75*
G02*
X33905000Y-45797500I0J137500D01*
G01*
X33905000Y-44622500D01*
G75*
G02*
X34042500Y-44485000I137500J0D01*
G01*
X34317500Y-44485000D01*
G75*
G02*
X34455000Y-44622500I0J-137500D01*
G01*
X34455000Y-45797500D01*
G75*
G02*
X34317500Y-45935000I-137500J0D01*
G01*
G37*
G36*
G01*
X31777500Y-45935000D02*
X31502500Y-45935000D01*
G75*
G02*
X31365000Y-45797500I0J137500D01*
G01*
X31365000Y-44622500D01*
G75*
G02*
X31502500Y-44485000I137500J0D01*
G01*
X31777500Y-44485000D01*
G75*
G02*
X31915000Y-44622500I0J-137500D01*
G01*
X31915000Y-45797500D01*
G75*
G02*
X31777500Y-45935000I-137500J0D01*
G01*
G37*
G36*
G01*
X47090000Y-49286250D02*
X47090000Y-48373750D01*
G75*
G02*
X47333750Y-48130000I243750J0D01*
G01*
X47821250Y-48130000D01*
G75*
G02*
X48065000Y-48373750I0J-243750D01*
G01*
X48065000Y-49286250D01*
G75*
G02*
X47821250Y-49530000I-243750J0D01*
G01*
X47333750Y-49530000D01*
G75*
G02*
X47090000Y-49286250I0J243750D01*
G01*
G37*
G36*
G01*
X45215000Y-49286250D02*
X45215000Y-48373750D01*
G75*
G02*
X45458750Y-48130000I243750J0D01*
G01*
X45946250Y-48130000D01*
G75*
G02*
X46190000Y-48373750I0J-243750D01*
G01*
X46190000Y-49286250D01*
G75*
G02*
X45946250Y-49530000I-243750J0D01*
G01*
X45458750Y-49530000D01*
G75*
G02*
X45215000Y-49286250I0J243750D01*
G01*
G37*
G36*
G01*
X40247500Y-49496250D02*
X40247500Y-48583750D01*
G75*
G02*
X40491250Y-48340000I243750J0D01*
G01*
X40978750Y-48340000D01*
G75*
G02*
X41222500Y-48583750I0J-243750D01*
G01*
X41222500Y-49496250D01*
G75*
G02*
X40978750Y-49740000I-243750J0D01*
G01*
X40491250Y-49740000D01*
G75*
G02*
X40247500Y-49496250I0J243750D01*
G01*
G37*
G36*
G01*
X38372500Y-49496250D02*
X38372500Y-48583750D01*
G75*
G02*
X38616250Y-48340000I243750J0D01*
G01*
X39103750Y-48340000D01*
G75*
G02*
X39347500Y-48583750I0J-243750D01*
G01*
X39347500Y-49496250D01*
G75*
G02*
X39103750Y-49740000I-243750J0D01*
G01*
X38616250Y-49740000D01*
G75*
G02*
X38372500Y-49496250I0J243750D01*
G01*
G37*
G36*
G01*
X33177500Y-49506250D02*
X33177500Y-48593750D01*
G75*
G02*
X33421250Y-48350000I243750J0D01*
G01*
X33908750Y-48350000D01*
G75*
G02*
X34152500Y-48593750I0J-243750D01*
G01*
X34152500Y-49506250D01*
G75*
G02*
X33908750Y-49750000I-243750J0D01*
G01*
X33421250Y-49750000D01*
G75*
G02*
X33177500Y-49506250I0J243750D01*
G01*
G37*
G36*
G01*
X31302500Y-49506250D02*
X31302500Y-48593750D01*
G75*
G02*
X31546250Y-48350000I243750J0D01*
G01*
X32033750Y-48350000D01*
G75*
G02*
X32277500Y-48593750I0J-243750D01*
G01*
X32277500Y-49506250D01*
G75*
G02*
X32033750Y-49750000I-243750J0D01*
G01*
X31546250Y-49750000D01*
G75*
G02*
X31302500Y-49506250I0J243750D01*
G01*
G37*
G36*
G01*
X114630000Y-40363750D02*
X114630000Y-41276250D01*
G75*
G02*
X114386250Y-41520000I-243750J0D01*
G01*
X113898750Y-41520000D01*
G75*
G02*
X113655000Y-41276250I0J243750D01*
G01*
X113655000Y-40363750D01*
G75*
G02*
X113898750Y-40120000I243750J0D01*
G01*
X114386250Y-40120000D01*
G75*
G02*
X114630000Y-40363750I0J-243750D01*
G01*
G37*
G36*
G01*
X116505000Y-40363750D02*
X116505000Y-41276250D01*
G75*
G02*
X116261250Y-41520000I-243750J0D01*
G01*
X115773750Y-41520000D01*
G75*
G02*
X115530000Y-41276250I0J243750D01*
G01*
X115530000Y-40363750D01*
G75*
G02*
X115773750Y-40120000I243750J0D01*
G01*
X116261250Y-40120000D01*
G75*
G02*
X116505000Y-40363750I0J-243750D01*
G01*
G37*
G36*
G01*
X106183750Y-103542500D02*
X107096250Y-103542500D01*
G75*
G02*
X107340000Y-103786250I0J-243750D01*
G01*
X107340000Y-104273750D01*
G75*
G02*
X107096250Y-104517500I-243750J0D01*
G01*
X106183750Y-104517500D01*
G75*
G02*
X105940000Y-104273750I0J243750D01*
G01*
X105940000Y-103786250D01*
G75*
G02*
X106183750Y-103542500I243750J0D01*
G01*
G37*
G36*
G01*
X106183750Y-101667500D02*
X107096250Y-101667500D01*
G75*
G02*
X107340000Y-101911250I0J-243750D01*
G01*
X107340000Y-102398750D01*
G75*
G02*
X107096250Y-102642500I-243750J0D01*
G01*
X106183750Y-102642500D01*
G75*
G02*
X105940000Y-102398750I0J243750D01*
G01*
X105940000Y-101911250D01*
G75*
G02*
X106183750Y-101667500I243750J0D01*
G01*
G37*
D11*
X110155000Y-77600000D03*
X110805000Y-77600000D03*
X111455000Y-77600000D03*
X112105000Y-77600000D03*
X112755000Y-77600000D03*
X113405000Y-77600000D03*
X114055000Y-77600000D03*
X114705000Y-77600000D03*
X115355000Y-77600000D03*
X116005000Y-77600000D03*
X116005000Y-83500000D03*
X115355000Y-83500000D03*
X114705000Y-83500000D03*
X114055000Y-83500000D03*
X113405000Y-83500000D03*
X112755000Y-83500000D03*
X112105000Y-83500000D03*
X111455000Y-83500000D03*
X110805000Y-83500000D03*
X110155000Y-83500000D03*
G36*
G01*
X108536250Y-80662500D02*
X107623750Y-80662500D01*
G75*
G02*
X107380000Y-80418750I0J243750D01*
G01*
X107380000Y-79931250D01*
G75*
G02*
X107623750Y-79687500I243750J0D01*
G01*
X108536250Y-79687500D01*
G75*
G02*
X108780000Y-79931250I0J-243750D01*
G01*
X108780000Y-80418750D01*
G75*
G02*
X108536250Y-80662500I-243750J0D01*
G01*
G37*
G36*
G01*
X108536250Y-82537500D02*
X107623750Y-82537500D01*
G75*
G02*
X107380000Y-82293750I0J243750D01*
G01*
X107380000Y-81806250D01*
G75*
G02*
X107623750Y-81562500I243750J0D01*
G01*
X108536250Y-81562500D01*
G75*
G02*
X108780000Y-81806250I0J-243750D01*
G01*
X108780000Y-82293750D01*
G75*
G02*
X108536250Y-82537500I-243750J0D01*
G01*
G37*
G36*
G01*
X105655000Y-81375000D02*
X104405000Y-81375000D01*
G75*
G02*
X104155000Y-81125000I0J250000D01*
G01*
X104155000Y-80375000D01*
G75*
G02*
X104405000Y-80125000I250000J0D01*
G01*
X105655000Y-80125000D01*
G75*
G02*
X105905000Y-80375000I0J-250000D01*
G01*
X105905000Y-81125000D01*
G75*
G02*
X105655000Y-81375000I-250000J0D01*
G01*
G37*
G36*
G01*
X105655000Y-84175000D02*
X104405000Y-84175000D01*
G75*
G02*
X104155000Y-83925000I0J250000D01*
G01*
X104155000Y-83175000D01*
G75*
G02*
X104405000Y-82925000I250000J0D01*
G01*
X105655000Y-82925000D01*
G75*
G02*
X105905000Y-83175000I0J-250000D01*
G01*
X105905000Y-83925000D01*
G75*
G02*
X105655000Y-84175000I-250000J0D01*
G01*
G37*
G36*
G01*
X115413750Y-89957500D02*
X116326250Y-89957500D01*
G75*
G02*
X116570000Y-90201250I0J-243750D01*
G01*
X116570000Y-90688750D01*
G75*
G02*
X116326250Y-90932500I-243750J0D01*
G01*
X115413750Y-90932500D01*
G75*
G02*
X115170000Y-90688750I0J243750D01*
G01*
X115170000Y-90201250D01*
G75*
G02*
X115413750Y-89957500I243750J0D01*
G01*
G37*
G36*
G01*
X115413750Y-88082500D02*
X116326250Y-88082500D01*
G75*
G02*
X116570000Y-88326250I0J-243750D01*
G01*
X116570000Y-88813750D01*
G75*
G02*
X116326250Y-89057500I-243750J0D01*
G01*
X115413750Y-89057500D01*
G75*
G02*
X115170000Y-88813750I0J243750D01*
G01*
X115170000Y-88326250D01*
G75*
G02*
X115413750Y-88082500I243750J0D01*
G01*
G37*
G36*
G01*
X107976250Y-88950000D02*
X107063750Y-88950000D01*
G75*
G02*
X106820000Y-88706250I0J243750D01*
G01*
X106820000Y-88218750D01*
G75*
G02*
X107063750Y-87975000I243750J0D01*
G01*
X107976250Y-87975000D01*
G75*
G02*
X108220000Y-88218750I0J-243750D01*
G01*
X108220000Y-88706250D01*
G75*
G02*
X107976250Y-88950000I-243750J0D01*
G01*
G37*
G36*
G01*
X107976250Y-90825000D02*
X107063750Y-90825000D01*
G75*
G02*
X106820000Y-90581250I0J243750D01*
G01*
X106820000Y-90093750D01*
G75*
G02*
X107063750Y-89850000I243750J0D01*
G01*
X107976250Y-89850000D01*
G75*
G02*
X108220000Y-90093750I0J-243750D01*
G01*
X108220000Y-90581250D01*
G75*
G02*
X107976250Y-90825000I-243750J0D01*
G01*
G37*
D12*
X102770000Y-26390000D03*
X108170000Y-26390000D03*
X102500000Y-32060000D03*
X107900000Y-32060000D03*
G36*
G01*
X82593750Y-59150000D02*
X83506250Y-59150000D01*
G75*
G02*
X83750000Y-59393750I0J-243750D01*
G01*
X83750000Y-59881250D01*
G75*
G02*
X83506250Y-60125000I-243750J0D01*
G01*
X82593750Y-60125000D01*
G75*
G02*
X82350000Y-59881250I0J243750D01*
G01*
X82350000Y-59393750D01*
G75*
G02*
X82593750Y-59150000I243750J0D01*
G01*
G37*
G36*
G01*
X82593750Y-57275000D02*
X83506250Y-57275000D01*
G75*
G02*
X83750000Y-57518750I0J-243750D01*
G01*
X83750000Y-58006250D01*
G75*
G02*
X83506250Y-58250000I-243750J0D01*
G01*
X82593750Y-58250000D01*
G75*
G02*
X82350000Y-58006250I0J243750D01*
G01*
X82350000Y-57518750D01*
G75*
G02*
X82593750Y-57275000I243750J0D01*
G01*
G37*
G36*
G01*
X36750000Y-52056250D02*
X36750000Y-51143750D01*
G75*
G02*
X36993750Y-50900000I243750J0D01*
G01*
X37481250Y-50900000D01*
G75*
G02*
X37725000Y-51143750I0J-243750D01*
G01*
X37725000Y-52056250D01*
G75*
G02*
X37481250Y-52300000I-243750J0D01*
G01*
X36993750Y-52300000D01*
G75*
G02*
X36750000Y-52056250I0J243750D01*
G01*
G37*
G36*
G01*
X34875000Y-52056250D02*
X34875000Y-51143750D01*
G75*
G02*
X35118750Y-50900000I243750J0D01*
G01*
X35606250Y-50900000D01*
G75*
G02*
X35850000Y-51143750I0J-243750D01*
G01*
X35850000Y-52056250D01*
G75*
G02*
X35606250Y-52300000I-243750J0D01*
G01*
X35118750Y-52300000D01*
G75*
G02*
X34875000Y-52056250I0J243750D01*
G01*
G37*
D13*
X117730000Y-57657000D03*
D14*
X115030000Y-56657000D03*
X115030000Y-56007000D03*
X115030000Y-55357000D03*
X115030000Y-57957000D03*
X115030000Y-57307000D03*
D13*
X117730000Y-55657000D03*
G36*
G01*
X32890000Y-87163750D02*
X32890000Y-88076250D01*
G75*
G02*
X32646250Y-88320000I-243750J0D01*
G01*
X32158750Y-88320000D01*
G75*
G02*
X31915000Y-88076250I0J243750D01*
G01*
X31915000Y-87163750D01*
G75*
G02*
X32158750Y-86920000I243750J0D01*
G01*
X32646250Y-86920000D01*
G75*
G02*
X32890000Y-87163750I0J-243750D01*
G01*
G37*
G36*
G01*
X34765000Y-87163750D02*
X34765000Y-88076250D01*
G75*
G02*
X34521250Y-88320000I-243750J0D01*
G01*
X34033750Y-88320000D01*
G75*
G02*
X33790000Y-88076250I0J243750D01*
G01*
X33790000Y-87163750D01*
G75*
G02*
X34033750Y-86920000I243750J0D01*
G01*
X34521250Y-86920000D01*
G75*
G02*
X34765000Y-87163750I0J-243750D01*
G01*
G37*
G36*
G01*
X45950000Y-111093750D02*
X45950000Y-112006250D01*
G75*
G02*
X45706250Y-112250000I-243750J0D01*
G01*
X45218750Y-112250000D01*
G75*
G02*
X44975000Y-112006250I0J243750D01*
G01*
X44975000Y-111093750D01*
G75*
G02*
X45218750Y-110850000I243750J0D01*
G01*
X45706250Y-110850000D01*
G75*
G02*
X45950000Y-111093750I0J-243750D01*
G01*
G37*
G36*
G01*
X47825000Y-111093750D02*
X47825000Y-112006250D01*
G75*
G02*
X47581250Y-112250000I-243750J0D01*
G01*
X47093750Y-112250000D01*
G75*
G02*
X46850000Y-112006250I0J243750D01*
G01*
X46850000Y-111093750D01*
G75*
G02*
X47093750Y-110850000I243750J0D01*
G01*
X47581250Y-110850000D01*
G75*
G02*
X47825000Y-111093750I0J-243750D01*
G01*
G37*
G36*
G01*
X48192500Y-104593750D02*
X48192500Y-105506250D01*
G75*
G02*
X47948750Y-105750000I-243750J0D01*
G01*
X47461250Y-105750000D01*
G75*
G02*
X47217500Y-105506250I0J243750D01*
G01*
X47217500Y-104593750D01*
G75*
G02*
X47461250Y-104350000I243750J0D01*
G01*
X47948750Y-104350000D01*
G75*
G02*
X48192500Y-104593750I0J-243750D01*
G01*
G37*
G36*
G01*
X50067500Y-104593750D02*
X50067500Y-105506250D01*
G75*
G02*
X49823750Y-105750000I-243750J0D01*
G01*
X49336250Y-105750000D01*
G75*
G02*
X49092500Y-105506250I0J243750D01*
G01*
X49092500Y-104593750D01*
G75*
G02*
X49336250Y-104350000I243750J0D01*
G01*
X49823750Y-104350000D01*
G75*
G02*
X50067500Y-104593750I0J-243750D01*
G01*
G37*
G36*
G01*
X57707500Y-114835250D02*
X57707500Y-113922750D01*
G75*
G02*
X57951250Y-113679000I243750J0D01*
G01*
X58438750Y-113679000D01*
G75*
G02*
X58682500Y-113922750I0J-243750D01*
G01*
X58682500Y-114835250D01*
G75*
G02*
X58438750Y-115079000I-243750J0D01*
G01*
X57951250Y-115079000D01*
G75*
G02*
X57707500Y-114835250I0J243750D01*
G01*
G37*
G36*
G01*
X55832500Y-114835250D02*
X55832500Y-113922750D01*
G75*
G02*
X56076250Y-113679000I243750J0D01*
G01*
X56563750Y-113679000D01*
G75*
G02*
X56807500Y-113922750I0J-243750D01*
G01*
X56807500Y-114835250D01*
G75*
G02*
X56563750Y-115079000I-243750J0D01*
G01*
X56076250Y-115079000D01*
G75*
G02*
X55832500Y-114835250I0J243750D01*
G01*
G37*
G36*
G01*
X68536250Y-103970000D02*
X67623750Y-103970000D01*
G75*
G02*
X67380000Y-103726250I0J243750D01*
G01*
X67380000Y-103238750D01*
G75*
G02*
X67623750Y-102995000I243750J0D01*
G01*
X68536250Y-102995000D01*
G75*
G02*
X68780000Y-103238750I0J-243750D01*
G01*
X68780000Y-103726250D01*
G75*
G02*
X68536250Y-103970000I-243750J0D01*
G01*
G37*
G36*
G01*
X68536250Y-105845000D02*
X67623750Y-105845000D01*
G75*
G02*
X67380000Y-105601250I0J243750D01*
G01*
X67380000Y-105113750D01*
G75*
G02*
X67623750Y-104870000I243750J0D01*
G01*
X68536250Y-104870000D01*
G75*
G02*
X68780000Y-105113750I0J-243750D01*
G01*
X68780000Y-105601250D01*
G75*
G02*
X68536250Y-105845000I-243750J0D01*
G01*
G37*
G36*
G01*
X72175000Y-104355000D02*
X70925000Y-104355000D01*
G75*
G02*
X70675000Y-104105000I0J250000D01*
G01*
X70675000Y-103355000D01*
G75*
G02*
X70925000Y-103105000I250000J0D01*
G01*
X72175000Y-103105000D01*
G75*
G02*
X72425000Y-103355000I0J-250000D01*
G01*
X72425000Y-104105000D01*
G75*
G02*
X72175000Y-104355000I-250000J0D01*
G01*
G37*
G36*
G01*
X72175000Y-107155000D02*
X70925000Y-107155000D01*
G75*
G02*
X70675000Y-106905000I0J250000D01*
G01*
X70675000Y-106155000D01*
G75*
G02*
X70925000Y-105905000I250000J0D01*
G01*
X72175000Y-105905000D01*
G75*
G02*
X72425000Y-106155000I0J-250000D01*
G01*
X72425000Y-106905000D01*
G75*
G02*
X72175000Y-107155000I-250000J0D01*
G01*
G37*
G36*
G01*
X58700000Y-97356250D02*
X58700000Y-96443750D01*
G75*
G02*
X58943750Y-96200000I243750J0D01*
G01*
X59431250Y-96200000D01*
G75*
G02*
X59675000Y-96443750I0J-243750D01*
G01*
X59675000Y-97356250D01*
G75*
G02*
X59431250Y-97600000I-243750J0D01*
G01*
X58943750Y-97600000D01*
G75*
G02*
X58700000Y-97356250I0J243750D01*
G01*
G37*
G36*
G01*
X56825000Y-97356250D02*
X56825000Y-96443750D01*
G75*
G02*
X57068750Y-96200000I243750J0D01*
G01*
X57556250Y-96200000D01*
G75*
G02*
X57800000Y-96443750I0J-243750D01*
G01*
X57800000Y-97356250D01*
G75*
G02*
X57556250Y-97600000I-243750J0D01*
G01*
X57068750Y-97600000D01*
G75*
G02*
X56825000Y-97356250I0J243750D01*
G01*
G37*
G36*
G01*
X58658700Y-94907250D02*
X58658700Y-93994750D01*
G75*
G02*
X58902450Y-93751000I243750J0D01*
G01*
X59389950Y-93751000D01*
G75*
G02*
X59633700Y-93994750I0J-243750D01*
G01*
X59633700Y-94907250D01*
G75*
G02*
X59389950Y-95151000I-243750J0D01*
G01*
X58902450Y-95151000D01*
G75*
G02*
X58658700Y-94907250I0J243750D01*
G01*
G37*
G36*
G01*
X56783700Y-94907250D02*
X56783700Y-93994750D01*
G75*
G02*
X57027450Y-93751000I243750J0D01*
G01*
X57514950Y-93751000D01*
G75*
G02*
X57758700Y-93994750I0J-243750D01*
G01*
X57758700Y-94907250D01*
G75*
G02*
X57514950Y-95151000I-243750J0D01*
G01*
X57027450Y-95151000D01*
G75*
G02*
X56783700Y-94907250I0J243750D01*
G01*
G37*
G36*
G01*
X58953000Y-92383600D02*
X58953000Y-91133600D01*
G75*
G02*
X59203000Y-90883600I250000J0D01*
G01*
X59953000Y-90883600D01*
G75*
G02*
X60203000Y-91133600I0J-250000D01*
G01*
X60203000Y-92383600D01*
G75*
G02*
X59953000Y-92633600I-250000J0D01*
G01*
X59203000Y-92633600D01*
G75*
G02*
X58953000Y-92383600I0J250000D01*
G01*
G37*
G36*
G01*
X56153000Y-92383600D02*
X56153000Y-91133600D01*
G75*
G02*
X56403000Y-90883600I250000J0D01*
G01*
X57153000Y-90883600D01*
G75*
G02*
X57403000Y-91133600I0J-250000D01*
G01*
X57403000Y-92383600D01*
G75*
G02*
X57153000Y-92633600I-250000J0D01*
G01*
X56403000Y-92633600D01*
G75*
G02*
X56153000Y-92383600I0J250000D01*
G01*
G37*
G36*
G01*
X78353750Y-97897500D02*
X79266250Y-97897500D01*
G75*
G02*
X79510000Y-98141250I0J-243750D01*
G01*
X79510000Y-98628750D01*
G75*
G02*
X79266250Y-98872500I-243750J0D01*
G01*
X78353750Y-98872500D01*
G75*
G02*
X78110000Y-98628750I0J243750D01*
G01*
X78110000Y-98141250D01*
G75*
G02*
X78353750Y-97897500I243750J0D01*
G01*
G37*
G36*
G01*
X78353750Y-96022500D02*
X79266250Y-96022500D01*
G75*
G02*
X79510000Y-96266250I0J-243750D01*
G01*
X79510000Y-96753750D01*
G75*
G02*
X79266250Y-96997500I-243750J0D01*
G01*
X78353750Y-96997500D01*
G75*
G02*
X78110000Y-96753750I0J243750D01*
G01*
X78110000Y-96266250D01*
G75*
G02*
X78353750Y-96022500I243750J0D01*
G01*
G37*
G36*
G01*
X71806250Y-97137500D02*
X70893750Y-97137500D01*
G75*
G02*
X70650000Y-96893750I0J243750D01*
G01*
X70650000Y-96406250D01*
G75*
G02*
X70893750Y-96162500I243750J0D01*
G01*
X71806250Y-96162500D01*
G75*
G02*
X72050000Y-96406250I0J-243750D01*
G01*
X72050000Y-96893750D01*
G75*
G02*
X71806250Y-97137500I-243750J0D01*
G01*
G37*
G36*
G01*
X71806250Y-99012500D02*
X70893750Y-99012500D01*
G75*
G02*
X70650000Y-98768750I0J243750D01*
G01*
X70650000Y-98281250D01*
G75*
G02*
X70893750Y-98037500I243750J0D01*
G01*
X71806250Y-98037500D01*
G75*
G02*
X72050000Y-98281250I0J-243750D01*
G01*
X72050000Y-98768750D01*
G75*
G02*
X71806250Y-99012500I-243750J0D01*
G01*
G37*
D15*
X32000000Y-23800000D03*
X36300000Y-23800000D03*
G36*
G01*
X76282500Y-58863750D02*
X76282500Y-59776250D01*
G75*
G02*
X76038750Y-60020000I-243750J0D01*
G01*
X75551250Y-60020000D01*
G75*
G02*
X75307500Y-59776250I0J243750D01*
G01*
X75307500Y-58863750D01*
G75*
G02*
X75551250Y-58620000I243750J0D01*
G01*
X76038750Y-58620000D01*
G75*
G02*
X76282500Y-58863750I0J-243750D01*
G01*
G37*
G36*
G01*
X78157500Y-58863750D02*
X78157500Y-59776250D01*
G75*
G02*
X77913750Y-60020000I-243750J0D01*
G01*
X77426250Y-60020000D01*
G75*
G02*
X77182500Y-59776250I0J243750D01*
G01*
X77182500Y-58863750D01*
G75*
G02*
X77426250Y-58620000I243750J0D01*
G01*
X77913750Y-58620000D01*
G75*
G02*
X78157500Y-58863750I0J-243750D01*
G01*
G37*
G36*
G01*
X77077500Y-52326250D02*
X77077500Y-51413750D01*
G75*
G02*
X77321250Y-51170000I243750J0D01*
G01*
X77808750Y-51170000D01*
G75*
G02*
X78052500Y-51413750I0J-243750D01*
G01*
X78052500Y-52326250D01*
G75*
G02*
X77808750Y-52570000I-243750J0D01*
G01*
X77321250Y-52570000D01*
G75*
G02*
X77077500Y-52326250I0J243750D01*
G01*
G37*
G36*
G01*
X75202500Y-52326250D02*
X75202500Y-51413750D01*
G75*
G02*
X75446250Y-51170000I243750J0D01*
G01*
X75933750Y-51170000D01*
G75*
G02*
X76177500Y-51413750I0J-243750D01*
G01*
X76177500Y-52326250D01*
G75*
G02*
X75933750Y-52570000I-243750J0D01*
G01*
X75446250Y-52570000D01*
G75*
G02*
X75202500Y-52326250I0J243750D01*
G01*
G37*
G36*
G01*
X100817500Y-36073750D02*
X100817500Y-36986250D01*
G75*
G02*
X100573750Y-37230000I-243750J0D01*
G01*
X100086250Y-37230000D01*
G75*
G02*
X99842500Y-36986250I0J243750D01*
G01*
X99842500Y-36073750D01*
G75*
G02*
X100086250Y-35830000I243750J0D01*
G01*
X100573750Y-35830000D01*
G75*
G02*
X100817500Y-36073750I0J-243750D01*
G01*
G37*
G36*
G01*
X102692500Y-36073750D02*
X102692500Y-36986250D01*
G75*
G02*
X102448750Y-37230000I-243750J0D01*
G01*
X101961250Y-37230000D01*
G75*
G02*
X101717500Y-36986250I0J243750D01*
G01*
X101717500Y-36073750D01*
G75*
G02*
X101961250Y-35830000I243750J0D01*
G01*
X102448750Y-35830000D01*
G75*
G02*
X102692500Y-36073750I0J-243750D01*
G01*
G37*
G36*
G01*
X110692500Y-32606250D02*
X110692500Y-31693750D01*
G75*
G02*
X110936250Y-31450000I243750J0D01*
G01*
X111423750Y-31450000D01*
G75*
G02*
X111667500Y-31693750I0J-243750D01*
G01*
X111667500Y-32606250D01*
G75*
G02*
X111423750Y-32850000I-243750J0D01*
G01*
X110936250Y-32850000D01*
G75*
G02*
X110692500Y-32606250I0J243750D01*
G01*
G37*
G36*
G01*
X112567500Y-32606250D02*
X112567500Y-31693750D01*
G75*
G02*
X112811250Y-31450000I243750J0D01*
G01*
X113298750Y-31450000D01*
G75*
G02*
X113542500Y-31693750I0J-243750D01*
G01*
X113542500Y-32606250D01*
G75*
G02*
X113298750Y-32850000I-243750J0D01*
G01*
X112811250Y-32850000D01*
G75*
G02*
X112567500Y-32606250I0J243750D01*
G01*
G37*
G36*
G01*
X37022500Y-88136250D02*
X37022500Y-87223750D01*
G75*
G02*
X37266250Y-86980000I243750J0D01*
G01*
X37753750Y-86980000D01*
G75*
G02*
X37997500Y-87223750I0J-243750D01*
G01*
X37997500Y-88136250D01*
G75*
G02*
X37753750Y-88380000I-243750J0D01*
G01*
X37266250Y-88380000D01*
G75*
G02*
X37022500Y-88136250I0J243750D01*
G01*
G37*
G36*
G01*
X38897500Y-88136250D02*
X38897500Y-87223750D01*
G75*
G02*
X39141250Y-86980000I243750J0D01*
G01*
X39628750Y-86980000D01*
G75*
G02*
X39872500Y-87223750I0J-243750D01*
G01*
X39872500Y-88136250D01*
G75*
G02*
X39628750Y-88380000I-243750J0D01*
G01*
X39141250Y-88380000D01*
G75*
G02*
X38897500Y-88136250I0J243750D01*
G01*
G37*
G36*
G01*
X66508250Y-96322500D02*
X65595750Y-96322500D01*
G75*
G02*
X65352000Y-96078750I0J243750D01*
G01*
X65352000Y-95591250D01*
G75*
G02*
X65595750Y-95347500I243750J0D01*
G01*
X66508250Y-95347500D01*
G75*
G02*
X66752000Y-95591250I0J-243750D01*
G01*
X66752000Y-96078750D01*
G75*
G02*
X66508250Y-96322500I-243750J0D01*
G01*
G37*
G36*
G01*
X66508250Y-94447500D02*
X65595750Y-94447500D01*
G75*
G02*
X65352000Y-94203750I0J243750D01*
G01*
X65352000Y-93716250D01*
G75*
G02*
X65595750Y-93472500I243750J0D01*
G01*
X66508250Y-93472500D01*
G75*
G02*
X66752000Y-93716250I0J-243750D01*
G01*
X66752000Y-94203750D01*
G75*
G02*
X66508250Y-94447500I-243750J0D01*
G01*
G37*
G36*
G01*
X69975000Y-33675000D02*
X69975000Y-32425000D01*
G75*
G02*
X70225000Y-32175000I250000J0D01*
G01*
X70975000Y-32175000D01*
G75*
G02*
X71225000Y-32425000I0J-250000D01*
G01*
X71225000Y-33675000D01*
G75*
G02*
X70975000Y-33925000I-250000J0D01*
G01*
X70225000Y-33925000D01*
G75*
G02*
X69975000Y-33675000I0J250000D01*
G01*
G37*
G36*
G01*
X67175000Y-33675000D02*
X67175000Y-32425000D01*
G75*
G02*
X67425000Y-32175000I250000J0D01*
G01*
X68175000Y-32175000D01*
G75*
G02*
X68425000Y-32425000I0J-250000D01*
G01*
X68425000Y-33675000D01*
G75*
G02*
X68175000Y-33925000I-250000J0D01*
G01*
X67425000Y-33925000D01*
G75*
G02*
X67175000Y-33675000I0J250000D01*
G01*
G37*
D16*
X36500000Y-29350000D03*
X36500000Y-34050000D03*
D17*
X59100000Y-31290000D03*
X63800000Y-31290000D03*
G36*
G01*
X47793750Y-22125000D02*
X48706250Y-22125000D01*
G75*
G02*
X48950000Y-22368750I0J-243750D01*
G01*
X48950000Y-22856250D01*
G75*
G02*
X48706250Y-23100000I-243750J0D01*
G01*
X47793750Y-23100000D01*
G75*
G02*
X47550000Y-22856250I0J243750D01*
G01*
X47550000Y-22368750D01*
G75*
G02*
X47793750Y-22125000I243750J0D01*
G01*
G37*
G36*
G01*
X47793750Y-24000000D02*
X48706250Y-24000000D01*
G75*
G02*
X48950000Y-24243750I0J-243750D01*
G01*
X48950000Y-24731250D01*
G75*
G02*
X48706250Y-24975000I-243750J0D01*
G01*
X47793750Y-24975000D01*
G75*
G02*
X47550000Y-24731250I0J243750D01*
G01*
X47550000Y-24243750D01*
G75*
G02*
X47793750Y-24000000I243750J0D01*
G01*
G37*
G36*
G01*
X50750000Y-27056250D02*
X50750000Y-26143750D01*
G75*
G02*
X50993750Y-25900000I243750J0D01*
G01*
X51481250Y-25900000D01*
G75*
G02*
X51725000Y-26143750I0J-243750D01*
G01*
X51725000Y-27056250D01*
G75*
G02*
X51481250Y-27300000I-243750J0D01*
G01*
X50993750Y-27300000D01*
G75*
G02*
X50750000Y-27056250I0J243750D01*
G01*
G37*
G36*
G01*
X48875000Y-27056250D02*
X48875000Y-26143750D01*
G75*
G02*
X49118750Y-25900000I243750J0D01*
G01*
X49606250Y-25900000D01*
G75*
G02*
X49850000Y-26143750I0J-243750D01*
G01*
X49850000Y-27056250D01*
G75*
G02*
X49606250Y-27300000I-243750J0D01*
G01*
X49118750Y-27300000D01*
G75*
G02*
X48875000Y-27056250I0J243750D01*
G01*
G37*
G36*
G01*
X93413000Y-30814000D02*
X92163000Y-30814000D01*
G75*
G02*
X91913000Y-30564000I0J250000D01*
G01*
X91913000Y-29814000D01*
G75*
G02*
X92163000Y-29564000I250000J0D01*
G01*
X93413000Y-29564000D01*
G75*
G02*
X93663000Y-29814000I0J-250000D01*
G01*
X93663000Y-30564000D01*
G75*
G02*
X93413000Y-30814000I-250000J0D01*
G01*
G37*
G36*
G01*
X93413000Y-33614000D02*
X92163000Y-33614000D01*
G75*
G02*
X91913000Y-33364000I0J250000D01*
G01*
X91913000Y-32614000D01*
G75*
G02*
X92163000Y-32364000I250000J0D01*
G01*
X93413000Y-32364000D01*
G75*
G02*
X93663000Y-32614000I0J-250000D01*
G01*
X93663000Y-33364000D01*
G75*
G02*
X93413000Y-33614000I-250000J0D01*
G01*
G37*
G36*
G01*
X103543750Y-68200000D02*
X104456250Y-68200000D01*
G75*
G02*
X104700000Y-68443750I0J-243750D01*
G01*
X104700000Y-68931250D01*
G75*
G02*
X104456250Y-69175000I-243750J0D01*
G01*
X103543750Y-69175000D01*
G75*
G02*
X103300000Y-68931250I0J243750D01*
G01*
X103300000Y-68443750D01*
G75*
G02*
X103543750Y-68200000I243750J0D01*
G01*
G37*
G36*
G01*
X103543750Y-66325000D02*
X104456250Y-66325000D01*
G75*
G02*
X104700000Y-66568750I0J-243750D01*
G01*
X104700000Y-67056250D01*
G75*
G02*
X104456250Y-67300000I-243750J0D01*
G01*
X103543750Y-67300000D01*
G75*
G02*
X103300000Y-67056250I0J243750D01*
G01*
X103300000Y-66568750D01*
G75*
G02*
X103543750Y-66325000I243750J0D01*
G01*
G37*
G36*
G01*
X82312500Y-64053750D02*
X82312500Y-64966250D01*
G75*
G02*
X82068750Y-65210000I-243750J0D01*
G01*
X81581250Y-65210000D01*
G75*
G02*
X81337500Y-64966250I0J243750D01*
G01*
X81337500Y-64053750D01*
G75*
G02*
X81581250Y-63810000I243750J0D01*
G01*
X82068750Y-63810000D01*
G75*
G02*
X82312500Y-64053750I0J-243750D01*
G01*
G37*
G36*
G01*
X80437500Y-64053750D02*
X80437500Y-64966250D01*
G75*
G02*
X80193750Y-65210000I-243750J0D01*
G01*
X79706250Y-65210000D01*
G75*
G02*
X79462500Y-64966250I0J243750D01*
G01*
X79462500Y-64053750D01*
G75*
G02*
X79706250Y-63810000I243750J0D01*
G01*
X80193750Y-63810000D01*
G75*
G02*
X80437500Y-64053750I0J-243750D01*
G01*
G37*
D18*
X111450000Y-54410000D03*
X111450000Y-53460000D03*
X111450000Y-52510000D03*
X109250000Y-52510000D03*
X109250000Y-54410000D03*
X109250000Y-53460000D03*
G36*
G01*
X117566250Y-70610000D02*
X116653750Y-70610000D01*
G75*
G02*
X116410000Y-70366250I0J243750D01*
G01*
X116410000Y-69878750D01*
G75*
G02*
X116653750Y-69635000I243750J0D01*
G01*
X117566250Y-69635000D01*
G75*
G02*
X117810000Y-69878750I0J-243750D01*
G01*
X117810000Y-70366250D01*
G75*
G02*
X117566250Y-70610000I-243750J0D01*
G01*
G37*
G36*
G01*
X117566250Y-72485000D02*
X116653750Y-72485000D01*
G75*
G02*
X116410000Y-72241250I0J243750D01*
G01*
X116410000Y-71753750D01*
G75*
G02*
X116653750Y-71510000I243750J0D01*
G01*
X117566250Y-71510000D01*
G75*
G02*
X117810000Y-71753750I0J-243750D01*
G01*
X117810000Y-72241250D01*
G75*
G02*
X117566250Y-72485000I-243750J0D01*
G01*
G37*
G36*
G01*
X30056250Y-32625000D02*
X29143750Y-32625000D01*
G75*
G02*
X28900000Y-32381250I0J243750D01*
G01*
X28900000Y-31893750D01*
G75*
G02*
X29143750Y-31650000I243750J0D01*
G01*
X30056250Y-31650000D01*
G75*
G02*
X30300000Y-31893750I0J-243750D01*
G01*
X30300000Y-32381250D01*
G75*
G02*
X30056250Y-32625000I-243750J0D01*
G01*
G37*
G36*
G01*
X30056250Y-30750000D02*
X29143750Y-30750000D01*
G75*
G02*
X28900000Y-30506250I0J243750D01*
G01*
X28900000Y-30018750D01*
G75*
G02*
X29143750Y-29775000I243750J0D01*
G01*
X30056250Y-29775000D01*
G75*
G02*
X30300000Y-30018750I0J-243750D01*
G01*
X30300000Y-30506250D01*
G75*
G02*
X30056250Y-30750000I-243750J0D01*
G01*
G37*
G36*
G01*
X49343750Y-34990000D02*
X50256250Y-34990000D01*
G75*
G02*
X50500000Y-35233750I0J-243750D01*
G01*
X50500000Y-35721250D01*
G75*
G02*
X50256250Y-35965000I-243750J0D01*
G01*
X49343750Y-35965000D01*
G75*
G02*
X49100000Y-35721250I0J243750D01*
G01*
X49100000Y-35233750D01*
G75*
G02*
X49343750Y-34990000I243750J0D01*
G01*
G37*
G36*
G01*
X49343750Y-33115000D02*
X50256250Y-33115000D01*
G75*
G02*
X50500000Y-33358750I0J-243750D01*
G01*
X50500000Y-33846250D01*
G75*
G02*
X50256250Y-34090000I-243750J0D01*
G01*
X49343750Y-34090000D01*
G75*
G02*
X49100000Y-33846250I0J243750D01*
G01*
X49100000Y-33358750D01*
G75*
G02*
X49343750Y-33115000I243750J0D01*
G01*
G37*
G36*
G01*
X67425000Y-36506250D02*
X67425000Y-35593750D01*
G75*
G02*
X67668750Y-35350000I243750J0D01*
G01*
X68156250Y-35350000D01*
G75*
G02*
X68400000Y-35593750I0J-243750D01*
G01*
X68400000Y-36506250D01*
G75*
G02*
X68156250Y-36750000I-243750J0D01*
G01*
X67668750Y-36750000D01*
G75*
G02*
X67425000Y-36506250I0J243750D01*
G01*
G37*
G36*
G01*
X69300000Y-36506250D02*
X69300000Y-35593750D01*
G75*
G02*
X69543750Y-35350000I243750J0D01*
G01*
X70031250Y-35350000D01*
G75*
G02*
X70275000Y-35593750I0J-243750D01*
G01*
X70275000Y-36506250D01*
G75*
G02*
X70031250Y-36750000I-243750J0D01*
G01*
X69543750Y-36750000D01*
G75*
G02*
X69300000Y-36506250I0J243750D01*
G01*
G37*
G36*
G01*
X56250000Y-24446250D02*
X56250000Y-23533750D01*
G75*
G02*
X56493750Y-23290000I243750J0D01*
G01*
X56981250Y-23290000D01*
G75*
G02*
X57225000Y-23533750I0J-243750D01*
G01*
X57225000Y-24446250D01*
G75*
G02*
X56981250Y-24690000I-243750J0D01*
G01*
X56493750Y-24690000D01*
G75*
G02*
X56250000Y-24446250I0J243750D01*
G01*
G37*
G36*
G01*
X54375000Y-24446250D02*
X54375000Y-23533750D01*
G75*
G02*
X54618750Y-23290000I243750J0D01*
G01*
X55106250Y-23290000D01*
G75*
G02*
X55350000Y-23533750I0J-243750D01*
G01*
X55350000Y-24446250D01*
G75*
G02*
X55106250Y-24690000I-243750J0D01*
G01*
X54618750Y-24690000D01*
G75*
G02*
X54375000Y-24446250I0J243750D01*
G01*
G37*
G36*
G01*
X89794250Y-33001500D02*
X88881750Y-33001500D01*
G75*
G02*
X88638000Y-32757750I0J243750D01*
G01*
X88638000Y-32270250D01*
G75*
G02*
X88881750Y-32026500I243750J0D01*
G01*
X89794250Y-32026500D01*
G75*
G02*
X90038000Y-32270250I0J-243750D01*
G01*
X90038000Y-32757750D01*
G75*
G02*
X89794250Y-33001500I-243750J0D01*
G01*
G37*
G36*
G01*
X89794250Y-31126500D02*
X88881750Y-31126500D01*
G75*
G02*
X88638000Y-30882750I0J243750D01*
G01*
X88638000Y-30395250D01*
G75*
G02*
X88881750Y-30151500I243750J0D01*
G01*
X89794250Y-30151500D01*
G75*
G02*
X90038000Y-30395250I0J-243750D01*
G01*
X90038000Y-30882750D01*
G75*
G02*
X89794250Y-31126500I-243750J0D01*
G01*
G37*
G36*
G01*
X87450000Y-68543750D02*
X87450000Y-69456250D01*
G75*
G02*
X87206250Y-69700000I-243750J0D01*
G01*
X86718750Y-69700000D01*
G75*
G02*
X86475000Y-69456250I0J243750D01*
G01*
X86475000Y-68543750D01*
G75*
G02*
X86718750Y-68300000I243750J0D01*
G01*
X87206250Y-68300000D01*
G75*
G02*
X87450000Y-68543750I0J-243750D01*
G01*
G37*
G36*
G01*
X89325000Y-68543750D02*
X89325000Y-69456250D01*
G75*
G02*
X89081250Y-69700000I-243750J0D01*
G01*
X88593750Y-69700000D01*
G75*
G02*
X88350000Y-69456250I0J243750D01*
G01*
X88350000Y-68543750D01*
G75*
G02*
X88593750Y-68300000I243750J0D01*
G01*
X89081250Y-68300000D01*
G75*
G02*
X89325000Y-68543750I0J-243750D01*
G01*
G37*
G36*
G01*
X80625000Y-66885000D02*
X80625000Y-68135000D01*
G75*
G02*
X80375000Y-68385000I-250000J0D01*
G01*
X79625000Y-68385000D01*
G75*
G02*
X79375000Y-68135000I0J250000D01*
G01*
X79375000Y-66885000D01*
G75*
G02*
X79625000Y-66635000I250000J0D01*
G01*
X80375000Y-66635000D01*
G75*
G02*
X80625000Y-66885000I0J-250000D01*
G01*
G37*
G36*
G01*
X83425000Y-66885000D02*
X83425000Y-68135000D01*
G75*
G02*
X83175000Y-68385000I-250000J0D01*
G01*
X82425000Y-68385000D01*
G75*
G02*
X82175000Y-68135000I0J250000D01*
G01*
X82175000Y-66885000D01*
G75*
G02*
X82425000Y-66635000I250000J0D01*
G01*
X83175000Y-66635000D01*
G75*
G02*
X83425000Y-66885000I0J-250000D01*
G01*
G37*
G36*
G01*
X69250000Y-70522000D02*
X68000000Y-70522000D01*
G75*
G02*
X67750000Y-70272000I0J250000D01*
G01*
X67750000Y-69522000D01*
G75*
G02*
X68000000Y-69272000I250000J0D01*
G01*
X69250000Y-69272000D01*
G75*
G02*
X69500000Y-69522000I0J-250000D01*
G01*
X69500000Y-70272000D01*
G75*
G02*
X69250000Y-70522000I-250000J0D01*
G01*
G37*
G36*
G01*
X69250000Y-67722000D02*
X68000000Y-67722000D01*
G75*
G02*
X67750000Y-67472000I0J250000D01*
G01*
X67750000Y-66722000D01*
G75*
G02*
X68000000Y-66472000I250000J0D01*
G01*
X69250000Y-66472000D01*
G75*
G02*
X69500000Y-66722000I0J-250000D01*
G01*
X69500000Y-67472000D01*
G75*
G02*
X69250000Y-67722000I-250000J0D01*
G01*
G37*
G36*
G01*
X42636000Y-68559000D02*
X41386000Y-68559000D01*
G75*
G02*
X41136000Y-68309000I0J250000D01*
G01*
X41136000Y-67559000D01*
G75*
G02*
X41386000Y-67309000I250000J0D01*
G01*
X42636000Y-67309000D01*
G75*
G02*
X42886000Y-67559000I0J-250000D01*
G01*
X42886000Y-68309000D01*
G75*
G02*
X42636000Y-68559000I-250000J0D01*
G01*
G37*
G36*
G01*
X42636000Y-65759000D02*
X41386000Y-65759000D01*
G75*
G02*
X41136000Y-65509000I0J250000D01*
G01*
X41136000Y-64759000D01*
G75*
G02*
X41386000Y-64509000I250000J0D01*
G01*
X42636000Y-64509000D01*
G75*
G02*
X42886000Y-64759000I0J-250000D01*
G01*
X42886000Y-65509000D01*
G75*
G02*
X42636000Y-65759000I-250000J0D01*
G01*
G37*
G36*
G01*
X65881250Y-68247000D02*
X64968750Y-68247000D01*
G75*
G02*
X64725000Y-68003250I0J243750D01*
G01*
X64725000Y-67515750D01*
G75*
G02*
X64968750Y-67272000I243750J0D01*
G01*
X65881250Y-67272000D01*
G75*
G02*
X66125000Y-67515750I0J-243750D01*
G01*
X66125000Y-68003250D01*
G75*
G02*
X65881250Y-68247000I-243750J0D01*
G01*
G37*
G36*
G01*
X65881250Y-70122000D02*
X64968750Y-70122000D01*
G75*
G02*
X64725000Y-69878250I0J243750D01*
G01*
X64725000Y-69390750D01*
G75*
G02*
X64968750Y-69147000I243750J0D01*
G01*
X65881250Y-69147000D01*
G75*
G02*
X66125000Y-69390750I0J-243750D01*
G01*
X66125000Y-69878250D01*
G75*
G02*
X65881250Y-70122000I-243750J0D01*
G01*
G37*
G36*
G01*
X38967250Y-67896500D02*
X38054750Y-67896500D01*
G75*
G02*
X37811000Y-67652750I0J243750D01*
G01*
X37811000Y-67165250D01*
G75*
G02*
X38054750Y-66921500I243750J0D01*
G01*
X38967250Y-66921500D01*
G75*
G02*
X39211000Y-67165250I0J-243750D01*
G01*
X39211000Y-67652750D01*
G75*
G02*
X38967250Y-67896500I-243750J0D01*
G01*
G37*
G36*
G01*
X38967250Y-66021500D02*
X38054750Y-66021500D01*
G75*
G02*
X37811000Y-65777750I0J243750D01*
G01*
X37811000Y-65290250D01*
G75*
G02*
X38054750Y-65046500I243750J0D01*
G01*
X38967250Y-65046500D01*
G75*
G02*
X39211000Y-65290250I0J-243750D01*
G01*
X39211000Y-65777750D01*
G75*
G02*
X38967250Y-66021500I-243750J0D01*
G01*
G37*
G36*
G01*
X53055000Y-71283750D02*
X53055000Y-72196250D01*
G75*
G02*
X52811250Y-72440000I-243750J0D01*
G01*
X52323750Y-72440000D01*
G75*
G02*
X52080000Y-72196250I0J243750D01*
G01*
X52080000Y-71283750D01*
G75*
G02*
X52323750Y-71040000I243750J0D01*
G01*
X52811250Y-71040000D01*
G75*
G02*
X53055000Y-71283750I0J-243750D01*
G01*
G37*
G36*
G01*
X51180000Y-71283750D02*
X51180000Y-72196250D01*
G75*
G02*
X50936250Y-72440000I-243750J0D01*
G01*
X50448750Y-72440000D01*
G75*
G02*
X50205000Y-72196250I0J243750D01*
G01*
X50205000Y-71283750D01*
G75*
G02*
X50448750Y-71040000I243750J0D01*
G01*
X50936250Y-71040000D01*
G75*
G02*
X51180000Y-71283750I0J-243750D01*
G01*
G37*
G36*
G01*
X25965000Y-69763750D02*
X25965000Y-70676250D01*
G75*
G02*
X25721250Y-70920000I-243750J0D01*
G01*
X25233750Y-70920000D01*
G75*
G02*
X24990000Y-70676250I0J243750D01*
G01*
X24990000Y-69763750D01*
G75*
G02*
X25233750Y-69520000I243750J0D01*
G01*
X25721250Y-69520000D01*
G75*
G02*
X25965000Y-69763750I0J-243750D01*
G01*
G37*
G36*
G01*
X24090000Y-69763750D02*
X24090000Y-70676250D01*
G75*
G02*
X23846250Y-70920000I-243750J0D01*
G01*
X23358750Y-70920000D01*
G75*
G02*
X23115000Y-70676250I0J243750D01*
G01*
X23115000Y-69763750D01*
G75*
G02*
X23358750Y-69520000I243750J0D01*
G01*
X23846250Y-69520000D01*
G75*
G02*
X24090000Y-69763750I0J-243750D01*
G01*
G37*
G36*
G01*
X50362500Y-65966250D02*
X50362500Y-65053750D01*
G75*
G02*
X50606250Y-64810000I243750J0D01*
G01*
X51093750Y-64810000D01*
G75*
G02*
X51337500Y-65053750I0J-243750D01*
G01*
X51337500Y-65966250D01*
G75*
G02*
X51093750Y-66210000I-243750J0D01*
G01*
X50606250Y-66210000D01*
G75*
G02*
X50362500Y-65966250I0J243750D01*
G01*
G37*
G36*
G01*
X52237500Y-65966250D02*
X52237500Y-65053750D01*
G75*
G02*
X52481250Y-64810000I243750J0D01*
G01*
X52968750Y-64810000D01*
G75*
G02*
X53212500Y-65053750I0J-243750D01*
G01*
X53212500Y-65966250D01*
G75*
G02*
X52968750Y-66210000I-243750J0D01*
G01*
X52481250Y-66210000D01*
G75*
G02*
X52237500Y-65966250I0J243750D01*
G01*
G37*
G36*
G01*
X24983500Y-63930250D02*
X24983500Y-63017750D01*
G75*
G02*
X25227250Y-62774000I243750J0D01*
G01*
X25714750Y-62774000D01*
G75*
G02*
X25958500Y-63017750I0J-243750D01*
G01*
X25958500Y-63930250D01*
G75*
G02*
X25714750Y-64174000I-243750J0D01*
G01*
X25227250Y-64174000D01*
G75*
G02*
X24983500Y-63930250I0J243750D01*
G01*
G37*
G36*
G01*
X23108500Y-63930250D02*
X23108500Y-63017750D01*
G75*
G02*
X23352250Y-62774000I243750J0D01*
G01*
X23839750Y-62774000D01*
G75*
G02*
X24083500Y-63017750I0J-243750D01*
G01*
X24083500Y-63930250D01*
G75*
G02*
X23839750Y-64174000I-243750J0D01*
G01*
X23352250Y-64174000D01*
G75*
G02*
X23108500Y-63930250I0J243750D01*
G01*
G37*
G36*
G01*
X52090000Y-68916250D02*
X52090000Y-68003750D01*
G75*
G02*
X52333750Y-67760000I243750J0D01*
G01*
X52821250Y-67760000D01*
G75*
G02*
X53065000Y-68003750I0J-243750D01*
G01*
X53065000Y-68916250D01*
G75*
G02*
X52821250Y-69160000I-243750J0D01*
G01*
X52333750Y-69160000D01*
G75*
G02*
X52090000Y-68916250I0J243750D01*
G01*
G37*
G36*
G01*
X50215000Y-68916250D02*
X50215000Y-68003750D01*
G75*
G02*
X50458750Y-67760000I243750J0D01*
G01*
X50946250Y-67760000D01*
G75*
G02*
X51190000Y-68003750I0J-243750D01*
G01*
X51190000Y-68916250D01*
G75*
G02*
X50946250Y-69160000I-243750J0D01*
G01*
X50458750Y-69160000D01*
G75*
G02*
X50215000Y-68916250I0J243750D01*
G01*
G37*
G36*
G01*
X25021000Y-67430250D02*
X25021000Y-66517750D01*
G75*
G02*
X25264750Y-66274000I243750J0D01*
G01*
X25752250Y-66274000D01*
G75*
G02*
X25996000Y-66517750I0J-243750D01*
G01*
X25996000Y-67430250D01*
G75*
G02*
X25752250Y-67674000I-243750J0D01*
G01*
X25264750Y-67674000D01*
G75*
G02*
X25021000Y-67430250I0J243750D01*
G01*
G37*
G36*
G01*
X23146000Y-67430250D02*
X23146000Y-66517750D01*
G75*
G02*
X23389750Y-66274000I243750J0D01*
G01*
X23877250Y-66274000D01*
G75*
G02*
X24121000Y-66517750I0J-243750D01*
G01*
X24121000Y-67430250D01*
G75*
G02*
X23877250Y-67674000I-243750J0D01*
G01*
X23389750Y-67674000D01*
G75*
G02*
X23146000Y-67430250I0J243750D01*
G01*
G37*
G36*
G01*
X57625000Y-70452000D02*
X57625000Y-70752000D01*
G75*
G02*
X57475000Y-70902000I-150000J0D01*
G01*
X55825000Y-70902000D01*
G75*
G02*
X55675000Y-70752000I0J150000D01*
G01*
X55675000Y-70452000D01*
G75*
G02*
X55825000Y-70302000I150000J0D01*
G01*
X57475000Y-70302000D01*
G75*
G02*
X57625000Y-70452000I0J-150000D01*
G01*
G37*
G36*
G01*
X57625000Y-69182000D02*
X57625000Y-69482000D01*
G75*
G02*
X57475000Y-69632000I-150000J0D01*
G01*
X55825000Y-69632000D01*
G75*
G02*
X55675000Y-69482000I0J150000D01*
G01*
X55675000Y-69182000D01*
G75*
G02*
X55825000Y-69032000I150000J0D01*
G01*
X57475000Y-69032000D01*
G75*
G02*
X57625000Y-69182000I0J-150000D01*
G01*
G37*
G36*
G01*
X57625000Y-67912000D02*
X57625000Y-68212000D01*
G75*
G02*
X57475000Y-68362000I-150000J0D01*
G01*
X55825000Y-68362000D01*
G75*
G02*
X55675000Y-68212000I0J150000D01*
G01*
X55675000Y-67912000D01*
G75*
G02*
X55825000Y-67762000I150000J0D01*
G01*
X57475000Y-67762000D01*
G75*
G02*
X57625000Y-67912000I0J-150000D01*
G01*
G37*
G36*
G01*
X57625000Y-66642000D02*
X57625000Y-66942000D01*
G75*
G02*
X57475000Y-67092000I-150000J0D01*
G01*
X55825000Y-67092000D01*
G75*
G02*
X55675000Y-66942000I0J150000D01*
G01*
X55675000Y-66642000D01*
G75*
G02*
X55825000Y-66492000I150000J0D01*
G01*
X57475000Y-66492000D01*
G75*
G02*
X57625000Y-66642000I0J-150000D01*
G01*
G37*
G36*
G01*
X62575000Y-66642000D02*
X62575000Y-66942000D01*
G75*
G02*
X62425000Y-67092000I-150000J0D01*
G01*
X60775000Y-67092000D01*
G75*
G02*
X60625000Y-66942000I0J150000D01*
G01*
X60625000Y-66642000D01*
G75*
G02*
X60775000Y-66492000I150000J0D01*
G01*
X62425000Y-66492000D01*
G75*
G02*
X62575000Y-66642000I0J-150000D01*
G01*
G37*
G36*
G01*
X62575000Y-67912000D02*
X62575000Y-68212000D01*
G75*
G02*
X62425000Y-68362000I-150000J0D01*
G01*
X60775000Y-68362000D01*
G75*
G02*
X60625000Y-68212000I0J150000D01*
G01*
X60625000Y-67912000D01*
G75*
G02*
X60775000Y-67762000I150000J0D01*
G01*
X62425000Y-67762000D01*
G75*
G02*
X62575000Y-67912000I0J-150000D01*
G01*
G37*
G36*
G01*
X62575000Y-69182000D02*
X62575000Y-69482000D01*
G75*
G02*
X62425000Y-69632000I-150000J0D01*
G01*
X60775000Y-69632000D01*
G75*
G02*
X60625000Y-69482000I0J150000D01*
G01*
X60625000Y-69182000D01*
G75*
G02*
X60775000Y-69032000I150000J0D01*
G01*
X62425000Y-69032000D01*
G75*
G02*
X62575000Y-69182000I0J-150000D01*
G01*
G37*
G36*
G01*
X62575000Y-70452000D02*
X62575000Y-70752000D01*
G75*
G02*
X62425000Y-70902000I-150000J0D01*
G01*
X60775000Y-70902000D01*
G75*
G02*
X60625000Y-70752000I0J150000D01*
G01*
X60625000Y-70452000D01*
G75*
G02*
X60775000Y-70302000I150000J0D01*
G01*
X62425000Y-70302000D01*
G75*
G02*
X62575000Y-70452000I0J-150000D01*
G01*
G37*
G36*
G01*
X30611000Y-68389000D02*
X30611000Y-68689000D01*
G75*
G02*
X30461000Y-68839000I-150000J0D01*
G01*
X28811000Y-68839000D01*
G75*
G02*
X28661000Y-68689000I0J150000D01*
G01*
X28661000Y-68389000D01*
G75*
G02*
X28811000Y-68239000I150000J0D01*
G01*
X30461000Y-68239000D01*
G75*
G02*
X30611000Y-68389000I0J-150000D01*
G01*
G37*
G36*
G01*
X30611000Y-67119000D02*
X30611000Y-67419000D01*
G75*
G02*
X30461000Y-67569000I-150000J0D01*
G01*
X28811000Y-67569000D01*
G75*
G02*
X28661000Y-67419000I0J150000D01*
G01*
X28661000Y-67119000D01*
G75*
G02*
X28811000Y-66969000I150000J0D01*
G01*
X30461000Y-66969000D01*
G75*
G02*
X30611000Y-67119000I0J-150000D01*
G01*
G37*
G36*
G01*
X30611000Y-65849000D02*
X30611000Y-66149000D01*
G75*
G02*
X30461000Y-66299000I-150000J0D01*
G01*
X28811000Y-66299000D01*
G75*
G02*
X28661000Y-66149000I0J150000D01*
G01*
X28661000Y-65849000D01*
G75*
G02*
X28811000Y-65699000I150000J0D01*
G01*
X30461000Y-65699000D01*
G75*
G02*
X30611000Y-65849000I0J-150000D01*
G01*
G37*
G36*
G01*
X30611000Y-64579000D02*
X30611000Y-64879000D01*
G75*
G02*
X30461000Y-65029000I-150000J0D01*
G01*
X28811000Y-65029000D01*
G75*
G02*
X28661000Y-64879000I0J150000D01*
G01*
X28661000Y-64579000D01*
G75*
G02*
X28811000Y-64429000I150000J0D01*
G01*
X30461000Y-64429000D01*
G75*
G02*
X30611000Y-64579000I0J-150000D01*
G01*
G37*
G36*
G01*
X35561000Y-64579000D02*
X35561000Y-64879000D01*
G75*
G02*
X35411000Y-65029000I-150000J0D01*
G01*
X33761000Y-65029000D01*
G75*
G02*
X33611000Y-64879000I0J150000D01*
G01*
X33611000Y-64579000D01*
G75*
G02*
X33761000Y-64429000I150000J0D01*
G01*
X35411000Y-64429000D01*
G75*
G02*
X35561000Y-64579000I0J-150000D01*
G01*
G37*
G36*
G01*
X35561000Y-65849000D02*
X35561000Y-66149000D01*
G75*
G02*
X35411000Y-66299000I-150000J0D01*
G01*
X33761000Y-66299000D01*
G75*
G02*
X33611000Y-66149000I0J150000D01*
G01*
X33611000Y-65849000D01*
G75*
G02*
X33761000Y-65699000I150000J0D01*
G01*
X35411000Y-65699000D01*
G75*
G02*
X35561000Y-65849000I0J-150000D01*
G01*
G37*
G36*
G01*
X35561000Y-67119000D02*
X35561000Y-67419000D01*
G75*
G02*
X35411000Y-67569000I-150000J0D01*
G01*
X33761000Y-67569000D01*
G75*
G02*
X33611000Y-67419000I0J150000D01*
G01*
X33611000Y-67119000D01*
G75*
G02*
X33761000Y-66969000I150000J0D01*
G01*
X35411000Y-66969000D01*
G75*
G02*
X35561000Y-67119000I0J-150000D01*
G01*
G37*
G36*
G01*
X35561000Y-68389000D02*
X35561000Y-68689000D01*
G75*
G02*
X35411000Y-68839000I-150000J0D01*
G01*
X33761000Y-68839000D01*
G75*
G02*
X33611000Y-68689000I0J150000D01*
G01*
X33611000Y-68389000D01*
G75*
G02*
X33761000Y-68239000I150000J0D01*
G01*
X35411000Y-68239000D01*
G75*
G02*
X35561000Y-68389000I0J-150000D01*
G01*
G37*
G36*
G01*
X42472000Y-81095000D02*
X41222000Y-81095000D01*
G75*
G02*
X40972000Y-80845000I0J250000D01*
G01*
X40972000Y-80095000D01*
G75*
G02*
X41222000Y-79845000I250000J0D01*
G01*
X42472000Y-79845000D01*
G75*
G02*
X42722000Y-80095000I0J-250000D01*
G01*
X42722000Y-80845000D01*
G75*
G02*
X42472000Y-81095000I-250000J0D01*
G01*
G37*
G36*
G01*
X42472000Y-78295000D02*
X41222000Y-78295000D01*
G75*
G02*
X40972000Y-78045000I0J250000D01*
G01*
X40972000Y-77295000D01*
G75*
G02*
X41222000Y-77045000I250000J0D01*
G01*
X42472000Y-77045000D01*
G75*
G02*
X42722000Y-77295000I0J-250000D01*
G01*
X42722000Y-78045000D01*
G75*
G02*
X42472000Y-78295000I-250000J0D01*
G01*
G37*
G36*
G01*
X39073250Y-78760000D02*
X38160750Y-78760000D01*
G75*
G02*
X37917000Y-78516250I0J243750D01*
G01*
X37917000Y-78028750D01*
G75*
G02*
X38160750Y-77785000I243750J0D01*
G01*
X39073250Y-77785000D01*
G75*
G02*
X39317000Y-78028750I0J-243750D01*
G01*
X39317000Y-78516250D01*
G75*
G02*
X39073250Y-78760000I-243750J0D01*
G01*
G37*
G36*
G01*
X39073250Y-80635000D02*
X38160750Y-80635000D01*
G75*
G02*
X37917000Y-80391250I0J243750D01*
G01*
X37917000Y-79903750D01*
G75*
G02*
X38160750Y-79660000I243750J0D01*
G01*
X39073250Y-79660000D01*
G75*
G02*
X39317000Y-79903750I0J-243750D01*
G01*
X39317000Y-80391250D01*
G75*
G02*
X39073250Y-80635000I-243750J0D01*
G01*
G37*
G36*
G01*
X26265000Y-81683750D02*
X26265000Y-82596250D01*
G75*
G02*
X26021250Y-82840000I-243750J0D01*
G01*
X25533750Y-82840000D01*
G75*
G02*
X25290000Y-82596250I0J243750D01*
G01*
X25290000Y-81683750D01*
G75*
G02*
X25533750Y-81440000I243750J0D01*
G01*
X26021250Y-81440000D01*
G75*
G02*
X26265000Y-81683750I0J-243750D01*
G01*
G37*
G36*
G01*
X24390000Y-81683750D02*
X24390000Y-82596250D01*
G75*
G02*
X24146250Y-82840000I-243750J0D01*
G01*
X23658750Y-82840000D01*
G75*
G02*
X23415000Y-82596250I0J243750D01*
G01*
X23415000Y-81683750D01*
G75*
G02*
X23658750Y-81440000I243750J0D01*
G01*
X24146250Y-81440000D01*
G75*
G02*
X24390000Y-81683750I0J-243750D01*
G01*
G37*
G36*
G01*
X25364500Y-75936250D02*
X25364500Y-75023750D01*
G75*
G02*
X25608250Y-74780000I243750J0D01*
G01*
X26095750Y-74780000D01*
G75*
G02*
X26339500Y-75023750I0J-243750D01*
G01*
X26339500Y-75936250D01*
G75*
G02*
X26095750Y-76180000I-243750J0D01*
G01*
X25608250Y-76180000D01*
G75*
G02*
X25364500Y-75936250I0J243750D01*
G01*
G37*
G36*
G01*
X23489500Y-75936250D02*
X23489500Y-75023750D01*
G75*
G02*
X23733250Y-74780000I243750J0D01*
G01*
X24220750Y-74780000D01*
G75*
G02*
X24464500Y-75023750I0J-243750D01*
G01*
X24464500Y-75936250D01*
G75*
G02*
X24220750Y-76180000I-243750J0D01*
G01*
X23733250Y-76180000D01*
G75*
G02*
X23489500Y-75936250I0J243750D01*
G01*
G37*
G36*
G01*
X23489500Y-79436250D02*
X23489500Y-78523750D01*
G75*
G02*
X23733250Y-78280000I243750J0D01*
G01*
X24220750Y-78280000D01*
G75*
G02*
X24464500Y-78523750I0J-243750D01*
G01*
X24464500Y-79436250D01*
G75*
G02*
X24220750Y-79680000I-243750J0D01*
G01*
X23733250Y-79680000D01*
G75*
G02*
X23489500Y-79436250I0J243750D01*
G01*
G37*
G36*
G01*
X25364500Y-79436250D02*
X25364500Y-78523750D01*
G75*
G02*
X25608250Y-78280000I243750J0D01*
G01*
X26095750Y-78280000D01*
G75*
G02*
X26339500Y-78523750I0J-243750D01*
G01*
X26339500Y-79436250D01*
G75*
G02*
X26095750Y-79680000I-243750J0D01*
G01*
X25608250Y-79680000D01*
G75*
G02*
X25364500Y-79436250I0J243750D01*
G01*
G37*
G36*
G01*
X35896999Y-80839999D02*
X35896999Y-81139999D01*
G75*
G02*
X35746999Y-81289999I-150000J0D01*
G01*
X34096999Y-81289999D01*
G75*
G02*
X33946999Y-81139999I0J150000D01*
G01*
X33946999Y-80839999D01*
G75*
G02*
X34096999Y-80689999I150000J0D01*
G01*
X35746999Y-80689999D01*
G75*
G02*
X35896999Y-80839999I0J-150000D01*
G01*
G37*
G36*
G01*
X35896999Y-79569999D02*
X35896999Y-79869999D01*
G75*
G02*
X35746999Y-80019999I-150000J0D01*
G01*
X34096999Y-80019999D01*
G75*
G02*
X33946999Y-79869999I0J150000D01*
G01*
X33946999Y-79569999D01*
G75*
G02*
X34096999Y-79419999I150000J0D01*
G01*
X35746999Y-79419999D01*
G75*
G02*
X35896999Y-79569999I0J-150000D01*
G01*
G37*
G36*
G01*
X35896999Y-78299999D02*
X35896999Y-78599999D01*
G75*
G02*
X35746999Y-78749999I-150000J0D01*
G01*
X34096999Y-78749999D01*
G75*
G02*
X33946999Y-78599999I0J150000D01*
G01*
X33946999Y-78299999D01*
G75*
G02*
X34096999Y-78149999I150000J0D01*
G01*
X35746999Y-78149999D01*
G75*
G02*
X35896999Y-78299999I0J-150000D01*
G01*
G37*
G36*
G01*
X35896999Y-77029999D02*
X35896999Y-77329999D01*
G75*
G02*
X35746999Y-77479999I-150000J0D01*
G01*
X34096999Y-77479999D01*
G75*
G02*
X33946999Y-77329999I0J150000D01*
G01*
X33946999Y-77029999D01*
G75*
G02*
X34096999Y-76879999I150000J0D01*
G01*
X35746999Y-76879999D01*
G75*
G02*
X35896999Y-77029999I0J-150000D01*
G01*
G37*
G36*
G01*
X30946999Y-77029999D02*
X30946999Y-77329999D01*
G75*
G02*
X30796999Y-77479999I-150000J0D01*
G01*
X29146999Y-77479999D01*
G75*
G02*
X28996999Y-77329999I0J150000D01*
G01*
X28996999Y-77029999D01*
G75*
G02*
X29146999Y-76879999I150000J0D01*
G01*
X30796999Y-76879999D01*
G75*
G02*
X30946999Y-77029999I0J-150000D01*
G01*
G37*
G36*
G01*
X30946999Y-78299999D02*
X30946999Y-78599999D01*
G75*
G02*
X30796999Y-78749999I-150000J0D01*
G01*
X29146999Y-78749999D01*
G75*
G02*
X28996999Y-78599999I0J150000D01*
G01*
X28996999Y-78299999D01*
G75*
G02*
X29146999Y-78149999I150000J0D01*
G01*
X30796999Y-78149999D01*
G75*
G02*
X30946999Y-78299999I0J-150000D01*
G01*
G37*
G36*
G01*
X30946999Y-79569999D02*
X30946999Y-79869999D01*
G75*
G02*
X30796999Y-80019999I-150000J0D01*
G01*
X29146999Y-80019999D01*
G75*
G02*
X28996999Y-79869999I0J150000D01*
G01*
X28996999Y-79569999D01*
G75*
G02*
X29146999Y-79419999I150000J0D01*
G01*
X30796999Y-79419999D01*
G75*
G02*
X30946999Y-79569999I0J-150000D01*
G01*
G37*
G36*
G01*
X30946999Y-80839999D02*
X30946999Y-81139999D01*
G75*
G02*
X30796999Y-81289999I-150000J0D01*
G01*
X29146999Y-81289999D01*
G75*
G02*
X28996999Y-81139999I0J150000D01*
G01*
X28996999Y-80839999D01*
G75*
G02*
X29146999Y-80689999I150000J0D01*
G01*
X30796999Y-80689999D01*
G75*
G02*
X30946999Y-80839999I0J-150000D01*
G01*
G37*
G36*
G01*
X62353500Y-92041750D02*
X62353500Y-92954250D01*
G75*
G02*
X62109750Y-93198000I-243750J0D01*
G01*
X61622250Y-93198000D01*
G75*
G02*
X61378500Y-92954250I0J243750D01*
G01*
X61378500Y-92041750D01*
G75*
G02*
X61622250Y-91798000I243750J0D01*
G01*
X62109750Y-91798000D01*
G75*
G02*
X62353500Y-92041750I0J-243750D01*
G01*
G37*
G36*
G01*
X64228500Y-92041750D02*
X64228500Y-92954250D01*
G75*
G02*
X63984750Y-93198000I-243750J0D01*
G01*
X63497250Y-93198000D01*
G75*
G02*
X63253500Y-92954250I0J243750D01*
G01*
X63253500Y-92041750D01*
G75*
G02*
X63497250Y-91798000I243750J0D01*
G01*
X63984750Y-91798000D01*
G75*
G02*
X64228500Y-92041750I0J-243750D01*
G01*
G37*
G36*
G01*
X33685000Y-73953750D02*
X33685000Y-74866250D01*
G75*
G02*
X33441250Y-75110000I-243750J0D01*
G01*
X32953750Y-75110000D01*
G75*
G02*
X32710000Y-74866250I0J243750D01*
G01*
X32710000Y-73953750D01*
G75*
G02*
X32953750Y-73710000I243750J0D01*
G01*
X33441250Y-73710000D01*
G75*
G02*
X33685000Y-73953750I0J-243750D01*
G01*
G37*
G36*
G01*
X31810000Y-73953750D02*
X31810000Y-74866250D01*
G75*
G02*
X31566250Y-75110000I-243750J0D01*
G01*
X31078750Y-75110000D01*
G75*
G02*
X30835000Y-74866250I0J243750D01*
G01*
X30835000Y-73953750D01*
G75*
G02*
X31078750Y-73710000I243750J0D01*
G01*
X31566250Y-73710000D01*
G75*
G02*
X31810000Y-73953750I0J-243750D01*
G01*
G37*
G36*
G01*
X60545000Y-63523750D02*
X60545000Y-64436250D01*
G75*
G02*
X60301250Y-64680000I-243750J0D01*
G01*
X59813750Y-64680000D01*
G75*
G02*
X59570000Y-64436250I0J243750D01*
G01*
X59570000Y-63523750D01*
G75*
G02*
X59813750Y-63280000I243750J0D01*
G01*
X60301250Y-63280000D01*
G75*
G02*
X60545000Y-63523750I0J-243750D01*
G01*
G37*
G36*
G01*
X58670000Y-63523750D02*
X58670000Y-64436250D01*
G75*
G02*
X58426250Y-64680000I-243750J0D01*
G01*
X57938750Y-64680000D01*
G75*
G02*
X57695000Y-64436250I0J243750D01*
G01*
X57695000Y-63523750D01*
G75*
G02*
X57938750Y-63280000I243750J0D01*
G01*
X58426250Y-63280000D01*
G75*
G02*
X58670000Y-63523750I0J-243750D01*
G01*
G37*
G36*
G01*
X33598500Y-61677750D02*
X33598500Y-62590250D01*
G75*
G02*
X33354750Y-62834000I-243750J0D01*
G01*
X32867250Y-62834000D01*
G75*
G02*
X32623500Y-62590250I0J243750D01*
G01*
X32623500Y-61677750D01*
G75*
G02*
X32867250Y-61434000I243750J0D01*
G01*
X33354750Y-61434000D01*
G75*
G02*
X33598500Y-61677750I0J-243750D01*
G01*
G37*
G36*
G01*
X31723500Y-61677750D02*
X31723500Y-62590250D01*
G75*
G02*
X31479750Y-62834000I-243750J0D01*
G01*
X30992250Y-62834000D01*
G75*
G02*
X30748500Y-62590250I0J243750D01*
G01*
X30748500Y-61677750D01*
G75*
G02*
X30992250Y-61434000I243750J0D01*
G01*
X31479750Y-61434000D01*
G75*
G02*
X31723500Y-61677750I0J-243750D01*
G01*
G37*
G36*
G01*
X61298500Y-95344250D02*
X61298500Y-94431750D01*
G75*
G02*
X61542250Y-94188000I243750J0D01*
G01*
X62029750Y-94188000D01*
G75*
G02*
X62273500Y-94431750I0J-243750D01*
G01*
X62273500Y-95344250D01*
G75*
G02*
X62029750Y-95588000I-243750J0D01*
G01*
X61542250Y-95588000D01*
G75*
G02*
X61298500Y-95344250I0J243750D01*
G01*
G37*
G36*
G01*
X63173500Y-95344250D02*
X63173500Y-94431750D01*
G75*
G02*
X63417250Y-94188000I243750J0D01*
G01*
X63904750Y-94188000D01*
G75*
G02*
X64148500Y-94431750I0J-243750D01*
G01*
X64148500Y-95344250D01*
G75*
G02*
X63904750Y-95588000I-243750J0D01*
G01*
X63417250Y-95588000D01*
G75*
G02*
X63173500Y-95344250I0J243750D01*
G01*
G37*
G36*
G01*
X68794250Y-112077500D02*
X67881750Y-112077500D01*
G75*
G02*
X67638000Y-111833750I0J243750D01*
G01*
X67638000Y-111346250D01*
G75*
G02*
X67881750Y-111102500I243750J0D01*
G01*
X68794250Y-111102500D01*
G75*
G02*
X69038000Y-111346250I0J-243750D01*
G01*
X69038000Y-111833750D01*
G75*
G02*
X68794250Y-112077500I-243750J0D01*
G01*
G37*
G36*
G01*
X68794250Y-113952500D02*
X67881750Y-113952500D01*
G75*
G02*
X67638000Y-113708750I0J243750D01*
G01*
X67638000Y-113221250D01*
G75*
G02*
X67881750Y-112977500I243750J0D01*
G01*
X68794250Y-112977500D01*
G75*
G02*
X69038000Y-113221250I0J-243750D01*
G01*
X69038000Y-113708750D01*
G75*
G02*
X68794250Y-113952500I-243750J0D01*
G01*
G37*
G36*
G01*
X96185000Y-114615000D02*
X96185000Y-113365000D01*
G75*
G02*
X96435000Y-113115000I250000J0D01*
G01*
X97185000Y-113115000D01*
G75*
G02*
X97435000Y-113365000I0J-250000D01*
G01*
X97435000Y-114615000D01*
G75*
G02*
X97185000Y-114865000I-250000J0D01*
G01*
X96435000Y-114865000D01*
G75*
G02*
X96185000Y-114615000I0J250000D01*
G01*
G37*
G36*
G01*
X98985000Y-114615000D02*
X98985000Y-113365000D01*
G75*
G02*
X99235000Y-113115000I250000J0D01*
G01*
X99985000Y-113115000D01*
G75*
G02*
X100235000Y-113365000I0J-250000D01*
G01*
X100235000Y-114615000D01*
G75*
G02*
X99985000Y-114865000I-250000J0D01*
G01*
X99235000Y-114865000D01*
G75*
G02*
X98985000Y-114615000I0J250000D01*
G01*
G37*
G36*
G01*
X98814500Y-111239250D02*
X98814500Y-110326750D01*
G75*
G02*
X99058250Y-110083000I243750J0D01*
G01*
X99545750Y-110083000D01*
G75*
G02*
X99789500Y-110326750I0J-243750D01*
G01*
X99789500Y-111239250D01*
G75*
G02*
X99545750Y-111483000I-243750J0D01*
G01*
X99058250Y-111483000D01*
G75*
G02*
X98814500Y-111239250I0J243750D01*
G01*
G37*
G36*
G01*
X96939500Y-111239250D02*
X96939500Y-110326750D01*
G75*
G02*
X97183250Y-110083000I243750J0D01*
G01*
X97670750Y-110083000D01*
G75*
G02*
X97914500Y-110326750I0J-243750D01*
G01*
X97914500Y-111239250D01*
G75*
G02*
X97670750Y-111483000I-243750J0D01*
G01*
X97183250Y-111483000D01*
G75*
G02*
X96939500Y-111239250I0J243750D01*
G01*
G37*
G36*
G01*
X80925000Y-103807750D02*
X80925000Y-104720250D01*
G75*
G02*
X80681250Y-104964000I-243750J0D01*
G01*
X80193750Y-104964000D01*
G75*
G02*
X79950000Y-104720250I0J243750D01*
G01*
X79950000Y-103807750D01*
G75*
G02*
X80193750Y-103564000I243750J0D01*
G01*
X80681250Y-103564000D01*
G75*
G02*
X80925000Y-103807750I0J-243750D01*
G01*
G37*
G36*
G01*
X79050000Y-103807750D02*
X79050000Y-104720250D01*
G75*
G02*
X78806250Y-104964000I-243750J0D01*
G01*
X78318750Y-104964000D01*
G75*
G02*
X78075000Y-104720250I0J243750D01*
G01*
X78075000Y-103807750D01*
G75*
G02*
X78318750Y-103564000I243750J0D01*
G01*
X78806250Y-103564000D01*
G75*
G02*
X79050000Y-103807750I0J-243750D01*
G01*
G37*
G36*
G01*
X80925000Y-106601750D02*
X80925000Y-107514250D01*
G75*
G02*
X80681250Y-107758000I-243750J0D01*
G01*
X80193750Y-107758000D01*
G75*
G02*
X79950000Y-107514250I0J243750D01*
G01*
X79950000Y-106601750D01*
G75*
G02*
X80193750Y-106358000I243750J0D01*
G01*
X80681250Y-106358000D01*
G75*
G02*
X80925000Y-106601750I0J-243750D01*
G01*
G37*
G36*
G01*
X79050000Y-106601750D02*
X79050000Y-107514250D01*
G75*
G02*
X78806250Y-107758000I-243750J0D01*
G01*
X78318750Y-107758000D01*
G75*
G02*
X78075000Y-107514250I0J243750D01*
G01*
X78075000Y-106601750D01*
G75*
G02*
X78318750Y-106358000I243750J0D01*
G01*
X78806250Y-106358000D01*
G75*
G02*
X79050000Y-106601750I0J-243750D01*
G01*
G37*
G36*
G01*
X77643750Y-112475000D02*
X78556250Y-112475000D01*
G75*
G02*
X78800000Y-112718750I0J-243750D01*
G01*
X78800000Y-113206250D01*
G75*
G02*
X78556250Y-113450000I-243750J0D01*
G01*
X77643750Y-113450000D01*
G75*
G02*
X77400000Y-113206250I0J243750D01*
G01*
X77400000Y-112718750D01*
G75*
G02*
X77643750Y-112475000I243750J0D01*
G01*
G37*
G36*
G01*
X77643750Y-114350000D02*
X78556250Y-114350000D01*
G75*
G02*
X78800000Y-114593750I0J-243750D01*
G01*
X78800000Y-115081250D01*
G75*
G02*
X78556250Y-115325000I-243750J0D01*
G01*
X77643750Y-115325000D01*
G75*
G02*
X77400000Y-115081250I0J243750D01*
G01*
X77400000Y-114593750D01*
G75*
G02*
X77643750Y-114350000I243750J0D01*
G01*
G37*
G36*
G01*
X74943750Y-114350000D02*
X75856250Y-114350000D01*
G75*
G02*
X76100000Y-114593750I0J-243750D01*
G01*
X76100000Y-115081250D01*
G75*
G02*
X75856250Y-115325000I-243750J0D01*
G01*
X74943750Y-115325000D01*
G75*
G02*
X74700000Y-115081250I0J243750D01*
G01*
X74700000Y-114593750D01*
G75*
G02*
X74943750Y-114350000I243750J0D01*
G01*
G37*
G36*
G01*
X74943750Y-112475000D02*
X75856250Y-112475000D01*
G75*
G02*
X76100000Y-112718750I0J-243750D01*
G01*
X76100000Y-113206250D01*
G75*
G02*
X75856250Y-113450000I-243750J0D01*
G01*
X74943750Y-113450000D01*
G75*
G02*
X74700000Y-113206250I0J243750D01*
G01*
X74700000Y-112718750D01*
G75*
G02*
X74943750Y-112475000I243750J0D01*
G01*
G37*
G36*
G01*
X94958250Y-96766500D02*
X94045750Y-96766500D01*
G75*
G02*
X93802000Y-96522750I0J243750D01*
G01*
X93802000Y-96035250D01*
G75*
G02*
X94045750Y-95791500I243750J0D01*
G01*
X94958250Y-95791500D01*
G75*
G02*
X95202000Y-96035250I0J-243750D01*
G01*
X95202000Y-96522750D01*
G75*
G02*
X94958250Y-96766500I-243750J0D01*
G01*
G37*
G36*
G01*
X94958250Y-98641500D02*
X94045750Y-98641500D01*
G75*
G02*
X93802000Y-98397750I0J243750D01*
G01*
X93802000Y-97910250D01*
G75*
G02*
X94045750Y-97666500I243750J0D01*
G01*
X94958250Y-97666500D01*
G75*
G02*
X95202000Y-97910250I0J-243750D01*
G01*
X95202000Y-98397750D01*
G75*
G02*
X94958250Y-98641500I-243750J0D01*
G01*
G37*
G36*
G01*
X50815000Y-95983750D02*
X50815000Y-96896250D01*
G75*
G02*
X50571250Y-97140000I-243750J0D01*
G01*
X50083750Y-97140000D01*
G75*
G02*
X49840000Y-96896250I0J243750D01*
G01*
X49840000Y-95983750D01*
G75*
G02*
X50083750Y-95740000I243750J0D01*
G01*
X50571250Y-95740000D01*
G75*
G02*
X50815000Y-95983750I0J-243750D01*
G01*
G37*
G36*
G01*
X48940000Y-95983750D02*
X48940000Y-96896250D01*
G75*
G02*
X48696250Y-97140000I-243750J0D01*
G01*
X48208750Y-97140000D01*
G75*
G02*
X47965000Y-96896250I0J243750D01*
G01*
X47965000Y-95983750D01*
G75*
G02*
X48208750Y-95740000I243750J0D01*
G01*
X48696250Y-95740000D01*
G75*
G02*
X48940000Y-95983750I0J-243750D01*
G01*
G37*
G36*
G01*
X54902700Y-111520000D02*
X54627700Y-111520000D01*
G75*
G02*
X54490200Y-111382500I0J137500D01*
G01*
X54490200Y-110182500D01*
G75*
G02*
X54627700Y-110045000I137500J0D01*
G01*
X54902700Y-110045000D01*
G75*
G02*
X55040200Y-110182500I0J-137500D01*
G01*
X55040200Y-111382500D01*
G75*
G02*
X54902700Y-111520000I-137500J0D01*
G01*
G37*
G36*
G01*
X55702700Y-111520000D02*
X55427700Y-111520000D01*
G75*
G02*
X55290200Y-111382500I0J137500D01*
G01*
X55290200Y-110182500D01*
G75*
G02*
X55427700Y-110045000I137500J0D01*
G01*
X55702700Y-110045000D01*
G75*
G02*
X55840200Y-110182500I0J-137500D01*
G01*
X55840200Y-111382500D01*
G75*
G02*
X55702700Y-111520000I-137500J0D01*
G01*
G37*
G36*
G01*
X56502700Y-111520000D02*
X56227700Y-111520000D01*
G75*
G02*
X56090200Y-111382500I0J137500D01*
G01*
X56090200Y-110182500D01*
G75*
G02*
X56227700Y-110045000I137500J0D01*
G01*
X56502700Y-110045000D01*
G75*
G02*
X56640200Y-110182500I0J-137500D01*
G01*
X56640200Y-111382500D01*
G75*
G02*
X56502700Y-111520000I-137500J0D01*
G01*
G37*
G36*
G01*
X57302700Y-111520000D02*
X57027700Y-111520000D01*
G75*
G02*
X56890200Y-111382500I0J137500D01*
G01*
X56890200Y-110182500D01*
G75*
G02*
X57027700Y-110045000I137500J0D01*
G01*
X57302700Y-110045000D01*
G75*
G02*
X57440200Y-110182500I0J-137500D01*
G01*
X57440200Y-111382500D01*
G75*
G02*
X57302700Y-111520000I-137500J0D01*
G01*
G37*
G36*
G01*
X58102700Y-111520000D02*
X57827700Y-111520000D01*
G75*
G02*
X57690200Y-111382500I0J137500D01*
G01*
X57690200Y-110182500D01*
G75*
G02*
X57827700Y-110045000I137500J0D01*
G01*
X58102700Y-110045000D01*
G75*
G02*
X58240200Y-110182500I0J-137500D01*
G01*
X58240200Y-111382500D01*
G75*
G02*
X58102700Y-111520000I-137500J0D01*
G01*
G37*
G36*
G01*
X58902700Y-111520000D02*
X58627700Y-111520000D01*
G75*
G02*
X58490200Y-111382500I0J137500D01*
G01*
X58490200Y-110182500D01*
G75*
G02*
X58627700Y-110045000I137500J0D01*
G01*
X58902700Y-110045000D01*
G75*
G02*
X59040200Y-110182500I0J-137500D01*
G01*
X59040200Y-111382500D01*
G75*
G02*
X58902700Y-111520000I-137500J0D01*
G01*
G37*
G36*
G01*
X59702700Y-111520000D02*
X59427700Y-111520000D01*
G75*
G02*
X59290200Y-111382500I0J137500D01*
G01*
X59290200Y-110182500D01*
G75*
G02*
X59427700Y-110045000I137500J0D01*
G01*
X59702700Y-110045000D01*
G75*
G02*
X59840200Y-110182500I0J-137500D01*
G01*
X59840200Y-111382500D01*
G75*
G02*
X59702700Y-111520000I-137500J0D01*
G01*
G37*
G36*
G01*
X60502700Y-111520000D02*
X60227700Y-111520000D01*
G75*
G02*
X60090200Y-111382500I0J137500D01*
G01*
X60090200Y-110182500D01*
G75*
G02*
X60227700Y-110045000I137500J0D01*
G01*
X60502700Y-110045000D01*
G75*
G02*
X60640200Y-110182500I0J-137500D01*
G01*
X60640200Y-111382500D01*
G75*
G02*
X60502700Y-111520000I-137500J0D01*
G01*
G37*
G36*
G01*
X61302700Y-111520000D02*
X61027700Y-111520000D01*
G75*
G02*
X60890200Y-111382500I0J137500D01*
G01*
X60890200Y-110182500D01*
G75*
G02*
X61027700Y-110045000I137500J0D01*
G01*
X61302700Y-110045000D01*
G75*
G02*
X61440200Y-110182500I0J-137500D01*
G01*
X61440200Y-111382500D01*
G75*
G02*
X61302700Y-111520000I-137500J0D01*
G01*
G37*
G36*
G01*
X62102700Y-111520000D02*
X61827700Y-111520000D01*
G75*
G02*
X61690200Y-111382500I0J137500D01*
G01*
X61690200Y-110182500D01*
G75*
G02*
X61827700Y-110045000I137500J0D01*
G01*
X62102700Y-110045000D01*
G75*
G02*
X62240200Y-110182500I0J-137500D01*
G01*
X62240200Y-111382500D01*
G75*
G02*
X62102700Y-111520000I-137500J0D01*
G01*
G37*
G36*
G01*
X62902700Y-111520000D02*
X62627700Y-111520000D01*
G75*
G02*
X62490200Y-111382500I0J137500D01*
G01*
X62490200Y-110182500D01*
G75*
G02*
X62627700Y-110045000I137500J0D01*
G01*
X62902700Y-110045000D01*
G75*
G02*
X63040200Y-110182500I0J-137500D01*
G01*
X63040200Y-111382500D01*
G75*
G02*
X62902700Y-111520000I-137500J0D01*
G01*
G37*
G36*
G01*
X65027700Y-109395000D02*
X63827700Y-109395000D01*
G75*
G02*
X63690200Y-109257500I0J137500D01*
G01*
X63690200Y-108982500D01*
G75*
G02*
X63827700Y-108845000I137500J0D01*
G01*
X65027700Y-108845000D01*
G75*
G02*
X65165200Y-108982500I0J-137500D01*
G01*
X65165200Y-109257500D01*
G75*
G02*
X65027700Y-109395000I-137500J0D01*
G01*
G37*
G36*
G01*
X65027700Y-108595000D02*
X63827700Y-108595000D01*
G75*
G02*
X63690200Y-108457500I0J137500D01*
G01*
X63690200Y-108182500D01*
G75*
G02*
X63827700Y-108045000I137500J0D01*
G01*
X65027700Y-108045000D01*
G75*
G02*
X65165200Y-108182500I0J-137500D01*
G01*
X65165200Y-108457500D01*
G75*
G02*
X65027700Y-108595000I-137500J0D01*
G01*
G37*
G36*
G01*
X65027700Y-107795000D02*
X63827700Y-107795000D01*
G75*
G02*
X63690200Y-107657500I0J137500D01*
G01*
X63690200Y-107382500D01*
G75*
G02*
X63827700Y-107245000I137500J0D01*
G01*
X65027700Y-107245000D01*
G75*
G02*
X65165200Y-107382500I0J-137500D01*
G01*
X65165200Y-107657500D01*
G75*
G02*
X65027700Y-107795000I-137500J0D01*
G01*
G37*
G36*
G01*
X65027700Y-106995000D02*
X63827700Y-106995000D01*
G75*
G02*
X63690200Y-106857500I0J137500D01*
G01*
X63690200Y-106582500D01*
G75*
G02*
X63827700Y-106445000I137500J0D01*
G01*
X65027700Y-106445000D01*
G75*
G02*
X65165200Y-106582500I0J-137500D01*
G01*
X65165200Y-106857500D01*
G75*
G02*
X65027700Y-106995000I-137500J0D01*
G01*
G37*
G36*
G01*
X65027700Y-106195000D02*
X63827700Y-106195000D01*
G75*
G02*
X63690200Y-106057500I0J137500D01*
G01*
X63690200Y-105782500D01*
G75*
G02*
X63827700Y-105645000I137500J0D01*
G01*
X65027700Y-105645000D01*
G75*
G02*
X65165200Y-105782500I0J-137500D01*
G01*
X65165200Y-106057500D01*
G75*
G02*
X65027700Y-106195000I-137500J0D01*
G01*
G37*
G36*
G01*
X65027700Y-105395000D02*
X63827700Y-105395000D01*
G75*
G02*
X63690200Y-105257500I0J137500D01*
G01*
X63690200Y-104982500D01*
G75*
G02*
X63827700Y-104845000I137500J0D01*
G01*
X65027700Y-104845000D01*
G75*
G02*
X65165200Y-104982500I0J-137500D01*
G01*
X65165200Y-105257500D01*
G75*
G02*
X65027700Y-105395000I-137500J0D01*
G01*
G37*
G36*
G01*
X65027700Y-104595000D02*
X63827700Y-104595000D01*
G75*
G02*
X63690200Y-104457500I0J137500D01*
G01*
X63690200Y-104182500D01*
G75*
G02*
X63827700Y-104045000I137500J0D01*
G01*
X65027700Y-104045000D01*
G75*
G02*
X65165200Y-104182500I0J-137500D01*
G01*
X65165200Y-104457500D01*
G75*
G02*
X65027700Y-104595000I-137500J0D01*
G01*
G37*
G36*
G01*
X65027700Y-103795000D02*
X63827700Y-103795000D01*
G75*
G02*
X63690200Y-103657500I0J137500D01*
G01*
X63690200Y-103382500D01*
G75*
G02*
X63827700Y-103245000I137500J0D01*
G01*
X65027700Y-103245000D01*
G75*
G02*
X65165200Y-103382500I0J-137500D01*
G01*
X65165200Y-103657500D01*
G75*
G02*
X65027700Y-103795000I-137500J0D01*
G01*
G37*
G36*
G01*
X65027700Y-102995000D02*
X63827700Y-102995000D01*
G75*
G02*
X63690200Y-102857500I0J137500D01*
G01*
X63690200Y-102582500D01*
G75*
G02*
X63827700Y-102445000I137500J0D01*
G01*
X65027700Y-102445000D01*
G75*
G02*
X65165200Y-102582500I0J-137500D01*
G01*
X65165200Y-102857500D01*
G75*
G02*
X65027700Y-102995000I-137500J0D01*
G01*
G37*
G36*
G01*
X65027700Y-102195000D02*
X63827700Y-102195000D01*
G75*
G02*
X63690200Y-102057500I0J137500D01*
G01*
X63690200Y-101782500D01*
G75*
G02*
X63827700Y-101645000I137500J0D01*
G01*
X65027700Y-101645000D01*
G75*
G02*
X65165200Y-101782500I0J-137500D01*
G01*
X65165200Y-102057500D01*
G75*
G02*
X65027700Y-102195000I-137500J0D01*
G01*
G37*
G36*
G01*
X65027700Y-101395000D02*
X63827700Y-101395000D01*
G75*
G02*
X63690200Y-101257500I0J137500D01*
G01*
X63690200Y-100982500D01*
G75*
G02*
X63827700Y-100845000I137500J0D01*
G01*
X65027700Y-100845000D01*
G75*
G02*
X65165200Y-100982500I0J-137500D01*
G01*
X65165200Y-101257500D01*
G75*
G02*
X65027700Y-101395000I-137500J0D01*
G01*
G37*
G36*
G01*
X62902700Y-100195000D02*
X62627700Y-100195000D01*
G75*
G02*
X62490200Y-100057500I0J137500D01*
G01*
X62490200Y-98857500D01*
G75*
G02*
X62627700Y-98720000I137500J0D01*
G01*
X62902700Y-98720000D01*
G75*
G02*
X63040200Y-98857500I0J-137500D01*
G01*
X63040200Y-100057500D01*
G75*
G02*
X62902700Y-100195000I-137500J0D01*
G01*
G37*
G36*
G01*
X62102700Y-100195000D02*
X61827700Y-100195000D01*
G75*
G02*
X61690200Y-100057500I0J137500D01*
G01*
X61690200Y-98857500D01*
G75*
G02*
X61827700Y-98720000I137500J0D01*
G01*
X62102700Y-98720000D01*
G75*
G02*
X62240200Y-98857500I0J-137500D01*
G01*
X62240200Y-100057500D01*
G75*
G02*
X62102700Y-100195000I-137500J0D01*
G01*
G37*
G36*
G01*
X61302700Y-100195000D02*
X61027700Y-100195000D01*
G75*
G02*
X60890200Y-100057500I0J137500D01*
G01*
X60890200Y-98857500D01*
G75*
G02*
X61027700Y-98720000I137500J0D01*
G01*
X61302700Y-98720000D01*
G75*
G02*
X61440200Y-98857500I0J-137500D01*
G01*
X61440200Y-100057500D01*
G75*
G02*
X61302700Y-100195000I-137500J0D01*
G01*
G37*
G36*
G01*
X60502700Y-100195000D02*
X60227700Y-100195000D01*
G75*
G02*
X60090200Y-100057500I0J137500D01*
G01*
X60090200Y-98857500D01*
G75*
G02*
X60227700Y-98720000I137500J0D01*
G01*
X60502700Y-98720000D01*
G75*
G02*
X60640200Y-98857500I0J-137500D01*
G01*
X60640200Y-100057500D01*
G75*
G02*
X60502700Y-100195000I-137500J0D01*
G01*
G37*
G36*
G01*
X59702700Y-100195000D02*
X59427700Y-100195000D01*
G75*
G02*
X59290200Y-100057500I0J137500D01*
G01*
X59290200Y-98857500D01*
G75*
G02*
X59427700Y-98720000I137500J0D01*
G01*
X59702700Y-98720000D01*
G75*
G02*
X59840200Y-98857500I0J-137500D01*
G01*
X59840200Y-100057500D01*
G75*
G02*
X59702700Y-100195000I-137500J0D01*
G01*
G37*
G36*
G01*
X58902700Y-100195000D02*
X58627700Y-100195000D01*
G75*
G02*
X58490200Y-100057500I0J137500D01*
G01*
X58490200Y-98857500D01*
G75*
G02*
X58627700Y-98720000I137500J0D01*
G01*
X58902700Y-98720000D01*
G75*
G02*
X59040200Y-98857500I0J-137500D01*
G01*
X59040200Y-100057500D01*
G75*
G02*
X58902700Y-100195000I-137500J0D01*
G01*
G37*
G36*
G01*
X58102700Y-100195000D02*
X57827700Y-100195000D01*
G75*
G02*
X57690200Y-100057500I0J137500D01*
G01*
X57690200Y-98857500D01*
G75*
G02*
X57827700Y-98720000I137500J0D01*
G01*
X58102700Y-98720000D01*
G75*
G02*
X58240200Y-98857500I0J-137500D01*
G01*
X58240200Y-100057500D01*
G75*
G02*
X58102700Y-100195000I-137500J0D01*
G01*
G37*
G36*
G01*
X57302700Y-100195000D02*
X57027700Y-100195000D01*
G75*
G02*
X56890200Y-100057500I0J137500D01*
G01*
X56890200Y-98857500D01*
G75*
G02*
X57027700Y-98720000I137500J0D01*
G01*
X57302700Y-98720000D01*
G75*
G02*
X57440200Y-98857500I0J-137500D01*
G01*
X57440200Y-100057500D01*
G75*
G02*
X57302700Y-100195000I-137500J0D01*
G01*
G37*
G36*
G01*
X56502700Y-100195000D02*
X56227700Y-100195000D01*
G75*
G02*
X56090200Y-100057500I0J137500D01*
G01*
X56090200Y-98857500D01*
G75*
G02*
X56227700Y-98720000I137500J0D01*
G01*
X56502700Y-98720000D01*
G75*
G02*
X56640200Y-98857500I0J-137500D01*
G01*
X56640200Y-100057500D01*
G75*
G02*
X56502700Y-100195000I-137500J0D01*
G01*
G37*
G36*
G01*
X55702700Y-100195000D02*
X55427700Y-100195000D01*
G75*
G02*
X55290200Y-100057500I0J137500D01*
G01*
X55290200Y-98857500D01*
G75*
G02*
X55427700Y-98720000I137500J0D01*
G01*
X55702700Y-98720000D01*
G75*
G02*
X55840200Y-98857500I0J-137500D01*
G01*
X55840200Y-100057500D01*
G75*
G02*
X55702700Y-100195000I-137500J0D01*
G01*
G37*
G36*
G01*
X54902700Y-100195000D02*
X54627700Y-100195000D01*
G75*
G02*
X54490200Y-100057500I0J137500D01*
G01*
X54490200Y-98857500D01*
G75*
G02*
X54627700Y-98720000I137500J0D01*
G01*
X54902700Y-98720000D01*
G75*
G02*
X55040200Y-98857500I0J-137500D01*
G01*
X55040200Y-100057500D01*
G75*
G02*
X54902700Y-100195000I-137500J0D01*
G01*
G37*
G36*
G01*
X53702700Y-101395000D02*
X52502700Y-101395000D01*
G75*
G02*
X52365200Y-101257500I0J137500D01*
G01*
X52365200Y-100982500D01*
G75*
G02*
X52502700Y-100845000I137500J0D01*
G01*
X53702700Y-100845000D01*
G75*
G02*
X53840200Y-100982500I0J-137500D01*
G01*
X53840200Y-101257500D01*
G75*
G02*
X53702700Y-101395000I-137500J0D01*
G01*
G37*
G36*
G01*
X53702700Y-102195000D02*
X52502700Y-102195000D01*
G75*
G02*
X52365200Y-102057500I0J137500D01*
G01*
X52365200Y-101782500D01*
G75*
G02*
X52502700Y-101645000I137500J0D01*
G01*
X53702700Y-101645000D01*
G75*
G02*
X53840200Y-101782500I0J-137500D01*
G01*
X53840200Y-102057500D01*
G75*
G02*
X53702700Y-102195000I-137500J0D01*
G01*
G37*
G36*
G01*
X53702700Y-102995000D02*
X52502700Y-102995000D01*
G75*
G02*
X52365200Y-102857500I0J137500D01*
G01*
X52365200Y-102582500D01*
G75*
G02*
X52502700Y-102445000I137500J0D01*
G01*
X53702700Y-102445000D01*
G75*
G02*
X53840200Y-102582500I0J-137500D01*
G01*
X53840200Y-102857500D01*
G75*
G02*
X53702700Y-102995000I-137500J0D01*
G01*
G37*
G36*
G01*
X53702700Y-103795000D02*
X52502700Y-103795000D01*
G75*
G02*
X52365200Y-103657500I0J137500D01*
G01*
X52365200Y-103382500D01*
G75*
G02*
X52502700Y-103245000I137500J0D01*
G01*
X53702700Y-103245000D01*
G75*
G02*
X53840200Y-103382500I0J-137500D01*
G01*
X53840200Y-103657500D01*
G75*
G02*
X53702700Y-103795000I-137500J0D01*
G01*
G37*
G36*
G01*
X53702700Y-104595000D02*
X52502700Y-104595000D01*
G75*
G02*
X52365200Y-104457500I0J137500D01*
G01*
X52365200Y-104182500D01*
G75*
G02*
X52502700Y-104045000I137500J0D01*
G01*
X53702700Y-104045000D01*
G75*
G02*
X53840200Y-104182500I0J-137500D01*
G01*
X53840200Y-104457500D01*
G75*
G02*
X53702700Y-104595000I-137500J0D01*
G01*
G37*
G36*
G01*
X53702700Y-105395000D02*
X52502700Y-105395000D01*
G75*
G02*
X52365200Y-105257500I0J137500D01*
G01*
X52365200Y-104982500D01*
G75*
G02*
X52502700Y-104845000I137500J0D01*
G01*
X53702700Y-104845000D01*
G75*
G02*
X53840200Y-104982500I0J-137500D01*
G01*
X53840200Y-105257500D01*
G75*
G02*
X53702700Y-105395000I-137500J0D01*
G01*
G37*
G36*
G01*
X53702700Y-106195000D02*
X52502700Y-106195000D01*
G75*
G02*
X52365200Y-106057500I0J137500D01*
G01*
X52365200Y-105782500D01*
G75*
G02*
X52502700Y-105645000I137500J0D01*
G01*
X53702700Y-105645000D01*
G75*
G02*
X53840200Y-105782500I0J-137500D01*
G01*
X53840200Y-106057500D01*
G75*
G02*
X53702700Y-106195000I-137500J0D01*
G01*
G37*
G36*
G01*
X53702700Y-106995000D02*
X52502700Y-106995000D01*
G75*
G02*
X52365200Y-106857500I0J137500D01*
G01*
X52365200Y-106582500D01*
G75*
G02*
X52502700Y-106445000I137500J0D01*
G01*
X53702700Y-106445000D01*
G75*
G02*
X53840200Y-106582500I0J-137500D01*
G01*
X53840200Y-106857500D01*
G75*
G02*
X53702700Y-106995000I-137500J0D01*
G01*
G37*
G36*
G01*
X53702700Y-107795000D02*
X52502700Y-107795000D01*
G75*
G02*
X52365200Y-107657500I0J137500D01*
G01*
X52365200Y-107382500D01*
G75*
G02*
X52502700Y-107245000I137500J0D01*
G01*
X53702700Y-107245000D01*
G75*
G02*
X53840200Y-107382500I0J-137500D01*
G01*
X53840200Y-107657500D01*
G75*
G02*
X53702700Y-107795000I-137500J0D01*
G01*
G37*
G36*
G01*
X53702700Y-108595000D02*
X52502700Y-108595000D01*
G75*
G02*
X52365200Y-108457500I0J137500D01*
G01*
X52365200Y-108182500D01*
G75*
G02*
X52502700Y-108045000I137500J0D01*
G01*
X53702700Y-108045000D01*
G75*
G02*
X53840200Y-108182500I0J-137500D01*
G01*
X53840200Y-108457500D01*
G75*
G02*
X53702700Y-108595000I-137500J0D01*
G01*
G37*
G36*
G01*
X53702700Y-109395000D02*
X52502700Y-109395000D01*
G75*
G02*
X52365200Y-109257500I0J137500D01*
G01*
X52365200Y-108982500D01*
G75*
G02*
X52502700Y-108845000I137500J0D01*
G01*
X53702700Y-108845000D01*
G75*
G02*
X53840200Y-108982500I0J-137500D01*
G01*
X53840200Y-109257500D01*
G75*
G02*
X53702700Y-109395000I-137500J0D01*
G01*
G37*
G36*
G01*
X97075000Y-97545000D02*
X97075000Y-96295000D01*
G75*
G02*
X97325000Y-96045000I250000J0D01*
G01*
X98075000Y-96045000D01*
G75*
G02*
X98325000Y-96295000I0J-250000D01*
G01*
X98325000Y-97545000D01*
G75*
G02*
X98075000Y-97795000I-250000J0D01*
G01*
X97325000Y-97795000D01*
G75*
G02*
X97075000Y-97545000I0J250000D01*
G01*
G37*
G36*
G01*
X99875000Y-97545000D02*
X99875000Y-96295000D01*
G75*
G02*
X100125000Y-96045000I250000J0D01*
G01*
X100875000Y-96045000D01*
G75*
G02*
X101125000Y-96295000I0J-250000D01*
G01*
X101125000Y-97545000D01*
G75*
G02*
X100875000Y-97795000I-250000J0D01*
G01*
X100125000Y-97795000D01*
G75*
G02*
X99875000Y-97545000I0J250000D01*
G01*
G37*
G36*
G01*
X43406250Y-27525000D02*
X42493750Y-27525000D01*
G75*
G02*
X42250000Y-27281250I0J243750D01*
G01*
X42250000Y-26793750D01*
G75*
G02*
X42493750Y-26550000I243750J0D01*
G01*
X43406250Y-26550000D01*
G75*
G02*
X43650000Y-26793750I0J-243750D01*
G01*
X43650000Y-27281250D01*
G75*
G02*
X43406250Y-27525000I-243750J0D01*
G01*
G37*
G36*
G01*
X43406250Y-25650000D02*
X42493750Y-25650000D01*
G75*
G02*
X42250000Y-25406250I0J243750D01*
G01*
X42250000Y-24918750D01*
G75*
G02*
X42493750Y-24675000I243750J0D01*
G01*
X43406250Y-24675000D01*
G75*
G02*
X43650000Y-24918750I0J-243750D01*
G01*
X43650000Y-25406250D01*
G75*
G02*
X43406250Y-25650000I-243750J0D01*
G01*
G37*
G36*
G01*
X56013750Y-41545000D02*
X56926250Y-41545000D01*
G75*
G02*
X57170000Y-41788750I0J-243750D01*
G01*
X57170000Y-42276250D01*
G75*
G02*
X56926250Y-42520000I-243750J0D01*
G01*
X56013750Y-42520000D01*
G75*
G02*
X55770000Y-42276250I0J243750D01*
G01*
X55770000Y-41788750D01*
G75*
G02*
X56013750Y-41545000I243750J0D01*
G01*
G37*
G36*
G01*
X56013750Y-43420000D02*
X56926250Y-43420000D01*
G75*
G02*
X57170000Y-43663750I0J-243750D01*
G01*
X57170000Y-44151250D01*
G75*
G02*
X56926250Y-44395000I-243750J0D01*
G01*
X56013750Y-44395000D01*
G75*
G02*
X55770000Y-44151250I0J243750D01*
G01*
X55770000Y-43663750D01*
G75*
G02*
X56013750Y-43420000I243750J0D01*
G01*
G37*
G36*
G01*
X62813500Y-49087250D02*
X62813500Y-48174750D01*
G75*
G02*
X63057250Y-47931000I243750J0D01*
G01*
X63544750Y-47931000D01*
G75*
G02*
X63788500Y-48174750I0J-243750D01*
G01*
X63788500Y-49087250D01*
G75*
G02*
X63544750Y-49331000I-243750J0D01*
G01*
X63057250Y-49331000D01*
G75*
G02*
X62813500Y-49087250I0J243750D01*
G01*
G37*
G36*
G01*
X64688500Y-49087250D02*
X64688500Y-48174750D01*
G75*
G02*
X64932250Y-47931000I243750J0D01*
G01*
X65419750Y-47931000D01*
G75*
G02*
X65663500Y-48174750I0J-243750D01*
G01*
X65663500Y-49087250D01*
G75*
G02*
X65419750Y-49331000I-243750J0D01*
G01*
X64932250Y-49331000D01*
G75*
G02*
X64688500Y-49087250I0J243750D01*
G01*
G37*
G36*
G01*
X57322500Y-47055250D02*
X57322500Y-46142750D01*
G75*
G02*
X57566250Y-45899000I243750J0D01*
G01*
X58053750Y-45899000D01*
G75*
G02*
X58297500Y-46142750I0J-243750D01*
G01*
X58297500Y-47055250D01*
G75*
G02*
X58053750Y-47299000I-243750J0D01*
G01*
X57566250Y-47299000D01*
G75*
G02*
X57322500Y-47055250I0J243750D01*
G01*
G37*
G36*
G01*
X55447500Y-47055250D02*
X55447500Y-46142750D01*
G75*
G02*
X55691250Y-45899000I243750J0D01*
G01*
X56178750Y-45899000D01*
G75*
G02*
X56422500Y-46142750I0J-243750D01*
G01*
X56422500Y-47055250D01*
G75*
G02*
X56178750Y-47299000I-243750J0D01*
G01*
X55691250Y-47299000D01*
G75*
G02*
X55447500Y-47055250I0J243750D01*
G01*
G37*
G36*
G01*
X45473750Y-90055000D02*
X46386250Y-90055000D01*
G75*
G02*
X46630000Y-90298750I0J-243750D01*
G01*
X46630000Y-90786250D01*
G75*
G02*
X46386250Y-91030000I-243750J0D01*
G01*
X45473750Y-91030000D01*
G75*
G02*
X45230000Y-90786250I0J243750D01*
G01*
X45230000Y-90298750D01*
G75*
G02*
X45473750Y-90055000I243750J0D01*
G01*
G37*
G36*
G01*
X45473750Y-91930000D02*
X46386250Y-91930000D01*
G75*
G02*
X46630000Y-92173750I0J-243750D01*
G01*
X46630000Y-92661250D01*
G75*
G02*
X46386250Y-92905000I-243750J0D01*
G01*
X45473750Y-92905000D01*
G75*
G02*
X45230000Y-92661250I0J243750D01*
G01*
X45230000Y-92173750D01*
G75*
G02*
X45473750Y-91930000I243750J0D01*
G01*
G37*
G36*
G01*
X48275000Y-89145000D02*
X49525000Y-89145000D01*
G75*
G02*
X49775000Y-89395000I0J-250000D01*
G01*
X49775000Y-90145000D01*
G75*
G02*
X49525000Y-90395000I-250000J0D01*
G01*
X48275000Y-90395000D01*
G75*
G02*
X48025000Y-90145000I0J250000D01*
G01*
X48025000Y-89395000D01*
G75*
G02*
X48275000Y-89145000I250000J0D01*
G01*
G37*
G36*
G01*
X48275000Y-91945000D02*
X49525000Y-91945000D01*
G75*
G02*
X49775000Y-92195000I0J-250000D01*
G01*
X49775000Y-92945000D01*
G75*
G02*
X49525000Y-93195000I-250000J0D01*
G01*
X48275000Y-93195000D01*
G75*
G02*
X48025000Y-92945000I0J250000D01*
G01*
X48025000Y-92195000D01*
G75*
G02*
X48275000Y-91945000I250000J0D01*
G01*
G37*
G36*
G01*
X114560000Y-36933750D02*
X114560000Y-37846250D01*
G75*
G02*
X114316250Y-38090000I-243750J0D01*
G01*
X113828750Y-38090000D01*
G75*
G02*
X113585000Y-37846250I0J243750D01*
G01*
X113585000Y-36933750D01*
G75*
G02*
X113828750Y-36690000I243750J0D01*
G01*
X114316250Y-36690000D01*
G75*
G02*
X114560000Y-36933750I0J-243750D01*
G01*
G37*
G36*
G01*
X116435000Y-36933750D02*
X116435000Y-37846250D01*
G75*
G02*
X116191250Y-38090000I-243750J0D01*
G01*
X115703750Y-38090000D01*
G75*
G02*
X115460000Y-37846250I0J243750D01*
G01*
X115460000Y-36933750D01*
G75*
G02*
X115703750Y-36690000I243750J0D01*
G01*
X116191250Y-36690000D01*
G75*
G02*
X116435000Y-36933750I0J-243750D01*
G01*
G37*
D15*
X30950000Y-53400000D03*
X26650000Y-53400000D03*
G36*
G01*
X34925000Y-55256250D02*
X34925000Y-54343750D01*
G75*
G02*
X35168750Y-54100000I243750J0D01*
G01*
X35656250Y-54100000D01*
G75*
G02*
X35900000Y-54343750I0J-243750D01*
G01*
X35900000Y-55256250D01*
G75*
G02*
X35656250Y-55500000I-243750J0D01*
G01*
X35168750Y-55500000D01*
G75*
G02*
X34925000Y-55256250I0J243750D01*
G01*
G37*
G36*
G01*
X36800000Y-55256250D02*
X36800000Y-54343750D01*
G75*
G02*
X37043750Y-54100000I243750J0D01*
G01*
X37531250Y-54100000D01*
G75*
G02*
X37775000Y-54343750I0J-243750D01*
G01*
X37775000Y-55256250D01*
G75*
G02*
X37531250Y-55500000I-243750J0D01*
G01*
X37043750Y-55500000D01*
G75*
G02*
X36800000Y-55256250I0J243750D01*
G01*
G37*
X67825000Y-24915000D03*
X72125000Y-24915000D03*
D19*
X75820000Y-54440000D03*
X75820000Y-56640000D03*
X77520000Y-56640000D03*
X77520000Y-54440000D03*
D20*
X110650000Y-88670000D03*
X112850000Y-88670000D03*
X112850000Y-90370000D03*
X110650000Y-90370000D03*
X73890000Y-98310000D03*
X76090000Y-98310000D03*
X76090000Y-96610000D03*
X73890000Y-96610000D03*
G36*
G01*
X104775000Y-45406250D02*
X104775000Y-44493750D01*
G75*
G02*
X105018750Y-44250000I243750J0D01*
G01*
X105506250Y-44250000D01*
G75*
G02*
X105750000Y-44493750I0J-243750D01*
G01*
X105750000Y-45406250D01*
G75*
G02*
X105506250Y-45650000I-243750J0D01*
G01*
X105018750Y-45650000D01*
G75*
G02*
X104775000Y-45406250I0J243750D01*
G01*
G37*
G36*
G01*
X106650000Y-45406250D02*
X106650000Y-44493750D01*
G75*
G02*
X106893750Y-44250000I243750J0D01*
G01*
X107381250Y-44250000D01*
G75*
G02*
X107625000Y-44493750I0J-243750D01*
G01*
X107625000Y-45406250D01*
G75*
G02*
X107381250Y-45650000I-243750J0D01*
G01*
X106893750Y-45650000D01*
G75*
G02*
X106650000Y-45406250I0J243750D01*
G01*
G37*
G36*
G01*
X88700000Y-45356250D02*
X88700000Y-44443750D01*
G75*
G02*
X88943750Y-44200000I243750J0D01*
G01*
X89431250Y-44200000D01*
G75*
G02*
X89675000Y-44443750I0J-243750D01*
G01*
X89675000Y-45356250D01*
G75*
G02*
X89431250Y-45600000I-243750J0D01*
G01*
X88943750Y-45600000D01*
G75*
G02*
X88700000Y-45356250I0J243750D01*
G01*
G37*
G36*
G01*
X86825000Y-45356250D02*
X86825000Y-44443750D01*
G75*
G02*
X87068750Y-44200000I243750J0D01*
G01*
X87556250Y-44200000D01*
G75*
G02*
X87800000Y-44443750I0J-243750D01*
G01*
X87800000Y-45356250D01*
G75*
G02*
X87556250Y-45600000I-243750J0D01*
G01*
X87068750Y-45600000D01*
G75*
G02*
X86825000Y-45356250I0J243750D01*
G01*
G37*
M02*
