G04 #@! TF.GenerationSoftware,KiCad,Pcbnew,5.1.5-52549c5~86~ubuntu16.04.1*
G04 #@! TF.CreationDate,2020-04-05T23:11:04+05:00*
G04 #@! TF.ProjectId,usb2most,75736232-6d6f-4737-942e-6b696361645f,rev?*
G04 #@! TF.SameCoordinates,Original*
G04 #@! TF.FileFunction,Soldermask,Bot*
G04 #@! TF.FilePolarity,Negative*
%FSLAX46Y46*%
G04 Gerber Fmt 4.6, Leading zero omitted, Abs format (unit mm)*
G04 Created by KiCad (PCBNEW 5.1.5-52549c5~86~ubuntu16.04.1) date 2020-04-05 23:11:04*
%MOMM*%
%LPD*%
G04 APERTURE LIST*
%ADD10C,0.100000*%
G04 APERTURE END LIST*
D10*
G36*
X24587324Y-107794731D02*
G01*
X24735443Y-107824194D01*
X24944729Y-107910884D01*
X25133082Y-108036737D01*
X25293263Y-108196918D01*
X25419116Y-108385271D01*
X25505806Y-108594557D01*
X25550000Y-108816735D01*
X25550000Y-109043265D01*
X25505806Y-109265443D01*
X25419116Y-109474729D01*
X25293263Y-109663082D01*
X25133082Y-109823263D01*
X24944729Y-109949116D01*
X24735443Y-110035806D01*
X24587324Y-110065269D01*
X24513266Y-110080000D01*
X24286734Y-110080000D01*
X24212676Y-110065269D01*
X24064557Y-110035806D01*
X23855271Y-109949116D01*
X23666918Y-109823263D01*
X23506737Y-109663082D01*
X23380884Y-109474729D01*
X23294194Y-109265443D01*
X23250000Y-109043265D01*
X23250000Y-108816735D01*
X23294194Y-108594557D01*
X23380884Y-108385271D01*
X23506737Y-108196918D01*
X23666918Y-108036737D01*
X23855271Y-107910884D01*
X24064557Y-107824194D01*
X24212676Y-107794731D01*
X24286734Y-107780000D01*
X24513266Y-107780000D01*
X24587324Y-107794731D01*
G37*
G36*
X39047738Y-108296653D02*
G01*
X39089598Y-108304979D01*
X39138596Y-108325275D01*
X39207889Y-108353977D01*
X39207890Y-108353978D01*
X39314351Y-108425112D01*
X39404888Y-108515649D01*
X39452418Y-108586784D01*
X39476023Y-108622111D01*
X39525021Y-108740403D01*
X39550000Y-108865979D01*
X39550000Y-108994021D01*
X39525021Y-109119597D01*
X39476023Y-109237889D01*
X39476022Y-109237890D01*
X39404888Y-109344351D01*
X39314351Y-109434888D01*
X39254727Y-109474727D01*
X39207889Y-109506023D01*
X39138596Y-109534725D01*
X39089598Y-109555021D01*
X39047738Y-109563347D01*
X38964021Y-109580000D01*
X38835979Y-109580000D01*
X38752262Y-109563347D01*
X38710402Y-109555021D01*
X38661404Y-109534725D01*
X38592111Y-109506023D01*
X38545273Y-109474727D01*
X38485649Y-109434888D01*
X38395112Y-109344351D01*
X38323978Y-109237890D01*
X38323977Y-109237889D01*
X38274979Y-109119597D01*
X38250000Y-108994021D01*
X38250000Y-108865979D01*
X38274979Y-108740403D01*
X38323977Y-108622111D01*
X38347582Y-108586784D01*
X38395112Y-108515649D01*
X38485649Y-108425112D01*
X38592110Y-108353978D01*
X38592111Y-108353977D01*
X38661404Y-108325275D01*
X38710402Y-108304979D01*
X38752262Y-108296653D01*
X38835979Y-108280000D01*
X38964021Y-108280000D01*
X39047738Y-108296653D01*
G37*
G36*
X39988766Y-104908821D02*
G01*
X40125257Y-104965358D01*
X40248097Y-105047437D01*
X40352563Y-105151903D01*
X40434642Y-105274743D01*
X40491179Y-105411234D01*
X40520000Y-105556130D01*
X40520000Y-105703870D01*
X40491179Y-105848766D01*
X40434642Y-105985257D01*
X40352563Y-106108097D01*
X40248097Y-106212563D01*
X40125257Y-106294642D01*
X39988766Y-106351179D01*
X39843870Y-106380000D01*
X39696130Y-106380000D01*
X39551234Y-106351179D01*
X39414743Y-106294642D01*
X39291903Y-106212563D01*
X39187437Y-106108097D01*
X39105358Y-105985257D01*
X39048821Y-105848766D01*
X39020000Y-105703870D01*
X39020000Y-105556130D01*
X39048821Y-105411234D01*
X39105358Y-105274743D01*
X39187437Y-105151903D01*
X39291903Y-105047437D01*
X39414743Y-104965358D01*
X39551234Y-104908821D01*
X39696130Y-104880000D01*
X39843870Y-104880000D01*
X39988766Y-104908821D01*
G37*
G36*
X39988766Y-102368821D02*
G01*
X40125257Y-102425358D01*
X40248097Y-102507437D01*
X40352563Y-102611903D01*
X40434642Y-102734743D01*
X40491179Y-102871234D01*
X40520000Y-103016130D01*
X40520000Y-103163870D01*
X40491179Y-103308766D01*
X40434642Y-103445257D01*
X40352563Y-103568097D01*
X40248097Y-103672563D01*
X40125257Y-103754642D01*
X39988766Y-103811179D01*
X39843870Y-103840000D01*
X39696130Y-103840000D01*
X39551234Y-103811179D01*
X39414743Y-103754642D01*
X39291903Y-103672563D01*
X39187437Y-103568097D01*
X39105358Y-103445257D01*
X39048821Y-103308766D01*
X39020000Y-103163870D01*
X39020000Y-103016130D01*
X39048821Y-102871234D01*
X39105358Y-102734743D01*
X39187437Y-102611903D01*
X39291903Y-102507437D01*
X39414743Y-102425358D01*
X39551234Y-102368821D01*
X39696130Y-102340000D01*
X39843870Y-102340000D01*
X39988766Y-102368821D01*
G37*
G36*
X22553617Y-100904979D02*
G01*
X22679196Y-100929958D01*
X22915781Y-101027955D01*
X23128702Y-101170224D01*
X23309776Y-101351298D01*
X23452045Y-101564219D01*
X23550042Y-101800804D01*
X23600000Y-102051961D01*
X23600000Y-102308039D01*
X23550042Y-102559196D01*
X23452045Y-102795781D01*
X23309776Y-103008702D01*
X23128702Y-103189776D01*
X22915781Y-103332045D01*
X22679196Y-103430042D01*
X22428040Y-103480000D01*
X22171960Y-103480000D01*
X21920804Y-103430042D01*
X21684219Y-103332045D01*
X21471298Y-103189776D01*
X21290224Y-103008702D01*
X21147955Y-102795781D01*
X21049958Y-102559196D01*
X21000000Y-102308039D01*
X21000000Y-102051961D01*
X21049958Y-101800804D01*
X21147955Y-101564219D01*
X21290224Y-101351298D01*
X21471298Y-101170224D01*
X21684219Y-101027955D01*
X21920804Y-100929958D01*
X22046383Y-100904979D01*
X22171960Y-100880000D01*
X22428040Y-100880000D01*
X22553617Y-100904979D01*
G37*
G36*
X39988766Y-99828821D02*
G01*
X40125257Y-99885358D01*
X40248097Y-99967437D01*
X40352563Y-100071903D01*
X40434642Y-100194743D01*
X40491179Y-100331234D01*
X40520000Y-100476130D01*
X40520000Y-100623870D01*
X40491179Y-100768766D01*
X40434642Y-100905257D01*
X40352563Y-101028097D01*
X40248097Y-101132563D01*
X40125257Y-101214642D01*
X39988766Y-101271179D01*
X39843870Y-101300000D01*
X39696130Y-101300000D01*
X39551234Y-101271179D01*
X39414743Y-101214642D01*
X39291903Y-101132563D01*
X39187437Y-101028097D01*
X39105358Y-100905257D01*
X39048821Y-100768766D01*
X39020000Y-100623870D01*
X39020000Y-100476130D01*
X39048821Y-100331234D01*
X39105358Y-100194743D01*
X39187437Y-100071903D01*
X39291903Y-99967437D01*
X39414743Y-99885358D01*
X39551234Y-99828821D01*
X39696130Y-99800000D01*
X39843870Y-99800000D01*
X39988766Y-99828821D01*
G37*
G36*
X41997738Y-99916653D02*
G01*
X42039598Y-99924979D01*
X42088596Y-99945275D01*
X42157889Y-99973977D01*
X42157890Y-99973978D01*
X42264351Y-100045112D01*
X42354888Y-100135649D01*
X42394372Y-100194742D01*
X42426023Y-100242111D01*
X42454725Y-100311404D01*
X42475021Y-100360402D01*
X42500000Y-100485981D01*
X42500000Y-100614019D01*
X42475021Y-100739598D01*
X42454725Y-100788596D01*
X42426023Y-100857889D01*
X42426022Y-100857890D01*
X42354888Y-100964351D01*
X42264351Y-101054888D01*
X42193216Y-101102418D01*
X42157889Y-101126023D01*
X42088596Y-101154725D01*
X42039598Y-101175021D01*
X41997738Y-101183347D01*
X41914021Y-101200000D01*
X41785979Y-101200000D01*
X41702262Y-101183347D01*
X41660402Y-101175021D01*
X41611404Y-101154725D01*
X41542111Y-101126023D01*
X41506784Y-101102418D01*
X41435649Y-101054888D01*
X41345112Y-100964351D01*
X41273978Y-100857890D01*
X41273977Y-100857889D01*
X41245275Y-100788596D01*
X41224979Y-100739598D01*
X41200000Y-100614019D01*
X41200000Y-100485981D01*
X41224979Y-100360402D01*
X41245275Y-100311404D01*
X41273977Y-100242111D01*
X41305628Y-100194742D01*
X41345112Y-100135649D01*
X41435649Y-100045112D01*
X41542110Y-99973978D01*
X41542111Y-99973977D01*
X41611404Y-99945275D01*
X41660402Y-99924979D01*
X41702262Y-99916653D01*
X41785979Y-99900000D01*
X41914021Y-99900000D01*
X41997738Y-99916653D01*
G37*
G36*
X39988766Y-97288821D02*
G01*
X40125257Y-97345358D01*
X40248097Y-97427437D01*
X40352563Y-97531903D01*
X40434642Y-97654743D01*
X40491179Y-97791234D01*
X40520000Y-97936130D01*
X40520000Y-98083870D01*
X40491179Y-98228766D01*
X40434642Y-98365257D01*
X40352563Y-98488097D01*
X40248097Y-98592563D01*
X40125257Y-98674642D01*
X39988766Y-98731179D01*
X39843870Y-98760000D01*
X39696130Y-98760000D01*
X39551234Y-98731179D01*
X39414743Y-98674642D01*
X39291903Y-98592563D01*
X39187437Y-98488097D01*
X39105358Y-98365257D01*
X39048821Y-98228766D01*
X39020000Y-98083870D01*
X39020000Y-97936130D01*
X39048821Y-97791234D01*
X39105358Y-97654743D01*
X39187437Y-97531903D01*
X39291903Y-97427437D01*
X39414743Y-97345358D01*
X39551234Y-97288821D01*
X39696130Y-97260000D01*
X39843870Y-97260000D01*
X39988766Y-97288821D01*
G37*
G36*
X37297738Y-95446653D02*
G01*
X37339598Y-95454979D01*
X37388596Y-95475275D01*
X37457889Y-95503977D01*
X37457890Y-95503978D01*
X37564351Y-95575112D01*
X37654888Y-95665649D01*
X37702418Y-95736784D01*
X37726023Y-95772111D01*
X37775021Y-95890403D01*
X37800000Y-96015979D01*
X37800000Y-96144021D01*
X37775021Y-96269597D01*
X37726023Y-96387889D01*
X37726022Y-96387890D01*
X37654888Y-96494351D01*
X37564351Y-96584888D01*
X37493216Y-96632418D01*
X37457889Y-96656023D01*
X37388596Y-96684725D01*
X37339598Y-96705021D01*
X37297738Y-96713347D01*
X37214021Y-96730000D01*
X37085979Y-96730000D01*
X37002262Y-96713347D01*
X36960402Y-96705021D01*
X36911404Y-96684725D01*
X36842111Y-96656023D01*
X36806784Y-96632418D01*
X36735649Y-96584888D01*
X36645112Y-96494351D01*
X36573978Y-96387890D01*
X36573977Y-96387889D01*
X36524979Y-96269597D01*
X36500000Y-96144021D01*
X36500000Y-96015979D01*
X36524979Y-95890403D01*
X36573977Y-95772111D01*
X36597582Y-95736784D01*
X36645112Y-95665649D01*
X36735649Y-95575112D01*
X36842110Y-95503978D01*
X36842111Y-95503977D01*
X36911404Y-95475275D01*
X36960402Y-95454979D01*
X37002262Y-95446653D01*
X37085979Y-95430000D01*
X37214021Y-95430000D01*
X37297738Y-95446653D01*
G37*
G36*
X39988766Y-93428821D02*
G01*
X40125257Y-93485358D01*
X40248097Y-93567437D01*
X40352563Y-93671903D01*
X40434642Y-93794743D01*
X40491179Y-93931234D01*
X40520000Y-94076130D01*
X40520000Y-94223870D01*
X40491179Y-94368766D01*
X40434642Y-94505257D01*
X40352563Y-94628097D01*
X40248097Y-94732563D01*
X40125257Y-94814642D01*
X39988766Y-94871179D01*
X39843870Y-94900000D01*
X39696130Y-94900000D01*
X39551234Y-94871179D01*
X39414743Y-94814642D01*
X39291903Y-94732563D01*
X39187437Y-94628097D01*
X39105358Y-94505257D01*
X39048821Y-94368766D01*
X39020000Y-94223870D01*
X39020000Y-94076130D01*
X39048821Y-93931234D01*
X39105358Y-93794743D01*
X39187437Y-93671903D01*
X39291903Y-93567437D01*
X39414743Y-93485358D01*
X39551234Y-93428821D01*
X39696130Y-93400000D01*
X39843870Y-93400000D01*
X39988766Y-93428821D01*
G37*
G36*
X73193351Y-91570743D02*
G01*
X73338941Y-91631048D01*
X73469970Y-91718599D01*
X73581401Y-91830030D01*
X73668952Y-91961059D01*
X73729257Y-92106649D01*
X73760000Y-92261206D01*
X73760000Y-92418794D01*
X73729257Y-92573351D01*
X73668952Y-92718941D01*
X73581401Y-92849970D01*
X73469970Y-92961401D01*
X73338941Y-93048952D01*
X73193351Y-93109257D01*
X73038794Y-93140000D01*
X72881206Y-93140000D01*
X72726649Y-93109257D01*
X72581059Y-93048952D01*
X72450030Y-92961401D01*
X72338599Y-92849970D01*
X72251048Y-92718941D01*
X72190743Y-92573351D01*
X72160000Y-92418794D01*
X72160000Y-92261206D01*
X72190743Y-92106649D01*
X72251048Y-91961059D01*
X72338599Y-91830030D01*
X72450030Y-91718599D01*
X72581059Y-91631048D01*
X72726649Y-91570743D01*
X72881206Y-91540000D01*
X73038794Y-91540000D01*
X73193351Y-91570743D01*
G37*
G36*
X78073351Y-91570743D02*
G01*
X78218941Y-91631048D01*
X78349970Y-91718599D01*
X78461401Y-91830030D01*
X78548952Y-91961059D01*
X78609257Y-92106649D01*
X78640000Y-92261206D01*
X78640000Y-92418794D01*
X78609257Y-92573351D01*
X78548952Y-92718941D01*
X78461401Y-92849970D01*
X78349970Y-92961401D01*
X78218941Y-93048952D01*
X78073351Y-93109257D01*
X77918794Y-93140000D01*
X77761206Y-93140000D01*
X77606649Y-93109257D01*
X77461059Y-93048952D01*
X77330030Y-92961401D01*
X77218599Y-92849970D01*
X77131048Y-92718941D01*
X77070743Y-92573351D01*
X77040000Y-92418794D01*
X77040000Y-92261206D01*
X77070743Y-92106649D01*
X77131048Y-91961059D01*
X77218599Y-91830030D01*
X77330030Y-91718599D01*
X77461059Y-91631048D01*
X77606649Y-91570743D01*
X77761206Y-91540000D01*
X77918794Y-91540000D01*
X78073351Y-91570743D01*
G37*
G36*
X39988766Y-90888821D02*
G01*
X40125257Y-90945358D01*
X40248097Y-91027437D01*
X40352563Y-91131903D01*
X40434642Y-91254743D01*
X40491179Y-91391234D01*
X40520000Y-91536130D01*
X40520000Y-91683870D01*
X40491179Y-91828766D01*
X40434642Y-91965257D01*
X40352563Y-92088097D01*
X40248097Y-92192563D01*
X40125257Y-92274642D01*
X39988766Y-92331179D01*
X39843870Y-92360000D01*
X39696130Y-92360000D01*
X39551234Y-92331179D01*
X39414743Y-92274642D01*
X39291903Y-92192563D01*
X39187437Y-92088097D01*
X39105358Y-91965257D01*
X39048821Y-91828766D01*
X39020000Y-91683870D01*
X39020000Y-91536130D01*
X39048821Y-91391234D01*
X39105358Y-91254743D01*
X39187437Y-91131903D01*
X39291903Y-91027437D01*
X39414743Y-90945358D01*
X39551234Y-90888821D01*
X39696130Y-90860000D01*
X39843870Y-90860000D01*
X39988766Y-90888821D01*
G37*
G36*
X39988766Y-88348821D02*
G01*
X40125257Y-88405358D01*
X40248097Y-88487437D01*
X40352563Y-88591903D01*
X40434642Y-88714743D01*
X40491179Y-88851234D01*
X40520000Y-88996130D01*
X40520000Y-89143870D01*
X40491179Y-89288766D01*
X40434642Y-89425257D01*
X40352563Y-89548097D01*
X40248097Y-89652563D01*
X40125257Y-89734642D01*
X39988766Y-89791179D01*
X39843870Y-89820000D01*
X39696130Y-89820000D01*
X39551234Y-89791179D01*
X39414743Y-89734642D01*
X39291903Y-89652563D01*
X39187437Y-89548097D01*
X39105358Y-89425257D01*
X39048821Y-89288766D01*
X39020000Y-89143870D01*
X39020000Y-88996130D01*
X39048821Y-88851234D01*
X39105358Y-88714743D01*
X39187437Y-88591903D01*
X39291903Y-88487437D01*
X39414743Y-88405358D01*
X39551234Y-88348821D01*
X39696130Y-88320000D01*
X39843870Y-88320000D01*
X39988766Y-88348821D01*
G37*
G36*
X33901645Y-87194641D02*
G01*
X34079196Y-87229958D01*
X34315781Y-87327955D01*
X34528702Y-87470224D01*
X34709776Y-87651298D01*
X34852045Y-87864219D01*
X34852046Y-87864221D01*
X34950042Y-88100805D01*
X34999376Y-88348821D01*
X35000000Y-88351961D01*
X35000000Y-88608039D01*
X34950042Y-88859196D01*
X34852045Y-89095781D01*
X34709776Y-89308702D01*
X34528702Y-89489776D01*
X34315781Y-89632045D01*
X34079196Y-89730042D01*
X33953617Y-89755021D01*
X33828040Y-89780000D01*
X33571960Y-89780000D01*
X33446383Y-89755021D01*
X33320804Y-89730042D01*
X33084219Y-89632045D01*
X32871298Y-89489776D01*
X32690224Y-89308702D01*
X32547955Y-89095781D01*
X32449958Y-88859196D01*
X32400000Y-88608039D01*
X32400000Y-88351961D01*
X32400625Y-88348821D01*
X32449958Y-88100805D01*
X32547954Y-87864221D01*
X32547955Y-87864219D01*
X32690224Y-87651298D01*
X32871298Y-87470224D01*
X33084219Y-87327955D01*
X33320804Y-87229958D01*
X33498355Y-87194641D01*
X33571960Y-87180000D01*
X33828040Y-87180000D01*
X33901645Y-87194641D01*
G37*
G36*
X41997738Y-88436653D02*
G01*
X42039598Y-88444979D01*
X42088596Y-88465275D01*
X42157889Y-88493977D01*
X42157890Y-88493978D01*
X42264351Y-88565112D01*
X42354888Y-88655649D01*
X42394372Y-88714742D01*
X42426023Y-88762111D01*
X42454725Y-88831404D01*
X42475021Y-88880402D01*
X42500000Y-89005981D01*
X42500000Y-89134019D01*
X42475021Y-89259598D01*
X42454725Y-89308596D01*
X42426023Y-89377889D01*
X42426022Y-89377890D01*
X42354888Y-89484351D01*
X42264351Y-89574888D01*
X42193216Y-89622418D01*
X42157889Y-89646023D01*
X42088596Y-89674725D01*
X42039598Y-89695021D01*
X41997738Y-89703347D01*
X41914021Y-89720000D01*
X41785979Y-89720000D01*
X41702262Y-89703347D01*
X41660402Y-89695021D01*
X41611404Y-89674725D01*
X41542111Y-89646023D01*
X41506784Y-89622418D01*
X41435649Y-89574888D01*
X41345112Y-89484351D01*
X41273978Y-89377890D01*
X41273977Y-89377889D01*
X41245275Y-89308596D01*
X41224979Y-89259598D01*
X41200000Y-89134019D01*
X41200000Y-89005981D01*
X41224979Y-88880402D01*
X41245275Y-88831404D01*
X41273977Y-88762111D01*
X41305628Y-88714742D01*
X41345112Y-88655649D01*
X41435649Y-88565112D01*
X41542110Y-88493978D01*
X41542111Y-88493977D01*
X41611404Y-88465275D01*
X41660402Y-88444979D01*
X41702262Y-88436653D01*
X41785979Y-88420000D01*
X41914021Y-88420000D01*
X41997738Y-88436653D01*
G37*
G36*
X108601162Y-85753586D02*
G01*
X108775041Y-85788173D01*
X109102620Y-85923861D01*
X109397433Y-86120849D01*
X109648151Y-86371567D01*
X109771805Y-86556628D01*
X109845140Y-86666382D01*
X109857245Y-86695606D01*
X109980827Y-86993959D01*
X110050000Y-87341716D01*
X110050000Y-87696284D01*
X109980827Y-88044041D01*
X109868420Y-88315415D01*
X109853283Y-88351960D01*
X109845139Y-88371620D01*
X109648151Y-88666433D01*
X109397433Y-88917151D01*
X109102620Y-89114139D01*
X108775041Y-89249827D01*
X108601162Y-89284414D01*
X108427286Y-89319000D01*
X108072714Y-89319000D01*
X107898838Y-89284414D01*
X107724959Y-89249827D01*
X107397380Y-89114139D01*
X107102567Y-88917151D01*
X106851849Y-88666433D01*
X106654861Y-88371620D01*
X106646718Y-88351960D01*
X106631580Y-88315415D01*
X106519173Y-88044041D01*
X106450000Y-87696284D01*
X106450000Y-87341716D01*
X106519173Y-86993959D01*
X106642755Y-86695606D01*
X106654860Y-86666382D01*
X106728195Y-86556628D01*
X106851849Y-86371567D01*
X107102567Y-86120849D01*
X107397380Y-85923861D01*
X107724959Y-85788173D01*
X107898838Y-85753586D01*
X108072714Y-85719000D01*
X108427286Y-85719000D01*
X108601162Y-85753586D01*
G37*
G36*
X39988766Y-85808821D02*
G01*
X40125257Y-85865358D01*
X40248097Y-85947437D01*
X40352563Y-86051903D01*
X40434642Y-86174743D01*
X40491179Y-86311234D01*
X40520000Y-86456130D01*
X40520000Y-86603870D01*
X40491179Y-86748766D01*
X40434642Y-86885257D01*
X40352563Y-87008097D01*
X40248097Y-87112563D01*
X40125257Y-87194642D01*
X39988766Y-87251179D01*
X39843870Y-87280000D01*
X39696130Y-87280000D01*
X39551234Y-87251179D01*
X39414743Y-87194642D01*
X39291903Y-87112563D01*
X39187437Y-87008097D01*
X39105358Y-86885257D01*
X39048821Y-86748766D01*
X39020000Y-86603870D01*
X39020000Y-86456130D01*
X39048821Y-86311234D01*
X39105358Y-86174743D01*
X39187437Y-86051903D01*
X39291903Y-85947437D01*
X39414743Y-85865358D01*
X39551234Y-85808821D01*
X39696130Y-85780000D01*
X39843870Y-85780000D01*
X39988766Y-85808821D01*
G37*
G36*
X105018471Y-85452859D02*
G01*
X105096827Y-85460576D01*
X105247628Y-85506321D01*
X105247630Y-85506322D01*
X105386605Y-85580606D01*
X105508422Y-85680578D01*
X105608394Y-85802395D01*
X105642049Y-85865359D01*
X105682679Y-85941372D01*
X105728424Y-86092173D01*
X105743870Y-86249000D01*
X105728424Y-86405827D01*
X105713164Y-86456131D01*
X105682678Y-86556630D01*
X105608394Y-86695605D01*
X105508422Y-86817422D01*
X105386605Y-86917394D01*
X105247630Y-86991678D01*
X105247628Y-86991679D01*
X105096827Y-87037424D01*
X105018471Y-87045141D01*
X104979294Y-87049000D01*
X103900706Y-87049000D01*
X103861529Y-87045141D01*
X103783173Y-87037424D01*
X103632372Y-86991679D01*
X103632370Y-86991678D01*
X103493395Y-86917394D01*
X103371578Y-86817422D01*
X103271606Y-86695605D01*
X103197322Y-86556630D01*
X103166836Y-86456131D01*
X103151576Y-86405827D01*
X103136130Y-86249000D01*
X103151576Y-86092173D01*
X103197321Y-85941372D01*
X103237951Y-85865359D01*
X103271606Y-85802395D01*
X103371578Y-85680578D01*
X103493395Y-85580606D01*
X103632370Y-85506322D01*
X103632372Y-85506321D01*
X103783173Y-85460576D01*
X103861529Y-85452859D01*
X103900706Y-85449000D01*
X104979294Y-85449000D01*
X105018471Y-85452859D01*
G37*
G36*
X24587324Y-84094731D02*
G01*
X24735443Y-84124194D01*
X24944729Y-84210884D01*
X25133082Y-84336737D01*
X25293263Y-84496918D01*
X25419116Y-84685271D01*
X25505806Y-84894557D01*
X25550000Y-85116735D01*
X25550000Y-85343265D01*
X25505806Y-85565443D01*
X25419116Y-85774729D01*
X25293263Y-85963082D01*
X25133082Y-86123263D01*
X24944729Y-86249116D01*
X24735443Y-86335806D01*
X24587324Y-86365269D01*
X24513266Y-86380000D01*
X24286734Y-86380000D01*
X24212676Y-86365269D01*
X24064557Y-86335806D01*
X23855271Y-86249116D01*
X23666918Y-86123263D01*
X23506737Y-85963082D01*
X23380884Y-85774729D01*
X23294194Y-85565443D01*
X23250000Y-85343265D01*
X23250000Y-85116735D01*
X23294194Y-84894557D01*
X23380884Y-84685271D01*
X23506737Y-84496918D01*
X23666918Y-84336737D01*
X23855271Y-84210884D01*
X24064557Y-84124194D01*
X24212676Y-84094731D01*
X24286734Y-84080000D01*
X24513266Y-84080000D01*
X24587324Y-84094731D01*
G37*
G36*
X105018471Y-82912859D02*
G01*
X105096827Y-82920576D01*
X105247628Y-82966321D01*
X105247630Y-82966322D01*
X105386605Y-83040606D01*
X105386607Y-83040607D01*
X105386606Y-83040607D01*
X105508422Y-83140578D01*
X105608393Y-83262394D01*
X105682679Y-83401372D01*
X105728424Y-83552173D01*
X105743870Y-83709000D01*
X105728424Y-83865827D01*
X105682679Y-84016628D01*
X105682678Y-84016630D01*
X105608394Y-84155605D01*
X105508422Y-84277422D01*
X105386605Y-84377394D01*
X105247630Y-84451678D01*
X105247628Y-84451679D01*
X105096827Y-84497424D01*
X105018471Y-84505141D01*
X104979294Y-84509000D01*
X103900706Y-84509000D01*
X103861529Y-84505141D01*
X103783173Y-84497424D01*
X103632372Y-84451679D01*
X103632370Y-84451678D01*
X103493395Y-84377394D01*
X103371578Y-84277422D01*
X103271606Y-84155605D01*
X103197322Y-84016630D01*
X103197321Y-84016628D01*
X103151576Y-83865827D01*
X103136130Y-83709000D01*
X103151576Y-83552173D01*
X103197321Y-83401372D01*
X103271607Y-83262394D01*
X103371578Y-83140578D01*
X103493394Y-83040607D01*
X103493393Y-83040607D01*
X103493395Y-83040606D01*
X103632370Y-82966322D01*
X103632372Y-82966321D01*
X103783173Y-82920576D01*
X103861529Y-82912859D01*
X103900706Y-82909000D01*
X104979294Y-82909000D01*
X105018471Y-82912859D01*
G37*
G36*
X105740000Y-81969000D02*
G01*
X103140000Y-81969000D01*
X103140000Y-80369000D01*
X105740000Y-80369000D01*
X105740000Y-81969000D01*
G37*
G36*
X108601163Y-78133587D02*
G01*
X108775041Y-78168173D01*
X109102620Y-78303861D01*
X109397433Y-78500849D01*
X109648151Y-78751567D01*
X109845139Y-79046380D01*
X109980827Y-79373959D01*
X110050000Y-79721716D01*
X110050000Y-80076284D01*
X109980827Y-80424041D01*
X109845139Y-80751620D01*
X109648151Y-81046433D01*
X109397433Y-81297151D01*
X109102620Y-81494139D01*
X108775041Y-81629827D01*
X108601162Y-81664414D01*
X108427286Y-81699000D01*
X108072714Y-81699000D01*
X107898838Y-81664414D01*
X107724959Y-81629827D01*
X107397380Y-81494139D01*
X107102567Y-81297151D01*
X106851849Y-81046433D01*
X106654861Y-80751620D01*
X106519173Y-80424041D01*
X106450000Y-80076284D01*
X106450000Y-79721716D01*
X106519173Y-79373959D01*
X106654861Y-79046380D01*
X106851849Y-78751567D01*
X107102567Y-78500849D01*
X107397380Y-78303861D01*
X107724959Y-78168173D01*
X107898837Y-78133587D01*
X108072714Y-78099000D01*
X108427286Y-78099000D01*
X108601163Y-78133587D01*
G37*
G36*
X60783351Y-73630743D02*
G01*
X60928941Y-73691048D01*
X61059970Y-73778599D01*
X61171401Y-73890030D01*
X61258952Y-74021059D01*
X61319257Y-74166649D01*
X61350000Y-74321206D01*
X61350000Y-74478794D01*
X61319257Y-74633351D01*
X61258952Y-74778941D01*
X61171401Y-74909970D01*
X61059970Y-75021401D01*
X60928941Y-75108952D01*
X60783351Y-75169257D01*
X60628794Y-75200000D01*
X60471206Y-75200000D01*
X60316649Y-75169257D01*
X60171059Y-75108952D01*
X60040030Y-75021401D01*
X59928599Y-74909970D01*
X59841048Y-74778941D01*
X59780743Y-74633351D01*
X59750000Y-74478794D01*
X59750000Y-74321206D01*
X59780743Y-74166649D01*
X59841048Y-74021059D01*
X59928599Y-73890030D01*
X60040030Y-73778599D01*
X60171059Y-73691048D01*
X60316649Y-73630743D01*
X60471206Y-73600000D01*
X60628794Y-73600000D01*
X60783351Y-73630743D01*
G37*
G36*
X55903351Y-73630743D02*
G01*
X56048941Y-73691048D01*
X56179970Y-73778599D01*
X56291401Y-73890030D01*
X56378952Y-74021059D01*
X56439257Y-74166649D01*
X56470000Y-74321206D01*
X56470000Y-74478794D01*
X56439257Y-74633351D01*
X56378952Y-74778941D01*
X56291401Y-74909970D01*
X56179970Y-75021401D01*
X56048941Y-75108952D01*
X55903351Y-75169257D01*
X55748794Y-75200000D01*
X55591206Y-75200000D01*
X55436649Y-75169257D01*
X55291059Y-75108952D01*
X55160030Y-75021401D01*
X55048599Y-74909970D01*
X54961048Y-74778941D01*
X54900743Y-74633351D01*
X54870000Y-74478794D01*
X54870000Y-74321206D01*
X54900743Y-74166649D01*
X54961048Y-74021059D01*
X55048599Y-73890030D01*
X55160030Y-73778599D01*
X55291059Y-73691048D01*
X55436649Y-73630743D01*
X55591206Y-73600000D01*
X55748794Y-73600000D01*
X55903351Y-73630743D01*
G37*
G36*
X112545486Y-61805229D02*
G01*
X112557423Y-61806405D01*
X112618685Y-61824989D01*
X112679948Y-61843573D01*
X112792868Y-61903930D01*
X112891843Y-61985157D01*
X112973070Y-62084132D01*
X113033427Y-62197052D01*
X113070595Y-62319578D01*
X113083145Y-62447000D01*
X113070595Y-62574422D01*
X113033427Y-62696948D01*
X112973070Y-62809868D01*
X112891843Y-62908843D01*
X112792868Y-62990070D01*
X112679948Y-63050427D01*
X112618685Y-63069011D01*
X112557423Y-63087595D01*
X112545486Y-63088771D01*
X112461932Y-63097000D01*
X111698068Y-63097000D01*
X111614514Y-63088771D01*
X111602577Y-63087595D01*
X111541315Y-63069011D01*
X111480052Y-63050427D01*
X111367132Y-62990070D01*
X111268157Y-62908843D01*
X111186930Y-62809868D01*
X111126573Y-62696948D01*
X111089405Y-62574422D01*
X111076855Y-62447000D01*
X111089405Y-62319578D01*
X111126573Y-62197052D01*
X111186930Y-62084132D01*
X111268157Y-61985157D01*
X111367132Y-61903930D01*
X111480052Y-61843573D01*
X111541315Y-61824989D01*
X111602577Y-61806405D01*
X111614514Y-61805229D01*
X111698068Y-61797000D01*
X112461932Y-61797000D01*
X112545486Y-61805229D01*
G37*
G36*
X109606059Y-60701782D02*
G01*
X109747099Y-60760203D01*
X109747100Y-60760204D01*
X109874034Y-60845018D01*
X109981982Y-60952966D01*
X109981983Y-60952968D01*
X110066797Y-61079901D01*
X110125218Y-61220941D01*
X110155000Y-61370668D01*
X110155000Y-61523332D01*
X110125218Y-61673059D01*
X110066797Y-61814099D01*
X110066796Y-61814100D01*
X109981982Y-61941034D01*
X109874034Y-62048982D01*
X109821428Y-62084132D01*
X109747099Y-62133797D01*
X109606059Y-62192218D01*
X109456332Y-62222000D01*
X109303668Y-62222000D01*
X109153941Y-62192218D01*
X109012901Y-62133797D01*
X108938572Y-62084132D01*
X108885966Y-62048982D01*
X108778018Y-61941034D01*
X108693204Y-61814100D01*
X108693203Y-61814099D01*
X108634782Y-61673059D01*
X108605000Y-61523332D01*
X108605000Y-61370668D01*
X108634782Y-61220941D01*
X108693203Y-61079901D01*
X108778017Y-60952968D01*
X108778018Y-60952966D01*
X108885966Y-60845018D01*
X109012900Y-60760204D01*
X109012901Y-60760203D01*
X109153941Y-60701782D01*
X109303668Y-60672000D01*
X109456332Y-60672000D01*
X109606059Y-60701782D01*
G37*
G36*
X109606059Y-55701782D02*
G01*
X109747099Y-55760203D01*
X109747100Y-55760204D01*
X109874034Y-55845018D01*
X109981982Y-55952966D01*
X109981983Y-55952968D01*
X110066797Y-56079901D01*
X110125218Y-56220941D01*
X110155000Y-56370668D01*
X110155000Y-56523332D01*
X110125218Y-56673059D01*
X110066797Y-56814099D01*
X110066796Y-56814100D01*
X109981982Y-56941034D01*
X109874034Y-57048982D01*
X109810136Y-57091677D01*
X109747099Y-57133797D01*
X109606059Y-57192218D01*
X109456332Y-57222000D01*
X109303668Y-57222000D01*
X109153941Y-57192218D01*
X109012901Y-57133797D01*
X108949864Y-57091677D01*
X108885966Y-57048982D01*
X108778018Y-56941034D01*
X108693204Y-56814100D01*
X108693203Y-56814099D01*
X108634782Y-56673059D01*
X108605000Y-56523332D01*
X108605000Y-56370668D01*
X108634782Y-56220941D01*
X108693203Y-56079901D01*
X108778017Y-55952968D01*
X108778018Y-55952966D01*
X108885966Y-55845018D01*
X109012900Y-55760204D01*
X109012901Y-55760203D01*
X109153941Y-55701782D01*
X109303668Y-55672000D01*
X109456332Y-55672000D01*
X109606059Y-55701782D01*
G37*
G36*
X112545486Y-54805229D02*
G01*
X112557423Y-54806405D01*
X112618685Y-54824989D01*
X112679948Y-54843573D01*
X112792868Y-54903930D01*
X112891843Y-54985157D01*
X112973070Y-55084132D01*
X113033427Y-55197052D01*
X113033427Y-55197053D01*
X113067324Y-55308793D01*
X113070595Y-55319578D01*
X113083145Y-55447000D01*
X113071720Y-55562998D01*
X113070595Y-55574423D01*
X113052011Y-55635685D01*
X113033427Y-55696948D01*
X112973070Y-55809868D01*
X112891843Y-55908843D01*
X112792868Y-55990070D01*
X112679948Y-56050427D01*
X112618685Y-56069011D01*
X112557423Y-56087595D01*
X112545486Y-56088771D01*
X112461932Y-56097000D01*
X111698068Y-56097000D01*
X111614514Y-56088771D01*
X111602577Y-56087595D01*
X111541315Y-56069011D01*
X111480052Y-56050427D01*
X111367132Y-55990070D01*
X111268157Y-55908843D01*
X111186930Y-55809868D01*
X111126573Y-55696948D01*
X111107989Y-55635685D01*
X111089405Y-55574423D01*
X111088280Y-55562998D01*
X111076855Y-55447000D01*
X111089405Y-55319578D01*
X111092677Y-55308793D01*
X111126573Y-55197053D01*
X111126573Y-55197052D01*
X111186930Y-55084132D01*
X111268157Y-54985157D01*
X111367132Y-54903930D01*
X111480052Y-54843573D01*
X111541315Y-54824989D01*
X111602577Y-54806405D01*
X111614514Y-54805229D01*
X111698068Y-54797000D01*
X112461932Y-54797000D01*
X112545486Y-54805229D01*
G37*
G36*
X72433351Y-54460743D02*
G01*
X72578941Y-54521048D01*
X72709970Y-54608599D01*
X72821401Y-54720030D01*
X72908952Y-54851059D01*
X72969257Y-54996649D01*
X73000000Y-55151206D01*
X73000000Y-55308794D01*
X72969257Y-55463351D01*
X72908952Y-55608941D01*
X72821401Y-55739970D01*
X72709970Y-55851401D01*
X72578941Y-55938952D01*
X72433351Y-55999257D01*
X72278794Y-56030000D01*
X72121206Y-56030000D01*
X71966649Y-55999257D01*
X71821059Y-55938952D01*
X71690030Y-55851401D01*
X71578599Y-55739970D01*
X71491048Y-55608941D01*
X71430743Y-55463351D01*
X71400000Y-55308794D01*
X71400000Y-55151206D01*
X71430743Y-54996649D01*
X71491048Y-54851059D01*
X71578599Y-54720030D01*
X71690030Y-54608599D01*
X71821059Y-54521048D01*
X71966649Y-54460743D01*
X72121206Y-54430000D01*
X72278794Y-54430000D01*
X72433351Y-54460743D01*
G37*
G36*
X72433351Y-49580743D02*
G01*
X72578941Y-49641048D01*
X72709970Y-49728599D01*
X72821401Y-49840030D01*
X72908952Y-49971059D01*
X72969257Y-50116649D01*
X73000000Y-50271206D01*
X73000000Y-50428794D01*
X72969257Y-50583351D01*
X72908952Y-50728941D01*
X72821401Y-50859970D01*
X72709970Y-50971401D01*
X72578941Y-51058952D01*
X72433351Y-51119257D01*
X72278794Y-51150000D01*
X72121206Y-51150000D01*
X71966649Y-51119257D01*
X71821059Y-51058952D01*
X71690030Y-50971401D01*
X71578599Y-50859970D01*
X71491048Y-50728941D01*
X71430743Y-50583351D01*
X71400000Y-50428794D01*
X71400000Y-50271206D01*
X71430743Y-50116649D01*
X71491048Y-49971059D01*
X71578599Y-49840030D01*
X71690030Y-49728599D01*
X71821059Y-49641048D01*
X71966649Y-49580743D01*
X72121206Y-49550000D01*
X72278794Y-49550000D01*
X72433351Y-49580743D01*
G37*
G36*
X24551475Y-47412861D02*
G01*
X24683416Y-47467512D01*
X24802160Y-47546855D01*
X24903145Y-47647840D01*
X24982488Y-47766584D01*
X25037139Y-47898525D01*
X25065000Y-48038592D01*
X25065000Y-48181408D01*
X25037139Y-48321475D01*
X24982488Y-48453416D01*
X24903145Y-48572160D01*
X24802160Y-48673145D01*
X24683416Y-48752488D01*
X24551475Y-48807139D01*
X24411408Y-48835000D01*
X24268592Y-48835000D01*
X24128525Y-48807139D01*
X23996584Y-48752488D01*
X23877840Y-48673145D01*
X23776855Y-48572160D01*
X23697512Y-48453416D01*
X23642861Y-48321475D01*
X23615000Y-48181408D01*
X23615000Y-48038592D01*
X23642861Y-47898525D01*
X23697512Y-47766584D01*
X23776855Y-47647840D01*
X23877840Y-47546855D01*
X23996584Y-47467512D01*
X24128525Y-47412861D01*
X24268592Y-47385000D01*
X24411408Y-47385000D01*
X24551475Y-47412861D01*
G37*
G36*
X22551475Y-47412861D02*
G01*
X22683416Y-47467512D01*
X22802160Y-47546855D01*
X22903145Y-47647840D01*
X22982488Y-47766584D01*
X23037139Y-47898525D01*
X23065000Y-48038592D01*
X23065000Y-48181408D01*
X23037139Y-48321475D01*
X22982488Y-48453416D01*
X22903145Y-48572160D01*
X22802160Y-48673145D01*
X22683416Y-48752488D01*
X22551475Y-48807139D01*
X22411408Y-48835000D01*
X22268592Y-48835000D01*
X22128525Y-48807139D01*
X21996584Y-48752488D01*
X21877840Y-48673145D01*
X21776855Y-48572160D01*
X21697512Y-48453416D01*
X21642861Y-48321475D01*
X21615000Y-48181408D01*
X21615000Y-48038592D01*
X21642861Y-47898525D01*
X21697512Y-47766584D01*
X21776855Y-47647840D01*
X21877840Y-47546855D01*
X21996584Y-47467512D01*
X22128525Y-47412861D01*
X22268592Y-47385000D01*
X22411408Y-47385000D01*
X22551475Y-47412861D01*
G37*
G36*
X24551475Y-45412861D02*
G01*
X24683416Y-45467512D01*
X24802160Y-45546855D01*
X24903145Y-45647840D01*
X24982488Y-45766584D01*
X25037139Y-45898525D01*
X25065000Y-46038592D01*
X25065000Y-46181408D01*
X25037139Y-46321475D01*
X24982488Y-46453416D01*
X24903145Y-46572160D01*
X24802160Y-46673145D01*
X24683416Y-46752488D01*
X24551475Y-46807139D01*
X24411408Y-46835000D01*
X24268592Y-46835000D01*
X24128525Y-46807139D01*
X23996584Y-46752488D01*
X23877840Y-46673145D01*
X23776855Y-46572160D01*
X23697512Y-46453416D01*
X23642861Y-46321475D01*
X23615000Y-46181408D01*
X23615000Y-46038592D01*
X23642861Y-45898525D01*
X23697512Y-45766584D01*
X23776855Y-45647840D01*
X23877840Y-45546855D01*
X23996584Y-45467512D01*
X24128525Y-45412861D01*
X24268592Y-45385000D01*
X24411408Y-45385000D01*
X24551475Y-45412861D01*
G37*
G36*
X22551475Y-45412861D02*
G01*
X22683416Y-45467512D01*
X22802160Y-45546855D01*
X22903145Y-45647840D01*
X22982488Y-45766584D01*
X23037139Y-45898525D01*
X23065000Y-46038592D01*
X23065000Y-46181408D01*
X23037139Y-46321475D01*
X22982488Y-46453416D01*
X22903145Y-46572160D01*
X22802160Y-46673145D01*
X22683416Y-46752488D01*
X22551475Y-46807139D01*
X22411408Y-46835000D01*
X22268592Y-46835000D01*
X22128525Y-46807139D01*
X21996584Y-46752488D01*
X21877840Y-46673145D01*
X21776855Y-46572160D01*
X21697512Y-46453416D01*
X21642861Y-46321475D01*
X21615000Y-46181408D01*
X21615000Y-46038592D01*
X21642861Y-45898525D01*
X21697512Y-45766584D01*
X21776855Y-45647840D01*
X21877840Y-45546855D01*
X21996584Y-45467512D01*
X22128525Y-45412861D01*
X22268592Y-45385000D01*
X22411408Y-45385000D01*
X22551475Y-45412861D01*
G37*
G36*
X24551475Y-43412861D02*
G01*
X24683416Y-43467512D01*
X24802160Y-43546855D01*
X24903145Y-43647840D01*
X24982488Y-43766584D01*
X25037139Y-43898525D01*
X25065000Y-44038592D01*
X25065000Y-44181408D01*
X25037139Y-44321475D01*
X24982488Y-44453416D01*
X24903145Y-44572160D01*
X24802160Y-44673145D01*
X24683416Y-44752488D01*
X24551475Y-44807139D01*
X24411408Y-44835000D01*
X24268592Y-44835000D01*
X24128525Y-44807139D01*
X23996584Y-44752488D01*
X23877840Y-44673145D01*
X23776855Y-44572160D01*
X23697512Y-44453416D01*
X23642861Y-44321475D01*
X23615000Y-44181408D01*
X23615000Y-44038592D01*
X23642861Y-43898525D01*
X23697512Y-43766584D01*
X23776855Y-43647840D01*
X23877840Y-43546855D01*
X23996584Y-43467512D01*
X24128525Y-43412861D01*
X24268592Y-43385000D01*
X24411408Y-43385000D01*
X24551475Y-43412861D01*
G37*
G36*
X22551475Y-43412861D02*
G01*
X22683416Y-43467512D01*
X22802160Y-43546855D01*
X22903145Y-43647840D01*
X22982488Y-43766584D01*
X23037139Y-43898525D01*
X23065000Y-44038592D01*
X23065000Y-44181408D01*
X23037139Y-44321475D01*
X22982488Y-44453416D01*
X22903145Y-44572160D01*
X22802160Y-44673145D01*
X22683416Y-44752488D01*
X22551475Y-44807139D01*
X22411408Y-44835000D01*
X22268592Y-44835000D01*
X22128525Y-44807139D01*
X21996584Y-44752488D01*
X21877840Y-44673145D01*
X21776855Y-44572160D01*
X21697512Y-44453416D01*
X21642861Y-44321475D01*
X21615000Y-44181408D01*
X21615000Y-44038592D01*
X21642861Y-43898525D01*
X21697512Y-43766584D01*
X21776855Y-43647840D01*
X21877840Y-43546855D01*
X21996584Y-43467512D01*
X22128525Y-43412861D01*
X22268592Y-43385000D01*
X22411408Y-43385000D01*
X22551475Y-43412861D01*
G37*
G36*
X22551475Y-41412861D02*
G01*
X22683416Y-41467512D01*
X22802160Y-41546855D01*
X22903145Y-41647840D01*
X22982488Y-41766584D01*
X23037139Y-41898525D01*
X23065000Y-42038592D01*
X23065000Y-42181408D01*
X23037139Y-42321475D01*
X22982488Y-42453416D01*
X22903145Y-42572160D01*
X22802160Y-42673145D01*
X22683416Y-42752488D01*
X22551475Y-42807139D01*
X22411408Y-42835000D01*
X22268592Y-42835000D01*
X22128525Y-42807139D01*
X21996584Y-42752488D01*
X21877840Y-42673145D01*
X21776855Y-42572160D01*
X21697512Y-42453416D01*
X21642861Y-42321475D01*
X21615000Y-42181408D01*
X21615000Y-42038592D01*
X21642861Y-41898525D01*
X21697512Y-41766584D01*
X21776855Y-41647840D01*
X21877840Y-41546855D01*
X21996584Y-41467512D01*
X22128525Y-41412861D01*
X22268592Y-41385000D01*
X22411408Y-41385000D01*
X22551475Y-41412861D01*
G37*
G36*
X24551475Y-41412861D02*
G01*
X24683416Y-41467512D01*
X24802160Y-41546855D01*
X24903145Y-41647840D01*
X24982488Y-41766584D01*
X25037139Y-41898525D01*
X25065000Y-42038592D01*
X25065000Y-42181408D01*
X25037139Y-42321475D01*
X24982488Y-42453416D01*
X24903145Y-42572160D01*
X24802160Y-42673145D01*
X24683416Y-42752488D01*
X24551475Y-42807139D01*
X24411408Y-42835000D01*
X24268592Y-42835000D01*
X24128525Y-42807139D01*
X23996584Y-42752488D01*
X23877840Y-42673145D01*
X23776855Y-42572160D01*
X23697512Y-42453416D01*
X23642861Y-42321475D01*
X23615000Y-42181408D01*
X23615000Y-42038592D01*
X23642861Y-41898525D01*
X23697512Y-41766584D01*
X23776855Y-41647840D01*
X23877840Y-41546855D01*
X23996584Y-41467512D01*
X24128525Y-41412861D01*
X24268592Y-41385000D01*
X24411408Y-41385000D01*
X24551475Y-41412861D01*
G37*
G36*
X22551475Y-39412861D02*
G01*
X22683416Y-39467512D01*
X22802160Y-39546855D01*
X22903145Y-39647840D01*
X22982488Y-39766584D01*
X23037139Y-39898525D01*
X23065000Y-40038592D01*
X23065000Y-40181408D01*
X23037139Y-40321475D01*
X22982488Y-40453416D01*
X22903145Y-40572160D01*
X22802160Y-40673145D01*
X22683416Y-40752488D01*
X22551475Y-40807139D01*
X22411408Y-40835000D01*
X22268592Y-40835000D01*
X22128525Y-40807139D01*
X21996584Y-40752488D01*
X21877840Y-40673145D01*
X21776855Y-40572160D01*
X21697512Y-40453416D01*
X21642861Y-40321475D01*
X21615000Y-40181408D01*
X21615000Y-40038592D01*
X21642861Y-39898525D01*
X21697512Y-39766584D01*
X21776855Y-39647840D01*
X21877840Y-39546855D01*
X21996584Y-39467512D01*
X22128525Y-39412861D01*
X22268592Y-39385000D01*
X22411408Y-39385000D01*
X22551475Y-39412861D01*
G37*
G36*
X24551475Y-39412861D02*
G01*
X24683416Y-39467512D01*
X24802160Y-39546855D01*
X24903145Y-39647840D01*
X24982488Y-39766584D01*
X25037139Y-39898525D01*
X25065000Y-40038592D01*
X25065000Y-40181408D01*
X25037139Y-40321475D01*
X24982488Y-40453416D01*
X24903145Y-40572160D01*
X24802160Y-40673145D01*
X24683416Y-40752488D01*
X24551475Y-40807139D01*
X24411408Y-40835000D01*
X24268592Y-40835000D01*
X24128525Y-40807139D01*
X23996584Y-40752488D01*
X23877840Y-40673145D01*
X23776855Y-40572160D01*
X23697512Y-40453416D01*
X23642861Y-40321475D01*
X23615000Y-40181408D01*
X23615000Y-40038592D01*
X23642861Y-39898525D01*
X23697512Y-39766584D01*
X23776855Y-39647840D01*
X23877840Y-39546855D01*
X23996584Y-39467512D01*
X24128525Y-39412861D01*
X24268592Y-39385000D01*
X24411408Y-39385000D01*
X24551475Y-39412861D01*
G37*
G36*
X22551475Y-37412861D02*
G01*
X22683416Y-37467512D01*
X22802160Y-37546855D01*
X22903145Y-37647840D01*
X22982488Y-37766584D01*
X23037139Y-37898525D01*
X23065000Y-38038592D01*
X23065000Y-38181408D01*
X23037139Y-38321475D01*
X22982488Y-38453416D01*
X22903145Y-38572160D01*
X22802160Y-38673145D01*
X22683416Y-38752488D01*
X22551475Y-38807139D01*
X22411408Y-38835000D01*
X22268592Y-38835000D01*
X22128525Y-38807139D01*
X21996584Y-38752488D01*
X21877840Y-38673145D01*
X21776855Y-38572160D01*
X21697512Y-38453416D01*
X21642861Y-38321475D01*
X21615000Y-38181408D01*
X21615000Y-38038592D01*
X21642861Y-37898525D01*
X21697512Y-37766584D01*
X21776855Y-37647840D01*
X21877840Y-37546855D01*
X21996584Y-37467512D01*
X22128525Y-37412861D01*
X22268592Y-37385000D01*
X22411408Y-37385000D01*
X22551475Y-37412861D01*
G37*
G36*
X24551475Y-37412861D02*
G01*
X24683416Y-37467512D01*
X24802160Y-37546855D01*
X24903145Y-37647840D01*
X24982488Y-37766584D01*
X25037139Y-37898525D01*
X25065000Y-38038592D01*
X25065000Y-38181408D01*
X25037139Y-38321475D01*
X24982488Y-38453416D01*
X24903145Y-38572160D01*
X24802160Y-38673145D01*
X24683416Y-38752488D01*
X24551475Y-38807139D01*
X24411408Y-38835000D01*
X24268592Y-38835000D01*
X24128525Y-38807139D01*
X23996584Y-38752488D01*
X23877840Y-38673145D01*
X23776855Y-38572160D01*
X23697512Y-38453416D01*
X23642861Y-38321475D01*
X23615000Y-38181408D01*
X23615000Y-38038592D01*
X23642861Y-37898525D01*
X23697512Y-37766584D01*
X23776855Y-37647840D01*
X23877840Y-37546855D01*
X23996584Y-37467512D01*
X24128525Y-37412861D01*
X24268592Y-37385000D01*
X24411408Y-37385000D01*
X24551475Y-37412861D01*
G37*
G36*
X24551475Y-35412861D02*
G01*
X24683416Y-35467512D01*
X24802160Y-35546855D01*
X24903145Y-35647840D01*
X24982488Y-35766584D01*
X25037139Y-35898525D01*
X25065000Y-36038592D01*
X25065000Y-36181408D01*
X25037139Y-36321475D01*
X24982488Y-36453416D01*
X24903145Y-36572160D01*
X24802160Y-36673145D01*
X24683416Y-36752488D01*
X24551475Y-36807139D01*
X24411408Y-36835000D01*
X24268592Y-36835000D01*
X24128525Y-36807139D01*
X23996584Y-36752488D01*
X23877840Y-36673145D01*
X23776855Y-36572160D01*
X23697512Y-36453416D01*
X23642861Y-36321475D01*
X23615000Y-36181408D01*
X23615000Y-36038592D01*
X23642861Y-35898525D01*
X23697512Y-35766584D01*
X23776855Y-35647840D01*
X23877840Y-35546855D01*
X23996584Y-35467512D01*
X24128525Y-35412861D01*
X24268592Y-35385000D01*
X24411408Y-35385000D01*
X24551475Y-35412861D01*
G37*
G36*
X22551475Y-35412861D02*
G01*
X22683416Y-35467512D01*
X22802160Y-35546855D01*
X22903145Y-35647840D01*
X22982488Y-35766584D01*
X23037139Y-35898525D01*
X23065000Y-36038592D01*
X23065000Y-36181408D01*
X23037139Y-36321475D01*
X22982488Y-36453416D01*
X22903145Y-36572160D01*
X22802160Y-36673145D01*
X22683416Y-36752488D01*
X22551475Y-36807139D01*
X22411408Y-36835000D01*
X22268592Y-36835000D01*
X22128525Y-36807139D01*
X21996584Y-36752488D01*
X21877840Y-36673145D01*
X21776855Y-36572160D01*
X21697512Y-36453416D01*
X21642861Y-36321475D01*
X21615000Y-36181408D01*
X21615000Y-36038592D01*
X21642861Y-35898525D01*
X21697512Y-35766584D01*
X21776855Y-35647840D01*
X21877840Y-35546855D01*
X21996584Y-35467512D01*
X22128525Y-35412861D01*
X22268592Y-35385000D01*
X22411408Y-35385000D01*
X22551475Y-35412861D01*
G37*
G36*
X24551475Y-33412861D02*
G01*
X24683416Y-33467512D01*
X24802160Y-33546855D01*
X24903145Y-33647840D01*
X24982488Y-33766584D01*
X25037139Y-33898525D01*
X25065000Y-34038592D01*
X25065000Y-34181408D01*
X25037139Y-34321475D01*
X24982488Y-34453416D01*
X24903145Y-34572160D01*
X24802160Y-34673145D01*
X24683416Y-34752488D01*
X24551475Y-34807139D01*
X24411408Y-34835000D01*
X24268592Y-34835000D01*
X24128525Y-34807139D01*
X23996584Y-34752488D01*
X23877840Y-34673145D01*
X23776855Y-34572160D01*
X23697512Y-34453416D01*
X23642861Y-34321475D01*
X23615000Y-34181408D01*
X23615000Y-34038592D01*
X23642861Y-33898525D01*
X23697512Y-33766584D01*
X23776855Y-33647840D01*
X23877840Y-33546855D01*
X23996584Y-33467512D01*
X24128525Y-33412861D01*
X24268592Y-33385000D01*
X24411408Y-33385000D01*
X24551475Y-33412861D01*
G37*
G36*
X22551475Y-33412861D02*
G01*
X22683416Y-33467512D01*
X22802160Y-33546855D01*
X22903145Y-33647840D01*
X22982488Y-33766584D01*
X23037139Y-33898525D01*
X23065000Y-34038592D01*
X23065000Y-34181408D01*
X23037139Y-34321475D01*
X22982488Y-34453416D01*
X22903145Y-34572160D01*
X22802160Y-34673145D01*
X22683416Y-34752488D01*
X22551475Y-34807139D01*
X22411408Y-34835000D01*
X22268592Y-34835000D01*
X22128525Y-34807139D01*
X21996584Y-34752488D01*
X21877840Y-34673145D01*
X21776855Y-34572160D01*
X21697512Y-34453416D01*
X21642861Y-34321475D01*
X21615000Y-34181408D01*
X21615000Y-34038592D01*
X21642861Y-33898525D01*
X21697512Y-33766584D01*
X21776855Y-33647840D01*
X21877840Y-33546855D01*
X21996584Y-33467512D01*
X22128525Y-33412861D01*
X22268592Y-33385000D01*
X22411408Y-33385000D01*
X22551475Y-33412861D01*
G37*
G36*
X24551475Y-31412861D02*
G01*
X24683416Y-31467512D01*
X24802160Y-31546855D01*
X24903145Y-31647840D01*
X24982488Y-31766584D01*
X25037139Y-31898525D01*
X25065000Y-32038592D01*
X25065000Y-32181408D01*
X25037139Y-32321475D01*
X24982488Y-32453416D01*
X24903145Y-32572160D01*
X24802160Y-32673145D01*
X24683416Y-32752488D01*
X24551475Y-32807139D01*
X24411408Y-32835000D01*
X24268592Y-32835000D01*
X24128525Y-32807139D01*
X23996584Y-32752488D01*
X23877840Y-32673145D01*
X23776855Y-32572160D01*
X23697512Y-32453416D01*
X23642861Y-32321475D01*
X23615000Y-32181408D01*
X23615000Y-32038592D01*
X23642861Y-31898525D01*
X23697512Y-31766584D01*
X23776855Y-31647840D01*
X23877840Y-31546855D01*
X23996584Y-31467512D01*
X24128525Y-31412861D01*
X24268592Y-31385000D01*
X24411408Y-31385000D01*
X24551475Y-31412861D01*
G37*
G36*
X22551475Y-31412861D02*
G01*
X22683416Y-31467512D01*
X22802160Y-31546855D01*
X22903145Y-31647840D01*
X22982488Y-31766584D01*
X23037139Y-31898525D01*
X23065000Y-32038592D01*
X23065000Y-32181408D01*
X23037139Y-32321475D01*
X22982488Y-32453416D01*
X22903145Y-32572160D01*
X22802160Y-32673145D01*
X22683416Y-32752488D01*
X22551475Y-32807139D01*
X22411408Y-32835000D01*
X22268592Y-32835000D01*
X22128525Y-32807139D01*
X21996584Y-32752488D01*
X21877840Y-32673145D01*
X21776855Y-32572160D01*
X21697512Y-32453416D01*
X21642861Y-32321475D01*
X21615000Y-32181408D01*
X21615000Y-32038592D01*
X21642861Y-31898525D01*
X21697512Y-31766584D01*
X21776855Y-31647840D01*
X21877840Y-31546855D01*
X21996584Y-31467512D01*
X22128525Y-31412861D01*
X22268592Y-31385000D01*
X22411408Y-31385000D01*
X22551475Y-31412861D01*
G37*
G36*
X24551475Y-29412861D02*
G01*
X24683416Y-29467512D01*
X24802160Y-29546855D01*
X24903145Y-29647840D01*
X24982488Y-29766584D01*
X25037139Y-29898525D01*
X25065000Y-30038592D01*
X25065000Y-30181408D01*
X25037139Y-30321475D01*
X24982488Y-30453416D01*
X24903145Y-30572160D01*
X24802160Y-30673145D01*
X24683416Y-30752488D01*
X24551475Y-30807139D01*
X24411408Y-30835000D01*
X24268592Y-30835000D01*
X24128525Y-30807139D01*
X23996584Y-30752488D01*
X23877840Y-30673145D01*
X23776855Y-30572160D01*
X23697512Y-30453416D01*
X23642861Y-30321475D01*
X23615000Y-30181408D01*
X23615000Y-30038592D01*
X23642861Y-29898525D01*
X23697512Y-29766584D01*
X23776855Y-29647840D01*
X23877840Y-29546855D01*
X23996584Y-29467512D01*
X24128525Y-29412861D01*
X24268592Y-29385000D01*
X24411408Y-29385000D01*
X24551475Y-29412861D01*
G37*
G36*
X23065000Y-30835000D02*
G01*
X21615000Y-30835000D01*
X21615000Y-29385000D01*
X23065000Y-29385000D01*
X23065000Y-30835000D01*
G37*
G36*
X80450000Y-24050000D02*
G01*
X78650000Y-24050000D01*
X78650000Y-22250000D01*
X80450000Y-22250000D01*
X80450000Y-24050000D01*
G37*
G36*
X84892520Y-22284586D02*
G01*
X85056310Y-22352430D01*
X85203717Y-22450924D01*
X85329076Y-22576283D01*
X85427570Y-22723690D01*
X85495414Y-22887480D01*
X85530000Y-23061358D01*
X85530000Y-23238642D01*
X85495414Y-23412520D01*
X85427570Y-23576310D01*
X85329076Y-23723717D01*
X85203717Y-23849076D01*
X85056310Y-23947570D01*
X85056309Y-23947571D01*
X85056308Y-23947571D01*
X84892520Y-24015414D01*
X84718644Y-24050000D01*
X84541356Y-24050000D01*
X84367480Y-24015414D01*
X84203692Y-23947571D01*
X84203691Y-23947571D01*
X84203690Y-23947570D01*
X84056283Y-23849076D01*
X83930924Y-23723717D01*
X83832430Y-23576310D01*
X83764586Y-23412520D01*
X83730000Y-23238642D01*
X83730000Y-23061358D01*
X83764586Y-22887480D01*
X83832430Y-22723690D01*
X83930924Y-22576283D01*
X84056283Y-22450924D01*
X84203690Y-22352430D01*
X84367480Y-22284586D01*
X84541356Y-22250000D01*
X84718644Y-22250000D01*
X84892520Y-22284586D01*
G37*
G36*
X82352520Y-22284586D02*
G01*
X82516310Y-22352430D01*
X82663717Y-22450924D01*
X82789076Y-22576283D01*
X82887570Y-22723690D01*
X82955414Y-22887480D01*
X82990000Y-23061358D01*
X82990000Y-23238642D01*
X82955414Y-23412520D01*
X82887570Y-23576310D01*
X82789076Y-23723717D01*
X82663717Y-23849076D01*
X82516310Y-23947570D01*
X82516309Y-23947571D01*
X82516308Y-23947571D01*
X82352520Y-24015414D01*
X82178644Y-24050000D01*
X82001356Y-24050000D01*
X81827480Y-24015414D01*
X81663692Y-23947571D01*
X81663691Y-23947571D01*
X81663690Y-23947570D01*
X81516283Y-23849076D01*
X81390924Y-23723717D01*
X81292430Y-23576310D01*
X81224586Y-23412520D01*
X81190000Y-23238642D01*
X81190000Y-23061358D01*
X81224586Y-22887480D01*
X81292430Y-22723690D01*
X81390924Y-22576283D01*
X81516283Y-22450924D01*
X81663690Y-22352430D01*
X81827480Y-22284586D01*
X82001356Y-22250000D01*
X82178644Y-22250000D01*
X82352520Y-22284586D01*
G37*
M02*
