M48
INCH,TZ
T1C0.0157
T2C0.0236
T3C0.0315
T4C0.0335
T5C0.0394
T6C0.0709
T7C0.0787
T8C0.1299
T9C0.1575
%
G90
G05
T1
X8563Y-10748
X8760Y-8740
X9567Y-22500
X9567Y-23386
X9587Y-21476
X9626Y-20059
X10110Y-35441
X10140Y-37774
X10374Y-13209
X10453Y-27823
X10689Y-11417
X10768Y-19764
X10780Y-40402
X10787Y-18976
X10819Y-16079
X11063Y-13248
X11161Y-10669
X11181Y-14114
X11339Y-22913
X11339Y-23780
X11386Y-29291
X11386Y-25075
X11437Y-9665
X11457Y-8591
X11772Y-19094
X11862Y-34024
X11988Y-22972
X12047Y-18661
X12106Y-11024
X12335Y-38394
X12335Y-42675
X12512Y-40811
X12906Y-36583
X12953Y-27224
X13130Y-16260
X13740Y-19154
X14051Y-32752
X14299Y-17843
X14469Y-26476
X14733Y-26185
X15728Y-16614
X15728Y-30138
X15748Y-25669
X15945Y-8661
X16299Y-23307
X16358Y-27795
X16476Y-19173
X16555Y-9315
X16831Y-14173
X16835Y-37576
X16850Y-12657
X16937Y-40571
X16945Y-38492
X17008Y-17874
X17146Y-20276
X17244Y-8437
X17307Y-9339
X17323Y-23071
X17953Y-23071
X18004Y-31866
X18073Y-40642
X18169Y-9488
X18185Y-36681
X18406Y-16437
X18543Y-11217
X18720Y-29705
X18756Y-38122
X18958Y-32080
X19142Y-36709
X19378Y-41681
X19402Y-43315
X19583Y-17843
X19744Y-19193
X19815Y-39024
X19862Y-34882
X19920Y-32111
X19921Y-32657
X19953Y-37567
X20020Y-14882
X20236Y-35630
X20276Y-17717
X20276Y-21240
X20303Y-42591
X20315Y-9563
X20343Y-41654
X20492Y-36457
X20591Y-32598
X20610Y-27205
X20669Y-10335
X20768Y-21811
X20787Y-17441
X21004Y-35000
X21043Y-33307
X21083Y-14980
X21236Y-42264
X21319Y-18189
X21370Y-36189
X21480Y-40689
X21496Y-24902
X21516Y-16929
X21634Y-35630
X21791Y-20374
X21791Y-20886
X21791Y-33012
X21811Y-40354
X21890Y-19449
X21929Y-19961
X22150Y-39996
X22157Y-38657
X22185Y-39094
X22201Y-39535
X22441Y-14961
X22613Y-43523
X22953Y-16909
X23059Y-37961
X23270Y-40549
X23439Y-43004
X23443Y-42352
X23622Y-38465
X23642Y-32894
X23678Y-35669
X23680Y-34704
X23682Y-35213
X23780Y-21319
X23828Y-42583
X23878Y-15000
X23988Y-37917
X24016Y-33406
X24193Y-39185
X24204Y-42905
X24350Y-20827
X24362Y-38551
X24469Y-32913
X24524Y-41975
X24554Y-43525
X24606Y-17579
X24646Y-18642
X24850Y-42373
X24921Y-20571
X25039Y-26831
X25150Y-36685
X25354Y-36181
X25354Y-43625
X25394Y-14980
X25394Y-23976
X25394Y-42795
X25492Y-20295
X25591Y-32953
X25656Y-36657
X25787Y-22421
X25807Y-21870
X25827Y-21339
X25846Y-28031
X25850Y-37071
X25906Y-33701
X26019Y-20960
X26126Y-41183
X26171Y-43617
X26207Y-40422
X26654Y-29272
X26661Y-34736
X26689Y-35252
X26850Y-16949
X26968Y-38118
X27087Y-33878
X27162Y-43592
X27283Y-17323
X27441Y-15000
X27756Y-23661
X27815Y-22717
X27894Y-37933
X27913Y-20768
X27913Y-25177
X27933Y-18937
X28257Y-23773
X28374Y-22425
X28386Y-14370
X28406Y-25630
X28524Y-37894
X28760Y-13563
X28799Y-22756
X28898Y-18917
X28957Y-38543
X28976Y-39291
X28996Y-20807
X29024Y-25063
X29094Y-12520
X29764Y-24390
X29764Y-30285
X29764Y-39055
X29921Y-30925
X29941Y-12165
X29961Y-11516
X30039Y-25315
X30039Y-43504
X30079Y-10157
X30083Y-10673
X30157Y-31634
X30413Y-24705
X30413Y-25906
X30512Y-12146
X30531Y-11555
X30709Y-17874
X30728Y-32441
X30839Y-22339
X30886Y-18602
X30945Y-26890
X31083Y-41457
X31122Y-20925
X31260Y-32264
X31457Y-22598
X31555Y-33780
X31575Y-33130
X31614Y-13878
X31691Y-41592
X31713Y-43366
X31953Y-12303
X31980Y-11768
X32205Y-40079
X32219Y-29471
X32303Y-17008
X32339Y-23122
X32441Y-38583
X32461Y-19035
X32569Y-29291
X32598Y-40353
X32618Y-29941
X32677Y-18366
X32717Y-12280
X32736Y-11780
X32795Y-27244
X32854Y-28996
X33012Y-26083
X33071Y-14783
X33071Y-25551
X33071Y-40236
X33091Y-19016
X33307Y-27913
X33394Y-13705
X33740Y-27697
X33976Y-22480
X34094Y-16929
X34094Y-21890
X34311Y-24252
X34331Y-19961
X34339Y-11449
X34350Y-23268
X34483Y-43619
X34604Y-41724
X34606Y-18543
X34646Y-35906
X34705Y-16772
X34724Y-37323
X34818Y-40009
X34882Y-32992
X34942Y-38680
X35020Y-9764
X35039Y-20197
X35047Y-13697
X35157Y-14764
X35177Y-23661
X35197Y-24311
X35217Y-22480
X35272Y-40959
X35453Y-16752
X35626Y-36408
X35709Y-20453
X35945Y-23250
X36004Y-24508
X36240Y-16850
X36240Y-20925
X36433Y-30870
X36567Y-31315
X36634Y-14646
X36732Y-26260
X36941Y-36433
X36988Y-34882
X37008Y-23378
X37067Y-32854
X37146Y-9331
X37161Y-37110
X37343Y-24134
X37461Y-36417
X37480Y-31394
X37563Y-32858
X37647Y-39350
X37693Y-37122
X37697Y-21004
X37756Y-20138
X37854Y-40551
X37894Y-41476
X37898Y-34902
X37933Y-22028
X37992Y-29862
X38051Y-36421
X38091Y-16043
X38209Y-14075
X38228Y-42224
X38311Y-23776
X38346Y-20138
X38346Y-24331
X38346Y-32756
X38366Y-30433
X38374Y-20882
X38434Y-39296
X38465Y-21898
X38524Y-28524
X38543Y-16417
X38543Y-29587
X38543Y-31886
X38681Y-14862
X38685Y-30783
X38768Y-35909
X38776Y-17055
X39035Y-30157
X39154Y-37913
X39154Y-42933
X39201Y-19067
X39272Y-31079
X39291Y-28484
X39362Y-18492
X39449Y-39882
X39488Y-25394
X39803Y-27697
X39921Y-22736
X40114Y-22079
X40130Y-21567
X40425Y-34760
X40496Y-36079
X40739Y-38005
X40739Y-40370
X40792Y-41699
X40823Y-14772
X41268Y-30047
X41319Y-24035
X41358Y-8740
X41929Y-15020
X42008Y-26260
X42028Y-12776
X42579Y-14646
X42677Y-29744
X43228Y-14921
X43240Y-32984
X43724Y-15787
X43760Y-19039
X43799Y-14173
X43807Y-17602
X43846Y-29752
T3
X12736Y-23248
X13890Y-39425
X15394Y-30965
X18780Y-28917
X18976Y-23366
X19986Y-34274
X20000Y-28898
X20748Y-43917
X21220Y-34055
X22264Y-23740
X26102Y-24390
X28228Y-15709
X28425Y-44016
X28780Y-28543
X28878Y-24232
X29193Y-11417
X29488Y-15571
X29626Y-25807
X29744Y-39980
X31142Y-30118
X31496Y-17402
X31496Y-27539
X31575Y-19134
X31752Y-14646
X32343Y-26791
X32933Y-17638
X33622Y-28504
X35512Y-10591
X35595Y-39581
X36082Y-42660
X36122Y-32520
X36594Y-10531
X37756Y-14980
X38031Y-29134
X39193Y-43819
X39311Y-34071
X40020Y-18169
X40039Y-28602
X40079Y-38150
X40433Y-25748
X42165Y-24232
X8795Y-11854
X8795Y-12642
X8795Y-13429
X8795Y-14217
X8795Y-15004
X8795Y-15791
X8795Y-16579
X8795Y-17366
X8795Y-18154
X8795Y-18941
X9583Y-11854
X9583Y-12642
X9583Y-13429
X9583Y-14217
X9583Y-15004
X9583Y-15791
X9583Y-16579
X9583Y-17366
X9583Y-18154
X9583Y-18941
X21917Y-29291
X23839Y-29291
X28724Y-36354
X30646Y-36354
X28425Y-19823
X28425Y-21744
T4
X43063Y-22223
X43063Y-24192
T5
X41118Y-31956
X41118Y-32956
X41118Y-33956
X31319Y-9114
X32319Y-9114
X33319Y-9114
X14626Y-37827
X15315Y-42886
X15657Y-34067
X15657Y-35067
X15657Y-36067
X15657Y-37067
X15657Y-38587
X15657Y-39587
X15657Y-40587
X15657Y-41587
X16476Y-35067
X16476Y-39587
T6
X9606Y-33555
X9606Y-42886
T7
X8780Y-40228
X13268Y-34835
T8
X42618Y-31456
X42618Y-34456
T9
X9843Y-9843
X42913Y-9843
X42913Y-42913
T2
G00X43988Y-21830
M15
G01X44264Y-21830
M16
G05
G00X44264Y-24585
M15
G01X43988Y-24585
M16
G05
T0
M30
