M48
INCH,TZ
T1C0.0157
T2C0.0197
T3C0.0315
T4C0.0394
T5C0.0472
T6C0.0709
T7C0.0787
T8C0.1575
%
G90
G05
T1
X9200Y-14300
X9500Y-18600
X9764Y-28701
X9900Y-21200
X9961Y-16585
X10039Y-30551
X10118Y-27047
X10472Y-38583
X10502Y-40915
X11142Y-43543
X11200Y-12700
X11200Y-16000
X11230Y-19833
X11300Y-18200
X11388Y-14163
X11600Y-32700
X11850Y-30650
X11900Y-27254
X12087Y-9094
X12224Y-37165
X12300Y-10500
X12697Y-41535
X12697Y-45817
X13268Y-39724
X13356Y-23573
X13500Y-35200
X13583Y-26260
X13583Y-31102
X13898Y-44055
X14055Y-29528
X14094Y-31102
X14200Y-32800
X14577Y-26417
X14600Y-35000
X14700Y-27400
X14724Y-29409
X15039Y-11890
X15800Y-21400
X16368Y-35404
X16821Y-17589
X17461Y-17126
X17500Y-21600
X17500Y-34600
X17530Y-32510
X17657Y-31624
X17933Y-35443
X18071Y-26142
X18189Y-36870
X18189Y-44764
X18200Y-33300
X18209Y-21161
X18258Y-18199
X18400Y-31800
X18602Y-33839
X18701Y-10118
X18819Y-41614
X18898Y-8701
X18898Y-44094
X19252Y-22126
X19291Y-36496
X19300Y-11500
X19400Y-16800
X19409Y-23268
X19449Y-18701
X19567Y-20591
X19764Y-46063
X19882Y-43898
X20236Y-10630
X20236Y-26575
X20315Y-40315
X20472Y-24291
X20561Y-38406
X20630Y-26181
X20700Y-15900
X20748Y-33691
X20807Y-39547
X21142Y-37953
X21161Y-21663
X21339Y-11890
X21732Y-38937
X21900Y-34300
X21912Y-41782
X21976Y-43103
X22087Y-38465
X22303Y-41004
X22303Y-42274
X22470Y-42717
X22800Y-8700
X22800Y-15900
X22844Y-34104
X22913Y-18622
X22953Y-20354
X22992Y-28819
X23110Y-10236
X23150Y-46181
X23346Y-16742
X23445Y-21870
X23465Y-11299
X23465Y-28937
X23474Y-21250
X23500Y-30500
X23524Y-11772
X23600Y-35700
X23632Y-43297
X23740Y-15630
X23740Y-29331
X23765Y-24001
X23780Y-26378
X23780Y-41063
X23900Y-30800
X24207Y-45321
X24213Y-20472
X24400Y-30800
X24488Y-26417
X24498Y-21811
X24577Y-44872
X24700Y-16800
X24724Y-41299
X24803Y-26900
X25246Y-23130
X25295Y-28917
X25335Y-29724
X25364Y-22480
X25384Y-20827
X25600Y-8600
X25600Y-15800
X25687Y-38287
X25787Y-34646
X25787Y-46063
X25994Y-37594
X26083Y-39567
X26201Y-16752
X26250Y-21890
X26260Y-22854
X26378Y-19872
X26458Y-43723
X26545Y-28917
X26575Y-28228
X26614Y-31417
X26644Y-29675
X26890Y-27756
X27100Y-15800
X27126Y-19045
X27165Y-27244
X27213Y-43925
X27244Y-35669
X27854Y-20915
X27960Y-44005
X28300Y-8600
X28567Y-26787
X28571Y-23059
X28858Y-15669
X28976Y-43858
X28996Y-27185
X29150Y-25917
X29200Y-28900
X29224Y-27917
X29291Y-42480
X29300Y-38700
X29331Y-46339
X29354Y-21878
X30100Y-23800
X30433Y-15679
X30437Y-38626
X30541Y-29636
X30600Y-25300
X30607Y-36873
X30699Y-35915
X30700Y-26100
X30709Y-33346
X30843Y-41543
X30906Y-8583
X31100Y-19900
X31142Y-43504
X31181Y-42520
X31457Y-30305
X31989Y-36860
X32000Y-20300
X32087Y-16811
X32402Y-25984
X32451Y-30295
X32559Y-22087
X32569Y-23907
X32717Y-45354
X32756Y-44252
X32835Y-21457
X32898Y-32702
X32913Y-33543
X33031Y-14803
X33100Y-34600
X33150Y-21772
X33248Y-38770
X33474Y-13583
X33500Y-34300
X33504Y-12156
X33514Y-21496
X33583Y-28907
X33600Y-36300
X33637Y-32411
X33652Y-38927
X33900Y-32800
X33900Y-36000
X33900Y-43200
X34094Y-10433
X34163Y-28474
X34272Y-45069
X34400Y-24500
X34409Y-26417
X34449Y-22323
X34449Y-41959
X34466Y-18920
X34675Y-23770
X34699Y-39024
X34902Y-18967
X34970Y-17913
X35000Y-25984
X35000Y-25551
X35000Y-26378
X35039Y-26969
X35061Y-31282
X35285Y-18740
X35295Y-24852
X35300Y-22700
X35300Y-23900
X35748Y-25315
X35807Y-23219
X35866Y-20630
X36054Y-19846
X36082Y-20238
X36083Y-26033
X36102Y-22785
X36102Y-28661
X36201Y-18425
X36211Y-32687
X36260Y-26909
X36299Y-33297
X36319Y-29596
X36437Y-24813
X36463Y-25287
X36467Y-15522
X36600Y-19656
X36600Y-19200
X36732Y-25669
X36841Y-8780
X36860Y-45059
X36880Y-23110
X36929Y-23750
X36969Y-18602
X37018Y-17175
X37200Y-19200
X37200Y-39400
X37303Y-22382
X37451Y-14774
X37500Y-19500
X37569Y-13543
X37569Y-24262
X37618Y-31447
X37756Y-10866
X37766Y-26565
X37776Y-37343
X37864Y-25610
X37900Y-12300
X37900Y-20600
X38041Y-31575
X38071Y-16801
X38081Y-14193
X38200Y-23400
X38217Y-19673
X38317Y-36959
X38396Y-35758
X38435Y-34537
X38563Y-32667
X38583Y-19921
X38600Y-26500
X38632Y-33081
X38700Y-24800
X38700Y-25600
X38839Y-22736
X38976Y-28583
X39045Y-30728
X39085Y-16447
X39409Y-41831
X39528Y-39508
X39557Y-21447
X39636Y-8848
X39941Y-16949
X39990Y-38602
X40030Y-15935
X40049Y-14537
X40079Y-27638
X40276Y-19301
X40384Y-37224
X40492Y-11467
X40541Y-30039
X40551Y-22283
X40581Y-32992
X40610Y-13317
X40699Y-35453
X40827Y-10797
X41211Y-27697
X41250Y-14183
X41309Y-15344
X41368Y-20561
X41388Y-12313
X41407Y-19045
X41600Y-44300
X41713Y-46299
X42126Y-31339
X42254Y-27972
X42323Y-39370
X42323Y-35236
X42323Y-36614
X42323Y-37992
X42330Y-40741
X42353Y-27590
X42392Y-16575
X42402Y-29606
X42451Y-27185
X42461Y-14961
X42510Y-17766
X42638Y-26791
X42913Y-33465
X42923Y-11860
X43425Y-23898
X43474Y-11457
X43576Y-13819
X43898Y-23740
X44142Y-11858
X44232Y-8819
X44300Y-20600
X44409Y-22638
X44567Y-14961
X44852Y-23012
X44921Y-17953
X44990Y-22126
X44995Y-24824
X45039Y-21457
X45157Y-42480
X45232Y-16969
X45236Y-16142
X45256Y-24016
X45315Y-23258
X45374Y-40010
X45906Y-27844
X46024Y-26348
X46457Y-11417
T2
X30311Y-21457
X30311Y-22205
T3
X14567Y-42205
X15423Y-35610
X17047Y-25335
X17549Y-28396
X17579Y-30679
X21811Y-46063
X21870Y-22195
X22726Y-17234
X25866Y-23750
X27480Y-45906
X28022Y-17254
X29102Y-23976
X29200Y-30900
X29646Y-25108
X29996Y-19886
X31152Y-14695
X31378Y-12096
X31398Y-13356
X31993Y-32800
X31998Y-28159
X32100Y-37600
X32411Y-10768
X34173Y-30433
X35728Y-17854
X36811Y-42667
X38287Y-9833
X38415Y-38238
X39310Y-17775
X41112Y-29429
X41624Y-30807
X42067Y-20433
X43730Y-10679
X27756Y-37559
X27756Y-39480
X28081Y-23701
X28081Y-25622
T4
X14700Y-33898
X15700Y-33898
X38650Y-43780
X39650Y-43780
X40650Y-43780
X19600Y-27900
X20600Y-27900
X21600Y-27900
X14982Y-23425
X15982Y-23425
X16982Y-23425
X17982Y-23425
X43000Y-42900
X43000Y-43900
X43000Y-44900
X32744Y-9488
X33744Y-9488
X34744Y-9488
X15059Y-40925
X15748Y-45984
X16091Y-37165
X16091Y-38165
X16091Y-39165
X16091Y-40165
X16091Y-41685
X16091Y-42685
X16091Y-43685
X16091Y-44685
X16909Y-38165
X16909Y-42685
X39085Y-11913
X39085Y-12913
X39085Y-13913
X39085Y-14913
X9772Y-23563
X10772Y-23563
X11772Y-23563
T5
X12874Y-12244
X12874Y-13228
X12874Y-14213
X12874Y-15197
X12874Y-16181
X12874Y-17165
X12874Y-18150
X12874Y-19134
X12874Y-20118
X12874Y-21102
T6
X10039Y-36654
X10039Y-45984
T7
X9213Y-43327
X13701Y-37933
T8
X9843Y-9843
X45276Y-9843
X45276Y-45276
T2
G00X41043Y-9409
M15
G01X40768Y-9409
M16
G05
G00X42224Y-8563
M15
G01X41791Y-8563
M16
G05
G00X43248Y-9409
M15
G01X42972Y-9409
M16
G05
T0
M30
