%TF.GenerationSoftware,KiCad,Pcbnew,5.1.6-c6e7f7d~87~ubuntu16.04.1*%
%TF.CreationDate,2020-08-06T14:46:29+05:00*%
%TF.ProjectId,adapter,61646170-7465-4722-9e6b-696361645f70,rev?*%
%TF.SameCoordinates,Original*%
%TF.FileFunction,Soldermask,Bot*%
%TF.FilePolarity,Negative*%
%FSLAX46Y46*%
G04 Gerber Fmt 4.6, Leading zero omitted, Abs format (unit mm)*
G04 Created by KiCad (PCBNEW 5.1.6-c6e7f7d~87~ubuntu16.04.1) date 2020-08-06 14:46:29*
%MOMM*%
%LPD*%
G01*
G04 APERTURE LIST*
%ADD10C,2.300000*%
%ADD11C,1.800000*%
%ADD12R,1.800000X1.800000*%
%ADD13O,1.800000X1.800000*%
G04 APERTURE END LIST*
%TO.C,J1*%
G36*
G01*
X31150000Y-49364706D02*
X31150000Y-50635294D01*
G75*
G02*
X30885294Y-50900000I-264706J0D01*
G01*
X29114706Y-50900000D01*
G75*
G02*
X28850000Y-50635294I0J264706D01*
G01*
X28850000Y-49364706D01*
G75*
G02*
X29114706Y-49100000I264706J0D01*
G01*
X30885294Y-49100000D01*
G75*
G02*
X31150000Y-49364706I0J-264706D01*
G01*
G37*
D10*
X30000000Y-47500000D03*
X30000000Y-45000000D03*
X30000000Y-42500000D03*
X30000000Y-40000000D03*
X30000000Y-37500000D03*
X30000000Y-35000000D03*
X30000000Y-32500000D03*
D11*
X21400000Y-47500000D03*
X21400000Y-30000000D03*
D10*
X30000000Y-30000000D03*
X30000000Y-27500000D03*
%TD*%
D12*
%TO.C,J2*%
X50000000Y-50000000D03*
D13*
X50000000Y-47460000D03*
X50000000Y-44920000D03*
X50000000Y-42380000D03*
X50000000Y-39840000D03*
X50000000Y-37300000D03*
X50000000Y-34760000D03*
X50000000Y-32220000D03*
X50000000Y-29680000D03*
X50000000Y-27140000D03*
%TD*%
D12*
%TO.C,J3*%
X27300000Y-65425001D03*
D13*
X27300000Y-67965001D03*
X27300000Y-70505001D03*
X27300000Y-73045001D03*
X27300000Y-75585001D03*
X27300000Y-78125001D03*
X27300000Y-80665001D03*
%TD*%
%TO.C,J6*%
X29380000Y-85100000D03*
X26840000Y-85100000D03*
D12*
X24300000Y-85100000D03*
%TD*%
%TO.C,J7*%
X37500000Y-53500000D03*
D13*
X40040000Y-53500000D03*
X42580000Y-53500000D03*
%TD*%
D12*
%TO.C,J8*%
X33100000Y-59500000D03*
D13*
X35640000Y-59500000D03*
%TD*%
D12*
%TO.C,J9*%
X37800000Y-80700000D03*
D13*
X37800000Y-83240000D03*
X37800000Y-85780000D03*
X37800000Y-88320000D03*
%TD*%
D12*
%TO.C,J4*%
X37600000Y-65600000D03*
D13*
X37600000Y-68140000D03*
X37600000Y-70680000D03*
X37600000Y-73220000D03*
%TD*%
D12*
%TO.C,J5*%
X48800000Y-65700000D03*
D13*
X48800000Y-68240000D03*
X48800000Y-70780000D03*
X48800000Y-73320000D03*
X48800000Y-75860000D03*
X48800000Y-78400000D03*
X48800000Y-80940000D03*
X48800000Y-83480000D03*
X48800000Y-86020000D03*
X48800000Y-88560000D03*
%TD*%
D12*
%TO.C,J10*%
X44800000Y-59500000D03*
D13*
X47340000Y-59500000D03*
%TD*%
M02*
