%TF.GenerationSoftware,KiCad,Pcbnew,5.1.6-c6e7f7d~87~ubuntu16.04.1*%
%TF.CreationDate,2020-08-06T14:46:29+05:00*%
%TF.ProjectId,adapter,61646170-7465-4722-9e6b-696361645f70,rev?*%
%TF.SameCoordinates,Original*%
%TF.FileFunction,Paste,Top*%
%TF.FilePolarity,Positive*%
%FSLAX46Y46*%
G04 Gerber Fmt 4.6, Leading zero omitted, Abs format (unit mm)*
G04 Created by KiCad (PCBNEW 5.1.6-c6e7f7d~87~ubuntu16.04.1) date 2020-08-06 14:46:29*
%MOMM*%
%LPD*%
G01*
G04 APERTURE LIST*
G04 APERTURE END LIST*
%TO.C,R1*%
G36*
G01*
X44625000Y-67643750D02*
X44625000Y-68556250D01*
G75*
G02*
X44381250Y-68800000I-243750J0D01*
G01*
X43893750Y-68800000D01*
G75*
G02*
X43650000Y-68556250I0J243750D01*
G01*
X43650000Y-67643750D01*
G75*
G02*
X43893750Y-67400000I243750J0D01*
G01*
X44381250Y-67400000D01*
G75*
G02*
X44625000Y-67643750I0J-243750D01*
G01*
G37*
G36*
G01*
X42750000Y-67643750D02*
X42750000Y-68556250D01*
G75*
G02*
X42506250Y-68800000I-243750J0D01*
G01*
X42018750Y-68800000D01*
G75*
G02*
X41775000Y-68556250I0J243750D01*
G01*
X41775000Y-67643750D01*
G75*
G02*
X42018750Y-67400000I243750J0D01*
G01*
X42506250Y-67400000D01*
G75*
G02*
X42750000Y-67643750I0J-243750D01*
G01*
G37*
%TD*%
%TO.C,R2*%
G36*
G01*
X42750000Y-70143750D02*
X42750000Y-71056250D01*
G75*
G02*
X42506250Y-71300000I-243750J0D01*
G01*
X42018750Y-71300000D01*
G75*
G02*
X41775000Y-71056250I0J243750D01*
G01*
X41775000Y-70143750D01*
G75*
G02*
X42018750Y-69900000I243750J0D01*
G01*
X42506250Y-69900000D01*
G75*
G02*
X42750000Y-70143750I0J-243750D01*
G01*
G37*
G36*
G01*
X44625000Y-70143750D02*
X44625000Y-71056250D01*
G75*
G02*
X44381250Y-71300000I-243750J0D01*
G01*
X43893750Y-71300000D01*
G75*
G02*
X43650000Y-71056250I0J243750D01*
G01*
X43650000Y-70143750D01*
G75*
G02*
X43893750Y-69900000I243750J0D01*
G01*
X44381250Y-69900000D01*
G75*
G02*
X44625000Y-70143750I0J-243750D01*
G01*
G37*
%TD*%
%TO.C,R3*%
G36*
G01*
X44525000Y-72743750D02*
X44525000Y-73656250D01*
G75*
G02*
X44281250Y-73900000I-243750J0D01*
G01*
X43793750Y-73900000D01*
G75*
G02*
X43550000Y-73656250I0J243750D01*
G01*
X43550000Y-72743750D01*
G75*
G02*
X43793750Y-72500000I243750J0D01*
G01*
X44281250Y-72500000D01*
G75*
G02*
X44525000Y-72743750I0J-243750D01*
G01*
G37*
G36*
G01*
X42650000Y-72743750D02*
X42650000Y-73656250D01*
G75*
G02*
X42406250Y-73900000I-243750J0D01*
G01*
X41918750Y-73900000D01*
G75*
G02*
X41675000Y-73656250I0J243750D01*
G01*
X41675000Y-72743750D01*
G75*
G02*
X41918750Y-72500000I243750J0D01*
G01*
X42406250Y-72500000D01*
G75*
G02*
X42650000Y-72743750I0J-243750D01*
G01*
G37*
%TD*%
M02*
