M48
; DRILL file {KiCad 5.1.6-c6e7f7d~87~ubuntu16.04.1} date Thu Aug  6 14:46:26 2020
; FORMAT={-:-/ absolute / inch / decimal}
; #@! TF.CreationDate,2020-08-06T14:46:26+05:00
; #@! TF.GenerationSoftware,Kicad,Pcbnew,5.1.6-c6e7f7d~87~ubuntu16.04.1
; #@! TF.FileFunction,Plated,1,2,PTH
FMAT,2
INCH
T1C0.0394
T2C0.0472
%
G90
G05
T1
X1.9685Y-1.0685
X1.9685Y-1.1685
X1.9685Y-1.2685
X1.9685Y-1.3685
X1.9685Y-1.4685
X1.9685Y-1.5685
X1.9685Y-1.6685
X1.9685Y-1.7685
X1.9685Y-1.8685
X1.9685Y-1.9685
X1.4803Y-2.5827
X1.4803Y-2.6827
X1.4803Y-2.7827
X1.4803Y-2.8827
X1.3031Y-2.3425
X1.4031Y-2.3425
X1.4764Y-2.1063
X1.5764Y-2.1063
X1.6764Y-2.1063
X1.9213Y-2.5866
X1.9213Y-2.6866
X1.9213Y-2.7866
X1.9213Y-2.8866
X1.9213Y-2.9866
X1.9213Y-3.0866
X1.9213Y-3.1866
X1.9213Y-3.2866
X1.9213Y-3.3866
X1.9213Y-3.4866
X1.7638Y-2.3425
X1.8638Y-2.3425
X0.9567Y-3.3504
X1.0567Y-3.3504
X1.1567Y-3.3504
X1.4882Y-3.1772
X1.4882Y-3.2772
X1.4882Y-3.3772
X1.4882Y-3.4772
X1.0748Y-2.5758
X1.0748Y-2.6758
X1.0748Y-2.7758
X1.0748Y-2.8758
X1.0748Y-2.9758
X1.0748Y-3.0758
X1.0748Y-3.1758
T2
X1.1811Y-1.0827
X1.1811Y-1.1811
X1.1811Y-1.2795
X1.1811Y-1.378
X1.1811Y-1.4764
X1.1811Y-1.5748
X1.1811Y-1.6732
X1.1811Y-1.7717
X1.1811Y-1.8701
X1.1811Y-1.9685
T0
M30
