%TF.GenerationSoftware,KiCad,Pcbnew,5.1.6-c6e7f7d~87~ubuntu16.04.1*%
%TF.CreationDate,2020-08-06T14:46:29+05:00*%
%TF.ProjectId,adapter,61646170-7465-4722-9e6b-696361645f70,rev?*%
%TF.SameCoordinates,Original*%
%TF.FileFunction,Legend,Top*%
%TF.FilePolarity,Positive*%
%FSLAX46Y46*%
G04 Gerber Fmt 4.6, Leading zero omitted, Abs format (unit mm)*
G04 Created by KiCad (PCBNEW 5.1.6-c6e7f7d~87~ubuntu16.04.1) date 2020-08-06 14:46:29*
%MOMM*%
%LPD*%
G01*
G04 APERTURE LIST*
%ADD10C,0.200000*%
%ADD11C,0.120000*%
G04 APERTURE END LIST*
D10*
X49495238Y-59952380D02*
X49495238Y-58952380D01*
X50447619Y-59952380D02*
X49971428Y-59952380D01*
X49971428Y-58952380D01*
X51257142Y-59952380D02*
X50780952Y-59952380D01*
X50780952Y-58952380D01*
X51590476Y-58952380D02*
X51590476Y-59761904D01*
X51638095Y-59857142D01*
X51685714Y-59904761D01*
X51780952Y-59952380D01*
X51971428Y-59952380D01*
X52066666Y-59904761D01*
X52114285Y-59857142D01*
X52161904Y-59761904D01*
X52161904Y-58952380D01*
X52638095Y-59952380D02*
X52638095Y-58952380D01*
X52971428Y-59666666D01*
X53304761Y-58952380D01*
X53304761Y-59952380D01*
X52323809Y-32000000D02*
X52228571Y-31952380D01*
X52085714Y-31952380D01*
X51942857Y-32000000D01*
X51847619Y-32095238D01*
X51800000Y-32190476D01*
X51752380Y-32380952D01*
X51752380Y-32523809D01*
X51800000Y-32714285D01*
X51847619Y-32809523D01*
X51942857Y-32904761D01*
X52085714Y-32952380D01*
X52180952Y-32952380D01*
X52323809Y-32904761D01*
X52371428Y-32857142D01*
X52371428Y-32523809D01*
X52180952Y-32523809D01*
X52800000Y-32952380D02*
X52800000Y-31952380D01*
X53371428Y-32952380D01*
X53371428Y-31952380D01*
X53847619Y-32952380D02*
X53847619Y-31952380D01*
X54085714Y-31952380D01*
X54228571Y-32000000D01*
X54323809Y-32095238D01*
X54371428Y-32190476D01*
X54419047Y-32380952D01*
X54419047Y-32523809D01*
X54371428Y-32714285D01*
X54323809Y-32809523D01*
X54228571Y-32904761D01*
X54085714Y-32952380D01*
X53847619Y-32952380D01*
X55133333Y-33333333D02*
X55085714Y-33285714D01*
X54990476Y-33142857D01*
X54942857Y-33047619D01*
X54895238Y-32904761D01*
X54847619Y-32666666D01*
X54847619Y-32476190D01*
X54895238Y-32238095D01*
X54942857Y-32095238D01*
X54990476Y-32000000D01*
X55085714Y-31857142D01*
X55133333Y-31809523D01*
X55466666Y-32904761D02*
X55609523Y-32952380D01*
X55847619Y-32952380D01*
X55942857Y-32904761D01*
X55990476Y-32857142D01*
X56038095Y-32761904D01*
X56038095Y-32666666D01*
X55990476Y-32571428D01*
X55942857Y-32523809D01*
X55847619Y-32476190D01*
X55657142Y-32428571D01*
X55561904Y-32380952D01*
X55514285Y-32333333D01*
X55466666Y-32238095D01*
X55466666Y-32142857D01*
X55514285Y-32047619D01*
X55561904Y-32000000D01*
X55657142Y-31952380D01*
X55895238Y-31952380D01*
X56038095Y-32000000D01*
X56371428Y-31952380D02*
X56609523Y-32952380D01*
X56800000Y-32238095D01*
X56990476Y-32952380D01*
X57228571Y-31952380D01*
X58180952Y-32857142D02*
X58133333Y-32904761D01*
X57990476Y-32952380D01*
X57895238Y-32952380D01*
X57752380Y-32904761D01*
X57657142Y-32809523D01*
X57609523Y-32714285D01*
X57561904Y-32523809D01*
X57561904Y-32380952D01*
X57609523Y-32190476D01*
X57657142Y-32095238D01*
X57752380Y-32000000D01*
X57895238Y-31952380D01*
X57990476Y-31952380D01*
X58133333Y-32000000D01*
X58180952Y-32047619D01*
X58514285Y-33333333D02*
X58561904Y-33285714D01*
X58657142Y-33142857D01*
X58704761Y-33047619D01*
X58752380Y-32904761D01*
X58800000Y-32666666D01*
X58800000Y-32476190D01*
X58752380Y-32238095D01*
X58704761Y-32095238D01*
X58657142Y-32000000D01*
X58561904Y-31857142D01*
X58514285Y-31809523D01*
X51471428Y-88952380D02*
X51471428Y-87952380D01*
X52042857Y-88952380D02*
X51614285Y-88380952D01*
X52042857Y-87952380D02*
X51471428Y-88523809D01*
X52471428Y-88428571D02*
X52804761Y-88428571D01*
X52947619Y-88952380D02*
X52471428Y-88952380D01*
X52471428Y-87952380D01*
X52947619Y-87952380D01*
X53566666Y-88476190D02*
X53566666Y-88952380D01*
X53233333Y-87952380D02*
X53566666Y-88476190D01*
X53900000Y-87952380D01*
X53995238Y-89047619D02*
X54757142Y-89047619D01*
X55471428Y-88952380D02*
X54995238Y-88952380D01*
X54995238Y-87952380D01*
X51452380Y-86452380D02*
X51452380Y-85452380D01*
X52023809Y-86452380D02*
X51595238Y-85880952D01*
X52023809Y-85452380D02*
X51452380Y-86023809D01*
X52452380Y-85928571D02*
X52785714Y-85928571D01*
X52928571Y-86452380D02*
X52452380Y-86452380D01*
X52452380Y-85452380D01*
X52928571Y-85452380D01*
X53547619Y-85976190D02*
X53547619Y-86452380D01*
X53214285Y-85452380D02*
X53547619Y-85976190D01*
X53880952Y-85452380D01*
X53976190Y-86547619D02*
X54738095Y-86547619D01*
X54976190Y-86452380D02*
X54976190Y-85452380D01*
X54976190Y-85928571D02*
X55547619Y-85928571D01*
X55547619Y-86452380D02*
X55547619Y-85452380D01*
X37976190Y-59852380D02*
X37976190Y-58852380D01*
X38976190Y-58900000D02*
X38880952Y-58852380D01*
X38738095Y-58852380D01*
X38595238Y-58900000D01*
X38500000Y-58995238D01*
X38452380Y-59090476D01*
X38404761Y-59280952D01*
X38404761Y-59423809D01*
X38452380Y-59614285D01*
X38500000Y-59709523D01*
X38595238Y-59804761D01*
X38738095Y-59852380D01*
X38833333Y-59852380D01*
X38976190Y-59804761D01*
X39023809Y-59757142D01*
X39023809Y-59423809D01*
X38833333Y-59423809D01*
X39452380Y-59852380D02*
X39452380Y-58852380D01*
X40023809Y-59852380D01*
X40023809Y-58852380D01*
X26038095Y-87900000D02*
X25942857Y-87852380D01*
X25800000Y-87852380D01*
X25657142Y-87900000D01*
X25561904Y-87995238D01*
X25514285Y-88090476D01*
X25466666Y-88280952D01*
X25466666Y-88423809D01*
X25514285Y-88614285D01*
X25561904Y-88709523D01*
X25657142Y-88804761D01*
X25800000Y-88852380D01*
X25895238Y-88852380D01*
X26038095Y-88804761D01*
X26085714Y-88757142D01*
X26085714Y-88423809D01*
X25895238Y-88423809D01*
X26514285Y-88852380D02*
X26514285Y-87852380D01*
X27085714Y-88852380D01*
X27085714Y-87852380D01*
X27561904Y-88852380D02*
X27561904Y-87852380D01*
X27800000Y-87852380D01*
X27942857Y-87900000D01*
X28038095Y-87995238D01*
X28085714Y-88090476D01*
X28133333Y-88280952D01*
X28133333Y-88423809D01*
X28085714Y-88614285D01*
X28038095Y-88709523D01*
X27942857Y-88804761D01*
X27800000Y-88852380D01*
X27561904Y-88852380D01*
X45880952Y-53952380D02*
X45309523Y-53952380D01*
X45595238Y-53952380D02*
X45595238Y-52952380D01*
X45500000Y-53095238D01*
X45404761Y-53190476D01*
X45309523Y-53238095D01*
X46261904Y-53047619D02*
X46309523Y-53000000D01*
X46404761Y-52952380D01*
X46642857Y-52952380D01*
X46738095Y-53000000D01*
X46785714Y-53047619D01*
X46833333Y-53142857D01*
X46833333Y-53238095D01*
X46785714Y-53380952D01*
X46214285Y-53952380D01*
X46833333Y-53952380D01*
X47119047Y-52952380D02*
X47452380Y-53952380D01*
X47785714Y-52952380D01*
X51752380Y-84052380D02*
X51752380Y-83052380D01*
X51752380Y-83528571D02*
X52323809Y-83528571D01*
X52323809Y-84052380D02*
X52323809Y-83052380D01*
X52752380Y-84004761D02*
X52895238Y-84052380D01*
X53133333Y-84052380D01*
X53228571Y-84004761D01*
X53276190Y-83957142D01*
X53323809Y-83861904D01*
X53323809Y-83766666D01*
X53276190Y-83671428D01*
X53228571Y-83623809D01*
X53133333Y-83576190D01*
X52942857Y-83528571D01*
X52847619Y-83480952D01*
X52800000Y-83433333D01*
X52752380Y-83338095D01*
X52752380Y-83242857D01*
X52800000Y-83147619D01*
X52847619Y-83100000D01*
X52942857Y-83052380D01*
X53180952Y-83052380D01*
X53323809Y-83100000D01*
X53514285Y-84147619D02*
X54276190Y-84147619D01*
X54990476Y-84052380D02*
X54514285Y-84052380D01*
X54514285Y-83052380D01*
X51633333Y-81552380D02*
X51633333Y-80552380D01*
X51633333Y-81028571D02*
X52204761Y-81028571D01*
X52204761Y-81552380D02*
X52204761Y-80552380D01*
X52633333Y-81504761D02*
X52776190Y-81552380D01*
X53014285Y-81552380D01*
X53109523Y-81504761D01*
X53157142Y-81457142D01*
X53204761Y-81361904D01*
X53204761Y-81266666D01*
X53157142Y-81171428D01*
X53109523Y-81123809D01*
X53014285Y-81076190D01*
X52823809Y-81028571D01*
X52728571Y-80980952D01*
X52680952Y-80933333D01*
X52633333Y-80838095D01*
X52633333Y-80742857D01*
X52680952Y-80647619D01*
X52728571Y-80600000D01*
X52823809Y-80552380D01*
X53061904Y-80552380D01*
X53204761Y-80600000D01*
X53395238Y-81647619D02*
X54157142Y-81647619D01*
X54395238Y-81552380D02*
X54395238Y-80552380D01*
X54395238Y-81028571D02*
X54966666Y-81028571D01*
X54966666Y-81552380D02*
X54966666Y-80552380D01*
X52847619Y-66052380D02*
X52371428Y-66052380D01*
X52371428Y-65052380D01*
X53180952Y-66052380D02*
X53180952Y-65052380D01*
X53657142Y-66052380D02*
X53657142Y-65052380D01*
X54228571Y-66052380D01*
X54228571Y-65052380D01*
X52038095Y-68552380D02*
X52038095Y-67552380D01*
X53038095Y-67600000D02*
X52942857Y-67552380D01*
X52800000Y-67552380D01*
X52657142Y-67600000D01*
X52561904Y-67695238D01*
X52514285Y-67790476D01*
X52466666Y-67980952D01*
X52466666Y-68123809D01*
X52514285Y-68314285D01*
X52561904Y-68409523D01*
X52657142Y-68504761D01*
X52800000Y-68552380D01*
X52895238Y-68552380D01*
X53038095Y-68504761D01*
X53085714Y-68457142D01*
X53085714Y-68123809D01*
X52895238Y-68123809D01*
X53514285Y-68552380D02*
X53514285Y-67552380D01*
X54085714Y-68552380D01*
X54085714Y-67552380D01*
X54609523Y-67552380D02*
X54514285Y-67742857D01*
X51157142Y-71052380D02*
X51157142Y-70052380D01*
X52109523Y-71052380D02*
X51633333Y-71052380D01*
X51633333Y-70052380D01*
X52919047Y-71052380D02*
X52442857Y-71052380D01*
X52442857Y-70052380D01*
X53252380Y-70052380D02*
X53252380Y-70861904D01*
X53300000Y-70957142D01*
X53347619Y-71004761D01*
X53442857Y-71052380D01*
X53633333Y-71052380D01*
X53728571Y-71004761D01*
X53776190Y-70957142D01*
X53823809Y-70861904D01*
X53823809Y-70052380D01*
X54300000Y-71052380D02*
X54300000Y-70052380D01*
X54633333Y-70766666D01*
X54966666Y-70052380D01*
X54966666Y-71052380D01*
X55490476Y-70052380D02*
X55395238Y-70242857D01*
X51704761Y-73028571D02*
X51847619Y-73076190D01*
X51895238Y-73123809D01*
X51942857Y-73219047D01*
X51942857Y-73361904D01*
X51895238Y-73457142D01*
X51847619Y-73504761D01*
X51752380Y-73552380D01*
X51371428Y-73552380D01*
X51371428Y-72552380D01*
X51704761Y-72552380D01*
X51800000Y-72600000D01*
X51847619Y-72647619D01*
X51895238Y-72742857D01*
X51895238Y-72838095D01*
X51847619Y-72933333D01*
X51800000Y-72980952D01*
X51704761Y-73028571D01*
X51371428Y-73028571D01*
X52323809Y-73266666D02*
X52800000Y-73266666D01*
X52228571Y-73552380D02*
X52561904Y-72552380D01*
X52895238Y-73552380D01*
X53800000Y-73457142D02*
X53752380Y-73504761D01*
X53609523Y-73552380D01*
X53514285Y-73552380D01*
X53371428Y-73504761D01*
X53276190Y-73409523D01*
X53228571Y-73314285D01*
X53180952Y-73123809D01*
X53180952Y-72980952D01*
X53228571Y-72790476D01*
X53276190Y-72695238D01*
X53371428Y-72600000D01*
X53514285Y-72552380D01*
X53609523Y-72552380D01*
X53752380Y-72600000D01*
X53800000Y-72647619D01*
X54228571Y-73552380D02*
X54228571Y-72552380D01*
X54800000Y-73552380D02*
X54371428Y-72980952D01*
X54800000Y-72552380D02*
X54228571Y-73123809D01*
X55276190Y-72552380D02*
X55180952Y-72742857D01*
X51300000Y-75766666D02*
X51776190Y-75766666D01*
X51204761Y-76052380D02*
X51538095Y-75052380D01*
X51871428Y-76052380D01*
X52204761Y-76052380D02*
X52204761Y-75052380D01*
X52776190Y-76052380D01*
X52776190Y-75052380D01*
X53252380Y-76052380D02*
X53252380Y-75052380D01*
X53490476Y-75052380D01*
X53633333Y-75100000D01*
X53728571Y-75195238D01*
X53776190Y-75290476D01*
X53823809Y-75480952D01*
X53823809Y-75623809D01*
X53776190Y-75814285D01*
X53728571Y-75909523D01*
X53633333Y-76004761D01*
X53490476Y-76052380D01*
X53252380Y-76052380D01*
X54014285Y-76147619D02*
X54776190Y-76147619D01*
X54871428Y-75052380D02*
X55442857Y-75052380D01*
X55157142Y-76052380D02*
X55157142Y-75052380D01*
X55680952Y-75052380D02*
X56347619Y-76052380D01*
X56347619Y-75052380D02*
X55680952Y-76052380D01*
X51180952Y-78266666D02*
X51657142Y-78266666D01*
X51085714Y-78552380D02*
X51419047Y-77552380D01*
X51752380Y-78552380D01*
X52085714Y-78552380D02*
X52085714Y-77552380D01*
X52657142Y-78552380D01*
X52657142Y-77552380D01*
X53133333Y-78552380D02*
X53133333Y-77552380D01*
X53371428Y-77552380D01*
X53514285Y-77600000D01*
X53609523Y-77695238D01*
X53657142Y-77790476D01*
X53704761Y-77980952D01*
X53704761Y-78123809D01*
X53657142Y-78314285D01*
X53609523Y-78409523D01*
X53514285Y-78504761D01*
X53371428Y-78552380D01*
X53133333Y-78552380D01*
X53895238Y-78647619D02*
X54657142Y-78647619D01*
X55466666Y-78552380D02*
X55133333Y-78076190D01*
X54895238Y-78552380D02*
X54895238Y-77552380D01*
X55276190Y-77552380D01*
X55371428Y-77600000D01*
X55419047Y-77647619D01*
X55466666Y-77742857D01*
X55466666Y-77885714D01*
X55419047Y-77980952D01*
X55371428Y-78028571D01*
X55276190Y-78076190D01*
X54895238Y-78076190D01*
X55800000Y-77552380D02*
X56466666Y-78552380D01*
X56466666Y-77552380D02*
X55800000Y-78552380D01*
X22680952Y-66052380D02*
X22109523Y-66052380D01*
X22395238Y-66052380D02*
X22395238Y-65052380D01*
X22300000Y-65195238D01*
X22204761Y-65290476D01*
X22109523Y-65338095D01*
X23061904Y-65147619D02*
X23109523Y-65100000D01*
X23204761Y-65052380D01*
X23442857Y-65052380D01*
X23538095Y-65100000D01*
X23585714Y-65147619D01*
X23633333Y-65242857D01*
X23633333Y-65338095D01*
X23585714Y-65480952D01*
X23014285Y-66052380D01*
X23633333Y-66052380D01*
X23919047Y-65052380D02*
X24252380Y-66052380D01*
X24585714Y-65052380D01*
X22538095Y-80600000D02*
X22442857Y-80552380D01*
X22300000Y-80552380D01*
X22157142Y-80600000D01*
X22061904Y-80695238D01*
X22014285Y-80790476D01*
X21966666Y-80980952D01*
X21966666Y-81123809D01*
X22014285Y-81314285D01*
X22061904Y-81409523D01*
X22157142Y-81504761D01*
X22300000Y-81552380D01*
X22395238Y-81552380D01*
X22538095Y-81504761D01*
X22585714Y-81457142D01*
X22585714Y-81123809D01*
X22395238Y-81123809D01*
X23014285Y-81552380D02*
X23014285Y-80552380D01*
X23585714Y-81552380D01*
X23585714Y-80552380D01*
X24061904Y-81552380D02*
X24061904Y-80552380D01*
X24300000Y-80552380D01*
X24442857Y-80600000D01*
X24538095Y-80695238D01*
X24585714Y-80790476D01*
X24633333Y-80980952D01*
X24633333Y-81123809D01*
X24585714Y-81314285D01*
X24538095Y-81409523D01*
X24442857Y-81504761D01*
X24300000Y-81552380D01*
X24061904Y-81552380D01*
X19680952Y-78266666D02*
X20157142Y-78266666D01*
X19585714Y-78552380D02*
X19919047Y-77552380D01*
X20252380Y-78552380D01*
X20585714Y-78552380D02*
X20585714Y-77552380D01*
X21157142Y-78552380D01*
X21157142Y-77552380D01*
X21633333Y-78552380D02*
X21633333Y-77552380D01*
X21871428Y-77552380D01*
X22014285Y-77600000D01*
X22109523Y-77695238D01*
X22157142Y-77790476D01*
X22204761Y-77980952D01*
X22204761Y-78123809D01*
X22157142Y-78314285D01*
X22109523Y-78409523D01*
X22014285Y-78504761D01*
X21871428Y-78552380D01*
X21633333Y-78552380D01*
X22395238Y-78647619D02*
X23157142Y-78647619D01*
X23966666Y-78552380D02*
X23633333Y-78076190D01*
X23395238Y-78552380D02*
X23395238Y-77552380D01*
X23776190Y-77552380D01*
X23871428Y-77600000D01*
X23919047Y-77647619D01*
X23966666Y-77742857D01*
X23966666Y-77885714D01*
X23919047Y-77980952D01*
X23871428Y-78028571D01*
X23776190Y-78076190D01*
X23395238Y-78076190D01*
X24300000Y-77552380D02*
X24966666Y-78552380D01*
X24966666Y-77552380D02*
X24300000Y-78552380D01*
X19800000Y-75766666D02*
X20276190Y-75766666D01*
X19704761Y-76052380D02*
X20038095Y-75052380D01*
X20371428Y-76052380D01*
X20704761Y-76052380D02*
X20704761Y-75052380D01*
X21276190Y-76052380D01*
X21276190Y-75052380D01*
X21752380Y-76052380D02*
X21752380Y-75052380D01*
X21990476Y-75052380D01*
X22133333Y-75100000D01*
X22228571Y-75195238D01*
X22276190Y-75290476D01*
X22323809Y-75480952D01*
X22323809Y-75623809D01*
X22276190Y-75814285D01*
X22228571Y-75909523D01*
X22133333Y-76004761D01*
X21990476Y-76052380D01*
X21752380Y-76052380D01*
X22514285Y-76147619D02*
X23276190Y-76147619D01*
X23371428Y-75052380D02*
X23942857Y-75052380D01*
X23657142Y-76052380D02*
X23657142Y-75052380D01*
X24180952Y-75052380D02*
X24847619Y-76052380D01*
X24847619Y-75052380D02*
X24180952Y-76052380D01*
X21442857Y-73028571D02*
X21585714Y-73076190D01*
X21633333Y-73123809D01*
X21680952Y-73219047D01*
X21680952Y-73361904D01*
X21633333Y-73457142D01*
X21585714Y-73504761D01*
X21490476Y-73552380D01*
X21109523Y-73552380D01*
X21109523Y-72552380D01*
X21442857Y-72552380D01*
X21538095Y-72600000D01*
X21585714Y-72647619D01*
X21633333Y-72742857D01*
X21633333Y-72838095D01*
X21585714Y-72933333D01*
X21538095Y-72980952D01*
X21442857Y-73028571D01*
X21109523Y-73028571D01*
X22061904Y-73266666D02*
X22538095Y-73266666D01*
X21966666Y-73552380D02*
X22300000Y-72552380D01*
X22633333Y-73552380D01*
X23538095Y-73457142D02*
X23490476Y-73504761D01*
X23347619Y-73552380D01*
X23252380Y-73552380D01*
X23109523Y-73504761D01*
X23014285Y-73409523D01*
X22966666Y-73314285D01*
X22919047Y-73123809D01*
X22919047Y-72980952D01*
X22966666Y-72790476D01*
X23014285Y-72695238D01*
X23109523Y-72600000D01*
X23252380Y-72552380D01*
X23347619Y-72552380D01*
X23490476Y-72600000D01*
X23538095Y-72647619D01*
X23966666Y-73552380D02*
X23966666Y-72552380D01*
X24538095Y-73552380D02*
X24109523Y-72980952D01*
X24538095Y-72552380D02*
X23966666Y-73123809D01*
X20895238Y-71052380D02*
X20895238Y-70052380D01*
X21847619Y-71052380D02*
X21371428Y-71052380D01*
X21371428Y-70052380D01*
X22657142Y-71052380D02*
X22180952Y-71052380D01*
X22180952Y-70052380D01*
X22990476Y-70052380D02*
X22990476Y-70861904D01*
X23038095Y-70957142D01*
X23085714Y-71004761D01*
X23180952Y-71052380D01*
X23371428Y-71052380D01*
X23466666Y-71004761D01*
X23514285Y-70957142D01*
X23561904Y-70861904D01*
X23561904Y-70052380D01*
X24038095Y-71052380D02*
X24038095Y-70052380D01*
X24371428Y-70766666D01*
X24704761Y-70052380D01*
X24704761Y-71052380D01*
X22276190Y-68552380D02*
X22276190Y-67552380D01*
X23276190Y-67600000D02*
X23180952Y-67552380D01*
X23038095Y-67552380D01*
X22895238Y-67600000D01*
X22800000Y-67695238D01*
X22752380Y-67790476D01*
X22704761Y-67980952D01*
X22704761Y-68123809D01*
X22752380Y-68314285D01*
X22800000Y-68409523D01*
X22895238Y-68504761D01*
X23038095Y-68552380D01*
X23133333Y-68552380D01*
X23276190Y-68504761D01*
X23323809Y-68457142D01*
X23323809Y-68123809D01*
X23133333Y-68123809D01*
X23752380Y-68552380D02*
X23752380Y-67552380D01*
X24323809Y-68552380D01*
X24323809Y-67552380D01*
X53238095Y-27000000D02*
X53142857Y-26952380D01*
X53000000Y-26952380D01*
X52857142Y-27000000D01*
X52761904Y-27095238D01*
X52714285Y-27190476D01*
X52666666Y-27380952D01*
X52666666Y-27523809D01*
X52714285Y-27714285D01*
X52761904Y-27809523D01*
X52857142Y-27904761D01*
X53000000Y-27952380D01*
X53095238Y-27952380D01*
X53238095Y-27904761D01*
X53285714Y-27857142D01*
X53285714Y-27523809D01*
X53095238Y-27523809D01*
X53714285Y-27952380D02*
X53714285Y-26952380D01*
X54285714Y-27952380D01*
X54285714Y-26952380D01*
X54761904Y-27952380D02*
X54761904Y-26952380D01*
X55000000Y-26952380D01*
X55142857Y-27000000D01*
X55238095Y-27095238D01*
X55285714Y-27190476D01*
X55333333Y-27380952D01*
X55333333Y-27523809D01*
X55285714Y-27714285D01*
X55238095Y-27809523D01*
X55142857Y-27904761D01*
X55000000Y-27952380D01*
X54761904Y-27952380D01*
X53380952Y-50452380D02*
X52809523Y-50452380D01*
X53095238Y-50452380D02*
X53095238Y-49452380D01*
X53000000Y-49595238D01*
X52904761Y-49690476D01*
X52809523Y-49738095D01*
X53761904Y-49547619D02*
X53809523Y-49500000D01*
X53904761Y-49452380D01*
X54142857Y-49452380D01*
X54238095Y-49500000D01*
X54285714Y-49547619D01*
X54333333Y-49642857D01*
X54333333Y-49738095D01*
X54285714Y-49880952D01*
X53714285Y-50452380D01*
X54333333Y-50452380D01*
X54619047Y-49452380D02*
X54952380Y-50452380D01*
X55285714Y-49452380D01*
X52285714Y-47952380D02*
X52285714Y-46952380D01*
X52619047Y-47666666D01*
X52952380Y-46952380D01*
X52952380Y-47952380D01*
X53380952Y-47904761D02*
X53523809Y-47952380D01*
X53761904Y-47952380D01*
X53857142Y-47904761D01*
X53904761Y-47857142D01*
X53952380Y-47761904D01*
X53952380Y-47666666D01*
X53904761Y-47571428D01*
X53857142Y-47523809D01*
X53761904Y-47476190D01*
X53571428Y-47428571D01*
X53476190Y-47380952D01*
X53428571Y-47333333D01*
X53380952Y-47238095D01*
X53380952Y-47142857D01*
X53428571Y-47047619D01*
X53476190Y-47000000D01*
X53571428Y-46952380D01*
X53809523Y-46952380D01*
X53952380Y-47000000D01*
X54142857Y-48047619D02*
X54904761Y-48047619D01*
X55142857Y-47952380D02*
X55142857Y-46952380D01*
X55142857Y-47428571D02*
X55714285Y-47428571D01*
X55714285Y-47952380D02*
X55714285Y-46952380D01*
X52404761Y-45452380D02*
X52404761Y-44452380D01*
X52738095Y-45166666D01*
X53071428Y-44452380D01*
X53071428Y-45452380D01*
X53500000Y-45404761D02*
X53642857Y-45452380D01*
X53880952Y-45452380D01*
X53976190Y-45404761D01*
X54023809Y-45357142D01*
X54071428Y-45261904D01*
X54071428Y-45166666D01*
X54023809Y-45071428D01*
X53976190Y-45023809D01*
X53880952Y-44976190D01*
X53690476Y-44928571D01*
X53595238Y-44880952D01*
X53547619Y-44833333D01*
X53500000Y-44738095D01*
X53500000Y-44642857D01*
X53547619Y-44547619D01*
X53595238Y-44500000D01*
X53690476Y-44452380D01*
X53928571Y-44452380D01*
X54071428Y-44500000D01*
X54261904Y-45547619D02*
X55023809Y-45547619D01*
X55738095Y-45452380D02*
X55261904Y-45452380D01*
X55261904Y-44452380D01*
X52642857Y-35404761D02*
X52785714Y-35452380D01*
X53023809Y-35452380D01*
X53119047Y-35404761D01*
X53166666Y-35357142D01*
X53214285Y-35261904D01*
X53214285Y-35166666D01*
X53166666Y-35071428D01*
X53119047Y-35023809D01*
X53023809Y-34976190D01*
X52833333Y-34928571D01*
X52738095Y-34880952D01*
X52690476Y-34833333D01*
X52642857Y-34738095D01*
X52642857Y-34642857D01*
X52690476Y-34547619D01*
X52738095Y-34500000D01*
X52833333Y-34452380D01*
X53071428Y-34452380D01*
X53214285Y-34500000D01*
X53547619Y-34452380D02*
X53785714Y-35452380D01*
X53976190Y-34738095D01*
X54166666Y-35452380D01*
X54404761Y-34452380D01*
X55357142Y-35357142D02*
X55309523Y-35404761D01*
X55166666Y-35452380D01*
X55071428Y-35452380D01*
X54928571Y-35404761D01*
X54833333Y-35309523D01*
X54785714Y-35214285D01*
X54738095Y-35023809D01*
X54738095Y-34880952D01*
X54785714Y-34690476D01*
X54833333Y-34595238D01*
X54928571Y-34500000D01*
X55071428Y-34452380D01*
X55166666Y-34452380D01*
X55309523Y-34500000D01*
X55357142Y-34547619D01*
D11*
%TO.C,J1*%
X28190000Y-27350000D02*
X28190000Y-27650000D01*
X28190000Y-27650000D02*
X28640000Y-27650000D01*
X28640000Y-27650000D02*
X28640000Y-27350000D01*
X28640000Y-27350000D02*
X28190000Y-27350000D01*
X28190000Y-29850000D02*
X28190000Y-30150000D01*
X28190000Y-30150000D02*
X28640000Y-30150000D01*
X28640000Y-30150000D02*
X28640000Y-29850000D01*
X28640000Y-29850000D02*
X28190000Y-29850000D01*
X30300000Y-51534264D02*
X30000000Y-51110000D01*
X29700000Y-51534264D02*
X30300000Y-51534264D01*
X30000000Y-51110000D02*
X29700000Y-51534264D01*
X28640000Y-32350000D02*
X28190000Y-32350000D01*
X28640000Y-32650000D02*
X28640000Y-32350000D01*
X28190000Y-32650000D02*
X28640000Y-32650000D01*
X28190000Y-32350000D02*
X28190000Y-32650000D01*
X28640000Y-34850000D02*
X28190000Y-34850000D01*
X28640000Y-35150000D02*
X28640000Y-34850000D01*
X28190000Y-35150000D02*
X28640000Y-35150000D01*
X28190000Y-34850000D02*
X28190000Y-35150000D01*
X28640000Y-37350000D02*
X28190000Y-37350000D01*
X28640000Y-37650000D02*
X28640000Y-37350000D01*
X28190000Y-37650000D02*
X28640000Y-37650000D01*
X28190000Y-37350000D02*
X28190000Y-37650000D01*
X28640000Y-39850000D02*
X28190000Y-39850000D01*
X28640000Y-40150000D02*
X28640000Y-39850000D01*
X28190000Y-40150000D02*
X28640000Y-40150000D01*
X28190000Y-39850000D02*
X28190000Y-40150000D01*
X28640000Y-42350000D02*
X28190000Y-42350000D01*
X28640000Y-42650000D02*
X28640000Y-42350000D01*
X28190000Y-42650000D02*
X28640000Y-42650000D01*
X28190000Y-42350000D02*
X28190000Y-42650000D01*
X28640000Y-44850000D02*
X28190000Y-44850000D01*
X28640000Y-45150000D02*
X28640000Y-44850000D01*
X28190000Y-45150000D02*
X28640000Y-45150000D01*
X28190000Y-44850000D02*
X28190000Y-45150000D01*
X28640000Y-47350000D02*
X28190000Y-47350000D01*
X28640000Y-47650000D02*
X28640000Y-47350000D01*
X28190000Y-47650000D02*
X28640000Y-47650000D01*
X28190000Y-47350000D02*
X28190000Y-47650000D01*
X28640000Y-49850000D02*
X28190000Y-49850000D01*
X28640000Y-50150000D02*
X28640000Y-49850000D01*
X28190000Y-50150000D02*
X28640000Y-50150000D01*
X28190000Y-49850000D02*
X28190000Y-50150000D01*
X19510000Y-51830000D02*
X28190000Y-51830000D01*
X19510000Y-26250000D02*
X19510000Y-46160000D01*
X28190000Y-26250000D02*
X19510000Y-26250000D01*
X28190000Y-46160000D02*
X28190000Y-26250000D01*
%TO.C,J2*%
X51330000Y-51330000D02*
X50000000Y-51330000D01*
X51330000Y-50000000D02*
X51330000Y-51330000D01*
X51330000Y-48730000D02*
X48670000Y-48730000D01*
X48670000Y-48730000D02*
X48670000Y-25810000D01*
X51330000Y-48730000D02*
X51330000Y-25810000D01*
X51330000Y-25810000D02*
X48670000Y-25810000D01*
%TO.C,J3*%
X25970000Y-81995001D02*
X28630000Y-81995001D01*
X25970000Y-66695001D02*
X25970000Y-81995001D01*
X28630000Y-66695001D02*
X28630000Y-81995001D01*
X25970000Y-66695001D02*
X28630000Y-66695001D01*
X25970000Y-65425001D02*
X25970000Y-64095001D01*
X25970000Y-64095001D02*
X27300000Y-64095001D01*
%TO.C,J6*%
X22970000Y-86430000D02*
X22970000Y-85100000D01*
X24300000Y-86430000D02*
X22970000Y-86430000D01*
X25570000Y-86430000D02*
X25570000Y-83770000D01*
X25570000Y-83770000D02*
X30710000Y-83770000D01*
X25570000Y-86430000D02*
X30710000Y-86430000D01*
X30710000Y-86430000D02*
X30710000Y-83770000D01*
%TO.C,J7*%
X43910000Y-54830000D02*
X43910000Y-52170000D01*
X38770000Y-54830000D02*
X43910000Y-54830000D01*
X38770000Y-52170000D02*
X43910000Y-52170000D01*
X38770000Y-54830000D02*
X38770000Y-52170000D01*
X37500000Y-54830000D02*
X36170000Y-54830000D01*
X36170000Y-54830000D02*
X36170000Y-53500000D01*
%TO.C,J8*%
X31770000Y-60830000D02*
X31770000Y-59500000D01*
X33100000Y-60830000D02*
X31770000Y-60830000D01*
X34370000Y-60830000D02*
X34370000Y-58170000D01*
X34370000Y-58170000D02*
X36970000Y-58170000D01*
X34370000Y-60830000D02*
X36970000Y-60830000D01*
X36970000Y-60830000D02*
X36970000Y-58170000D01*
%TO.C,R1*%
X43458578Y-68810000D02*
X42941422Y-68810000D01*
X43458578Y-67390000D02*
X42941422Y-67390000D01*
%TO.C,R2*%
X43458578Y-69890000D02*
X42941422Y-69890000D01*
X43458578Y-71310000D02*
X42941422Y-71310000D01*
%TO.C,R3*%
X43358578Y-73910000D02*
X42841422Y-73910000D01*
X43358578Y-72490000D02*
X42841422Y-72490000D01*
%TO.C,J9*%
X36470000Y-89650000D02*
X39130000Y-89650000D01*
X36470000Y-81970000D02*
X36470000Y-89650000D01*
X39130000Y-81970000D02*
X39130000Y-89650000D01*
X36470000Y-81970000D02*
X39130000Y-81970000D01*
X36470000Y-80700000D02*
X36470000Y-79370000D01*
X36470000Y-79370000D02*
X37800000Y-79370000D01*
%TO.C,J4*%
X36270000Y-64270000D02*
X37600000Y-64270000D01*
X36270000Y-65600000D02*
X36270000Y-64270000D01*
X36270000Y-66870000D02*
X38930000Y-66870000D01*
X38930000Y-66870000D02*
X38930000Y-74550000D01*
X36270000Y-66870000D02*
X36270000Y-74550000D01*
X36270000Y-74550000D02*
X38930000Y-74550000D01*
%TO.C,J5*%
X47470000Y-89890000D02*
X50130000Y-89890000D01*
X47470000Y-66970000D02*
X47470000Y-89890000D01*
X50130000Y-66970000D02*
X50130000Y-89890000D01*
X47470000Y-66970000D02*
X50130000Y-66970000D01*
X47470000Y-65700000D02*
X47470000Y-64370000D01*
X47470000Y-64370000D02*
X48800000Y-64370000D01*
%TO.C,J10*%
X48670000Y-60830000D02*
X48670000Y-58170000D01*
X46070000Y-60830000D02*
X48670000Y-60830000D01*
X46070000Y-58170000D02*
X48670000Y-58170000D01*
X46070000Y-60830000D02*
X46070000Y-58170000D01*
X44800000Y-60830000D02*
X43470000Y-60830000D01*
X43470000Y-60830000D02*
X43470000Y-59500000D01*
%TD*%
M02*
